<svg xmlns="http://www.w3.org/2000/svg" width="58" height="59" viewBox="0 0 58 59">
  <g id="Group_3529" data-name="Group 3529" transform="translate(-1673.5 -311)">
    <ellipse id="Ellipse_203" data-name="Ellipse 203" cx="29" cy="29.5" rx="29" ry="29.5" transform="translate(1673.5 311)" fill="#f8b361"/>
    <path id="Icon_metro-cross" data-name="Icon metro-cross" d="M28.116,22.64h0L20.3,14.818,28.116,7h0a.808.808,0,0,0,0-1.139L24.421,2.163a.808.808,0,0,0-1.139,0h0L15.461,9.984,7.64,2.163h0a.808.808,0,0,0-1.139,0L2.806,5.858A.808.808,0,0,0,2.806,7h0l7.821,7.821L2.806,22.639h0a.807.807,0,0,0,0,1.139L6.5,27.473a.808.808,0,0,0,1.139,0h0l7.821-7.821,7.821,7.821h0a.807.807,0,0,0,1.139,0l3.695-3.695a.807.807,0,0,0,0-1.139Z" transform="translate(1686.79 325.431)" fill="#fff"/>
  </g>
</svg>
