<svg xmlns="http://www.w3.org/2000/svg" width="413.68" height="578.501" viewBox="0 0 413.68 578.501">
  <g id="Group_3528" data-name="Group 3528" transform="translate(-2872.023 -268.016)">
    <ellipse id="Ellipse_78" data-name="Ellipse 78" cx="139.044" cy="19.461" rx="139.044" ry="19.461" transform="translate(2986.614 807.595)" opacity="0.16"/>
    <path id="Path_4508" data-name="Path 4508" d="M3190.9,1086.041c-1.393,5.389-21.75,3.538-25.026-.524-5.518-66.98-17.832-88,40.556-151.786,11.695,9.081,23.468,17.938,34.641,28.086C3170.366,1005.172,3200.549,1048.72,3190.9,1086.041Z" transform="translate(-126.066 -290.534)" fill="#ffc19f"/>
    <path id="Path_4509" data-name="Path 4509" d="M3454.223,975.4c3.54-.686,9.41,18.911,6.149,20.53-28.281,14.043-53.312,26.8-69.976,35.223a17.647,17.647,0,1,1-13.347-32.562C3400.813,990.9,3442.161,977.743,3454.223,975.4Z" transform="translate(-215.072 -308.714)" fill="#ffc19f"/>
    <path id="Path_4510" data-name="Path 4510" d="M3190.134,878.4s-26.529,61.677-34.608,83.5c12.8,9.2,30.762,16.7,54.812,19,2.692-4.018,19.834-42.8,34.438-43.156,11.044-.273,21.771,29.412,26.5,37.322,19.564-6.677,34.979-14.063,51.038-32.813-5.049-12.26-13.3-55.634-20.081-69.3Z" transform="translate(-123.728 -264.008)" fill="#9e330d"/>
    <path id="Path_4511" data-name="Path 4511" d="M3324.277,896.861c-13.779,11.4-46.286,27.745-66.968,31.117-27.383,4.464-58.225-5.476-68.522-10.652,6.4-19.619,15.278-39.608,15.278-39.608l113.448-2.353C3320.5,881.386,3321.871,889.917,3324.277,896.861Z" transform="translate(-138.244 -265.062)" opacity="0.23"/>
    <g id="Group_838" data-name="Group 838" transform="translate(2985.972 769.543)">
      <path id="Path_4512" data-name="Path 4512" d="M3194.861,1192.531c-.045.914-30.991,2.244-31.235,1.162-2.033-9.026-5.067-29.75-5.954-33.747l37.566-2.027C3195.01,1167.517,3195.145,1186.686,3194.861,1192.531Z" transform="translate(-3110.636 -1157.919)" fill="#9dcecc"/>
      <g id="Group_837" data-name="Group 837" transform="translate(0 18.959)">
        <path id="Path_4513" data-name="Path 4513" d="M3112.92,1199.811c.452-2.021,1.464-4.6,2.231-6.956.57-1.746,17.369-2.252,17.608,1.87a24.832,24.832,0,0,1,.014,2.838c2.873-.1,5.986-.284,9.271-.557a159.119,159.119,0,0,0,17.987-2.4c.595,6.508.549,17.826,1.151,25.064,0,0-74.238,17.5-86.544,7.187C3071.17,1223.953,3089.34,1209.479,3112.92,1199.811Z" transform="translate(-3074.212 -1191.56)" fill="#9e330d"/>
        <path id="Path_4514" data-name="Path 4514" d="M3160.909,1233.382c.077,1.613.163,3.166.277,4.543,0,0-74.238,17.5-86.544,7.187-.489-.41-.54-1.053-.215-1.877C3095.3,1246.76,3142.436,1237.382,3160.909,1233.382Z" transform="translate(-3074.217 -1209.812)" fill="#19555b"/>
        <path id="Path_4515" data-name="Path 4515" d="M3134.288,1212.2a1.049,1.049,0,1,0,1.614-1.339,12.7,12.7,0,0,0-12.555-4.351,1.05,1.05,0,0,0,.547,2.027C3127.433,1207.568,3131.707,1209.091,3134.288,1212.2Zm-5.175,2.805a1.049,1.049,0,1,0,1.456-1.511,14.7,14.7,0,0,0-12.646-4.11,1.049,1.049,0,0,0-.868,1.2,1.026,1.026,0,0,0,1.2.867A12.456,12.456,0,0,1,3129.113,1215.007Zm-17.937-1.171a1.033,1.033,0,0,0,1.251.8c3.455-.812,8.126.685,11.315,3.521a1.041,1.041,0,0,0,.784.262,1.049,1.049,0,0,0,.611-1.83c-3.661-3.255-9.063-4.91-13.161-4A1.051,1.051,0,0,0,3111.176,1213.836Z" transform="translate(-3090.333 -1197.935)" fill="#d3dae5"/>
      </g>
    </g>
    <g id="Group_840" data-name="Group 840" transform="translate(3204.673 654.933)">
      <path id="Path_4516" data-name="Path 4516" d="M3494.771,966.947c.87-.281,13.085,28.183,12.16,28.794-7.719,5.1-26.021,15.284-29.444,17.532l-15.214-34.408C3471.328,975.677,3489.2,968.754,3494.771,966.947Z" transform="translate(-3462.273 -959.963)" fill="#b2daf9"/>
      <g id="Group_839" data-name="Group 839" transform="translate(20.147 0)">
        <path id="Path_4517" data-name="Path 4517" d="M3519.588,1006.726c-2.05.293-4.823.261-7.3.378-1.834.087-8.263-15.442-4.493-17.127a24.873,24.873,0,0,1,2.648-1.019c-1.117-2.649-2.389-5.5-3.807-8.471a158.807,158.807,0,0,0-8.62-15.969c5.875-2.864,16.474-6.834,23.029-9.962,0,0,42.682,63.211,37.4,78.375C3556.963,1037.2,3536.988,1025.347,3519.588,1006.726Z" transform="translate(-3498.021 -954.556)" fill="#9e330d"/>
        <path id="Path_4518" data-name="Path 4518" d="M3531.521,956.425c1.479-.643,2.9-1.274,4.15-1.869,0,0,42.682,63.211,37.4,78.375-.209.6-.792.878-1.679.867C3567.29,1013.033,3541.809,972.282,3531.521,956.425Z" transform="translate(-3512.641 -954.556)" fill="#19555b"/>
        <path id="Path_4519" data-name="Path 4519" d="M3540.252,1033.422a1.049,1.049,0,1,0-1.824-1.035,12.7,12.7,0,0,0,.383,13.282,1.05,1.05,0,0,0,1.7-1.23C3538.351,1041.474,3538.259,1036.938,3540.252,1033.422Zm4.458,3.845a1.049,1.049,0,1,0-1.928-.826,14.693,14.693,0,0,0,.64,13.282,1.048,1.048,0,0,0,1.432.384,1.025,1.025,0,0,0,.384-1.433A12.456,12.456,0,0,1,3544.71,1037.266Zm5.265,17.187a1.033,1.033,0,0,0,.3-1.453c-1.985-2.942-2.241-7.841-.719-11.827a1.05,1.05,0,1,0-1.961-.75c-1.747,4.577-1.379,10.216.924,13.725A1.05,1.05,0,0,0,3549.974,1054.453Z" transform="translate(-3514.921 -988.291)" fill="#d3dae5"/>
      </g>
    </g>
    <path id="Path_4520" data-name="Path 4520" d="M3309.058,790.1c-8.856,12.042-35.714,37.331-72.36,44.715-32.215,6.491-58.7-6.859-69.086-8.711.859-8.779,3.62-5.974,2.624-11.4-1.9-2.24-.587-4.978,1.448-6.335,4.043-2.7-1.729-4.948-1.176-10.589,2.986-30.5-16.285-69.413-17.422-86.855,16.908-5.749,79.138-24.827,95.582-30.244C3261.513,696.886,3304.3,773.473,3309.058,790.1Z" transform="translate(-122.663 -180.096)" fill="#1892ef"/>
    <path id="Path_4521" data-name="Path 4521" d="M3418.244,591.131c4.732,5.582,9.567,10.877,14.811,15.981-33.036,29.814-64.754,58.289-105.433,76.956-4.308-13.1-9.46-25.388-14.335-38.292C3351.63,633.217,3384.69,613.461,3418.244,591.131Z" transform="translate(-192.578 -141.015)" fill="#ffc19f"/>
    <path id="Path_4522" data-name="Path 4522" d="M3332.162,656.019c10.091,9.542,12.063,40.263,8.888,44.987,0,0-39.222,34.465-73.743-19.043C3288.274,673.285,3332.162,656.019,3332.162,656.019Z" transform="translate(-172.512 -169.334)" fill="#1892ef"/>
    <path id="Path_4523" data-name="Path 4523" d="M2956.834,749.343c-.754,7.278-1.755,14.379-3.2,21.552,44.1,5.96,86.354,11.557,130.47,4-3.841-13.248-6.524-26.3-9.785-39.7C3035.577,746.477,2997.137,748.833,2956.834,749.343Z" transform="translate(-35.616 -203.889)" fill="#ffc19f"/>
    <path id="Path_4524" data-name="Path 4524" d="M3092.352,735.962c-2.943,13.573,12.771,40.044,18.059,42.151,0,0,51.83,6.307,50.119-57.348C3138.325,725.439,3092.352,735.962,3092.352,735.962Z" transform="translate(-95.999 -197.591)" fill="#1892ef"/>
    <g id="Group_841" data-name="Group 841" transform="translate(2872.023 535.86)">
      <path id="Path_4525" data-name="Path 4525" d="M2881.462,781.449c7.195-.208,17.91-1.7,38.4-1.649,2.34.006,6.256,9.412,3.9,9.066C2910.105,786.855,2883.517,791.47,2881.462,781.449Z" transform="translate(-2876.143 -759.214)" fill="#e0956c"/>
      <path id="Path_4526" data-name="Path 4526" d="M2872.758,764.553c7.194-.207,24.319-4.161,43.3,1.233,2.341.666,5.09,10.064,2.738,9.717C2905.128,773.492,2874.639,772.773,2872.758,764.553Z" transform="translate(-2872.344 -751.866)" fill="#e0956c"/>
      <path id="Path_4527" data-name="Path 4527" d="M2872.023,743.28c7.2-.207,46.593,4.738,65.573,10.133,2.34.665-.325,17.692-3.819,19.38-5.166,7.6-20.1,5.285-36.405,15.054-2.817,1.687-3.167-3.392-2.661-4.831,1.3-3.714,2.833-4.044,8.845-11.662,3.664-4.642.118-10.316-3.19-12.469C2884.822,751.978,2873.028,750.114,2872.023,743.28Z" transform="translate(-2872.023 -743.274)" fill="#ffc19f"/>
    </g>
    <path id="Path_4528" data-name="Path 4528" d="M3196.707,719.941c2.615,7.722,16.949,9.848,32.015,4.746s25.158-15.5,22.544-23.221l-3.547-10.475c-16.132,5.068-37.927,11.837-54.982,17.225Z" transform="translate(-139.967 -184.597)" fill="#9e330d"/>
    <path id="Path_4529" data-name="Path 4529" d="M3234.93,660.755l9.174,27.09c1.973,5.825-5.639,13.667-17,17.517s-22.177,2.244-24.148-3.581l-9.174-27.09Z" transform="translate(-140.422 -171.401)" fill="#e0956c"/>
    <g id="Group_845" data-name="Group 845" transform="translate(2915.706 278.059)">
      <path id="Path_4530" data-name="Path 4530" d="M3359.917,479.97c2.073,24.175-14.534,45.69-31.483,49.251s-26.48-13.508-31.177-35.845,5.234-43.389,22.195-46.893C3342.634,441.7,3357.966,457.249,3359.917,479.97Z" transform="translate(-3100.782 -355.568)" fill="#ffc19f"/>
      <path id="Path_4531" data-name="Path 4531" d="M3353.246,515.872c2.055,9.794-3.279,19.206-11.919,21.022s-17.305-4.657-19.36-14.452,3.278-19.2,11.912-21.019S3351.186,506.079,3353.246,515.872Z" transform="translate(-3111.881 -379.791)" fill="#e0956c"/>
      <path id="Path_4532" data-name="Path 4532" d="M2978.066,617.413c13.811,19.949,40.322,25.94,55.651,17.88s11.794-27.287,1.175-47.491-31.69-30.1-47-21.984C2966.982,576.907,2965.085,598.664,2978.066,617.413Z" transform="translate(-2958.417 -406.79)" fill="#ffc19f"/>
      <path id="Path_4533" data-name="Path 4533" d="M3022.208,635.22c4.658,8.858,14.767,12.708,22.579,8.6s10.368-14.62,5.71-23.478-14.767-12.708-22.579-8.6S3017.551,626.363,3022.208,635.22Z" transform="translate(-2980.236 -427.353)" fill="#e0956c"/>
      <path id="Path_4534" data-name="Path 4534" d="M2952.2,405.863c17.855,74.885,87.481,103.718,148.064,81.907s91.6-92.216,60.224-160.1c-17.421-37.692-69.223-53.546-126.967-32.335C2973.081,317.534,2939.5,352.605,2952.2,405.863Z" transform="translate(-2949.534 -285.836)" fill="#752912"/>
      <path id="Path_4535" data-name="Path 4535" d="M2977.751,400.053c-1.11,14.122,41.093,119.943,58.847,130.418,18.833,11.114,77.626,7.076,88.835,3.041,12.007-4.323,59.359-36.729,63.246-57.793,4.594-24.927-24.373-122.154-32.29-132.118-26.751-33.652-60.548-22.943-104.147-7.246C3011.456,351.039,2980.627,363.415,2977.751,400.053Z" transform="translate(-2961.839 -301.379)" fill="#ffc19f"/>
      <path id="Path_4536" data-name="Path 4536" d="M3072.755,632.694c1.243,4.455,8.442,6.34,16.079,4.208s12.82-7.468,11.578-11.923-8.444-6.339-16.078-4.208S3071.513,628.239,3072.755,632.694Z" transform="translate(-3003.231 -431.627)" fill="#ff9797"/>
      <path id="Path_4537" data-name="Path 4537" d="M3286.2,560.187c1.852,4.239,9.243,5.1,16.509,1.923s11.653-9.184,9.8-13.422-9.244-5.1-16.508-1.924S3284.349,555.95,3286.2,560.187Z" transform="translate(-3096.279 -398.876)" fill="#ff9797"/>
      <path id="Path_4538" data-name="Path 4538" d="M3180.694,572.028a1.065,1.065,0,0,0,.686-1.192,7.151,7.151,0,0,1,4.941-8.245c3.7-1.332,7.336-.052,9.051,3.183a1.064,1.064,0,0,0,1.879-1,9.719,9.719,0,0,0-17.964,6.442,1.064,1.064,0,0,0,1.238.855Z" transform="translate(-3049.732 -405.468)" fill="#c67f75"/>
      <path id="Path_4539" data-name="Path 4539" d="M3029.329,494.4a3.006,3.006,0,0,0,1.556-1.484c4.232-8.861,16.36-15.909,28.244-16.379a3.012,3.012,0,1,0-.24-6.02c-14.175.571-28.245,8.9-33.44,19.811a3.012,3.012,0,0,0,3.881,4.072Z" transform="translate(-2982.537 -366.436)" fill="#8c2f22"/>
      <path id="Path_4540" data-name="Path 4540" d="M3246.427,420.228a3.012,3.012,0,0,0,.275-5.619c-11.07-4.857-27.158-1.963-38.257,6.866a3.013,3.013,0,1,0,3.754,4.714c9.3-7.414,23.088-10.024,32.082-6.067A3,3,0,0,0,3246.427,420.228Z" transform="translate(-3062.034 -341.014)" fill="#8c2f22"/>
      <g id="Group_842" data-name="Group 842" transform="translate(152.627 100.466)">
        <path id="Path_4541" data-name="Path 4541" d="M3226.647,516.056s33.816-.588,40-20.6c7.535-24.38-19.39-32.5-32.43-24.718C3222.151,477.945,3214.152,493.227,3226.647,516.056Z" transform="translate(-3220.354 -465.756)" fill="#f9feff"/>
        <path id="Path_4542" data-name="Path 4542" d="M3261.061,468.038c-8.061-5.2-16.422-4.861-24.389-1.244-8.144,3.7-14.656,12.566-14.98,19.551,2.18-8.482,9.133-13.671,13.646-16.362,7.18-4.3,18.517-4.257,25.458,1.2,6.173,4.854,8.993,14.314,6.226,23.262C3271.51,487.478,3269.463,473.454,3261.061,468.038Z" transform="translate(-3220.937 -464.102)" fill="#773220"/>
        <path id="Path_4543" data-name="Path 4543" d="M3231.5,502.165a14.48,14.48,0,1,0,15.217-13.7A14.479,14.479,0,0,0,3231.5,502.165Z" transform="translate(-3225.211 -474.724)" fill="#63190d"/>
        <path id="Path_4544" data-name="Path 4544" d="M3232.174,505.307a4.018,4.018,0,1,0,4.222-3.8A4.019,4.019,0,0,0,3232.174,505.307Z" transform="translate(-3225.51 -480.423)" fill="#fefffe"/>
      </g>
      <g id="Group_843" data-name="Group 843" transform="translate(56.952 133.806)">
        <path id="Path_4545" data-name="Path 4545" d="M3107.924,556.8s-27.217,20.077-44.284,7.944c-20.8-14.785-4.345-37.594,10.741-39.334C3088.341,523.8,3103.978,531.08,3107.924,556.8Z" transform="translate(-3052.003 -524.107)" fill="#f9feff"/>
        <path id="Path_4546" data-name="Path 4546" d="M3051.471,539.685c3.246-9.026,10.091-13.839,18.615-15.807,8.715-2.011,19.277,1.078,23.778,6.429-6.885-5.413-15.561-5.309-20.779-4.706-8.313.95-17.3,7.87-19.495,16.418-1.954,7.605,1.554,16.833,9.187,22.26C3054.984,561.473,3048.089,549.091,3051.471,539.685Z" transform="translate(-3050.589 -523.259)" fill="#773220"/>
        <path id="Path_4547" data-name="Path 4547" d="M3081.209,553.624a14.48,14.48,0,1,0,15.217-13.7A14.479,14.479,0,0,0,3081.209,553.624Z" transform="translate(-3063.944 -530.522)" fill="#63190d"/>
        <path id="Path_4548" data-name="Path 4548" d="M3081.881,556.766a4.017,4.017,0,1,0,4.221-3.8A4.015,4.015,0,0,0,3081.881,556.766Z" transform="translate(-3064.243 -536.221)" fill="#fefffe"/>
      </g>
      <g id="Group_844" data-name="Group 844" transform="translate(107.809 162.085)">
        <path id="Path_4549" data-name="Path 4549" d="M3210.751,576.737c7.317,12.7-7.961,38.263-27.685,43.484-19.614,5.192-37.907-6.85-42.168-20.8-1.153-8.021,12.141-9.947,31.023-16.474C3190.782,576.423,3206.3,569.012,3210.751,576.737Z" transform="translate(-3140.829 -573.438)" fill="#701608"/>
        <path id="Path_4550" data-name="Path 4550" d="M3198.34,630.851c-8.883,3.008-14.983,7.429-18.018,13.006,6.125,1.679,13.958,2.591,21.365.052,8.338-2.858,15.229-6.667,18.808-14C3216.986,626.685,3206.286,628.161,3198.34,630.851Z" transform="translate(-3158.065 -597.282)" fill="#dd6b5b"/>
        <path id="Path_4551" data-name="Path 4551" d="M3204.691,574.339c-7.2.264-16.934,5.046-26.334,8.3-10.607,3.666-18.845,5.007-24.985,8.727,4.458,4.815,14.6,5.44,26.855,1.362C3194.377,588.014,3204.863,581.072,3204.691,574.339Z" transform="translate(-3146.303 -573.831)" fill="#fff"/>
      </g>
    </g>
    <g id="Group_846" data-name="Group 846" transform="translate(3212.315 414.43)">
      <path id="Path_4552" data-name="Path 4552" d="M3550.579,565.692c-6.058,3.891-15.745,8.708-32.631,20.319-1.928,1.327.151,11.3,1.9,9.687C3529.988,586.324,3554.54,575.126,3550.579,565.692Z" transform="translate(-3493.876 -544.343)" fill="#e0956c"/>
      <path id="Path_4553" data-name="Path 4553" d="M3546.6,546.8c-6.055,3.89-22.422,10.293-35.042,25.459-1.557,1.87,1.479,11.18,3.226,9.566C3524.923,572.45,3549.684,554.643,3546.6,546.8Z" transform="translate(-3491.235 -536.097)" fill="#e0956c"/>
      <path id="Path_4554" data-name="Path 4554" d="M3524.377,527.811c-6.056,3.89-35.784,30.212-48.4,45.38-1.557,1.871,10.255,14.421,14.091,13.84,8.554,3.357,19.574-6.983,38.549-8.125,3.277-.2.7-4.587-.531-5.491-3.172-2.33-4.622-1.739-13.884-4.633-5.645-1.763-5.922-8.448-4.407-12.094C3518.724,542.215,3527.406,534.018,3524.377,527.811Z" transform="translate(-3475.833 -527.811)" fill="#ffc19f"/>
    </g>
    <path id="Path_4555" data-name="Path 4555" d="M2932.141,440.144c11.949-8.858,13.125-19.277,7.256-40.459-6.293,4.227-11.954,5.1-19.757,3.025,26.721-16.335,7.4-56.545,41.968-92.315,38.688-40.028,101.646-47.8,135.331-39.276,27.409,6.939,45.927,33.405,56.1,57.99,11.4,21.567,18.867,26.635,33,27.831-12.242,8.046-21.243,7.257-27.2,4.272,5.9,13.985,14.327,16.3,24.07,20.2-20.627,7.762-35.538-5.773-43.9-19.061-9.292-14.757-10.445-34.107-15.09-39.566-2.687-3.158-23.164-19.805-29-18.105-12.721,3.706-13.25,50.191-58.107,63.867,15.071-15.1,20.73-31.43,24.7-53.388a73.3,73.3,0,0,0-8.149,10.763c-26.771,42.912-58.09,61.588-90.4,69.115,8.523,31.294,32.418,47.095-3.653,71.617,2.254-5.444,1.015-22.532-5.436-31.977C2952.378,440.652,2944.194,441.716,2932.141,440.144Z" transform="translate(-20.781 0)" fill="#752912"/>
    <g id="Group_847" data-name="Group 847" transform="translate(3046.415 582.47)" opacity="0.4">
      <path id="Path_4556" data-name="Path 4556" d="M3244.906,888.592c3.218-.688,6.554-1.47,9.99-2.377,36.146-9.414,53-22.775,63.585-33.724-1.4-3.214-3.183-7.018-5.258-11.246-9.433,10.411-24.4,24.215-61.236,33.815-34.307,8.888-56.344,6.325-68.315,3.746-1.777,1.437-2.814,3.895-1.052,5.97.624,3.4-.225,3.572-1.157,5.379C3193.336,892.7,3214.035,895.19,3244.906,888.592Z" transform="translate(-3181.462 -832.641)" fill="#fff"/>
      <path id="Path_4557" data-name="Path 4557" d="M3242.418,864.961q4.753-1.014,9.833-2.331c33.5-8.731,50.029-20.886,60.5-31.246-.868-1.733-1.807-3.567-2.75-5.4-9.921,10.12-25.706,22.332-59.212,31.063-32.172,8.459-53.966,6.794-66.793,4.385-.177,2.676,1.037,4.59,1.88,6.144C3198,869.52,3216.489,870.5,3242.418,864.961Z" transform="translate(-3182.561 -825.979)" fill="#fff"/>
    </g>
  </g>
</svg>
