<svg xmlns="http://www.w3.org/2000/svg" xmlns:xlink="http://www.w3.org/1999/xlink" width="39" height="39" viewBox="0 0 39 39">
  <defs>
    <linearGradient id="linear-gradient" x1="0.5" x2="0.5" y2="1" gradientUnits="objectBoundingBox">
      <stop offset="0" stop-color="#a5eaa5"/>
      <stop offset="1" stop-color="#fff"/>
    </linearGradient>
  </defs>
  <g id="Group_6417" data-name="Group 6417" transform="translate(-45 -203)">
    <circle id="Ellipse_254" data-name="Ellipse 254" cx="19.5" cy="19.5" r="19.5" transform="translate(45 203)" fill="url(#linear-gradient)"/>
    <path id="Icon_ionic-ios-call" data-name="Icon ionic-ios-call" d="M20.818,16.92a14.21,14.21,0,0,0-2.95-1.862c-.884-.4-1.208-.392-1.834.033-.521.355-.858.685-1.457.562a8.7,8.7,0,0,1-2.928-2.044,8.173,8.173,0,0,1-2.167-2.762c-.127-.57.223-.884.6-1.375.451-.59.464-.9.035-1.73A13.033,13.033,0,0,0,8.138,4.959C7.494,4.352,7.35,4.485,7,4.6a6.652,6.652,0,0,0-1.046.524A3.054,3.054,0,0,0,4.693,6.38c-.249.508-.538,1.453.932,3.922A22.043,22.043,0,0,0,9.7,15.434h0l0,0,0,0h0a23.234,23.234,0,0,0,5.44,3.848c2.617,1.387,3.62,1.115,4.158.879a3.038,3.038,0,0,0,1.326-1.185A6.013,6.013,0,0,0,21.194,18C21.321,17.663,21.465,17.527,20.818,16.92Z" transform="translate(51.625 210.068)" fill="#75e075"/>
  </g>
</svg>
