<svg xmlns="http://www.w3.org/2000/svg" xmlns:xlink="http://www.w3.org/1999/xlink" width="39" height="39" viewBox="0 0 39 39">
  <defs>
    <linearGradient id="linear-gradient" x1="0.5" x2="0.5" y2="1" gradientUnits="objectBoundingBox">
      <stop offset="0" stop-color="#ffe389"/>
      <stop offset="1" stop-color="#fff"/>
    </linearGradient>
  </defs>
  <g id="Group_6418" data-name="Group 6418" transform="translate(-45 -258)">
    <circle id="Ellipse_255" data-name="Ellipse 255" cx="19.5" cy="19.5" r="19.5" transform="translate(45 258)" fill="url(#linear-gradient)"/>
    <path id="Icon_awesome-shipping-fast" data-name="Icon awesome-shipping-fast" d="M23.025,11.234h-.59V7.784a1.436,1.436,0,0,0-.52-1.082L18.228,3.514a1.92,1.92,0,0,0-1.251-.45H15.35V1.532A1.665,1.665,0,0,0,13.579,0H4.133A1.665,1.665,0,0,0,2.362,1.532V3.064H.3a.278.278,0,0,0-.3.255V3.83a.278.278,0,0,0,.3.255H10.332a.278.278,0,0,1,.3.255v.511a.278.278,0,0,1-.3.255H1.476a.278.278,0,0,0-.3.255v.511a.278.278,0,0,0,.3.255H9.151a.278.278,0,0,1,.3.255v.511a.278.278,0,0,1-.3.255H.3A.278.278,0,0,0,0,7.4v.511a.278.278,0,0,0,.3.255H7.97a.278.278,0,0,1,.3.255v.511a.278.278,0,0,1-.3.255H2.362v4.085A3.33,3.33,0,0,0,5.9,16.341a3.33,3.33,0,0,0,3.542-3.064h4.723a3.33,3.33,0,0,0,3.542,3.064,3.33,3.33,0,0,0,3.542-3.064h1.771a.557.557,0,0,0,.59-.511V11.745A.557.557,0,0,0,23.025,11.234ZM5.9,14.809a1.665,1.665,0,0,1-1.771-1.532A1.665,1.665,0,0,1,5.9,11.745a1.665,1.665,0,0,1,1.771,1.532A1.665,1.665,0,0,1,5.9,14.809Zm11.808,0a1.665,1.665,0,0,1-1.771-1.532,1.665,1.665,0,0,1,1.771-1.532,1.665,1.665,0,0,1,1.771,1.532A1.665,1.665,0,0,1,17.711,14.809ZM20.663,8.17H15.35V4.6h1.627l3.686,3.188Z" transform="translate(52.692 269.33)" fill="#fecf34"/>
  </g>
</svg>
