<svg xmlns="http://www.w3.org/2000/svg" xmlns:xlink="http://www.w3.org/1999/xlink" width="524.26" height="413.001" viewBox="0 0 524.26 413.001">
  <defs>
    <linearGradient id="linear-gradient" x1="22.251" y1="-43.308" x2="22.132" y2="-43.808" gradientUnits="objectBoundingBox">
      <stop offset="0" stop-color="#dcc499"/>
      <stop offset="1" stop-color="#e5d8c0"/>
    </linearGradient>
    <linearGradient id="linear-gradient-2" x1="-39.417" y1="-33.719" x2="-39.312" y2="-33.939" xlink:href="#linear-gradient"/>
  </defs>
  <g id="Group_1472" data-name="Group 1472" transform="translate(-355.491 -212.901)">
    <g id="Group_1431" data-name="Group 1431" transform="translate(355.491 212.901)">
      <path id="Path_10936" data-name="Path 10936" d="M851.284,900.909c.419,4.62-7.591,10.691-19.061,13.119-11.3,2.391-20.315,2.145-21.159-.993-1.2-4.48,6.645-17.518,18.321-18.576S850.865,896.289,851.284,900.909Z" transform="translate(-667.088 -679.039)" fill="#0780aa"/>
      <path id="Path_10937" data-name="Path 10937" d="M805.9,804.754c-.1-15.62-20.188-71.32-25.2-75.027-3.329-2.462-33.6,15.532-39.214,19.514.992,6.2,20.631,47.15,31.154,62.538C776.864,811.823,802.672,806.776,805.9,804.754Z" transform="translate(-619.568 -566.33)" fill="#ffc19f"/>
      <path id="Path_10938" data-name="Path 10938" d="M786.634,751.843c-5.43-25.12-21.924-61.869-27.764-66.3-6.3-4.773-22.2-6.667-28.482-8.061-1.67,4.589-10.476,42.153-13.734,53.417,1.551,5.475,19.177,18.613,30.546,31.639C754.846,751.322,776.615,747.186,786.634,751.843Z" transform="translate(-602.58 -530.747)" fill="#fc541a"/>
      <path id="Path_10939" data-name="Path 10939" d="M568.044,1269.529C569.5,1245.4,551.92,1187.807,539,1161.342l-76.557,1.459c-12.137,29.071-20.007,76.859-18.928,109.908Z" transform="translate(-415.642 -861.776)" fill="#66322b"/>
      <path id="Path_10940" data-name="Path 10940" d="M548.521,799.015c-.886-21.595-4.876-98.107-6.789-130.574-3.169-1.471-23.272-6.208-40.628-11.333-8.579-2.534-31.548-.089-40.854,2.686-19.256,5.741-42.742,13.673-51.607,17.938,4.4,31.684,20.263,105.225,18.9,132.452-.626,12.489-3.532,32.287-7.165,67.022,51.4,15.756,121.779,9.807,130.633.953C550.617,873.269,549.258,816.981,548.521,799.015Z" transform="translate(-391.855 -516.079)" fill="#fc541a"/>
      <path id="Path_10941" data-name="Path 10941" d="M571.884,688.954c-17.555.92-35-9.735-36.562-23.138,4.033-1.779,8.1-2.815,11.6-4.325,8.215-3.544,35.479-3.753,44.915-1.459,3.02.735,5.991,1.542,8.929,2.373C601.071,676.189,589.729,688.019,571.884,688.954Z" transform="translate(-478.522 -517.776)" fill="#c63109"/>
      <path id="Path_10942" data-name="Path 10942" d="M551.208,664.414c-.014-.265.079-1.022.078-1.285,2.968-1.092,5.554-2.07,8.262-3.1,7.643-2.912,32.438-3.432,41.065-1.334,1.837.447,3.765.939,5.732,1.456.062.46.225.891.249,1.36.622,11.861-8.746,22.125-24.041,22.927S551.829,676.275,551.208,664.414Z" transform="translate(-489.389 -517.017)" fill="#ffc19f"/>
      <path id="Path_10943" data-name="Path 10943" d="M592.074,603.1c11.437-.6,20.392-7.122,20-14.569l-1.929-36.785-41.417,2.172,1.929,36.785C571.048,598.155,580.637,603.7,592.074,603.1Z" transform="translate(-501.378 -444.725)" fill="#ffc19f"/>
      <path id="Path_10944" data-name="Path 10944" d="M612.966,599.156c-5.178,3.038-12.556,4.469-21.464,2.783-6.955-1.317-16.29-7.318-20.4-11.447l-.735-11.749c4.746-4.245,14.269-6.211,24.731-4.51a39.5,39.5,0,0,1,16.913,6.675Z" transform="translate(-502.497 -459.688)" fill="#822020" opacity="0.23"/>
      <path id="Path_10945" data-name="Path 10945" d="M556.271,859.334c-37.746,3.951-92.966,6.674-129.469,6.741.6,7.787.981,16.022,1.7,23.874.693,7.618,1.709,15.088,2.452,22.2,36.437,2.87,91.737-.187,126.81-7C557.321,891.155,556.815,874.951,556.271,859.334Z" transform="translate(-404.278 -655.158)" fill="#fff" opacity="0.25"/>
      <path id="Path_10946" data-name="Path 10946" d="M549.827,937.352c-4.712,12.312-19.251,14.5-22.508,20.514-1.552-.728-9.026-4.185-9.446-5.435-1.514-4.507-17.93-9.006-9.815-17.173,6.859-6.9,28.965-15.624,39.139-13.068C551.335,923.229,552.615,930.067,549.827,937.352Z" transform="translate(-458.336 -697.849)" fill="#ffc19f"/>
      <path id="Path_10947" data-name="Path 10947" d="M550.306,959.022c.337,3.772-19.515,2.464-29.153,2.346-.767-2.248-.112-16.431.675-18.389,1.483-.3,2.123,6.19,5.773,9.3C531.907,955.949,547.051,956.772,550.306,959.022Z" transform="translate(-468.595 -712.376)" fill="#822020" opacity="0.23"/>
      <path id="Path_10948" data-name="Path 10948" d="M462.207,942.016c1.824,4.266-3.922,12.512-14.082,18.361-10.006,5.76-18.662,8.309-20.433,5.585-2.528-3.89.915-18.714,11.694-23.323S460.383,937.75,462.207,942.016Z" transform="translate(-404.346 -709.655)" fill="#a81a1a"/>
      <path id="Path_10949" data-name="Path 10949" d="M423.133,859.681c-1.9-5.267-25.395-71.545-30.485-75.046-3.382-2.327-29.129,22.016-34.136,26.137,1.475,6.1,23.761,47.248,35.1,62.126C397.643,872.8,420.234,861.786,423.133,859.681Z" transform="translate(-357.558 -603.945)" fill="#ffc19f"/>
      <path id="Path_10950" data-name="Path 10950" d="M450.469,1004.824c-.835-3.794-1.954-8.933-3.224-15.643,42.269-4.131,70.755,6.281,100.858-1.5,1.013,1.838,7.816,16.738,6.9,18.189-20.967,8.78-50.813,14.918-84.454,16.372C464.582,1022.505,453.146,1016.99,450.469,1004.824Z" transform="translate(-418.264 -742.97)" fill="#ffc19f"/>
      <g id="Group_1424" data-name="Group 1424" transform="translate(128.392 196.703)">
        <path id="Path_10951" data-name="Path 10951" d="M814.313,858.565c-.924-.269-2.409-.783-4.108-1.369-5.649-1.949-10.11-3.413-11.867-3.213a19.335,19.335,0,0,0-2.386.488,14.232,14.232,0,0,1,2.592-1.185,29.614,29.614,0,0,1,3.595,1.052c3.513,1.1,8.319,2.607,10.646,2.819,3.041.285,5.089-1.427,5.479-3.177a2.072,2.072,0,0,0-1.336-2.539c-1.1-.391-3.482-1.543-6-2.766a101.762,101.762,0,0,0-10.138-4.525,61.331,61.331,0,0,0,7.69-.537c3-.545,4.518-2.747,4.42-4.537a2.08,2.08,0,0,0-1.722-2.055,1.97,1.97,0,0,0-.251-.027c-.893-.059-2.4-.225-4.183-.415-6.559-.7-12.125-1.241-13.818-.649-2.4.838-4.954,3.882-7.918,7.4-1.612,1.912-3.273,3.89-4.894,5.495l-.375.327.023.129c-3.074,3.295-5.34,7.6-8.177,13.849l-.21.457c-2.887,6.367-6.165,13.58-9.291,22.047l-.095.251.1.25c1.454,3.827,5.842,5.9,9.928,6.614a15.071,15.071,0,0,0,6.064-.042c5.309-1.417,6.076-5.823,6.818-10.085.5-2.879,1.019-5.857,2.865-8.172,1.412-.18,8.537-.186,9.119.125a22.5,22.5,0,0,0,7.906,2.338c3.3.177,4.086-1.477,4.25-1.988a2.8,2.8,0,0,0-.925-3.051c-1.043-.752-9.025-6.427-10.427-6.974a12.628,12.628,0,0,0-3.4-.1,41.266,41.266,0,0,1,4.709-1.762c.286-.012,1.88.237,3.279.452,2.572.4,6.1.954,8.247,1.026,3.055.106,5-1.727,5.279-3.5A2.057,2.057,0,0,0,814.313,858.565Zm-18.4-14.179c.052-.042.072-.056.072-.056s.1-.016.187-.024C796.081,844.33,796,844.36,795.913,844.385Z" transform="translate(-761.987 -835.674)" fill="#822020" opacity="0.28"/>
        <g id="Group_1423" data-name="Group 1423" transform="translate(0.59 0.344)">
          <path id="Path_10952" data-name="Path 10952" d="M819.7,901.452c-.819.44.877,8.393,1.5,8.559,5.513-2.251,15.053-7.333,16.854-7.7.592-.121,8.066,1.352,11.639,1.473,4.28.145,5.755-3.919,3.576-4.546-3.24-.933-13.277-4.853-15.693-4.554C833.928,895.135,825.567,898.3,819.7,901.452Z" transform="translate(-801.912 -876.378)" fill="#ffc19f"/>
          <path id="Path_10953" data-name="Path 10953" d="M819.988,849.784c-.662.653,4.607,7.263,5.253,7.293,4.679-5.567,8.3-12.313,9.987-13.054.553-.243,9.069-.1,12.586-.742,4.213-.766,4.793-5.049,2.531-5.2-3.364-.225-15.427-1.906-17.725-1.1C829.148,838.195,824.734,845.1,819.988,849.784Z" transform="translate(-802.219 -836.762)" fill="#ffc19f"/>
          <path id="Path_10954" data-name="Path 10954" d="M838.226,865.669s-8.219,3.44-8.951,1.261c4.256-3.971,9.842-7.657,12.484-8.282a34.038,34.038,0,0,0-3.13,3.667Z" transform="translate(-808.612 -851.736)" fill="#822020" opacity="0.23"/>
          <path id="Path_10955" data-name="Path 10955" d="M819.7,870.635c-.8.477.344,8.189.958,8.392,5.675-2.408,15.185-8.365,17-8.625.6-.086,10.749,3.541,14.309,3.874,4.264.4,5.977-3.571,3.839-4.326-3.178-1.123-15.45-7.817-17.88-7.662C834.256,862.523,825.49,867.174,819.7,870.635Z" transform="translate(-801.873 -854.224)" fill="#ffc19f"/>
          <path id="Path_10956" data-name="Path 10956" d="M763.856,911.945c3.189-8.647,6.552-16,9.481-22.457,2.944-6.487,5.5-11.71,9.466-15.168.236,1.569,8.028,19.875,7.047,24.591-5.311,5.961-2.439,16.922-10.861,19.168C774.793,919.2,765.921,917.382,763.856,911.945Z" transform="translate(-763.856 -862.457)" fill="#ffc19f"/>
        </g>
      </g>
      <path id="Path_10957" data-name="Path 10957" d="M646.194,946.358c-1.221,1.889-43.809,13.175-43.061,14.823,17.733,9.867,49.616,20.529,76.37,26.152.519.109,1.076.2,1.628.294-.466-9.991-1.155-23.856-1.93-38.938C662.7,945.223,657.465,946.576,646.194,946.358Z" transform="translate(-524.908 -714.638)" fill="#822020" opacity="0.23"/>
      <path id="Path_10958" data-name="Path 10958" d="M714.829,954.511c1.158-3.708.865-8.829.423-15.473-34.03-6.2-62.942-2.752-97.824-12.72-1.167,1.744-9.184,19.162-8.4,20.687,18.117,6.941,49.11,18.786,82.5,23.125C697.457,970.9,711.116,966.4,714.829,954.511Z" transform="translate(-528.914 -700.985)" fill="#ffc19f"/>
      <path id="Path_10959" data-name="Path 10959" d="M413.7,784.09c-3.664-12.277-13.894-49.147-17.685-57.546-.477-1.058-4.588-14.872-7.432-19.569-12.63,1.513-24.618,10.484-25.777,12.408-4.784,7.947-8.949,25.219-6.676,39.059.923,5.615,13.528,35.112,23.16,49.47C380.168,793.908,405.947,781.087,413.7,784.09Z" transform="translate(-355.491 -550.921)" fill="#fc541a"/>
      <g id="Group_1429" data-name="Group 1429" transform="translate(19.671)">
        <path id="Path_10960" data-name="Path 10960" d="M753.978,423.112c-4.459.08-7.231,5.531-8.023,13.924-.889,9.426,2.376,14.117,4.261,14.955,3.581,1.59,9.429-3.847,10.954-12.893C762.545,430.949,759.236,423.017,753.978,423.112Z" transform="translate(-642.195 -356.716)" fill="#e8a07c"/>
        <path id="Path_10961" data-name="Path 10961" d="M679.722,239.506c15.618,2.216,23.29,12.528,27.378,18.767,1.418,10.279,1.912,37.989,1.979,40.594-1.621,1.315-.966,15.225-2.385,17.8a53.283,53.283,0,0,1-3.506-14.159c-1.964-17.449-2.794-33.042-5.749-37.443-1.767-2.631-8.909-8.728-20.683-8.951C671.439,256.012,678.085,244.181,679.722,239.506Z" transform="translate(-593.569 -231.103)" fill="#84220f"/>
        <path id="Path_10962" data-name="Path 10962" d="M544.177,299.213c-5.475-6.672-21.7-15.494-48.809-8.241-25.761,6.893-48.558,15.09-47.464,35.589,1.051,19.717,21.648,48.177,28.246,57.052,1.888,2.539,10.438,7.978,14.763,9.918,7.639,3.426,17.15,6.759,25.871,6.747.512,0,11.006-1.988,11.483-2.172,7.9-3.03,18.785-17.449,21.923-25.767,1.073-2.843,2.561-20.122,1.852-31.562-.35-5.636-4.381-18.192-5.375-27.5C545.731,304.509,545.536,300.869,544.177,299.213Z" transform="translate(-438.359 -264.453)" fill="#ffc19f"/>
        <path id="Path_10963" data-name="Path 10963" d="M452.389,264.183c-19.728,3.01-30.807,20.046-34.62,29.567,1.56,14.16,9.712,36.6,12.419,41.366,2.584.706,14.843,14.683,16.963,16.89-.035-.473-.527-9.05-1.955-18.3-.913-5.914-10.975-33.622-8.669-38.785,1.38-3.087,6.8-11.372,22.111-15.52C465.551,277.527,456.183,268.073,452.389,264.183Z" transform="translate(-417.769 -247.986)" fill="#84220f"/>
        <path id="Path_10964" data-name="Path 10964" d="M662.322,489.821a3.358,3.358,0,0,1-.74-.075.615.615,0,0,1-.466-.728.6.6,0,0,1,.729-.466c1.516.334,4.646-1.054,5.2-2.338.293-.7-.352-1.821-1.177-3.242A29.092,29.092,0,0,1,663.869,479a.61.61,0,1,1,1.135-.448,27.721,27.721,0,0,0,1.923,3.8c.985,1.72,1.768,3.075,1.236,4.332C667.428,488.421,664.371,489.821,662.322,489.821Z" transform="translate(-584.245 -394.384)" fill="#c4735b"/>
        <path id="Path_10965" data-name="Path 10965" d="M528.449,388.749a21.922,21.922,0,0,1,7.245-5.287,38.781,38.781,0,0,1,15.643-2.675c1.354.07,2.8,3.951,2.626,4.313-.209.424-.764.576-1.708.607-4.88.161-9.578-.1-15.844,2.114a48.725,48.725,0,0,0-6.133,2.687,8.721,8.721,0,0,1-2.051.993C527.846,391.233,527.776,389.513,528.449,388.749Z" transform="translate(-493.143 -327.736)" fill="#4c0b00"/>
        <path id="Path_10966" data-name="Path 10966" d="M705.37,365.956a17.406,17.406,0,0,0-7.3-2.993,28.893,28.893,0,0,0-13.527,1.912c-1.094.454-1.288,4.586-1.049,4.882.28.346.775.333,1.557.093,4.047-1.242,7.837-2.836,13.548-2.507a36.535,36.535,0,0,1,5.724.819c.476.117,1.839.515,1.939.365A2.927,2.927,0,0,0,705.37,365.956Z" transform="translate(-599.5 -315.449)" fill="#4c0b00"/>
        <path id="Path_10967" data-name="Path 10967" d="M489.222,280.417c-.43-1.491,1.83-10.605-1.964-14.495-20.917.732-31.182,17.943-32.945,25.827,2.3,10.491,8.833,35.843,9.668,38.338,2.585.706,5.938,5.687,8.1,11.423.546.359,1.069,1.137,2.04,1.744-2.13-9.421-5.706-22.463-6.082-31.317a63.008,63.008,0,0,1,3.847-7.892c-.446-4.2-3.448-12.431,2.522-16.908A62.247,62.247,0,0,1,489.222,280.417Z" transform="translate(-442.771 -249.175)" fill="#84220f"/>
        <g id="Group_1425" data-name="Group 1425" transform="translate(60.661 99.369)">
          <path id="Path_10968" data-name="Path 10968" d="M644.4,529.955c-1.027-3.923-6.682-1.877-16.142-.534-.495.07-2.418.357-2.912.434-9.44,1.475-15.229,1.351-15.506,5.4-.267,3.9,4.495,9.316,10.588,11.946a16.516,16.516,0,0,0,9.044.908l.166-.025a16.76,16.76,0,0,0,8.382-3.413C643.078,540.472,645.461,534.025,644.4,529.955Z" transform="translate(-609.824 -527.622)" fill="#701608"/>
          <path id="Path_10969" data-name="Path 10969" d="M652.77,579.513l-.152.023a14.981,14.981,0,0,1-8.613-.96l-.39-.169a12.339,12.339,0,0,1,8.167-5.02,12.115,12.115,0,0,1,9.193,2.347l.158.117-.148.133A15.939,15.939,0,0,1,652.77,579.513Z" transform="translate(-632.942 -558.802)" fill="#dd6b5b"/>
          <path id="Path_10970" data-name="Path 10970" d="M619.551,531.829c1.69,3.346,7.706,4.169,14.712,3.124,7.11-1.06,12.749-3.374,13.484-7.443-2.946.023-7.5,1.041-12.839,1.8-.495.071-2.417.357-2.913.434C626.447,530.609,622.2,530.9,619.551,531.829Z" transform="translate(-616.479 -527.509)" fill="#fff"/>
        </g>
        <g id="Group_1426" data-name="Group 1426" transform="translate(87.258 62.703)">
          <path id="Path_10971" data-name="Path 10971" d="M707.017,414.565c5.925,1.924,8.582,9.481,5.759,13.773-1.654,2.516-4.711,3.487-7.961,3.941-4.778.667-9.346-1.415-10.291-3.874-.465-1.209-1.038-3.7.584-7.961A9.371,9.371,0,0,1,707.017,414.565Z" transform="translate(-694.034 -413.228)" fill="#fbfdff" fill-rule="evenodd"/>
          <path id="Path_10972" data-name="Path 10972" d="M712.783,413.783c4.152,3.465,3.476,10.681,1.352,12.884A9.761,9.761,0,0,0,706.7,412.8c-4.306-.693-8.764,1.733-10.555,6.808C698.365,411.946,706.934,408.9,712.783,413.783Z" transform="translate(-695.48 -411.422)" fill="#6c1e19" fill-rule="evenodd"/>
          <path id="Path_10973" data-name="Path 10973" d="M720.946,428.716c2.958,1.021,4.751,4.567,3.956,7.982s-3.8,5.3-6.768,4.307-4.724-4.579-3.955-7.982C714.95,429.6,717.962,427.686,720.946,428.716Z" transform="translate(-707.693 -423.063)" fill="#6c1e19" fill-rule="evenodd"/>
          <path id="Path_10974" data-name="Path 10974" d="M718.146,436.884a1.954,1.954,0,0,1,1.115,2.231,1.437,1.437,0,0,1-1.859,1.176,1.919,1.919,0,0,1-1.115-2.231A1.458,1.458,0,0,1,718.146,436.884Z" transform="translate(-709.221 -428.787)" fill="#fff" fill-rule="evenodd"/>
        </g>
        <g id="Group_1427" data-name="Group 1427" transform="translate(40.102 69.7)">
          <path id="Path_10975" data-name="Path 10975" d="M567.95,438.95c3.125,3.556,3.273,6.108,3.139,7.406-.271,2.641-4.652,6.057-10.126,6.919-3.724.586-7.4.618-10.007-1.262-4.454-3.207-3.9-11.244,2.03-14.934A11.573,11.573,0,0,1,567.95,438.95Z" transform="translate(-546.981 -434.666)" fill="#fbfdff" fill-rule="evenodd"/>
          <path id="Path_10976" data-name="Path 10976" d="M566.458,438.658a11.673,11.673,0,0,0-13.764-3.182c-4.437,1.97-6.209,5.4-6.555,8.007a8.808,8.808,0,0,0,2.711,7.539c-3.031-1.435-6.038-8.1-2.548-12.705C551.216,431.832,561.613,432.047,566.458,438.658Z" transform="translate(-544.735 -433.574)" fill="#6c1e19" fill-rule="evenodd"/>
          <path id="Path_10977" data-name="Path 10977" d="M580.312,449.39a6.436,6.436,0,1,1-7.846,4.467A6.377,6.377,0,0,1,580.312,449.39Z" transform="translate(-563.541 -444.227)" fill="#6c1e19" fill-rule="evenodd"/>
          <path id="Path_10978" data-name="Path 10978" d="M576.788,457.88a1.81,1.81,0,0,1,1.228,2.214,1.715,1.715,0,0,1-2.155,1.22,1.8,1.8,0,0,1-1.229-2.213A1.761,1.761,0,0,1,576.788,457.88Z" transform="translate(-565.14 -450.154)" fill="#fff" fill-rule="evenodd"/>
        </g>
        <g id="Group_1428" data-name="Group 1428" transform="translate(8.123 80.142)">
          <path id="Path_10979" data-name="Path 10979" d="M448.307,467.8c5.947-3.116,12.479.15,15.782,8,3.734,8.877,2.767,14.662.961,16.335-3.431,3.176-12.492,1.086-18.136-6.369C441.83,479.054,442.493,470.849,448.307,467.8Z" transform="translate(-443.487 -466.636)" fill="#ffc19f"/>
          <path id="Path_10980" data-name="Path 10980" d="M472.711,490.5c.96.227,7.373,12.7,6.441,13.168-3.207,1.626-6.957.357-9.422-3.174C466.614,496.026,467.319,489.217,472.711,490.5Z" transform="translate(-460.175 -482.852)" fill="#e0956c"/>
        </g>
        <path id="Path_10981" data-name="Path 10981" d="M472.106,242.61c2.411-16.121,21.567-26.876,27.8-28.493,15.48-4.019,48.315,3.233,58.755,3.054-3.948,16.014-13.88,30.992-37.277,33.569C499.763,253.121,480.883,242.311,472.106,242.61Z" transform="translate(-454.944 -212.901)" fill="#84220f" fill-rule="evenodd"/>
        <path id="Path_10982" data-name="Path 10982" d="M461.708,251.406c-1.268-5.306,4.5-17.209,12.816-20.906-4.316,6.84-5.059,16.555-4.567,18.09S462.07,252.922,461.708,251.406Z" transform="translate(-447.71 -224.941)" fill="#84220f" fill-rule="evenodd"/>
      </g>
      <g id="Group_1430" data-name="Group 1430" transform="translate(148.833 226.279)">
        <path id="Path_10983" data-name="Path 10983" d="M878.456,959.352c1.7.088,3.512-.2,4.214-1.245-4.088-.528-8.812-1.01-12.8-1.369C871.522,957.331,875.784,959.211,878.456,959.352Z" transform="translate(-856.234 -948.076)" fill="#822020" opacity="0.23"/>
        <path id="Path_10984" data-name="Path 10984" d="M828.364,929.918c-.828.107-2.059,6.078-1.534,6.324,5.06.958,10.838.069,13.348-.3.537-.079,5.62,3.4,8.606,3.561,3.842.2,4.384-2.347,2.659-3.43-2.746-1.724-8.188-6.305-10.345-6.666A81.987,81.987,0,0,0,828.364,929.918Z" transform="translate(-826.704 -929.312)" fill="#ffc19f"/>
      </g>
    </g>
    <g id="Group_1439" data-name="Group 1439" transform="translate(718.823 257.963)">
      <g id="Group_1432" data-name="Group 1432" transform="translate(8.235 29.761)">
        <path id="Path_10985" data-name="Path 10985" d="M1956.476,562.252c-2.514-2.61-3.412-4.845-3.1-7.722.172-1.62,1.183-3.023,2.253-4.511,1.593-2.21,3.4-4.721,2.971-8.592-.334-3.048-2.011-5.082-3.489-6.881-1.526-1.846-2.841-3.443-2.63-5.834a19.782,19.782,0,0,1,1.5-5.219c1.322-3.4,2.818-7.258.557-11.771-.942-1.876-2.887-3.3-4.766-4.675-2.6-1.9-5.059-3.7-5.224-6.556-.5-8.862-3.906-15.6-11.037-21.861l-1.014,1.147c6.805,5.965,10.05,12.383,10.524,20.8.208,3.575,3.2,5.767,5.845,7.7,1.813,1.323,3.53,2.575,4.305,4.125,1.956,3.906.709,7.128-.612,10.535a20.9,20.9,0,0,0-1.6,5.632c-.27,3.019,1.378,5.018,2.964,6.947,1.411,1.709,2.871,3.478,3.158,6.079.36,3.28-1.2,5.442-2.7,7.525a11.787,11.787,0,0,0-2.531,5.243A7.149,7.149,0,0,0,1956.476,562.252Z" transform="translate(-1805.966 -469.523)" fill="#752912"/>
        <path id="Path_10986" data-name="Path 10986" d="M1537.336,578.549a29.177,29.177,0,0,0-1.617-4.526,22.506,22.506,0,0,1-2.3-9.242c-.013-2.669,1.424-4.412,2.943-6.262,1.572-1.911,3.2-3.894,2.871-6.829a20.943,20.943,0,0,0-1.731-5.594c-1.4-3.376-2.721-6.567-.856-10.518.775-1.645,2.468-3,4.249-4.42,2.527-2.023,5.142-4.114,5.82-7.448.215-1.071.4-2.041.57-2.933.823-4.3,1.272-6.661,3.242-9.885l-1.3-.8c-2.121,3.458-2.617,6.068-3.439,10.394-.169.886-.355,1.85-.57,2.915-.57,2.8-2.961,4.71-5.275,6.558-1.929,1.539-3.752,2.994-4.678,4.963-2.157,4.563-.572,8.385.828,11.755a19.794,19.794,0,0,1,1.624,5.182c.254,2.291-1.036,3.864-2.538,5.685-1.548,1.887-3.3,4.021-3.29,7.24a24.1,24.1,0,0,0,2.419,9.832,27.561,27.561,0,0,1,1.536,4.281,8.989,8.989,0,0,1-1.91,7.6C1536.251,585.477,1538.272,582.479,1537.336,578.549Z" transform="translate(-1531.893 -491.049)" fill="#752912"/>
        <path id="Path_10987" data-name="Path 10987" d="M1549.952,537.758c-.741-4.311-6.24-8.362-5.665-14.539.545-5.864,8.148-8.131,6.184-13.013-2.064-5.132-4.323-8.669-2.13-15.369,1.456-4.449,7.933-7.028,7.876-11.932-.044-3.789-1.981-7.157-.108-12.051,1.988-5.2,2.693-6.176,4.733-12.4,15.073-.114,35.573.089,54.522.668,18.132-2.034,34.168-11.76,50.688-8.762,2.248,5.968,5.962,12.461,8.51,17.407,2.4,4.657,1.677,8.563,1.448,13.334-.274,5.724,5.835,7.9,7.747,12.17,2.12,4.744.171,10.236-1.775,15.414-1.851,4.925,5.125,7.3,5.8,13.147.717,6.162-5.4,10.075-6.042,14.4-.812,5.477,5.315,4.784,3.636,11.236-1.851,7.113-7.059,9.088-11.354,9.667a10.219,10.219,0,0,0,.332-6.611c-.9,3.415-3.714,7.266-5.833,7.969-7.719,2.56-36.7,7.238-50.8,7.211-15.19-.029-35.831-2.232-43.9-4.551-2.146-.618-4.31-4.371-5.288-7.764a7.642,7.642,0,0,0,.3,7.031c-12.1-.013-19.266-5.026-21.425-11.086C1545.184,543.058,1550.89,543.216,1549.952,537.758Z" transform="translate(-1540.344 -449.793)" fill="#752912"/>
      </g>
      <path id="Path_10988" data-name="Path 10988" d="M1527.985,826.465c.5-.46,15.717,1.171,21.744,4.743-1.211,7.578-18.464,61.011-22.443,84.269-3.027-1.3-17.648-13.069-20.442-17.512C1509.214,879.549,1522.075,831.919,1527.985,826.465Z" transform="translate(-1506.521 -677.68)" fill="#ffc19f"/>
      <path id="Path_10989" data-name="Path 10989" d="M1549.041,855.446c5.725-13.762,17.15-50.632,18.52-56.811-10.033,2.323-23.151,5.292-27.694,9.089-5.807,4.855-9.511,22.6-14.329,39.2A132.01,132.01,0,0,0,1549.041,855.446Z" transform="translate(-1519.311 -658.692)" fill="#ba4aa5"/>
      <path id="Path_10990" data-name="Path 10990" d="M1573.646,936.392c1.186-4.333,5.948-22.577,7.186-29.271,1.759-.044,11.6,1.03,21.76,1.844,15.047,1.2-9.17-27.839-19.75-28.073S1564.083,916.924,1573.646,936.392Z" transform="translate(-1549.325 -714.967)" fill="#2b000b" opacity="0.15"/>
      <path id="Path_10991" data-name="Path 10991" d="M1672.1,1269.529c1.457-24.131-16.124-81.722-29.048-108.187L1566.5,1162.8c-12.137,29.071-20.007,76.859-18.928,109.908Z" transform="translate(-1534.314 -906.838)" fill="#684964"/>
      <path id="Path_10992" data-name="Path 10992" d="M1674.628,930.846c-5.327-11.746-9.412-21.293-13.719-31.238-1.936-4.471,3.349-32.845,5.014-36.451,2.924-6.334,7.874-13.44,7.514-25.061-.367-11.9-5.62-34.309-8.222-45.222-7.981-2.629-27.232-8.882-38.4-11.544l-3.811.461c-11.273,2.166-31.092,7.429-39,8.987-3.082,10.787-9.767,33.276-10.659,45.143-.871,11.594,4.352,18.887,6.994,25.344,1.5,3.676,3.329,31.147,1.778,36.143-3.746,12.06-7.916,21.977-11.721,33.821,7.3,6.022,27.521,15.636,50.854,15.944C1644.213,947.479,1667.068,936.539,1674.628,930.846Z" transform="translate(-1549.997 -646.854)" fill="#ba4aa5"/>
      <path id="Path_10993" data-name="Path 10993" d="M1630.112,786.154c1.275-.262,27.312-8.465,35.32-9.734,7.294,1.488,32.8,10.966,34.761,11.455,6.723,9.539-14.86,20.4-34.055,19.98C1647.079,807.434,1622.892,796.151,1630.112,786.154Z" transform="translate(-1589.96 -643.494)" fill="#ffc19f"/>
      <path id="Path_10994" data-name="Path 10994" d="M1707.589,763.9c8.638.191,15.731-3.72,15.842-8.735l.547-24.773L1692.7,729.7l-.547,24.773C1692.038,759.49,1698.951,763.71,1707.589,763.9Z" transform="translate(-1633.295 -611.532)" fill="#ffc19f"/>
      <path id="Path_10995" data-name="Path 10995" d="M1674.855,1025.48c1.321-8.2,3.161-16.41,4.007-18.232,2.091-4.5,5.189-9.429,6.669-16.077-6.616,12.557-19.643,16.532-48.875,16.17-25.127-.312-40.013-3.734-47.67-11.624,1.311,3.538,3.1,6.756,4.29,9.641.868,2.106,1.725,12.041,2.067,21.049,7.623-9.056,26.834-11.3,41.645-11.126C1652.82,1015.473,1667.33,1017.868,1674.855,1025.48Z" transform="translate(-1562.717 -790.416)" fill="#2b000b" opacity="0.15"/>
      <path id="Path_10996" data-name="Path 10996" d="M1738.851,1050.036c3.423,7.479,12.631,10.6,20.566,6.966s11.593-12.639,8.17-20.118-12.631-10.6-20.566-6.966S1735.428,1042.558,1738.851,1050.036Z" transform="translate(-1664.369 -815.888)" fill="#ffc19f"/>
      <path id="Path_10997" data-name="Path 10997" d="M1506.963,1036.511c-3.206,16.58.461,21.75,9.349,24.076,14.438,3.779,45.55,4.631,78.221-.063.187-1.956-1.011-12.71-1.638-17.065C1559.185,1044.161,1533.337,1040.965,1506.963,1036.511Z" transform="translate(-1505.82 -821.435)" fill="#ffc19f"/>
      <path id="Path_10998" data-name="Path 10998" d="M1825.83,892.135c-.082-.689-15.083-7.588-22.368-9.235-4.247,6.4-27.72,62.887-33.4,69.957,3.317,1.19,19.691,4.187,23.948,3.652C1804.791,941.369,1826.808,900.3,1825.83,892.135Z" transform="translate(-1686.602 -716.342)" fill="#ffc19f"/>
      <path id="Path_10999" data-name="Path 10999" d="M1825.647,869.827c3.073-11.65,10.586-38.723,14.2-51.947,4.7,1.71,14.6,5.594,16.193,7.17a30.647,30.647,0,0,1,9.174,20.3c.329,4.832-5.1,19.711-13.208,35.444A170.8,170.8,0,0,1,1825.647,869.827Z" transform="translate(-1724.629 -671.859)" fill="#ba4aa5"/>
      <path id="Path_11000" data-name="Path 11000" d="M1719.741,696.729c2.3,6.809-5.547,15.612-17.529,19.662s-23.561,1.814-25.863-4.994,5.546-15.611,17.529-19.661S1717.44,689.921,1719.741,696.729Z" transform="translate(-1622.214 -584.176)" fill="#822020" opacity="0.23"/>
      <g id="Group_1436" data-name="Group 1436" transform="translate(24.167 0)">
        <path id="Path_11001" data-name="Path 11001" d="M1699.714,411.773c-.854-20.249-8.815-43.094-33.183-43.333-.809-7.01-21.327-16.957-41.449-11.1-35.855,10.444-40.307,36.76-42.057,50.189-4.779,36.693,15.526,63.016,50.107,66.111S1696.352,426.4,1699.714,411.773Z" transform="translate(-1582.332 -355.569)" fill="#752912"/>
        <path id="Path_11002" data-name="Path 11002" d="M1592.757,573.723c4.455-.162,7.554,4.835,8.856,12.715,1.462,8.85-1.512,13.453-3.342,14.344-3.477,1.692-9.646-3.128-11.718-11.586C1584.684,581.576,1587.5,573.914,1592.757,573.723Z" transform="translate(-1584.824 -504.816)" fill="#e8a07c"/>
        <path id="Path_11003" data-name="Path 11003" d="M1609.189,436.628c7.008-18.972,42.817-13.966,48.12-13.442,5.313.426,46.343,2.715,45.375,22.905-1.089,22.7-12.777,52.933-19.359,61.953-9.274,12.709-21.381,16.607-27.2,19.01a43.953,43.953,0,0,1-19.727,2.24,25.385,25.385,0,0,1-13.193-5.16c-5.225-4.023-14.386-14.143-18.2-28.571-2.181-8.256-.45-25.273.577-39.062C1606.076,449.943,1607.005,442.541,1609.189,436.628Z" transform="translate(-1597.128 -401.158)" fill="#ffc19f"/>
        <path id="Path_11004" data-name="Path 11004" d="M1705.187,625.051c-1.947,0-4.484-.768-5.3-2.2-.7-1.251-.12-2.505.621-4.094a25.2,25.2,0,0,0,1.3-3.194.6.6,0,0,1,.77-.4.613.613,0,0,1,.4.767,27.452,27.452,0,0,1-1.361,3.341c-.717,1.538-1.045,2.305-.669,2.977.687,1.207,3.929,1.932,5.386,1.43a.624.624,0,0,1,.776.382.612.612,0,0,1-.382.777A4.922,4.922,0,0,1,1705.187,625.051Z" transform="translate(-1662.542 -533.147)" fill="#c4735b"/>
        <path id="Path_11005" data-name="Path 11005" d="M1868.465,494.4c2.154.376,13.508-.158,15.7-.145.819-8.133,3.659-32.222,5.1-49.325-1.227-1.568-15.931-16.06-20.769-18.544C1875.1,441.679,1865.608,485.574,1868.465,494.4Z" transform="translate(-1777.712 -404.018)" fill="#752912"/>
        <g id="Group_1433" data-name="Group 1433" transform="translate(87.253 77.317)">
          <path id="Path_11006" data-name="Path 11006" d="M1875.81,601.272c-6.12-2.761-12.449.883-15.285,8.915-3.206,9.082-1.9,14.8,0,16.363,3.612,2.969,12.535.35,17.73-7.423C1882.935,612.123,1881.793,603.971,1875.81,601.272Z" transform="translate(-1858.579 -600.358)" fill="#ffc19f"/>
          <path id="Path_11007" data-name="Path 11007" d="M1877.456,624.637c-.945.284-6.614,13.107-5.657,13.524,3.3,1.435,6.967-.053,9.22-3.722C1883.868,629.8,1882.764,623.044,1877.456,624.637Z" transform="translate(-1867.549 -616.806)" fill="#e0956c"/>
        </g>
        <g id="Group_1434" data-name="Group 1434" transform="translate(54.764 69.346)">
          <path id="Path_11008" data-name="Path 11008" d="M1773.325,578.469c6.132,3.336,7.162,11.327,2.9,14.789-2.5,2.03-6.164,2.214-9.916,1.847-5.515-.539-10.089-3.692-10.515-6.313-.209-1.288-.211-3.844,2.7-7.577A11.573,11.573,0,0,1,1773.325,578.469Z" transform="translate(-1755.718 -576.355)" fill="#fbfdff" fill-rule="evenodd"/>
          <path id="Path_11009" data-name="Path 11009" d="M1814.768,582.629c1.886.227,3.649-1.825,3.978-3.452-1.678,2.875-8.47-.2-9.1-.255C1813.589,580.169,1814.05,581.539,1814.768,582.629Z" transform="translate(-1792.615 -577.721)" fill="#6c1e19" fill-rule="evenodd"/>
          <path id="Path_11010" data-name="Path 11010" d="M1824.133,591.862c1.431.76,3.115.023,3.518-2.053-1.356,2.365-5.172-1.074-5.8-1.13A21.392,21.392,0,0,1,1824.133,591.862Z" transform="translate(-1800.964 -584.397)" fill="#6c1e19" fill-rule="evenodd"/>
          <path id="Path_11011" data-name="Path 11011" d="M1782.383,579.3c3.754,4.391,1.144,11.223-1.8,12.833a8.809,8.809,0,0,0,2.264-7.684c-.5-2.583-2.47-5.9-7.015-7.609a11.673,11.673,0,0,0-13.553,3.984C1766.73,573.939,1777.1,573.114,1782.383,579.3Z" transform="translate(-1760.208 -575.121)" fill="#6c1e19" fill-rule="evenodd"/>
          <path id="Path_11012" data-name="Path 11012" d="M1773.894,591.423a6.436,6.436,0,1,1-8.676,2.5A6.377,6.377,0,0,1,1773.894,591.423Z" transform="translate(-1761.647 -585.712)" fill="#6c1e19" fill-rule="evenodd"/>
          <path id="Path_11013" data-name="Path 11013" d="M1793.72,598.808a1.81,1.81,0,0,1,.674,2.441,1.715,1.715,0,0,1-2.382.679,1.8,1.8,0,0,1-.675-2.44A1.761,1.761,0,0,1,1793.72,598.808Z" transform="translate(-1779.928 -591.173)" fill="#fff" fill-rule="evenodd"/>
        </g>
        <g id="Group_1435" data-name="Group 1435" transform="translate(11.061 64.825)">
          <path id="Path_11014" data-name="Path 11014" d="M1630.608,565.323c-5.782,2.271-7.984,9.971-4.928,14.088,1.792,2.414,4.889,3.2,8.148,3.465,4.791.383,9.214-1.965,10.011-4.475.392-1.235.817-3.752-1.044-7.912A9.321,9.321,0,0,0,1630.608,565.323Z" transform="translate(-1622.108 -563.416)" fill="#fbfdff" fill-rule="evenodd"/>
          <path id="Path_11015" data-name="Path 11015" d="M1624.451,564.8c-1.81-.071-3.07-2.353-3.07-4,1.025,3.073,7.97,1.123,8.568,1.166C1626.022,562.58,1625.33,563.848,1624.451,564.8Z" transform="translate(-1620.109 -560.807)" fill="#6c1e19" fill-rule="evenodd"/>
          <path id="Path_11016" data-name="Path 11016" d="M1620.257,574.9c-1.485.52-2.922-.462-2.9-2.555.82,2.524,5.047-.248,5.644-.2A22.111,22.111,0,0,0,1620.257,574.9Z" transform="translate(-1617.353 -568.563)" fill="#6c1e19" fill-rule="evenodd"/>
          <path id="Path_11017" data-name="Path 11017" d="M1625.186,564.93c-3.929,3.7-2.836,10.867-.6,12.941a9.89,9.89,0,0,1-.656-7.946,9.78,9.78,0,0,1,7.242-6.332c4.243-.946,8.819,1.213,10.9,6.173C1639.42,562.245,1630.719,559.714,1625.186,564.93Z" transform="translate(-1620.922 -561.746)" fill="#6c1e19" fill-rule="evenodd"/>
          <path id="Path_11018" data-name="Path 11018" d="M1635.561,578.256c-2.882,1.194-4.461,4.839-3.47,8.2s4.09,5.068,6.982,3.9,4.433-4.849,3.47-8.2C1641.577,578.786,1638.469,577.052,1635.561,578.256Z" transform="translate(-1627.233 -572.483)" fill="#6c1e19" fill-rule="evenodd"/>
          <path id="Path_11019" data-name="Path 11019" d="M1655.375,585.752a1.958,1.958,0,0,0-.979,2.293,1.431,1.431,0,0,0,1.919,1.064,1.924,1.924,0,0,0,.979-2.292A1.452,1.452,0,0,0,1655.375,585.752Z" transform="translate(-1642.645 -577.799)" fill="#fff" fill-rule="evenodd"/>
        </g>
        <path id="Path_11020" data-name="Path 11020" d="M1673.531,416.531c-5.223.067-58.723-5.643-60.058-4.373-1.079,1.027-7.628,20.212-8.2,24.424,2.914,2.586,13.531,5.871,19.306,6.11C1643.486,443.474,1670.419,432.02,1673.531,416.531Z" transform="translate(-1598.025 -394.158)" fill="#752912"/>
        <path id="Path_11021" data-name="Path 11021" d="M1825.329,424.322c1.644.49,18.063,3.55,18.456,4.661.343.968-4.336,41.486-4.566,45.024.038-11.689-4.225-11.364-8.174-17.8C1827.851,450.993,1822.155,433.907,1825.329,424.322Z" transform="translate(-1747.941 -402.606)" fill="#752912"/>
        <path id="Path_11022" data-name="Path 11022" d="M1769.09,423.9c-1.417,14.589-12.235,25.916-28.37,27.411,18.558-6.407,23.419-17.939,25.636-27.355A8.7,8.7,0,0,1,1769.09,423.9Z" transform="translate(-1690.693 -402.246)" fill="#752912" fill-rule="evenodd"/>
      </g>
      <g id="Group_1437" data-name="Group 1437" transform="translate(39.458 117.701)">
        <path id="Path_11023" data-name="Path 11023" d="M1637.383,728.44c4.375-.275,12.645-.771,16.271,1.907,5.4,3.989,13.071,10.193,13.28,10.249,2.106-.974,8.642-5.547,12.548-7.385,2.139-1.007,7.223-1.869,8.86.078-.1.09-3.3,1.682-3.554,1.832-.022,1-.065,5.838-.19,8.613a57.923,57.923,0,0,0-6.624,11.084c-.767,2.085-.428,19.338-5.812,22.557-.3.178-16.019,1.945-16.358,2.014-6.955-3.282-25.258-19.947-19.666-24.645,4.772-1.622,18.609-7.616,20.511-8.96-2.466-2.38-10.15-10.879-14.352-11.319C1641.8,733.892,1637.516,728.7,1637.383,728.44Z" transform="translate(-1633.719 -728.216)" fill="#601805" opacity="0.19"/>
        <path id="Path_11024" data-name="Path 11024" d="M1634.624,757.46c.638-1.23,1.107-1.239,3.26.805-1.494-2.685-2.75-5.309-.057-8.248,1.14-1.243,2.67.31,5.04,2.219-1.357-2.269-4.168-4.591-1.461-7.807,1.088-1.292,4.97.269,7.42,1.57-1.567-1.252-4.22-4.181-6.417-4.837-5.376-1.6-13.708-2.349-11.207-6.349.757-1.21,14.709-1.778,18,.531,4.707,3.3,8.153,7.051,14.617,12.281,1.476,1.2,10.246-8.611,14.118-9.774,3.8-1.139,6.5-.827,7.278,1.366.708,1.995-10.987,12.083-12.675,19.612-1.283,5.719-1.559,14.045-5.126,19.234-2.475,1.035-9.749,3.369-13.348,2.884-3.852-.518-10.39-7-17.157-14.671C1633.95,762.918,1633.25,760.11,1634.624,757.46Z" transform="translate(-1630.745 -732.009)" fill="#ffc19f"/>
      </g>
      <path id="Path_11025" data-name="Path 11025" d="M1735.12,941.276c-2.756,3.748-9.371,6.592-14.219,6.221-5.086-.39-10.4-1.874-14.355-7.966-10.929-16.841-20.521-66.626-22.588-74.995,1.963-.788,14.507-3.237,19.173-4,4.313,16.366,10.016,29.292,15.621,42.167C1725.306,917.759,1729.355,928.956,1735.12,941.276Z" transform="translate(-1627.692 -701.041)" fill="#2b000b" opacity="0.15"/>
      <path id="Path_11026" data-name="Path 11026" d="M1739.442,939.813c-2.832,4.842-9.434,7.582-13.979,7.108-4.768-.5-9.775-2.086-13.605-8.218-10.592-16.956-20.647-66.584-22.764-74.937,1.82-.74,13.505-2.9,17.855-3.557,4.391,16.34,10.007,29.295,15.531,42.2C1728.941,917.5,1733.781,927.457,1739.442,939.813Z" transform="translate(-1631.207 -700.818)" fill="#ffc19f"/>
      <g id="Group_1438" data-name="Group 1438" transform="translate(36.119 45.571)">
        <path id="Path_11027" data-name="Path 11027" d="M1701.151,690.743a.958.958,0,0,0,.519-.107.71.71,0,0,0,.3-1.087c-2.62-2.891-6.04-5.138-10.09-5.108a7.58,7.58,0,0,0-5.753,3.073.741.741,0,0,0,.321,1.088.97.97,0,0,0,1.215-.27,5.976,5.976,0,0,1,4.236-2.307c3.983-.014,6.7,2.311,8.557,4.33A1.073,1.073,0,0,0,1701.151,690.743Z" transform="translate(-1665.204 -626.138)" fill="#934341"/>
        <path id="Path_11028" data-name="Path 11028" d="M1620.49,504.19a13.642,13.642,0,0,1,7.116-4.078,25.477,25.477,0,0,1,13.8,1.893c1.035.5,1.475,2.862,1.449,3.564-.02.552-1.064.732-1.724.434a25.937,25.937,0,0,0-13.729-2.6,24.276,24.276,0,0,0-6.447,1.984C1620.275,505.729,1619.852,504.894,1620.49,504.19Z" transform="translate(-1620.175 -499.85)" fill="#4c0b00"/>
        <path id="Path_11029" data-name="Path 11029" d="M1769.7,537.372a4.475,4.475,0,0,0-1.635,5.066,6.275,6.275,0,0,1,2.147-3.917C1770.719,538.076,1769.923,537.22,1769.7,537.372Z" transform="translate(-1721.167 -525.509)" fill="#4c0b00"/>
        <path id="Path_11030" data-name="Path 11030" d="M1797.859,554.077a16.511,16.511,0,0,1-7.844-.41,32.033,32.033,0,0,1-13.579-6.944c-.893-.851-.343-3.256-.037-3.89.24-.5,1.325-.174,1.909.34a39.053,39.053,0,0,0,13.227,7.567c2.188.767,4.471,1.584,6.335,2.044C1798.662,552.98,1798.82,553.838,1797.859,554.077Z" transform="translate(-1726.748 -529.088)" fill="#4c0b00"/>
      </g>
    </g>
    <g id="Group_1440" data-name="Group 1440" transform="translate(390.394 558.623)">
      <path id="Path_11031" data-name="Path 11031" d="M467.373,1358.457H920.338l-19.694-48.35a3.988,3.988,0,0,0-3.612-2.633H496.48a3.911,3.911,0,0,0-3.413,2.205Z" transform="translate(-466.938 -1307.474)" fill="#fc6"/>
      <rect id="Rectangle_312" data-name="Rectangle 312" width="453.836" height="17.043" rx="0.297" transform="translate(453.836 67.279) rotate(180)" fill="#ef9e3f"/>
    </g>
    <path id="Rectangle_313" data-name="Rectangle 313" d="M23.98,0H74.618A23.981,23.981,0,0,1,98.6,23.981v0a23.98,23.98,0,0,1-23.98,23.98H23.98A23.98,23.98,0,0,1,0,23.981v0A23.98,23.98,0,0,1,23.98,0Z" transform="translate(560.865 497.007)" fill="#999188"/>
    <g id="Group_1447" data-name="Group 1447" transform="translate(540.844 383.491)">
      <path id="Path_11032" data-name="Path 11032" d="M1087.333,886.614c-3.812-3.587-4.563-5.774-4.978-15.937-.152-3.763-2.76-4.566-5.061-5.276-3.139-.969-4.856-2.656-4.429-8.816.393-5.653-1.934-7.2-5.017-10.167-4.053-3.906-7.16-4.963-8.793-14.223-3.156.659-106.615,20.455-106.615,20.455.082,8.417-2.1,8.894-4.407,14.878-2.7,6.988-3.059,12.631,1.144,18.536,1.664,2.342,2.446,3.536,2.11,5.668a12.294,12.294,0,0,1-4.2,7.551c-2.684,2.108-4.518,3.825-4.72,6.165-.273,3.172.983,4.365,2.73,6.824a9.792,9.792,0,0,1,1.565,6.25c-.957,4.991-3.382,7.594.853,11.983-3.1-4.8-.52-6.7.126-11.639a11.16,11.16,0,0,0-2.355-7.907c-1.629-2.278-1.934-3.7-1.809-5.133.168-1.933,1.789-3.622,4.176-5.624a13.544,13.544,0,0,0,4.646-8.269,5.789,5.789,0,0,0-.2-2.4c2.465,3.51,3.51,8.572-2.284,13.219-9.255,7.425,2.338,11.761,1.353,17.118-1.336,7.269-2.829,8.873-1.235,13.862,1.827,5.718,8.416,7.934,13.357,8.264-.148-.93-6.31-5.5-4.929-15.1,1.781,4.724,8.637,13.537,11,15.085,20.974.293,80.33-5.672,99.636-21.209,1.716-2.446,1.433-10.552,1.176-14.023,1.943,2.215,3.789,8.811,4.733,11.887,20.351-19.978,9.319-26.414,7.182-27.457-2.523-1.232-5.631-3.027-2.871-18.163,1.406-7.717-10.706-.891-9.479-14.227.834-9.068-6.642-8.836-8.342-15.466a61.028,61.028,0,0,0,5.693,4.678c3.31,2.584,4.7,4.948,4.7,8.729,0,8.183,2.2,8.775,5.229,9.708,2.338.722,4.577,1.3,4.306,4.253C1080.135,883.8,1086.283,886.5,1087.333,886.614Zm-138.167-2.531c-2.9-4.971-2.528-10.241.245-16.171C950.969,864.579,947.694,876.734,949.165,884.083Z" transform="translate(-942.329 -807.181)" fill="#752912"/>
      <path id="Path_11033" data-name="Path 11033" d="M1019.571,1161.95c4-7.266,15.325-28.447,17.551-30.79.834-.879,12.354-3.712,21.461-4.424-2.7,5.223-13.778,43.143-16.139,46.958C1038.835,1173.146,1023.885,1165.646,1019.571,1161.95Z" transform="translate(-995.174 -1008.69)" fill="#28afc6"/>
      <path id="Path_11034" data-name="Path 11034" d="M1339.084,1035.013c.44-.912-10.522-5.788-11.079-4.942-8.993,13.635-35.368,40.815-38.458,43.832,0,0,19.736-2.9,27.654-6.175C1323.488,1065.132,1333.866,1045.818,1339.084,1035.013Z" transform="translate(-1179.878 -942.49)" fill="#ffc19f"/>
      <path id="Path_11035" data-name="Path 11035" d="M1276.46,1104.59c1.872,5.545,5.387,18.512,6.395,23.745-10.685,3.709-22.913,7.891-23.831,7.659-9.548-2.4-13.918-23.026-14.526-24.145A280.933,280.933,0,0,0,1276.46,1104.59Z" transform="translate(-1149.058 -993.539)" fill="#28afc6"/>
      <g id="Group_1441" data-name="Group 1441" transform="translate(143.189 53.634)">
        <path id="Path_11036" data-name="Path 11036" d="M1401.091,942.308c2.041-6.458,5.669-19.939,7.23-19.494,4.615,1.315,2.207,11,.209,17.111-.219.67-.419,1.273-.611,1.843,5.442,3.251,9.937,7.722,13.1,8.889-3.47,7.545-6.476,10.841-8.789,11.814-4.229,1.778-9.138,1.147-12.33-3.429-2.371-3.4-3.313-6.363-3.318-13.662C1397.71,944.684,1399.8,943.8,1401.091,942.308Z" transform="translate(-1396.297 -922.804)" fill="#ffc19f"/>
        <path id="Path_11037" data-name="Path 11037" d="M1415.807,987.8c5.707,4.041,12.978-.274,13.221-5.306-1.318-.466-8.544-7.19-9.846-13.972-4.825.384-6.352,10.427-7.989,10.058A8.1,8.1,0,0,1,1415.807,987.8Z" transform="translate(-1406.291 -954.082)" fill="#6b1808" opacity="0.14"/>
        <path id="Path_11038" data-name="Path 11038" d="M1422.379,973c1.264-3.372,3.643-5.589,5.314-4.952,1.5.574,1.91,3.27,1.054,6.264,1.615-2.066,3.608-3.114,4.938-2.391,1.431.779,1.61,3.337.564,6.064,1.639-.978,3.245-1.19,4.132-.356,1.31,1.23.557,4.229-1.681,6.7s-5.114,3.475-6.423,2.245c-.718-.674-.8-1.886-.37-3.245a2.549,2.549,0,0,1-2.349.146c-1.231-.67-1.535-2.662-.931-4.941-1.151,1.411-2.469,2.125-3.51,1.727C1421.445,979.623,1421.115,976.372,1422.379,973Z" transform="translate(-1413.418 -953.683)" fill="#ffc19f"/>
        <path id="Path_11039" data-name="Path 11039" d="M1410.35,983.224c.395,2-.156,5.076-3.3,5.455-2.909.35-6.908-1.175-7.3-3.179s1.8-4.124,4.91-4.738S1409.955,981.221,1410.35,983.224Z" transform="translate(-1398.429 -962.339)" fill="#541000" opacity="0.21"/>
        <path id="Path_11040" data-name="Path 11040" d="M1407.594,983.573c.376,1.906-1.979,3.976-5.26,4.623s-6.246-.373-6.622-2.279,1.979-3.976,5.26-4.623S1407.217,981.667,1407.594,983.573Z" transform="translate(-1395.672 -962.687)" fill="#ffc19f"/>
      </g>
      <path id="Path_11041" data-name="Path 11041" d="M1073.33,1198.294c19.6,7.686,55.972,7.97,73.3-.439,0,0-6.165-62.311-8.681-75.92a166.23,166.23,0,0,1-22.788.665c-11.486-.439-24.545,1.244-32.692,2.795C1080.195,1142.663,1076.086,1172.778,1073.33,1198.294Z" transform="translate(-1031.953 -1005.406)" fill="#28afc6"/>
      <g id="Group_1442" data-name="Group 1442" transform="translate(66.168 141.711)">
        <path id="Path_11042" data-name="Path 11042" d="M1152.315,1201.737c-.959,1.911-.4,5.129.615,6.751,1.725,2.755,5.13,3.105,6.885.681C1160.6,1208.084,1154.926,1204.416,1152.315,1201.737Z" transform="translate(-1151.82 -1201.714)" fill="#ffb8b6"/>
        <path id="Path_11043" data-name="Path 11043" d="M1157.364,1213.377c-.259,1.036.6,2.791,1.468,3.679,1.477,1.509,3.561,1.716,4.21.406C1163.332,1216.875,1159.355,1214.849,1157.364,1213.377Z" transform="translate(-1155.581 -1209.677)" fill="#e08686"/>
        <path id="Path_11044" data-name="Path 11044" d="M1236.214,1201.663c.94,1.923.351,5.134-.68,6.744-1.751,2.736-5.159,3.046-6.892.6C1227.866,1207.915,1233.577,1204.312,1236.214,1201.663Z" transform="translate(-1204.328 -1201.663)" fill="#ffb8b6"/>
        <path id="Path_11045" data-name="Path 11045" d="M1236.166,1213.257c.249,1.039-.626,2.784-1.5,3.662-1.491,1.491-3.576,1.675-4.214.357C1230.164,1216.686,1234.161,1214.706,1236.166,1213.257Z" transform="translate(-1205.604 -1209.595)" fill="#e08686"/>
        <path id="Path_11046" data-name="Path 11046" d="M1184.929,1233.655c-4.113,4.456-14.95,5.5-21.067,1.512-4.878-3.177-5.333-8.984-1.6-15.3,3.373-5.71,9.959-9.4,16.871-5.743C1184.384,1216.9,1191.271,1226.783,1184.929,1233.655Z" transform="translate(-1157.271 -1209.188)" fill="#ffb8b6"/>
        <path id="Path_11047" data-name="Path 11047" d="M1217.355,1257.873a1.271,1.271,0,0,1-1.543.939,1.293,1.293,0,0,1-.928-1.566,1.271,1.271,0,0,1,1.543-.939A1.293,1.293,0,0,1,1217.355,1257.873Z" transform="translate(-1194.94 -1239.021)" fill="#773733"/>
        <path id="Path_11048" data-name="Path 11048" d="M1185.807,1257.215a1.271,1.271,0,0,1-1.543.938,1.293,1.293,0,0,1-.928-1.565,1.271,1.271,0,0,1,1.543-.938A1.293,1.293,0,0,1,1185.807,1257.215Z" transform="translate(-1173.356 -1238.571)" fill="#773733"/>
        <path id="Path_11049" data-name="Path 11049" d="M1222.332,1232.992c-.14.328-.677.406-1.2.177s-.833-.682-.694-1.01.677-.407,1.2-.176S1222.472,1232.664,1222.332,1232.992Z" transform="translate(-1198.742 -1222.316)" fill="#8e4d4c"/>
        <path id="Path_11050" data-name="Path 11050" d="M1183.059,1232.431c.077.349-.311.734-.866.861s-1.069-.053-1.147-.4.31-.734.866-.861S1182.981,1232.083,1183.059,1232.431Z" transform="translate(-1171.808 -1222.411)" fill="#8e4d4c"/>
        <path id="Path_11051" data-name="Path 11051" d="M1196.217,1267.044c.31,2.427-1.976,4.943-5.512,4.921-2.976-.019-6.056-3.1-4.817-5.621C1187.252,1263.567,1195.752,1263.4,1196.217,1267.044Z" transform="translate(-1174.935 -1244.503)" fill="#fff0f0"/>
        <path id="Path_11052" data-name="Path 11052" d="M1198.26,1270.936a1.582,1.582,0,0,1-.62-.018,1.93,1.93,0,0,1-1.253-.936,2.156,2.156,0,0,1-1.05,1.041,1.344,1.344,0,0,1-1.671-.518.2.2,0,0,1,.038-.284.2.2,0,0,1,.28.038.942.942,0,0,0,1.2.388,1.723,1.723,0,0,0,.99-1.361,1.833,1.833,0,0,1-.008-.2.2.2,0,0,1,.4-.025,1.228,1.228,0,0,1,.01.21,1.457,1.457,0,0,0,1.151,1.25.944.944,0,0,0,1.133-.515.2.2,0,0,1,.263-.1.2.2,0,0,1,.1.267A1.272,1.272,0,0,1,1198.26,1270.936Z" transform="translate(-1180.422 -1247.654)" fill="#8e4d4c"/>
        <path id="Path_11053" data-name="Path 11053" d="M1200.361,1264.851c.021.7-1.3,1.307-1.656,1.258-.433-.061-1.633-.61-1.655-1.312S1200.339,1264.148,1200.361,1264.851Z" transform="translate(-1182.764 -1244.513)" fill="#773733"/>
      </g>
      <path id="Path_11054" data-name="Path 11054" d="M1173.594,1126.986a14.434,14.434,0,0,0-.563-3.339c-9.128-.2-23.373-.939-33.389.762a7.977,7.977,0,0,0-.258,1.175c-.291,7.086,7.132,13.144,16.579,13.53S1173.3,1134.073,1173.594,1126.986Z" transform="translate(-1077.138 -1006.349)" fill="#ffc19f"/>
      <path id="Path_11055" data-name="Path 11055" d="M1180.34,1071.013l.309,20.01c.067,4.3-5.348,7.876-12.094,7.98s-12.268-3.3-12.335-7.6l-.309-20.01Z" transform="translate(-1088.451 -970.567)" fill="#ffc19f"/>
      <path id="Path_11056" data-name="Path 11056" d="M1195.016,1039.48c0,9.053-9.92,16.392-22.158,16.392s-22.158-7.339-22.158-16.392,9.92-16.391,22.158-16.391S1195.016,1030.428,1195.016,1039.48Z" transform="translate(-1084.886 -937.78)" fill="#601805" opacity="0.19"/>
      <path id="Path_11057" data-name="Path 11057" d="M970.249,810.2c5.009,30.2,27.01,50.038,57.354,46.967,30.738-3.111,61.527-41.229,50.877-76.356-5.913-19.5-26.927-32.518-55.768-26.2C992.015,761.326,965.272,780.188,970.249,810.2Z" transform="translate(-961.02 -752.997)" fill="#752912"/>
      <path id="Path_11058" data-name="Path 11058" d="M1029.209,827.189c-.343,4.9,16.65,49.742,25.892,56.587,8.4,6.224,36.231,9.044,48.115,6.093,8.408-2.087,23.631-15.657,24.639-26.946.862-9.643-1.479-13.263-3.7-20.566a120.592,120.592,0,0,1-4.188-20.695c-.688-5.91-1.833-13.156-4.007-17-10.222-18.061-29.111-14.336-50.977-9.7C1044.523,799.3,1030.45,809.464,1029.209,827.189Z" transform="translate(-1001.764 -779.099)" fill="#ffc19f"/>
      <path id="Path_11059" data-name="Path 11059" d="M1020.864,912.365c-3.805.679-27.815-.229-33.044-9.839-3.243-5.959-5.219-15.72-5.086-22.523.221-11.372,12.307-26.171,19.684-24.179C1003.014,866,1019.539,907.354,1020.864,912.365Z" transform="translate(-969.968 -823.222)" fill="#752912"/>
      <path id="Path_11060" data-name="Path 11060" d="M1023.651,995.75c6.215,9.1,18.239,11.9,25.225,8.284s-4.6-33.127-18.764-30.973C1018.317,974.855,1017.809,987.2,1023.651,995.75Z" transform="translate(-995.47 -903.476)" fill="#ffc19f"/>
      <path id="Path_11061" data-name="Path 11061" d="M1056.234,1011.076c2.09,4.037,8.128,5.919,11.3,3.467,1.236-.956-6.4-14.91-8.636-14.114C1055.12,1001.774,1054.144,1007.039,1056.234,1011.076Z" transform="translate(-1019.519 -922.255)" fill="#e0956c"/>
      <g id="Group_1443" data-name="Group 1443" transform="translate(81.1 79.474)">
        <path id="Path_11062" data-name="Path 11062" d="M1199.1,1012.8c.075-3.794,5.746-4.13,13.357-5.774.4-.086,1.949-.408,2.349-.488,7.637-1.521,11.912-3.371,13.043.256,2.043,6.555-2.176,14.851-9.82,16.883C1210.411,1025.7,1198.949,1020.252,1199.1,1012.8Z" transform="translate(-1199.097 -1004.665)" fill="#701608"/>
        <path id="Path_11063" data-name="Path 11063" d="M1246.134,1048.837a13.528,13.528,0,0,1-6.257,3.767,16.478,16.478,0,0,1-8.844-.454,11.713,11.713,0,0,1,7.6-4.991A9.056,9.056,0,0,1,1246.134,1048.837Z" transform="translate(-1220.946 -1033.596)" fill="#dd6b5b"/>
        <path id="Path_11064" data-name="Path 11064" d="M1212.712,1008.988l-.068-.155s9.1-1.987,12.281-2.622c2.912-.581,7.7-1.836,9.508-1.556v.169c-.037,2.769-4.223,5.3-9.86,6.469S1213.854,1011.512,1212.712,1008.988Z" transform="translate(-1208.365 -1004.615)" fill="#fff"/>
      </g>
      <path id="Path_11065" data-name="Path 11065" d="M1130.116,1024.766c.382,2.211,3.764,3.473,7.556,2.818s6.554-2.978,6.172-5.189-3.765-3.472-7.554-2.818S1129.734,1022.555,1130.116,1024.766Z" transform="translate(-1070.779 -935.259)" fill="#ff8a8a"/>
      <path id="Path_11066" data-name="Path 11066" d="M1310.818,986.132c.532,1.923,2.809,2.971,5.087,2.34s3.692-2.7,3.16-4.623-2.811-2.97-5.087-2.34S1310.286,984.209,1310.818,986.132Z" transform="translate(-1194.354 -909.208)" fill="#ff8a8a"/>
      <path id="Path_11067" data-name="Path 11067" d="M1231.054,983.23a.514.514,0,0,0,.406-.525,3.666,3.666,0,0,1,7.024-1.5.513.513,0,1,0,.963-.353,4.691,4.691,0,0,0-9.013,1.9.514.514,0,0,0,.536.49Z" transform="translate(-1139.433 -906.912)" fill="#c4735b"/>
      <g id="Group_1444" data-name="Group 1444" transform="translate(103.17 49.693)">
        <path id="Path_11068" data-name="Path 11068" d="M1270.97,934.2s12,2.492,14.41-6.406c2.943-10.843-6.512-16.864-11.223-14.273C1269.8,915.916,1266.794,922.444,1270.97,934.2Z" transform="translate(-1268.971 -912.102)" fill="#f9feff"/>
        <path id="Path_11069" data-name="Path 11069" d="M1284.229,913.4c-2.8-3.1-5.768-3.63-8.633-2.582-2.929,1.071-5.336,4.707-5.529,7.964a9.8,9.8,0,0,1,5.02-6.574c2.594-1.432,6.613-.485,9.012,2.647a13.94,13.94,0,0,1,1.949,11.444C1287.717,923.394,1287.148,916.635,1284.229,913.4Z" transform="translate(-1269.721 -910.328)" fill="#773220"/>
        <path id="Path_11070" data-name="Path 11070" d="M1285.4,929.63c-.237,3.719,1.862,7.424,4.689,8.274s5.31-1.476,5.548-5.2-1.863-7.424-4.689-8.274S1285.634,925.911,1285.4,929.63Z" transform="translate(-1280.197 -919.859)" fill="#63190d"/>
        <path id="Path_11071" data-name="Path 11071" d="M1285.931,934.326a2.253,2.253,0,0,0,1.3,2.3c.785.236,1.474-.41,1.539-1.442a2.252,2.252,0,0,0-1.3-2.3C1286.686,932.649,1286,933.294,1285.931,934.326Z" transform="translate(-1280.571 -925.727)" fill="#fefffe"/>
      </g>
      <g id="Group_1445" data-name="Group 1445" transform="translate(58.924 58.475)">
        <path id="Path_11072" data-name="Path 11072" d="M1154.484,956.97s-12.715,7.865-19.7,1.011c-8.508-8.353-.394-18.2,6.277-18.079C1147.237,940.009,1153.789,944.459,1154.484,956.97Z" transform="translate(-1130.42 -939.342)" fill="#f9feff"/>
        <path id="Path_11073" data-name="Path 11073" d="M1129.516,944.551a10.15,10.15,0,0,1,8.78-6.368c3.894-.412,8.393,1.722,10.148,4.556a12.183,12.183,0,0,0-8.9-3.547,10.071,10.071,0,0,0-9.189,6.605c-1.16,3.5,0,8.123,3.128,11.188C1130.18,955.158,1127.659,948.823,1129.516,944.551Z" transform="translate(-1128.886 -938.131)" fill="#773220"/>
        <path id="Path_11074" data-name="Path 11074" d="M1157.227,956.938a7.235,7.235,0,0,0,5.387,8.114c3.478.7,6.705-1.8,7.208-5.578a7.235,7.235,0,0,0-5.386-8.114C1160.958,950.659,1157.73,953.156,1157.227,956.938Z" transform="translate(-1148.23 -947.101)" fill="#63190d"/>
        <path id="Path_11075" data-name="Path 11075" d="M1158.169,962.067a2.007,2.007,0,0,0,1.495,2.251,1.71,1.71,0,0,0,2-1.548,2.008,2.008,0,0,0-1.494-2.251A1.711,1.711,0,0,0,1158.169,962.067Z" transform="translate(-1148.907 -953.425)" fill="#fefffe"/>
      </g>
      <path id="Path_11076" data-name="Path 11076" d="M1106.224,760.509c-12.574-6.847-22.183-9.762-40.944-4.925-13.365,3.446-31.246,9.213-38.592,18.485-7.991,10.087,4.322,39.9,6.061,37.12,1.991-3.185,7.672-7.053,12.287-10.251-.166-3.057,1.4-11.219,1.837-12.363.161,1.595,1.222,7.073,1.813,9.985a108.421,108.421,0,0,1,19.8-9.374c-1-3-.751-7.318-.8-7.527,1.078.68,3.922,4.471,5.137,6.084q1.6-.491,3.174-.916c9.637-2.594,16.951-3.842,22.97-4.157-2.931-9.3-3.79-12.216-3.666-11.562,1.583,1.7,4.493,7.077,5.826,11.487a49.777,49.777,0,0,1,6.327.286c-.582-2.78-1.263-7.348-1.395-8.119.891.3,3.987,5.944,5.293,8.723,3.362.67,4.388,1.25,7.785,1.706C1119.984,781.6,1114.052,764.772,1106.224,760.509Z" transform="translate(-998.216 -753.128)" fill="#752912"/>
      <g id="Group_1446" data-name="Group 1446" transform="translate(17 42.747)">
        <path id="Path_11077" data-name="Path 11077" d="M998.615,914.925s-1.042,8.592,3.663,7.333,7.588-5.754,6.441-10.038-5.89-6.736-10.595-5.477S998.615,914.925,998.615,914.925Z" transform="translate(-996.153 -900.703)" fill="#f9951e"/>
        <path id="Path_11078" data-name="Path 11078" d="M1061.492,895.8s5.2,6.922.491,8.181-9.448-1.192-10.595-5.477,1.737-8.778,6.441-10.038S1061.492,895.8,1061.492,895.8Z" transform="translate(-1033.771 -888.336)" fill="#f9951e"/>
        <path id="Path_11079" data-name="Path 11079" d="M1039.524,914.035a3.385,3.385,0,1,1-4.23-2.817A3.609,3.609,0,0,1,1039.524,914.035Z" transform="translate(-1021.286 -903.921)" fill="#f9951e"/>
      </g>
      <path id="Path_11080" data-name="Path 11080" d="M1101.705,906.874a1.773,1.773,0,0,0,.986-.764c2.967-4.809,10.393-8.212,17.292-7.908a1.772,1.772,0,0,0,1.855-1.632,1.693,1.693,0,0,0-1.641-1.785c-8.23-.358-16.854,3.679-20.5,9.6a1.67,1.67,0,0,0,.589,2.338A1.76,1.76,0,0,0,1101.705,906.874Z" transform="translate(-1049.821 -849.986)" fill="#681d0c"/>
      <path id="Path_11081" data-name="Path 11081" d="M1278.661,873.238a1.213,1.213,0,0,0,.84-.653,2.233,2.233,0,0,0-.59-2.4c-4.505-2.975-11.457-2.656-16.53.75a2.115,2.115,0,0,0-.281,2.4,1.245,1.245,0,0,0,1.779.5c4.25-2.862,10.214-3.194,13.874-.773A1.2,1.2,0,0,0,1278.661,873.238Z" transform="translate(-1160.936 -831.776)" fill="#681d0c"/>
    </g>
    <g id="Group_1454" data-name="Group 1454" transform="translate(553.597 558.288)">
      <path id="Path_11082" data-name="Path 11082" d="M1051.861,1342.81a385.78,385.78,0,0,0-65.349.7c-.092-.06-.336-2.4-.41-2.478l22.114-26.025c10.427-2.789,33.864,5.322,43.645,7.631Z" transform="translate(-985.03 -1311.899)" fill="#059299"/>
      <path id="Path_11083" data-name="Path 11083" d="M1051.343,1335.1c-20.037-1.721-44.532-1.829-63.925.14a40.017,40.017,0,0,0-2.074-6.28l22.353-19.989c10.427-2.789,33.865-2.228,43.645.081Z" transform="translate(-984.511 -1306.877)" fill="#ccc"/>
      <g id="Group_1448" data-name="Group 1448" transform="translate(0.549 0.123)">
        <path id="Path_11084" data-name="Path 11084" d="M1051.343,1328.826c-19.152-2.615-46.907-2.211-66,.133l22.353-19.989c10.427-2.789,33.865-2.228,43.645.081Z" transform="translate(-985.06 -1307)" fill="#e0e0e0"/>
        <path id="Path_11085" data-name="Path 11085" d="M984.5,1328.734c-.078-.031-.062.035,0,0L1006.9,1308.7c10.356-2.77,33.958-2.3,44.017.078a.149.149,0,0,1,.1.1v19.713a.563.563,0,0,1-.167.082.886.886,0,0,1-.279,0c-17.731-2.421-45.36-2.357-65.744.146l-.1-.057A1.792,1.792,0,0,1,984.5,1328.734Zm65.952-.3v-19.556c-9.962-2.312-32.985-2.743-43.152-.041l-21.911,19.712a308.987,308.987,0,0,1,35.071-1.837A238.151,238.151,0,0,1,1050.45,1328.432Z" transform="translate(-984.445 -1306.801)" fill="#d4d6d6"/>
      </g>
      <g id="Group_1449" data-name="Group 1449" transform="translate(0.182 0.123)">
        <path id="Path_11086" data-name="Path 11086" d="M1050.548,1328.826c-18.405-3.135-46.338-3.433-66.366-.9l22.72-18.961c10.427-2.789,33.865-2.228,43.645.081Z" transform="translate(-983.898 -1307)" fill="#efefef"/>
        <path id="Path_11087" data-name="Path 11087" d="M1049.777,1328.672c-18.011-3.068-45.806-3.424-66.108-.851a.712.712,0,0,1-.331-.086c-.078-.032-.069.034,0,0l22.771-19.038c10.356-2.77,33.958-2.3,44.017.078a.149.149,0,0,1,.1.1v19.713a.473.473,0,0,1-.167.082l-.124-.045Zm-43.275-19.836-22.212,18.705c20.207-2.459,47.457-2.093,65.364.891v-19.556C1039.689,1306.564,1016.665,1306.132,1006.5,1308.836Z" transform="translate(-983.282 -1306.801)" fill="#d4d6d6"/>
      </g>
      <g id="Group_1450" data-name="Group 1450" transform="translate(0)">
        <path id="Path_11088" data-name="Path 11088" d="M1050.154,1328.559c-19.177-4.324-45.906-4.759-66.547-2.28l22.664-17.8c10.428-2.789,34.1-2.009,43.883.3Z" transform="translate(-983.322 -1306.61)" fill="#fff"/>
        <path id="Path_11089" data-name="Path 11089" d="M1049.382,1328.406c-17.913-4.039-43.944-4.918-66.295-2.235a.674.674,0,0,1-.326-.089c-.075-.034-.074.033,0,0l22.714-17.87c10.193-2.726,33.956-2.134,44.255.3a.149.149,0,0,1,.1.1v19.713a.387.387,0,0,1-.167.082l-.123-.045Zm-43.521-20.053-22.091,17.535c22.131-2.554,47.682-1.657,65.488,2.278v-19.556C1039.058,1306.241,1015.863,1305.692,1005.862,1308.353Z" transform="translate(-982.706 -1306.413)" fill="#d4d6d6"/>
      </g>
      <path id="Path_11090" data-name="Path 11090" d="M1194.3,1340.147a385.149,385.149,0,0,1,65.291.942c.092-.059.338-2.4.411-2.476l-22.005-18.556c-50.384-13.688,6.075-11.628-43.7-.081Z" transform="translate(-1127.466 -1309.236)" fill="#059299"/>
      <path id="Path_11091" data-name="Path 11091" d="M1194.3,1335.666c20.049-1.647,44.514-2.26,63.893-.219a33.525,33.525,0,0,1,2.07-5.678l-27.45-19.719c-10.408-2.827-28.716-2.706-38.513-.433Z" transform="translate(-1127.467 -1307.443)" fill="#ccc"/>
      <g id="Group_1451" data-name="Group 1451" transform="translate(66.554 0.401)">
        <path id="Path_11092" data-name="Path 11092" d="M1194.3,1329.391c19.171-2.544,46.888-2.038,65.963.376l-28.162-19.72c-10.407-2.828-28-2.7-37.8-.432Z" transform="translate(-1194.021 -1307.843)" fill="#e0e0e0"/>
        <path id="Path_11093" data-name="Path 11093" d="M1259.56,1329.664c-20.366-2.578-47.993-2.745-65.74-.389a.886.886,0,0,1-.279,0,.222.222,0,0,1-.123-.083v-19.713a.3.3,0,0,1,.138-.1c9.315-2.161,27.285-2.506,38.143.444l28.187,19.755c.078.034.076-.034,0,0a1.244,1.244,0,0,1-.227.032Zm-65.573-20.184v19.554c19.859-2.578,47.327-1.786,64.839.337l-27.533-19.417C1220.675,1307.077,1203.162,1307.384,1193.986,1309.48Z" transform="translate(-1193.418 -1307.682)" fill="#d4d6d6"/>
      </g>
      <g id="Group_1452" data-name="Group 1452" transform="translate(66.554 0.235)">
        <path id="Path_11094" data-name="Path 11094" d="M1194.3,1329.1c18.427-3.067,46.664-3.542,66.673-.93l-25.124-18.682c-10.408-2.828-31.752-2.436-41.549-.163Z" transform="translate(-1194.021 -1307.388)" fill="#efefef"/>
        <path id="Path_11095" data-name="Path 11095" d="M1193.541,1328.916a.2.2,0,0,1-.123-.083V1309.12a.294.294,0,0,1,.138-.1c10.016-2.323,31.326-2.694,41.892.176l25.148,18.747c.077.034.077-.033,0,0a.664.664,0,0,1-.33.088c-19.846-2.591-47.783-2.219-66.447.886l-.123-.044Zm66.008-1.18-24.509-18.41c-10.173-2.754-31.352-2.417-41.053-.2v19.554a262.484,262.484,0,0,1,65.562-.94Z" transform="translate(-1193.418 -1307.157)" fill="#d4d6d6"/>
      </g>
      <g id="Group_1453" data-name="Group 1453" transform="translate(66.554 0.085)">
        <path id="Path_11096" data-name="Path 11096" d="M1194.3,1328.751c18.822-4.423,48.117-4.865,66.679-2.591l-23.121-17.322c-10.408-2.827-33.761-2.135-43.558.138Z" transform="translate(-1194.021 -1306.886)" fill="#fff"/>
        <path id="Path_11097" data-name="Path 11097" d="M1193.541,1328.59a.16.16,0,0,1-.123-.083v-19.712a.294.294,0,0,1,.138-.1c4.857-1.127,13.168-1.893,21.689-2,9.314-.115,17.421.572,22.21,1.872l23.147,17.387c.079.034.075-.034,0,0a.641.641,0,0,1-.324.09c-17.724-2.171-47.053-2.012-66.458,2.547l-.123-.045Zm66-2.836-22.49-17.055c-9.89-2.676-32.931-2.216-43.064.1v19.554c11.886-2.731,27.31-3.877,41.582-3.85A219.556,219.556,0,0,1,1259.54,1325.754Z" transform="translate(-1193.418 -1306.681)" fill="#d4d6d6"/>
      </g>
    </g>
    <g id="Group_1458" data-name="Group 1458" transform="translate(568.84 529.547)">
      <path id="Path_11098" data-name="Path 11098" d="M1076.7,1268.807c1.128-1.664.753-10.74-.185-12.273-15.432.129-37.541-5.283-45.207-7.982,0,0-2.141,11.92,4.265,17.346C1040.274,1269.878,1061.757,1271.081,1076.7,1268.807Z" transform="translate(-1030.966 -1238.086)" fill="#ffc19f"/>
      <g id="Group_1457" data-name="Group 1457" transform="translate(39.34)">
        <path id="Path_11099" data-name="Path 11099" d="M1220.2,1267.036c1.093,1.53,5.071,9.35,3.106,9.447-1.578.077-15.17-11.667-13.885-12.585C1211.924,1263.9,1219.106,1265.507,1220.2,1267.036Z" transform="translate(-1192.337 -1248.585)" fill="#f29d77"/>
        <g id="Group_1455" data-name="Group 1455" transform="translate(12.327)">
          <path id="Path_11100" data-name="Path 11100" d="M1198.7,1221.906l.93-.571a1.352,1.352,0,0,0,.443-1.859l-2.1-3.414a1.351,1.351,0,0,0-1.859-.443l-.93.572a1.352,1.352,0,0,0-.444,1.859l2.1,3.413A1.351,1.351,0,0,0,1198.7,1221.906Z" transform="translate(-1194.544 -1215.418)" fill="#d6d6d6"/>
          <rect id="Rectangle_314" data-name="Rectangle 314" width="3.953" height="1.024" transform="translate(4.466 2.174) rotate(148.422)" fill="#bfbfbf"/>
          <path id="Path_11101" data-name="Path 11101" d="M1254.857,1316.572l3.255-2,2.128,7.042Z" transform="translate(-1235.807 -1283.253)" fill="#e5b7a5"/>
          <path id="Path_11102" data-name="Path 11102" d="M1266.557,1330.555l1.045-.643.7,2.291Z" transform="translate(-1243.812 -1293.75)" fill="#161616"/>
          <rect id="Rectangle_315" data-name="Rectangle 315" width="3.953" height="34.356" transform="translate(1.091 4.249) rotate(-31.578)" fill="#f44d19"/>
        </g>
        <g id="Group_1456" data-name="Group 1456" transform="translate(0 15.077)">
          <path id="Path_11103" data-name="Path 11103" d="M1173.892,1279.2c.348.894-2.186,3.063-3.59,2.565-1.054-.374-2.107-1.323-1.669-.222.483,1.213-1.982,2.133-3.55,1.375-1.837-.888-8.865-7.841-9.116-8.478a7.863,7.863,0,0,1,2.779-8.879c2.62-1.548,7.882-2.941,14.491-2.2,3.468,2.984,8.121,5.843,10.107,7.83,4.7,4.706,6.712,6.363,5.616,7.3-2.071,1.776-6.974-1.1-9.383-3.3a34.012,34.012,0,0,0-6.087-3.677c-.591.263,4.68,3.953,6.364,5.768.283,1.657-2.953,3.388-4.714,2.089-1.692-1.248-4.026-3.224-5.192-4.1A33.04,33.04,0,0,0,1173.892,1279.2Z" transform="translate(-1155.518 -1263.151)" fill="#ffc19f"/>
          <path id="Path_11104" data-name="Path 11104" d="M1203.953,1274.019a.643.643,0,0,1-.165.176.123.123,0,1,1,.165-.176Z" transform="translate(-1188.391 -1270.586)" fill="#ffc19f"/>
        </g>
      </g>
    </g>
    <g id="Group_1462" data-name="Group 1462" transform="translate(421.032 505.118)">
      <path id="Path_11105" data-name="Path 11105" d="M594.761,1357.718c.013,1.19,5.319,2.1,11.852,2.028s11.818-1.091,11.806-2.28-5.319-2.1-11.852-2.028S594.748,1356.529,594.761,1357.718Z" transform="translate(-584.728 -1286.781)" fill="#720303" opacity="0.18"/>
      <path id="Path_11106" data-name="Path 11106" d="M617.077,1355.31c-1.364-.1-2.877-.15-4.478-.133s-3.112.1-4.474.228l-6.224.067.019,1.768c.012,1.076,4.812,1.9,10.721,1.833s10.691-.986,10.679-2.062l-.019-1.767Z" transform="translate(-589.613 -1286.603)" fill="#aababc"/>
      <path id="Path_11107" data-name="Path 11107" d="M601.9,1351.643c.012,1.076,4.812,1.9,10.721,1.834s10.691-.986,10.679-2.062-4.812-1.9-10.721-1.834S601.889,1350.567,601.9,1351.643Z" transform="translate(-589.613 -1282.774)" fill="#cad7d8"/>
      <path id="Path_11108" data-name="Path 11108" d="M632.123,1334.042l-5.384.056.065,6.353c0,.279,1.211.491,2.7.476s2.69-.254,2.687-.533Z" transform="translate(-606.606 -1272.145)" fill="#aababc"/>
      <path id="Path_11109" data-name="Path 11109" d="M626.739,1333.057c0,.278,1.211.489,2.7.473s2.689-.25,2.686-.529-1.209-.5-2.7-.48S626.736,1332.778,626.739,1333.057Z" transform="translate(-606.606 -1271.104)" fill="#cad7d8"/>
      <g id="Group_1461" data-name="Group 1461" transform="translate(0 0)">
        <path id="Path_11110" data-name="Path 11110" d="M621.206,1198.078a30.648,30.648,0,0,0,8.777.322,30.493,30.493,0,0,0,2.112-60.313.856.856,0,0,0-1,.69l-10.583,58.305A.857.857,0,0,0,621.206,1198.078Zm1.156-1.573,10.262-56.539a28.743,28.743,0,0,1-10.262,56.539Z" transform="translate(-602.339 -1138.074)" fill="#aababc"/>
        <g id="Group_1460" data-name="Group 1460" transform="translate(0 6.176)">
          <path id="Path_11111" data-name="Path 11111" d="M563.39,1177.536a24.233,24.233,0,1,0,28.172-19.516A24.234,24.234,0,0,0,563.39,1177.536Z" transform="translate(-562.996 -1157.626)" fill="#1da9bf"/>
          <path id="Path_11112" data-name="Path 11112" d="M616.079,1220.775c-.07.723-.151,1.447-.283,2.174a26.111,26.111,0,0,1-45.467,12.4,24.2,24.2,0,0,0,45.749-14.577Z" transform="translate(-568.014 -1200.829)" fill="#015b70" opacity="0.28"/>
          <g id="Group_1459" data-name="Group 1459" transform="translate(0.139 0.066)">
            <path id="Path_11113" data-name="Path 11113" d="M642.629,1158.128a.652.652,0,0,1,.263-.161q.638.081,1.278.2a24.475,24.475,0,0,1,3.154.8,1.634,1.634,0,0,1,.66.561c.259.567,1.409.6,1.671,1.4.108.328-1.595-.176-1.846,0-.67.353-.346,1.079-1.073,1.647-.725.7.549.77.583,1.412-.816,1.876-3.03,3.883-3.222,2.371a7.845,7.845,0,0,0-.67-2.127c-.965-1.583-3.315-1.5-3.524-2.677-.11-.616.644-.544.577-1-.174-1.19,1.02-.762,1.013-1.655,0-.242-.169-.865.063-1.063l.306.025C642.13,1158,642.468,1158.31,642.629,1158.128Z" transform="translate(-615.743 -1157.835)" fill="#b1d57e"/>
            <path id="Path_11114" data-name="Path 11114" d="M632.616,1193.9c.309-.559,4.881,1.018,3.522-.944-.18-.26.748-.918,1.386-1.094.736-.2,1.4.173,1.776-.047,1.729-1,1.966-1.035,3.436-.65,1.19.312,2.107-.956,3.327,1.273.289-.31.666-.6.777-.442.178.256.263.879,1.349.126.648-.449.41-1.758.426-1.842.027-.135,1.47.26,1.506.062.155-.853-.257-1.8-.021-2.063.133-.151.911.068.919.219.035.667.092,1.616.853,1.211,1.565-.833,1.49-4.237.854-4.105a3.712,3.712,0,0,1-1.43.029c-.1-.018-.406-1.239-.86-.955-.614.384-.94,2.418-1.85,1.91-.2-.109.764-2.936.587-3.068a18.7,18.7,0,0,1-1.637-1.318c-.624-.659.425-1.52-.9-2.9-1.348-1.411-2.124-1.2-2.791-2.356-.412-.713,2.117-.39,1.648-.941s-4.13-1.436-4.236-1.956c-.165-.808,1.6-.676,2.567-2.841.154-.342.423,1.1.889.953.318-.1.167-.635.5-.9.636-.5,1.714-.842,1.774-.276.234,2.236,1.549,5.2,2.031,4.7.311-.325.081-.828.116-1.267.063-.78,2.3-.018,2.03-1.663s-4.363-3.365-4.631-5.155c-.038-.25-1.225.134-1.261.695-.016.239.55,2.13.325,2.217-1.7.66-2.474-1.325-2.869-1.94-.416-.647,1.534-.36,1.005-1.031-.508-.644,1.587-1.609,1.043-2.186a17.755,17.755,0,0,0-2.434-2.111,24.263,24.263,0,0,1,15.019,20.116c-1.694,4.858-4.158,8.674-5.572,7.384-.44-.4-.762.75-1.295.653a1.791,1.791,0,0,0-1.717,1.043c-.122.234-1.964.853-1.955.595.021-.607-.53-.271-.865-.106-.2.437-.551,1-.449,1.173a2.787,2.787,0,0,1-.078,2.756c-2.172,1.505-2.834,2.968-4.981,3.167-.491.045-2.575,3.719-2.728,4.562-.076.417-3.191,2.607-4.834,2.5-.516-.033,2.514-1.39,2-2.144-.309-.451-1.024-1.528-1.289-2.054-.447-.89-.242-1.937-.408-2.312-.5-1.125-2-.761-1.86-1.737.367-2.629-1.256-3.36-1.067-4.181C630.369,1194.195,632.351,1194.378,632.616,1193.9Z" transform="translate(-609.144 -1161.535)" fill="#b1d57e"/>
            <path id="Path_11115" data-name="Path 11115" d="M629.848,1173.407c-.057.314.764.87.915.9.612.11,1.8-.415,1.857-.73s-1.028-.417-1.639-.529S629.9,1173.092,629.848,1173.407Z" transform="translate(-608.87 -1168.217)" fill="#b1d57e"/>
            <path id="Path_11116" data-name="Path 11116" d="M611.318,1180.248c-.017-.07-.855-.163-.751-.011.242.349.138.365.045.344-.138-.03-.347-.2-.466-.12a.318.318,0,0,0-.119.218,1.468,1.468,0,0,1-.069.318,11.779,11.779,0,0,1-1.084.821c-.065.076-.116.189-.22.222a2.048,2.048,0,0,0-.247.044.653.653,0,0,0-.236.193c-.07.107-.027.224-.06.333s-.126.047-.172.125c-.1.169.155.361.286.4.28.089.6.062.877.163a5.988,5.988,0,0,1,.546.319c.124.018.161-.227.023-.58-.069-.177.057-.4.14-.571.056-.113.079-.149,0-.251a.205.205,0,0,1-.051-.208c.088-.26.414-.227.613-.337.139-.077.561-.488.667-.575.079-.064.692-.33.775-.4S611.318,1180.248,611.318,1180.248Z" transform="translate(-593.868 -1173.105)" fill="#b1d57e"/>
            <path id="Path_11117" data-name="Path 11117" d="M615.483,1186.137c.182.188.776.281.77.2-.045-.718.563-.874.381-1.062-.114-.118-.36-.706-.771-.549-.079.03-.619.17-.524.307.212.306-.218.626-.276.682C614.836,1185.938,615.3,1185.948,615.483,1186.137Z" transform="translate(-598.715 -1176.216)" fill="#b1d57e"/>
            <path id="Path_11118" data-name="Path 11118" d="M566.5,1173.953a24.186,24.186,0,0,0-2.807,7.7c-.112.615-.191,1.228-.255,1.839a.514.514,0,0,0,.263.161c.562.135,1.3-2.877,2.494-5.439.248.333.732.687.566,1.087a26.336,26.336,0,0,0-1.74,7.546c.033,2.19,1.392,3.57,1.577,5.161.363,3.112,5.152,6.608,6.634,6.435,0,0-1.046-.467-1.408-3.579-.079-.685-1.072-1.448-1.017-2.243.112-1.62-.3-3.746.711-3.851.2-.171.955-.423,1.113-.291,1.568,1.3,3.076.257,3.453,1.381.328.98,2.943-2,3.373-3.029.239-.574-.129-.532-.149-1.215-.04-1.379.492-.915.5-1.44.021-1.391-1.04-2.37-1.627-3.572-.467-.957-.211-1.418-1.272-2.1a10.128,10.128,0,0,0-4.192-1.922c-.648-.1.034.674-.624,1.259-.512-.1-1.722.765-2.25.91-.459-.084.574-1.267-.368-1.241-1.386.95-2.384.151-2.967.067a9.333,9.333,0,0,1,1.081-1.7c.5-.177,1.03.553,1.365.065.144-.21.61-.523.524-.96.042-.229.37-.547.534-.5.271.762-.442,1.8-.317,1.75.89-.182,1.474-1.993,1.633-2.064a7.442,7.442,0,0,0,1.943-1.117l.363.229c-1.423,1.443-1.833.9-2.054,1.646l-.086.841c.426-.82,1.936-1.219,2.662-2.047.163.071.253.583.437.617s1.176-.248,1.206,1.25c0,.14.586.26-.013.825-.19.179,1.219,1.395,1.571,1.151.327-.227.723-.005,1.23-.356.408-.283-.167-1.08.758-2.179a2.921,2.921,0,0,0-2.243-.385c-.308.058.281-.939.182-1.124,1.355-.124,1.617-.768,1.406-.806-.557-.1-1.491.039-1.648-1.486.088-.783-.954-.987-.776-1.111.357-.248,1.017-.66.486-1.007a2.6,2.6,0,0,1-1.345.742c-.718.163-.744-.435-.87-.458-.156-.028-.2.252-.565-.045.016-.647.886-1.189.849-1.447.005-.224-.995-.227-.336-.709.274-.2.684.084.964.076.564-.016,1.089-1.541,1.207-1.773.038-.076.6-.481.746-.081.048.131-.174.5-.235.595-.189.289-.194,1.227-.527,1.269a2.22,2.22,0,0,0-1.4,1.488c-.034.418.514.746.649.487a3.589,3.589,0,0,1,1.443-1.118c.2-.066.587.429.69.555.169.207,1.639-.851,1.1-1.84a1.808,1.808,0,0,1,.221-1.842c.227-.328.435-.825.3-1.088-.108-.216-.885-.433-1.15-.113-.218.266-.641.1-.991.116q-.654.3-1.288.635l-.091.074c-.23.227.04.872-1.093,1.009.017-.178.254-.35.373-.462a2.565,2.565,0,0,0,.222-.221l.008-.087a24.337,24.337,0,0,0-7.126,6.1,1.678,1.678,0,0,0,.437.8A13.2,13.2,0,0,0,566.5,1173.953Zm2.856-1.876a1.718,1.718,0,0,0,.86.22c-.312.589-.182,2.128-1.241,1.792-.072-.076-.18-.121-.244-.213s-.31-.072-.667.13C568.031,1173.531,568.83,1172.668,569.354,1172.076Z" transform="translate(-563.436 -1161.813)" fill="#b1d57e"/>
            <path id="Path_11119" data-name="Path 11119" d="M680.771,1240.55a1.834,1.834,0,0,0,1.15.306c.392-.063.408-.457.924-.618.935-.294,1.43.444,1.4.13s-.941-.776-1.877-.393C681.282,1240.419,680.747,1240.337,680.771,1240.55Z" transform="translate(-643.71 -1213.931)" fill="#b1d57e"/>
            <path id="Path_11120" data-name="Path 11120" d="M674.121,1241.927c-.04.22.391.282.809.358a1.051,1.051,0,0,0,.991-.572c.04-.22-.426-.287-.846-.226C674.512,1241.57,674.161,1241.706,674.121,1241.927Z" transform="translate(-639.16 -1215.05)" fill="#b1d57e"/>
            <path id="Path_11121" data-name="Path 11121" d="M661.288,1201.409c-.067.367.746-.1,1.212-.013s.978.35,1.045-.017-.608-1.129-1.081-1.119A1.2,1.2,0,0,0,661.288,1201.409Z" transform="translate(-630.378 -1186.86)" fill="#b1d57e"/>
          </g>
          <path id="Path_11122" data-name="Path 11122" d="M660.567,1281.191a3.771,3.771,0,1,0,3.675-3.864A3.77,3.77,0,0,0,660.567,1281.191Z" transform="translate(-629.749 -1239.518)" fill="#12849f" opacity="0.28"/>
          <path id="Path_11123" data-name="Path 11123" d="M676.619,1271.758a1.178,1.178,0,1,0,1.148-1.208A1.178,1.178,0,0,0,676.619,1271.758Z" transform="translate(-640.731 -1234.883)" fill="#12849f" opacity="0.28"/>
          <path id="Path_11124" data-name="Path 11124" d="M689.632,1268.879a.761.761,0,1,0,.742-.78A.761.761,0,0,0,689.632,1268.879Z" transform="translate(-649.634 -1233.206)" fill="#12849f" opacity="0.33"/>
        </g>
      </g>
      <path id="Path_11125" data-name="Path 11125" d="M633.663,1327.472l-.033-2.96-2.637.028.032,2.97c.031.131.615.23,1.326.223S633.636,1327.6,633.663,1327.472Z" transform="translate(-609.517 -1265.625)" fill="#aababc"/>
    </g>
    <g id="Group_1468" data-name="Group 1468" transform="translate(769.729 512.157)">
      <path id="Path_11126" data-name="Path 11126" d="M1675.973,1364.026c0,3.27,6.578,5.921,14.693,5.921s14.693-2.651,14.693-5.921-6.578-5.922-14.693-5.922S1675.973,1360.755,1675.973,1364.026Z" transform="translate(-1673.136 -1295.647)" fill="#636768"/>
      <g id="Group_1463" data-name="Group 1463" transform="translate(0 29.589)">
        <path id="Path_11127" data-name="Path 11127" d="M1666.99,1369.316c0,2.814,7.426,5.1,16.585,5.1s16.585-2.281,16.585-5.1-7.426-5.095-16.585-5.095S1666.99,1366.5,1666.99,1369.316Z" transform="translate(-1666.99 -1329.42)" fill="#720303" opacity="0.18"/>
        <ellipse id="Ellipse_104" data-name="Ellipse 104" cx="14.236" cy="5.737" rx="14.236" ry="5.737" transform="translate(3.294 0.185)" fill="#b22d2d"/>
        <path id="Path_11128" data-name="Path 11128" d="M1690.9,1254.04c7.74,0,14.014,2.42,14.583,5.481h-1.2c0-2.733-5.99-4.948-13.378-4.948s-13.378,2.215-13.378,4.948h-1.2C1676.89,1256.46,1683.164,1254.04,1690.9,1254.04Z" transform="translate(-1673.374 -1254.04)" fill="#ff8d8d"/>
      </g>
      <g id="Group_1464" data-name="Group 1464" transform="translate(21.729 7.39)">
        <path id="Path_11129" data-name="Path 11129" d="M1737.777,1315.163c-1.142-.109-2.033-.6-1.991-1.1l.02-.1.3-3.54,4.135.4-.307,3.644C1739.873,1314.953,1738.907,1315.271,1737.777,1315.163Z" transform="translate(-1735.784 -1270.418)" fill="#f9235c"/>
        <path id="Path_11130" data-name="Path 11130" d="M1736.216,1311.4l4.3.4-.15,1.506-4.3-.4Z" transform="translate(-1735.977 -1271.085)" fill="#d8d7d6"/>
        <path id="Path_11131" data-name="Path 11131" d="M1748.684,1186.22l1.25,3.714-.2,2.3-4.165-.044.226-2.654,1.825-3.355C1747.969,1186.195,1748.328,1186.226,1748.684,1186.22Z" transform="translate(-1742.481 -1185.417)" fill="#f9e098"/>
        <path id="Path_11132" data-name="Path 11132" d="M1752.665,1185.276l-1.625-.156s.525-1.395.944-1.362S1752.665,1185.276,1752.665,1185.276Z" transform="translate(-1746.222 -1183.758)" fill="#383838"/>
        <path id="Path_11133" data-name="Path 11133" d="M1736.763,1233.034l3.009-36.228.929,1.329,1.139-1.131.929,1.329,1.139-1.131-3.009,36.228Z" transform="translate(-1736.454 -1192.685)" fill="#f923bc"/>
      </g>
      <g id="Group_1465" data-name="Group 1465" transform="translate(16.807)">
        <path id="Path_11134" data-name="Path 11134" d="M1722.216,1292.079c-1.143-.084-2.046-.557-2.015-1.053l.018-.1.22-3.546,4.143.3-.226,3.65C1724.307,1291.822,1723.348,1292.162,1722.216,1292.079Z" transform="translate(-1720.201 -1247.261)" fill="#f9235c"/>
        <path id="Path_11135" data-name="Path 11135" d="M1720.469,1288.362l4.312.3-.117,1.509-4.312-.3Z" transform="translate(-1720.304 -1247.933)" fill="#d8d7d6"/>
        <path id="Path_11136" data-name="Path 11136" d="M1730.372,1162.844l1.332,3.685-.145,2.306-4.165.048.167-2.659,1.749-3.394C1729.657,1162.834,1730.016,1162.857,1730.372,1162.844Z" transform="translate(-1725.123 -1162.05)" fill="#f9e098"/>
        <path id="Path_11137" data-name="Path 11137" d="M1734.109,1161.864l-1.628-.12s.494-1.406.913-1.383S1734.109,1161.864,1734.109,1161.864Z" transform="translate(-1728.602 -1160.361)" fill="#383838"/>
        <path id="Path_11138" data-name="Path 11138" d="M1720.946,1209.863l2.2-36.286.958,1.308,1.113-1.156.958,1.308,1.113-1.156-2.2,36.286Z" transform="translate(-1720.711 -1169.403)" fill="#02b2bf"/>
      </g>
      <g id="Group_1466" data-name="Group 1466" transform="translate(20.955 16.917)">
        <path id="Path_11139" data-name="Path 11139" d="M1735.159,1341.8c-1.114-.269-1.927-.884-1.814-1.369l.034-.095.8-3.462,4.037.979-.821,3.563C1737.264,1341.894,1736.263,1342.072,1735.159,1341.8Z" transform="translate(-1733.334 -1298.042)" fill="#f9235c"/>
        <path id="Path_11140" data-name="Path 11140" d="M1734.823,1337.808l4.2,1-.363,1.469-4.2-1Z" transform="translate(-1734.105 -1298.679)" fill="#d8d7d6"/>
        <path id="Path_11141" data-name="Path 11141" d="M1763.535,1216.245l.71,3.854-.52,2.251-4.116-.635.6-2.6,2.282-3.062C1762.831,1216.119,1763.182,1216.2,1763.535,1216.245Z" transform="translate(-1751.31 -1215.384)" fill="#f9e098"/>
        <path id="Path_11142" data-name="Path 11142" d="M1769.037,1215.526l-1.586-.384s.718-1.306,1.127-1.214S1769.037,1215.526,1769.037,1215.526Z" transform="translate(-1756.675 -1213.922)" fill="#383838"/>
        <path id="Path_11143" data-name="Path 11143" d="M1735.812,1261.189l8.117-35.435.731,1.447,1.288-.958.731,1.447,1.287-.958-8.117,35.434Z" transform="translate(-1735.03 -1222.017)" fill="#0078db"/>
      </g>
      <g id="Group_1467" data-name="Group 1467" transform="translate(2.837 35.069)">
        <path id="Path_11144" data-name="Path 11144" d="M1690.666,1278.708c8.115,0,14.693-2.651,14.693-5.921v32.869c0,3.269-6.578,5.921-14.693,5.921s-14.693-2.651-14.693-5.921v-32.869C1675.973,1276.057,1682.551,1278.708,1690.666,1278.708Z" transform="translate(-1675.973 -1272.346)" fill="#ff4343"/>
        <path id="Path_11145" data-name="Path 11145" d="M1677.288,1271.392c0,2.733,5.989,4.948,13.378,4.948s13.378-2.215,13.378-4.948h1.2a2.52,2.52,0,0,1,.11.441c0,3.27-6.578,5.921-14.693,5.921s-14.693-2.651-14.693-5.921a2.529,2.529,0,0,1,.11-.441Z" transform="translate(-1675.973 -1271.392)" fill="#ff8d8d"/>
      </g>
    </g>
    <g id="Group_1469" data-name="Group 1469" transform="translate(461.85 564.157)">
      <path id="Path_11146" data-name="Path 11146" d="M742.854,1350.428l-43.8-13.657,36.476-10.792L786,1341.516Z" transform="translate(-696.897 -1325.668)" fill="#7f5a90"/>
      <path id="Path_11147" data-name="Path 11147" d="M874.283,1349.929l-42.207,8.821c-1.549-2.17-2.565-8.864-.574-11.22l42.2-9C873.289,1340.579,873.623,1348.14,874.283,1349.929Z" transform="translate(-786.757 -1334.255)" fill="url(#linear-gradient)"/>
      <path id="Path_11148" data-name="Path 11148" d="M692.23,1358.126l.216-10.989L737.6,1353.2c-.366,1.133-.075,11.438.582,11.7Z" transform="translate(-692.23 -1340.143)" fill="#00a8a8"/>
      <path id="Path_11149" data-name="Path 11149" d="M780.849,1329.3l-42.994,8.9-44.94-6.208,40.853-6.994Z" transform="translate(-692.699 -1324.994)" fill="#25b7b0"/>
      <path id="Path_11150" data-name="Path 11150" d="M701.615,1359.361l.92.136v-11.069l-.92-.124Z" transform="translate(-698.651 -1340.942)" fill="#fff" opacity="0.27"/>
      <path id="Path_11151" data-name="Path 11151" d="M710.23,1349.462l-.92-.123v11.088l.92.136Z" transform="translate(-703.916 -1341.649)" fill="#fff" opacity="0.27"/>
      <path id="Path_11152" data-name="Path 11152" d="M717.4,1350.424l-.92-.124v11.118l.92.136Z" transform="translate(-708.818 -1342.307)" fill="#fff" opacity="0.27"/>
      <path id="Path_11153" data-name="Path 11153" d="M730,1365.164a2.482,2.482,0,1,1-2.481-2.482A2.481,2.481,0,0,1,730,1365.164Z" transform="translate(-714.674 -1350.778)" fill="#fff" opacity="0.51"/>
      <path id="Path_11154" data-name="Path 11154" d="M842.145,1334.24l-19.157-1.98-40.054,8.8,16.725,1.967Z" transform="translate(-754.285 -1329.964)" fill="#0e898c"/>
      <path id="Path_11155" data-name="Path 11155" d="M800.242,1373.78l-8.984-1.329-8.324-12.339,16.725,1.967Z" transform="translate(-754.285 -1349.02)" fill="#0e898c"/>
    </g>
    <g id="Group_1470" data-name="Group 1470" transform="translate(463.71 544.972)">
      <path id="Path_11156" data-name="Path 11156" d="M900.86,1337.068l-32.746,7.108-2.7-.562,31.957-6.989Z" transform="translate(-812.576 -1313.767)" fill="#902ba5"/>
      <path id="Path_11157" data-name="Path 11157" d="M702.752,1292.612l54.121,4.231L788.74,1269.9l-51.378-2.068-34.438,7.081Z" transform="translate(-701.289 -1266.703)" fill="#e5d8c0"/>
      <path id="Path_11158" data-name="Path 11158" d="M874.1,1283.164l31.867-8.783-.646,20.1-31.222,6.846Z" transform="translate(-818.518 -1271.183)" fill="url(#linear-gradient-2)"/>
      <path id="Path_11159" data-name="Path 11159" d="M698.2,1272.672c-.092.729-.073,16.128-.086,17.58l55.652,4.509c-.441-.509-.935-18.006-.741-18.509,11.811-3.653,23.761-6.11,32.541-8.7l-51.418-3.152C721.013,1267.666,711.345,1269.408,698.2,1272.672Z" transform="translate(-698.119 -1264.357)" fill="#902ba5"/>
      <path id="Path_11160" data-name="Path 11160" d="M882.321,1315.982l-2.492-3.1-3.476,4.2s.351-11.319-1.329-11.836c.288-.019,6.061-.926,6.347-.888C882.171,1305.307,882.321,1315.982,882.321,1315.982Z" transform="translate(-819.148 -1291.687)" fill="#c47bd6"/>
      <path id="Path_11161" data-name="Path 11161" d="M699.732,1272.542l54.639,3.593,32.3-8.681-51.277-3.2Z" transform="translate(-699.223 -1264.256)" fill="#a441b5"/>
      <path id="Path_11162" data-name="Path 11162" d="M721.089,1317.682a1.715,1.715,0,1,1-1.715-1.716A1.715,1.715,0,0,1,721.089,1317.682Z" transform="translate(-711.487 -1299.633)" fill="#5c166d"/>
      <path id="Path_11163" data-name="Path 11163" d="M843.465,1328.544a1.715,1.715,0,1,1-1.715-1.715A1.715,1.715,0,0,1,843.465,1328.544Z" transform="translate(-795.211 -1307.065)" fill="#5c166d"/>
      <path id="Path_11164" data-name="Path 11164" d="M757.027,1318.936l-47.49-3.8v-9.273l47.173,3.776Zm-46.881-4.365,46.248,3.7-.281-8.064-45.968-3.681Z" transform="translate(-705.931 -1292.723)" fill="#5c166d"/>
    </g>
    <g id="Group_1471" data-name="Group 1471" transform="translate(682.198 566.716)">
      <path id="Path_11165" data-name="Path 11165" d="M1441.78,1359.209c-.309.8-17.712-4.977-30.078-9.728s-22.141-9.254-21.831-10.059,10.584,2.394,22.95,7.144S1442.089,1358.4,1441.78,1359.209Z" transform="translate(-1389.863 -1337.34)" fill="#840202" opacity="0.17"/>
      <path id="Path_11166" data-name="Path 11166" d="M1541.459,1384.177c.479-1.387.412-2.682-.146-2.891l-.117-.027-3.983-1.492-1.735,5.026,4.1,1.535C1540.136,1386.512,1540.985,1385.551,1541.459,1384.177Z" transform="translate(-1489.485 -1365.026)" fill="#ff8b78"/>
      <path id="Path_11167" data-name="Path 11167" d="M1538.214,1379.974l-1.822,5.225,1.707.607,1.822-5.224Z" transform="translate(-1490.111 -1365.167)" fill="#d8d7d6"/>
      <path id="Path_11168" data-name="Path 11168" d="M1399.167,1334.735l3.361,3.387,2.592.968,2.131-4.878-2.988-1.116-4.582.384C1399.513,1333.888,1399.36,1334.323,1399.167,1334.735Z" transform="translate(-1396.228 -1333.096)" fill="#f9e098"/>
      <path id="Path_11169" data-name="Path 11169" d="M1398.4,1336.048l.682-1.975s-1.783-.112-1.966.392S1398.4,1336.048,1398.4,1336.048Z" transform="translate(-1394.813 -1333.757)"/>
      <path id="Path_11170" data-name="Path 11170" d="M1451.61,1348l-40.068-14.906.95,1.773-1.818.74.95,1.773-1.818.74,40.067,14.905Z" transform="translate(-1403.508 -1333.096)" fill="#ff396d"/>
      <path id="Path_11171" data-name="Path 11171" d="M1455.369,1348,1415.3,1333.1l.95,1.773,38.684,14.389Z" transform="translate(-1407.267 -1333.096)" fill="#ff5a81"/>
      <path id="Path_11172" data-name="Path 11172" d="M1411.625,1346.665l-1.818.74,40.067,14.905.434-1.256Z" transform="translate(-1403.508 -1342.379)" fill="#ed204c"/>
    </g>
  </g>
</svg>
