<svg xmlns="http://www.w3.org/2000/svg" xmlns:xlink="http://www.w3.org/1999/xlink" width="633.375" height="474.482" viewBox="0 0 633.375 474.482">
  <defs>
    <linearGradient id="linear-gradient" x1="-31.689" y1="-31.133" x2="-31.654" y2="-31.236" gradientUnits="objectBoundingBox">
      <stop offset="0" stop-color="#dcc499"/>
      <stop offset="1" stop-color="#e5d8c0"/>
    </linearGradient>
  </defs>
  <g id="Group_1815" data-name="Group 1815" transform="translate(-296.468 -189.842)">
    <g id="Group_1774" data-name="Group 1774" transform="translate(398.497 250.984)">
      <g id="Group_1768" data-name="Group 1768" transform="translate(5.177 1.194)">
        <path id="Path_22051" data-name="Path 22051" d="M797.29,417.5c.235-23.4-20.763-49.5-61.759-53.231-13.369-.85-26.364,4.339-36.1,7.976-14.4-.684-30.831,19.527-33.1,35.146-6.388,44.06,19.12,81,59.375,84.1S796.841,462.022,797.29,417.5Z" transform="translate(-640.666 -364.181)" fill="#6b1511"/>
        <path id="Path_22052" data-name="Path 22052" d="M768.182,492.235l-65.489-6.626-66.541-3.4c-5.561,32.476-36.647,57.207.552,93.777,8.2,9.131,32.77,14.361,57.751,16.34,24.988,1.878,49.1-.128,59.666-6.746C787.256,564.839,767.61,527.382,768.182,492.235Z" transform="translate(-610.691 -440.01)" fill="#6b1511"/>
        <path id="Path_22053" data-name="Path 22053" d="M743.182,487.906c-6.716,15.753-12.064,34.709-15.626,66.719-1.658,14.9-1.361,27.593,4.837,36.73a218.928,218.928,0,0,0,31.442,4.632c20.06,1.507,39.422.453,51.8-3.42,4.073-6.5,4.622-14.768,5.048-25.193A323.2,323.2,0,0,0,815.3,493.64L772.2,489.28Z" transform="translate(-680.071 -443.668)" fill="#230300" opacity="0.7"/>
        <path id="Path_22054" data-name="Path 22054" d="M625.732,453.929c-10.236,26.694-27.085,47.419-29.1,60.284-1.643,10.506,2.707,28.919,14.1,38.879-20.6-34.82-6.21-50.559,9.525-76.383C620.261,476.709,625.863,453.763,625.732,453.929Z" transform="translate(-596.298 -421.838)" fill="#6b1511"/>
        <path id="Path_22055" data-name="Path 22055" d="M1030.875,485.991c4.75,29.018,13.3,50.574,14,63.572.682,12.765-6.719,25.3-14.2,31.632,20.174-24.657,4.7-50.636,1.811-78.315C1032.486,502.881,1030.134,485.932,1030.875,485.991Z" transform="translate(-875.362 -442.437)" fill="#6b1511"/>
      </g>
      <path id="Path_22056" data-name="Path 22056" d="M1034.7,1077.558c-5.808,3.907-19.206,13.516-18.119,16.327,1.955,5.058,9.565,12.683,18.746,16.612,14.327,6.131,43.365,12.686,71.4,20.092,3.137,1.12,7.376-19.878,4.486-21.3C1086.4,1101.611,1062.136,1089.489,1034.7,1077.558Z" transform="translate(-861.086 -821.293)" fill="#ffc19f"/>
      <path id="Path_22057" data-name="Path 22057" d="M965.129,863.565q-12.316.456-24.631.9a8.908,8.908,0,0,0-.991,2.269c-2.364,9.054,18.389,74.077,28.1,90.569,2.686.355,20.7-10.648,23.1-14.061-6.758-20.91-13.052-44.918-16.487-55.628A200.4,200.4,0,0,0,965.129,863.565Z" transform="translate(-811.495 -683.814)" fill="#ffc19f"/>
      <path id="Path_22058" data-name="Path 22058" d="M929.594,856.666c-4.893-18.994-11.255-46.5-12.209-53.8,11.712,3.146,25.359,5.844,30.232,10.708,6.229,6.218,8.2,13.359,14.614,34.06C954.345,851.82,939.284,854.974,929.594,856.666Z" transform="translate(-797.402 -644.821)" fill="#ff7300"/>
      <path id="Path_22059" data-name="Path 22059" d="M772.8,965.3c-2.036-10.6-9.894-40.377-13.582-52.266-1.67-5.383,1.769-37.265,3.641-41.461,3.29-7.369,8.919-15.666,8.3-29.088-.634-13.739-6.955-39.894-10.172-52.459-9.145-2.068-45.825-15.459-46.616-15.31-.788-.161-38.824,9.641-47.885,12.107-3.395,12.518-9.764,35.17-10.594,48.9-.81,13.412,4.235,27.73,7.419,35.145,1.813,4.221,4.594,35.989,2.7,41.733-3.678,11.148-12.534,29.954-15.676,43.056,8.6,6.832,56.793,20.148,56.793,20.148C734.262,975.993,764.11,972.005,772.8,965.3Z" transform="translate(-625.836 -626.73)" fill="#ff7300"/>
      <path id="Path_22060" data-name="Path 22060" d="M594.94,853.4c8.085-1,25.27-1.659,25.588-.937,3.763,8.561-11.59,89.957-11.261,100.884-2.572.777-22.729-5.116-25.879-6.5-.065-20.982,2.692-52.7,4.34-63.815C589.457,871.391,592.708,862.04,594.94,853.4Z" transform="translate(-582.827 -676.484)" fill="#ffc19f"/>
      <path id="Path_22061" data-name="Path 22061" d="M619.948,861.276c5.351-18.87,8.6-48.866,9.727-56.139-11.785,2.862-25.493,7.016-30.482,11.761-6.377,6.065-9.064,16.061-14.418,35.336C592.75,856.765,609.535,860.365,619.948,861.276Z" transform="translate(-583.717 -646.277)" fill="#ff7300"/>
      <path id="Path_22062" data-name="Path 22062" d="M712.4,785.137c1.479-.326,32.556-8.805,41.845-10.421v0c8.506,1.6,38.333,12.179,40.62,12.712-3.561,12.192-18.4,21-40.472,20.519C737.7,807.583,713.878,800.842,712.4,785.137Z" transform="translate(-665.71 -626.733)" fill="#ffc19f"/>
      <path id="Path_22063" data-name="Path 22063" d="M799.061,764.792c10.022.721,18.486-3.411,18.9-9.228l2.067-28.741-36.293-2.611-2.068,28.741C781.254,758.77,789.039,764.071,799.061,764.792Z" transform="translate(-710.203 -594.286)" fill="#ffc19f"/>
      <path id="Path_22064" data-name="Path 22064" d="M787.264,724.211l36.292,2.611-1.565,21.755c-6.057.319-13.7-1.913-20.885-6.695-6.9-4.586-11.765-10.458-13.966-15.968Z" transform="translate(-713.727 -594.286)" fill="#822020" opacity="0.23"/>
      <g id="Group_1773" data-name="Group 1773" transform="translate(32.895)">
        <path id="Path_22065" data-name="Path 22065" d="M985.438,597.163c-5.077-1.044-9.593,4.09-12.6,12.878-3.38,9.869-.856,15.719,1.071,17.093,3.662,2.611,11.665-1.731,15.67-11.031C993.184,607.723,991.426,598.393,985.438,597.163Z" transform="translate(-864.854 -512.579)" fill="#e8a07c"/>
        <path id="Path_22066" data-name="Path 22066" d="M1002.169,473.861c-1.462,11.351-6.378,41.452,2.95,52.339-1.017-13.583,11.157-49.213,4.529-66.248C1007.72,461.6,1004.42,471.412,1002.169,473.861Z" transform="translate(-883.093 -424.515)" fill="#6b1511"/>
        <path id="Path_22067" data-name="Path 22067" d="M818.593,442.012c-4.384-23.107-46.415-24.26-52.6-24.68-6.175-.534-53.67-5.808-56.447,17.533-3.121,26.238,4.462,63.165,10.274,74.776,8.189,16.361,21.323,23.162,27.533,27.038,3.917,2.445,12.855,5.949,22.192,6.367a29.532,29.532,0,0,0,16.124-3.378c6.767-3.608,19.221-13.451,26.37-29.263,4.09-9.048,5.382-28.9,6.858-44.909C819.6,457.88,819.959,449.213,818.593,442.012Z" transform="translate(-696.305 -396.569)" fill="#ffc19f"/>
        <path id="Path_22068" data-name="Path 22068" d="M885.269,633.146a7.632,7.632,0,0,1-3.393-.678.687.687,0,0,1,.657-1.207c1.576.862,5.465.657,6.477-.613.577-.7.349-1.653-.181-3.558a30.409,30.409,0,0,1-.919-4.091.685.685,0,0,1,.577-.778.7.7,0,0,1,.778.583,30.393,30.393,0,0,0,.885,3.916c.543,1.958.973,3.507-.074,4.791C889.165,632.65,887.16,633.146,885.269,633.146Z" transform="translate(-807.254 -528.761)" fill="#c4735b"/>
        <path id="Path_22069" data-name="Path 22069" d="M832.6,419.675c9.746,1.481,22.618-.206,24.973-2.442-1.078-10.728-1.832-24.186-9.426-33.615-11.6-14.4-46.818-32.212-88.768-16.9-10.474,33.4,36.541,49.968,50.223,50.964-3.938-3.2-5.83-8.256-6.729-12.193C807.931,412.222,824.451,418.435,832.6,419.675Z" transform="translate(-727.817 -360.842)" fill="#6b1511"/>
        <path id="Path_22070" data-name="Path 22070" d="M701.571,481.53c-2.544.015-15.462-2.782-17.972-3.188.627-9.484,2.007-37.658,3.649-57.549,1.709-1.563,21.362-15.35,27.389-17.268C704.115,419.791,706.547,471.957,701.571,481.53Z" transform="translate(-680.102 -388.263)" fill="#6b1511"/>
        <g id="Group_1769" data-name="Group 1769" transform="translate(0 76.279)">
          <path id="Path_22071" data-name="Path 22071" d="M681.879,574.587c7.55-1.988,14.107,3.409,15.813,13.167,1.929,11.032-.668,17.338-3.149,18.765-4.714,2.71-14.443-2.011-18.9-11.927C671.619,585.659,674.5,576.53,681.879,574.587Z" transform="translate(-673.818 -574.178)" fill="#ffc19f"/>
          <path id="Path_22072" data-name="Path 22072" d="M703.815,600.335c1.029.507,5.062,16.3,3.884,16.6-4.057,1.011-7.979-1.4-9.857-6.043C695.468,605.022,698.034,597.486,703.815,600.335Z" transform="translate(-688.686 -590.583)" fill="#e0956c"/>
        </g>
        <g id="Group_1770" data-name="Group 1770" transform="translate(35.146 72.709)">
          <path id="Path_22073" data-name="Path 22073" d="M788.348,569.419c-7.675,2.646-10.395,11.612-6.177,16.4,2.473,2.808,6.644,3.726,11.017,4.027,6.428.444,12.281-2.292,13.274-5.215.488-1.436.983-4.368-1.637-9.209A13.459,13.459,0,0,0,788.348,569.419Z" transform="translate(-777.301 -567.024)" fill="#fbfdff" fill-rule="evenodd"/>
          <path id="Path_22074" data-name="Path 22074" d="M779.922,568.917c-2.207-.1-3.833-2.8-3.9-4.725,1.371,3.62,9.752,1.4,10.481,1.459C781.747,566.322,780.955,567.8,779.922,568.917Z" transform="translate(-774.625 -564.191)" fill="#6c1e19" fill-rule="evenodd"/>
          <path id="Path_22075" data-name="Path 22075" d="M775.751,579.294c-1.788.6-3.577-.574-3.639-3.032,1.1,2.973,6.137-.236,6.866-.18A24.8,24.8,0,0,0,775.751,579.294Z" transform="translate(-772.112 -571.83)" fill="#6c1e19" fill-rule="evenodd"/>
          <path id="Path_22076" data-name="Path 22076" d="M781.313,569.3c-5.151,4.313-3.472,12.65-.409,15.063a10.245,10.245,0,0,1-1.117-9.249c1.07-2.867,3.969-6.293,9.51-7.375a13.574,13.574,0,0,1,14.777,7.179C800.3,566.164,788.567,563.224,781.313,569.3Z" transform="translate(-775.901 -565.413)" fill="#6c1e19" fill-rule="evenodd"/>
          <path id="Path_22077" data-name="Path 22077" d="M807.19,584.851a7.484,7.484,0,1,0,9.468,4.534A7.417,7.417,0,0,0,807.19,584.851Z" transform="translate(-791.524 -577.177)" fill="#6c1e19" fill-rule="evenodd"/>
          <path id="Path_22078" data-name="Path 22078" d="M807.474,590.767a2.1,2.1,0,0,0-1.243,2.669,1.994,1.994,0,0,0,2.6,1.238,2.093,2.093,0,0,0,1.243-2.669A2.047,2.047,0,0,0,807.474,590.767Z" transform="translate(-793.95 -581.184)" fill="#fff" fill-rule="evenodd"/>
        </g>
        <g id="Group_1771" data-name="Group 1771" transform="translate(89.894 77.515)">
          <path id="Path_22079" data-name="Path 22079" d="M943.006,581.214c6.193,3.717,7.237,12.973,2.939,17.105-2.52,2.423-6.223,2.733-10.012,2.4-5.569-.483-10.189-4.027-10.62-7.06-.212-1.491-.216-4.46,2.721-8.873C931.378,579.767,937.563,577.948,943.006,581.214Z" transform="translate(-925.232 -578.879)" fill="#fbfdff" fill-rule="evenodd"/>
          <path id="Path_22080" data-name="Path 22080" d="M976.8,585.369c2.089.267,3.974-2.107,4.29-3.992-1.767,3.327-9.357-.247-10.049-.314C975.427,582.517,975.976,584.105,976.8,585.369Z" transform="translate(-954.662 -579.838)" fill="#6c1e19" fill-rule="evenodd"/>
          <path id="Path_22081" data-name="Path 22081" d="M985.807,594.765c1.6.882,3.44.032,3.823-2.371-1.427,2.736-5.741-1.255-6.434-1.321A25.745,25.745,0,0,1,985.807,594.765Z" transform="translate(-962.471 -586.268)" fill="#6c1e19" fill-rule="evenodd"/>
          <path id="Path_22082" data-name="Path 22082" d="M951.373,582.248c3.792,5,1.161,13.009-1.809,14.956a11.5,11.5,0,0,0,2.282-8.986,11.372,11.372,0,0,0-7.086-8.656c-4.684-1.9-10.347-.307-13.683,4.981C935.565,576.43,946.031,575.2,951.373,582.248Z" transform="translate(-928.987 -577.634)" fill="#6c1e19" fill-rule="evenodd"/>
          <path id="Path_22083" data-name="Path 22083" d="M953.385,596.021c3.076,1.924,4.184,6.408,2.4,10.073s-5.666,5.026-8.758,3.128-4.149-6.415-2.4-10.074C946.384,595.47,950.282,594.08,953.385,596.021Z" transform="translate(-937.151 -588.884)" fill="#6c1e19" fill-rule="evenodd"/>
          <path id="Path_22084" data-name="Path 22084" d="M950.6,601.785a2.279,2.279,0,0,1,.682,2.818,1.664,1.664,0,0,1-2.406.851,2.238,2.238,0,0,1-.682-2.818A1.689,1.689,0,0,1,950.6,601.785Z" transform="translate(-939.834 -592.995)" fill="#fff" fill-rule="evenodd"/>
        </g>
        <path id="Path_22085" data-name="Path 22085" d="M959.924,535.881a15.875,15.875,0,0,0-6.81-6.678,29.636,29.636,0,0,0-16.081-1.919c-1.313.263-2.5,2.786-2.677,3.585-.139.627.982,1.137,1.814.994,5.105-.877,10.643-1.032,16.212,1.1a28.223,28.223,0,0,1,6.671,4.125C959.715,537.676,960.436,536.861,959.924,535.881Z" transform="translate(-841.192 -467.522)" fill="#4c0b00"/>
        <path id="Path_22086" data-name="Path 22086" d="M772.172,524.111a19.077,19.077,0,0,1,8.909-5.745,37.84,37.84,0,0,1,18.379.209c1.42.435,2.264,3.1,2.31,3.917.036.642-1.318,1-2.222.75a38.268,38.268,0,0,0-18.369-1.04,35.79,35.79,0,0,0-8.265,3.224C772.062,525.923,771.412,525.018,772.172,524.111Z" transform="translate(-736.789 -461.382)" fill="#4c0b00"/>
        <path id="Path_22087" data-name="Path 22087" d="M763.817,414.6c-15.3-1.5-23.084,6.889-25.978,13.405-4.231,9.524,1.351,42.707-9.538,52.035,3.089-13.266-6.622-54.688,2.543-70.5,4.271-7.372,36.519-9.351,42.1-10.255C772.65,403.077,768.786,411.969,763.817,414.6Z" transform="translate(-707.854 -385.54)" fill="#6b1511"/>
        <g id="Group_1772" data-name="Group 1772" transform="translate(55.179 109.108)">
          <path id="Path_22088" data-name="Path 22088" d="M866.476,671.679c-.137-4.428-6.658-3.628-17.06-4.505-.545-.045-2.662-.209-3.207-.247-10.414-.73-16.549-2.274-17.831,1.972-1.236,4.091,2.516,11.017,8.364,15.3a18.047,18.047,0,0,0,9.41,3.173l.183.013a18.3,18.3,0,0,0,9.759-1.591C862.51,682.558,866.62,676.273,866.476,671.679Z" transform="translate(-828.142 -666.025)" fill="#701608"/>
          <path id="Path_22089" data-name="Path 22089" d="M861.875,714.267l-.168-.013a16.374,16.374,0,0,1-8.938-3.122l-.374-.275a13.477,13.477,0,0,1,9.921-3.355,13.235,13.235,0,0,1,9.218,4.741l.14.164-.19.1A17.412,17.412,0,0,1,861.875,714.267Z" transform="translate(-843.723 -692.635)" fill="#dd6b5b"/>
          <path id="Path_22090" data-name="Path 22090" d="M840.18,666.082c.984,3.975,7.19,6.319,14.906,6.914,7.831.6,14.4-.485,16.176-4.64-3.144-.694-8.243-.72-14.112-1.215-.545-.045-2.662-.209-3.207-.247C847.822,666.465,843.228,665.736,840.18,666.082Z" transform="translate(-835.876 -665.992)" fill="#fff"/>
        </g>
      </g>
      <path id="Path_22091" data-name="Path 22091" d="M772.473,1033.073c1.393-9.56,3.389-19.136,4.34-21.269,2.353-5.271,5.87-11.054,7.474-18.81-7.473,14.716-22.552,19.565-56.548,19.654-29.221.077-46.646-8.208-55.687-17.248,1.038,5.549,3.781,12.367,5.212,15.7,1.046,2.435,2.216,13.971,2.77,24.44,8.705-10.663,31-13.613,48.229-13.664C746.676,1021.821,763.591,1024.354,772.473,1033.073Z" transform="translate(-639.789 -766.965)" fill="#5e001b" opacity="0.15"/>
      <path id="Path_22092" data-name="Path 22092" d="M604.064,1094.545c-6.985-.129-17.928-.891-19.555,1.646-2.928,4.564-3.6,15.523-1.351,25.252,3.512,15.183,15.37,42.488,25.948,69.487.949,3.194,22.435,2.067,21.877-1.106C621.1,1165.365,613.58,1124.6,604.064,1094.545Z" transform="translate(-581.819 -832.073)" fill="#ffc19f"/>
    </g>
    <g id="Group_1780" data-name="Group 1780" transform="translate(576.11 189.842)">
      <path id="Path_22093" data-name="Path 22093" d="M1177.714,1002.984c-2.157-3.929-10.259-10.22-20.689-15.757-27.448,29.044-46.1,61.923-78.463,88.424.839,2.213,16.021,15.469,17.954,15.7,18.439-12.638,49.573-33.155,75.738-61.847C1176.894,1024.416,1181.763,1010.36,1177.714,1002.984Z" transform="translate(-1078.562 -702.118)" fill="#ffc19f"/>
      <path id="Path_22094" data-name="Path 22094" d="M1289.756,827.684c2.046-5.928,15.633-32.8,18.944-46.324,5.99-24.469,11.56-61.673,9.234-68.3-1.544-4.4-14.552-16.779-19.56-21.792-3.064,6.361-30.194,58.246-33.034,74.793-2,11.664-7.609,33.683-12.928,52.018C1256.355,820.822,1285.417,827.49,1289.756,827.684Z" transform="translate(-1190.251 -511.981)" fill="#ffc19f"/>
      <path id="Path_22095" data-name="Path 22095" d="M1276.991,761.991c1.2-4.66,20.261-75.71,25.721-80.325,3.627-3.066,22.848-12.476,30-15.159-.2,7.107-1.384,75.444-11.232,111.274C1311.3,778.522,1280.268,765.455,1276.991,761.991Z" transform="translate(-1206.042 -496.074)" fill="#4b4bb2"/>
      <path id="Path_22096" data-name="Path 22096" d="M1862.85,839.179a.767.767,0,0,1,.155.359.851.851,0,0,1-.051.4.771.771,0,0,1-.156-.359A.853.853,0,0,1,1862.85,839.179Z" transform="translate(-1582.387 -607.005)" fill="#ffc19f"/>
      <path id="Path_22097" data-name="Path 22097" d="M1525.865,799.961c-1.935-32.391,1.131-127.088,1.484-155.749-2.4-1.554-36.012-12.657-58.437-18.555-9.715-2.555-33.032-.43-43.45,2.792a324.562,324.562,0,0,0-50.359,20.864c3.4,35.761,8.217,131,8.49,161.314.131,14.48.956,60.722,1.021,67.911,13.187,3.4,48.258,4.41,66.019,3.943,36.3-.954,74.666-6.869,78.015-8.659C1528.445,868.317,1526.018,802.511,1525.865,799.961Z" transform="translate(-1269.073 -469.101)" fill="#4b4bb2"/>
      <path id="Path_22098" data-name="Path 22098" d="M1510.776,659.672c19.708-1.125,34.975-14.077,35.075-29.229-4.719-1.492-9.3-2.921-13.394-4.177-9.6-2.95-40.064.159-50.316,3.877-3.281,1.19-6.5,2.455-9.677,3.742C1473.809,649.309,1490.74,660.814,1510.776,659.672Z" transform="translate(-1331.623 -469.467)" fill="#3a3a9b"/>
      <path id="Path_22099" data-name="Path 22099" d="M1550.311,628.724c-.017-.3-.132-.567-.163-.861-3.4-1.069-6.692-2.094-9.685-3.013-8.78-2.7-36.63.145-46,3.545-2,.724-4.087,1.51-6.22,2.328-.014.521-.142,1.022-.112,1.549.76,13.316,15.3,23.315,32.467,22.336S1551.07,642.04,1550.311,628.724Z" transform="translate(-1341.682 -468.622)" fill="#ffc19f"/>
      <path id="Path_22100" data-name="Path 22100" d="M1527.333,576.422c-12.8,1.244-23.835-4.5-24.645-12.838l-4-41.171,46.355-4.506,4,41.172C1549.854,567.413,1540.134,575.178,1527.333,576.422Z" transform="translate(-1348.469 -400.606)" fill="#ffc19f"/>
      <path id="Path_22101" data-name="Path 22101" d="M1504.989,572.616c3.007,6.507,27.73,6.441,44.789-21.281l-.89-8.5c-5.979-3.922-16.882-4.515-28.217-.878A44.36,44.36,0,0,0,1503,552.192Z" transform="translate(-1351.243 -414.499)" fill="#822020" opacity="0.23"/>
      <path id="Path_22102" data-name="Path 22102" d="M1835.291,794.325c.2-16.232-15.516-95.321-19.691-99.3-3.418-3.26-18.539-12.17-25.151-15.361-1.085,7.011-2.592,62.039-4.649,81.064-1.174,10.865,11.193,38.3,14.417,51.4C1805.154,812.046,1831.938,796.072,1835.291,794.325Z" transform="translate(-1532.873 -504.525)" fill="#ffc19f"/>
      <path id="Path_22103" data-name="Path 22103" d="M1465.059,1176.041c36.3-.954,74.666-6.869,78.015-8.659-.2-5.5-3.119-81.369-3.221-85.916a657.641,657.641,0,0,1-142.3,3.7c.25,7.6,1.418,79.739,1.482,86.928C1412.226,1175.5,1447.3,1176.508,1465.059,1176.041Z" transform="translate(-1283.499 -762.661)" fill="#fff" opacity="0.25"/>
      <path id="Path_22104" data-name="Path 22104" d="M1790.73,752.572c-.682-4.762-11.651-69.308-22.637-80.786-6.666-6.963-27.194-13.705-50.863-20.276-.545,6.707,10.706,53.415,14.223,69.938.275,1.291,11,38.432,13.1,41.712C1756.819,763.985,1786,757.625,1790.73,752.572Z" transform="translate(-1488.859 -486.439)" fill="#4b4bb2"/>
      <g id="Group_1779" data-name="Group 1779" transform="translate(101.398)">
        <path id="Path_22105" data-name="Path 22105" d="M1489.412,218.119a64.193,64.193,0,0,1,5.371,9.369c-4.062,4.568-30.553,24.968-63.357,27.767-31.957,2.726-63.719-25.269-65.8-29.851,11.4-18.138,36.027-35.417,74.958-35.562,1.506-.006,28.46,2.484,30.821,13.951C1476.759,205.344,1484.878,211.751,1489.412,218.119Z" transform="translate(-1364.384 -189.842)" fill="#84220f"/>
        <path id="Path_22106" data-name="Path 22106" d="M1455.725,212.3c18.76-4.348,35.555,12.207,32.775,15.188-9.148,9.81-25.989,18.1-38.389,23.466-15.56,6.733-26.628,8.931-37.924,7.956-10.186-.879-21.984-5.744-26.866-14.385C1385.32,244.523,1418.007,221.038,1455.725,212.3Z" transform="translate(-1377.035 -203.805)" fill="#84220f" fill-rule="evenodd"/>
        <path id="Path_22107" data-name="Path 22107" d="M1489.412,218.119a64.193,64.193,0,0,1,5.371,9.369c-4.062,4.568-30.553,24.968-63.357,27.767-31.957,2.726-63.719-25.269-65.8-29.851,11.4-18.138,36.027-35.417,74.958-35.562,1.506-.006,28.46,2.484,30.821,13.951C1476.759,205.344,1484.878,211.751,1489.412,218.119Z" transform="translate(-1364.384 -189.842)" fill="#84220f"/>
        <path id="Path_22108" data-name="Path 22108" d="M1385.8,439.7c4.892-1.069,9.335,4.167,12.378,13.132,3.418,10.069,1.067,16.041-.777,17.445-3.5,2.667-11.3-1.757-15.313-11.245C1378.469,450.484,1380.027,440.961,1385.8,439.7Z" transform="translate(-1373.711 -350.274)" fill="#e8a07c"/>
        <path id="Path_22109" data-name="Path 22109" d="M1391.652,253.5c-18.929,2.51-26.655,16.382-29.5,24.26,1.117,11.6,7.767,42,8.37,44.867,2.112,1.016,5,16.384,7.223,18.825a59.84,59.84,0,0,0,.157-16.379c-2.381-19.574-5.519-36.827-3.431-42.4,1.248-3.334,7.47-11.848,20.276-15.146C1400.524,266.038,1394.652,258.184,1391.652,253.5Z" transform="translate(-1362.148 -230.739)" fill="#84220f"/>
        <path id="Path_22110" data-name="Path 22110" d="M1387.518,300.027c4.25-8.71,20.695-22.645,52.19-21.752,29.935.848,56.968,3.891,61.092,26.571,3.966,21.815-11.155,58.253-16.062,69.662-1.4,3.263-9.334,11.425-13.557,14.666-7.457,5.725-16.984,11.833-26.517,14.083-.56.132-12.54.683-13.11.607-9.423-1.26-25.052-14.191-30.639-22.466-1.909-2.828-8.017-21.321-10.21-34-1.08-6.249-.934-20.928-2.263-31.356C1387.194,306.217,1386.463,302.19,1387.518,300.027Z" transform="translate(-1378.122 -246.629)" fill="#ffc19f"/>
        <path id="Path_22111" data-name="Path 22111" d="M1583.8,230.3c22.335-1.829,40.392,13.672,47.029,23.085,1.969,15.875-2.647,42.752-4.369,48.656-2.641,1.441-12.409,19.893-14.152,22.854-.084-.527-1.773-10.025-2.612-20.5-.536-6.7,3.269-39.583-.59-44.625-2.308-3.016-10.38-10.662-28.185-11.221C1572.886,248.295,1580.67,235.535,1583.8,230.3Z" transform="translate(-1500.434 -215.739)" fill="#84220f"/>
        <path id="Path_22112" data-name="Path 22112" d="M1504.6,482.469c-2.105,0-4.607-.738-5.586-2.069-.912-1.237-.409-2.927.228-5.069a31.681,31.681,0,0,0,1.113-4.644.672.672,0,0,1,.778-.583.684.684,0,0,1,.577.778,32.321,32.321,0,0,1-1.154,4.842c-.529,1.773-.945,3.175-.442,3.862.939,1.254,4.694,1.968,6.283,1.207a.687.687,0,0,1,.6,1.234A5.7,5.7,0,0,1,1504.6,482.469Z" transform="translate(-1449.757 -369.89)" fill="#c4735b"/>
        <path id="Path_22113" data-name="Path 22113" d="M1573.819,360.179a24.618,24.618,0,0,0-9.287-3.9,43.537,43.537,0,0,0-17.786,1.136c-1.461.428-2.039,5.043-1.75,5.393.339.408.984.43,2.023.22,5.375-1.09,10.44-2.593,17.861-1.8a54.642,54.642,0,0,1,7.4,1.344,9.808,9.808,0,0,0,2.5.553C1575.122,362.737,1574.752,360.839,1573.819,360.179Z" transform="translate(-1479.572 -296.474)" fill="#4c0b00"/>
        <path id="Path_22114" data-name="Path 22114" d="M1401.5,374.659a19.54,19.54,0,0,1,7.2-5.164,32.431,32.431,0,0,1,15.275-1.42c1.313.212,2.6,4.676,2.413,5.062-.216.451-.76.565-1.678.505-4.744-.306-9.3-1.065-15.454.776a41.018,41.018,0,0,0-6.041,2.38c-.489.251-1.876,1.039-2.023.9A3.286,3.286,0,0,1,1401.5,374.659Z" transform="translate(-1387.079 -304.127)" fill="#4c0b00"/>
        <path id="Path_22115" data-name="Path 22115" d="M1455.725,212.3c18.76-4.348,35.555,12.207,32.775,15.188-9.148,9.81-25.989,18.1-38.389,23.466-15.56,6.733-26.628,8.931-37.924,7.956-10.186-.879-21.984-5.744-26.866-14.385C1385.32,244.523,1418.007,221.038,1455.725,212.3Z" transform="translate(-1377.035 -203.805)" fill="#84220f" fill-rule="evenodd"/>
        <path id="Path_22116" data-name="Path 22116" d="M1602.307,274.835c-1.226-.414-26.113-8.443-37.122-10.8-1.094.729-8.076,5.818-10.47,7.72,15.9-.768,25.934,5.462,29.058,11.49,3.417,6.594,9.195,43.63,10.19,51.766C1595.773,325.032,1603.067,275.091,1602.307,274.835Z" transform="translate(-1485.862 -237.508)" fill="#84220f"/>
        <g id="Group_1775" data-name="Group 1775" transform="translate(39.326 117.628)">
          <path id="Path_22117" data-name="Path 22117" d="M1472.136,524.935c.105-4.553,6.815-3.785,17.5-4.772.559-.052,2.734-.237,3.294-.281,10.7-.836,16.99-2.474,18.343,1.878,1.3,4.195-2.495,11.345-8.469,15.8a18.55,18.55,0,0,1-9.646,3.339l-.188.016a18.814,18.814,0,0,1-10.043-1.555C1476.3,536.083,1472.028,529.658,1472.136,524.935Z" transform="translate(-1472.135 -518.855)" fill="#701608"/>
          <path id="Path_22118" data-name="Path 22118" d="M1512.4,568.71l.172-.015a16.826,16.826,0,0,0,9.161-3.283l.383-.286a13.859,13.859,0,0,0-10.225-3.366,13.6,13.6,0,0,0-9.435,4.949l-.143.17.2.106A17.9,17.9,0,0,0,1512.4,568.71Z" transform="translate(-1491.525 -546.376)" fill="#dd6b5b"/>
          <path id="Path_22119" data-name="Path 22119" d="M1512.47,518.9c-.979,4.094-7.339,6.554-15.264,7.23-8.044.687-14.8-.379-16.664-4.635,3.226-.738,8.466-.807,14.494-1.365.56-.052,2.734-.237,3.295-.281C1504.619,519.356,1509.334,518.569,1512.47,518.9Z" transform="translate(-1477.536 -518.82)" fill="#fff"/>
        </g>
        <g id="Group_1776" data-name="Group 1776" transform="translate(17.852 81.567)">
          <path id="Path_22120" data-name="Path 22120" d="M1419.988,421.442c-5.975,3.639-6.917,12.586-2.72,16.542,2.46,2.32,6.052,2.588,9.721,2.241,5.394-.511,9.845-3.97,10.239-6.9.194-1.441.175-4.309-2.7-8.547C1431.247,419.951,1425.239,418.244,1419.988,421.442Z" transform="translate(-1413.755 -419.151)" fill="#fbfdff" fill-rule="evenodd"/>
          <path id="Path_22121" data-name="Path 22121" d="M1413.855,422.5c-3.638,4.862-1.026,12.571,1.865,14.427a10.96,10.96,0,0,1,4.524-17.076c4.525-1.875,10.026-.38,13.3,4.7C1429.132,416.749,1418.979,415.648,1413.855,422.5Z" transform="translate(-1412.076 -417.966)" fill="#6c1e19" fill-rule="evenodd"/>
          <path id="Path_22122" data-name="Path 22122" d="M1432.259,437.451c-2.967,1.883-4.007,6.223-2.252,9.748s5.53,4.807,8.512,2.949,3.974-6.229,2.251-9.748C1439.039,436.863,1435.251,435.551,1432.259,437.451Z" transform="translate(-1423.045 -429.925)" fill="#6c1e19" fill-rule="evenodd"/>
          <path id="Path_22123" data-name="Path 22123" d="M1451.293,442.913a2.194,2.194,0,0,0-.639,2.727,1.614,1.614,0,0,0,2.337.8,2.155,2.155,0,0,0,.64-2.727A1.638,1.638,0,0,0,1451.293,442.913Z" transform="translate(-1436.717 -433.84)" fill="#fff" fill-rule="evenodd"/>
        </g>
        <g id="Group_1777" data-name="Group 1777" transform="translate(67.558 77.002)">
          <path id="Path_22124" data-name="Path 22124" d="M1553,414.335c-2.491,4.7-1.992,7.522-1.51,8.906.982,2.815,6.655,5.411,12.859,4.932,4.22-.325,8.241-1.244,10.607-3.974,4.035-4.659,1.339-13.3-6.093-15.79A13,13,0,0,0,1553,414.335Z" transform="translate(-1551.092 -406.776)" fill="#fbfdff" fill-rule="evenodd"/>
          <path id="Path_22125" data-name="Path 22125" d="M1554.694,413.828a13.106,13.106,0,0,1,14.213-7.047c5.359,1,8.184,4.287,9.24,7.048a9.892,9.892,0,0,1-1.006,8.94c2.939-2.354,4.495-10.419-.512-14.544C1569.575,402.416,1558.272,405.347,1554.694,413.828Z" transform="translate(-1553.406 -405.2)" fill="#6c1e19" fill-rule="evenodd"/>
          <path id="Path_22126" data-name="Path 22126" d="M1569.366,425.6a7.227,7.227,0,1,0,9.731,2.845A7.162,7.162,0,0,0,1569.366,425.6Z" transform="translate(-1560.491 -417.724)" fill="#6c1e19" fill-rule="evenodd"/>
          <path id="Path_22127" data-name="Path 22127" d="M1591.585,430.9a2.033,2.033,0,0,0-.769,2.738,1.927,1.927,0,0,0,2.673.774,2.022,2.022,0,0,0,.768-2.737A1.978,1.978,0,0,0,1591.585,430.9Z" transform="translate(-1576.448 -421.553)" fill="#fff" fill-rule="evenodd"/>
        </g>
        <g id="Group_1778" data-name="Group 1778" transform="translate(108.188 79.708)">
          <path id="Path_22128" data-name="Path 22128" d="M1680.486,413.139c-7.307-1.861-13.6,3.4-15.167,12.838-1.777,10.668.78,16.737,3.187,18.1,4.573,2.58,13.931-2.055,18.162-11.664C1690.48,423.751,1687.627,414.958,1680.486,413.139Z" transform="translate(-1664.725 -412.767)" fill="#ffc19f"/>
          <path id="Path_22129" data-name="Path 22129" d="M1683.03,438.081c-.99.5-4.761,15.784-3.621,16.058,3.925.945,7.694-1.416,9.471-5.912C1691.128,442.542,1688.59,435.284,1683.03,438.081Z" transform="translate(-1674.022 -428.632)" fill="#e0956c"/>
        </g>
      </g>
    </g>
    <g id="Group_1781" data-name="Group 1781" transform="translate(296.468 588.771)">
      <path id="Path_22130" data-name="Path 22130" d="M930.29,1362.809H298.033l25.3-54.295a5.118,5.118,0,0,1,4.64-2.957H892.9a5.12,5.12,0,0,1,4.385,2.478Z" transform="translate(-297.473 -1305.557)" fill="#fc6"/>
      <rect id="Rectangle_582" data-name="Rectangle 582" width="633.375" height="19.138" rx="0.297" transform="translate(0 56.415)" fill="#ef9e3f"/>
    </g>
    <path id="Path_22131" data-name="Path 22131" d="M1125.652,1205.211c0,4.266-1.445,25.765,1.448,25.765s19.58,4.419,19.58.153c-1.821-3.365-16.626-46.531-19.519-46.531S1125.652,1200.945,1125.652,1205.211Z" transform="translate(-532.473 -639.077)" fill="#ffc19f"/>
    <rect id="Rectangle_583" data-name="Rectangle 583" width="110.725" height="59.585" rx="1.545" transform="translate(587.691 515.863)" fill="#ef9e3f"/>
    <g id="Group_1787" data-name="Group 1787" transform="translate(573.196 378.419)">
      <path id="Path_22132" data-name="Path 22132" d="M1104.8,1205.211c0,4.266-2.345,7.725-5.239,7.725s-7.958-3.622-7.958-7.888c1.822-3.365,8.795-20.449,11.688-20.449S1104.8,1200.945,1104.8,1205.211Z" transform="translate(-1084.029 -1017.496)" fill="#ffc19f"/>
      <path id="Path_22133" data-name="Path 22133" d="M1360.362,1165.189c-5.634,3.367-22.242,10.444-28.554,12.334-1.651-8.1-3.983-20.88-5.423-28.078-.581-1.125-12.629-18.6-12.626-19.022,7.423.469,20.86,3.112,23.246,4.406C1340.968,1137.626,1353.682,1155.284,1360.362,1165.189Z" transform="translate(-1226.749 -982.691)" fill="#02b2bf"/>
      <path id="Path_22134" data-name="Path 22134" d="M1231.977,1201.389c-22.153,8.745-53.474,9.869-75.134-.071,0,0,5.081-54.835,8.094-69.922,16.255-4.513,46.667-2.794,61.551-.247C1228.374,1147.982,1232.8,1197.7,1231.977,1201.389Z" transform="translate(-1125.94 -981.518)" fill="#02b2bf"/>
      <path id="Path_22135" data-name="Path 22135" d="M1086.284,1165.189c5.635,3.367,22.242,10.444,28.554,12.334,1.651-8.1,3.983-20.88,5.423-28.078.581-1.125,12.629-18.6,12.626-19.022-7.422.469-20.86,3.112-23.246,4.406C1105.679,1137.626,1092.964,1155.284,1086.284,1165.189Z" transform="translate(-1080.609 -982.691)" fill="#02b2bf"/>
      <path id="Path_22136" data-name="Path 22136" d="M1200.863,1174.307a202.161,202.161,0,0,0,30.844-3.455c-.014-.124-.375-2.585-.539-3.651-20.924,3.951-44.819,4.794-66.108,1.674-.165,1.141-.316,2.192-.487,3.378A196.794,196.794,0,0,0,1200.863,1174.307Zm35.88,47.972c-24.393,5.244-53.641,6.18-78.183,1.3-.095,1.133-.171,2.276-.273,3.4a190.653,190.653,0,0,0,43.584,3.321,199.207,199.207,0,0,0,35.207-4.343C1236.972,1224.8,1236.86,1223.564,1236.743,1222.279Zm-35.808-33.864a200.946,200.946,0,0,0,32.219-3.756q-.187-1.852-.374-3.667c-21.954,4.338-47.387,5.263-69.7,1.692-.157,1.1-.32,2.265-.48,3.386A195.745,195.745,0,0,0,1200.934,1188.415Zm.864,27.782a199.945,199.945,0,0,0,34.006-4.108q-.168-1.814-.345-3.686c-23.793,4.95-51.981,5.856-75.9,1.291-.069,1.142-.133,2.278-.208,3.42A192.106,192.106,0,0,0,1201.8,1216.2Zm-.122-14.242a200.233,200.233,0,0,0,32.8-3.892q-.176-1.83-.356-3.668c-22.941,4.609-49.765,5.484-72.887,1.372-.156,1.125-.314,2.26-.471,3.4A193.348,193.348,0,0,0,1201.676,1201.955Z" transform="translate(-1126.867 -1006.319)" fill="#fff" opacity="0.4"/>
      <path id="Path_22137" data-name="Path 22137" d="M1252.2,1131.054a12.979,12.979,0,0,0-.176-1.51,210.563,210.563,0,0,0-34.64-.343,13.119,13.119,0,0,0-.215,1.853c0,8.405,7.843,15.22,17.515,15.22S1252.2,1139.459,1252.2,1131.054Z" transform="translate(-1164.693 -981.543)" fill="#1390a1"/>
      <path id="Path_22138" data-name="Path 22138" d="M1226.912,1080.236l.407,22.021c.087,4.735,6.177,8.464,13.6,8.326s13.372-4.089,13.284-8.823l-.407-22.022Z" transform="translate(-1170.955 -950.128)" fill="#ffc19f"/>
      <path id="Path_22139" data-name="Path 22139" d="M1217.144,1082.732a8.943,8.943,0,0,1,1.125-2.382,256.578,256.578,0,0,1,31.3,10.238,7.922,7.922,0,0,1-.114,1.174c-1.87,6.694-10.621,10.1-19.544,7.6S1215.273,1089.426,1217.144,1082.732Z" transform="translate(-1164.452 -950.522)" fill="#7f0404" opacity="0.19"/>
      <path id="Path_22140" data-name="Path 22140" d="M1132.819,1265.938c1.107.592-4.531,12.969-5.712,12.543-18.991-6.838-37.307-13.585-41.735-17.335-6.757-5.722-4.639-11.939-.356-20.71C1089.778,1242.913,1117.32,1257.634,1132.819,1265.938Z" transform="translate(-1077.233 -1053.369)" fill="#ffc19f"/>
      <g id="Group_1786" data-name="Group 1786">
        <path id="Path_22141" data-name="Path 22141" d="M1396.048,967.124c-3.209,12.4-14.866,20.091-23.571,18.8s-10.288-11.511-8.649-23.471,10.029-20.631,18.731-19.3C1394.45,944.962,1399.064,955.471,1396.048,967.124Z" transform="translate(-1258.549 -862.289)" fill="#ffc19f"/>
        <path id="Path_22142" data-name="Path 22142" d="M1395.654,1000.606c-2.015,4.9-6.992,7.442-11.119,5.688s-5.843-7.146-3.83-12.04,6.992-7.44,11.119-5.687S1397.666,995.711,1395.654,1000.606Z" transform="translate(-1269.217 -891.2)" fill="#e0956c"/>
        <g id="Group_1782" data-name="Group 1782" transform="translate(0 80.722)">
          <path id="Path_22143" data-name="Path 22143" d="M1071.309,967.124c3.21,12.4,14.867,20.091,23.572,18.8s10.288-11.511,8.648-23.471-10.029-20.631-18.73-19.3C1072.908,944.962,1068.295,955.471,1071.309,967.124Z" transform="translate(-1070.413 -943.012)" fill="#ffc19f"/>
          <path id="Path_22144" data-name="Path 22144" d="M1102.348,1000.606c2.015,4.9,6.992,7.442,11.119,5.688s5.843-7.146,3.829-12.04-6.992-7.44-11.119-5.687S1100.336,995.711,1102.348,1000.606Z" transform="translate(-1090.388 -971.922)" fill="#e0956c"/>
        </g>
        <path id="Path_22145" data-name="Path 22145" d="M1202.411,758.324c-9.775-11.129-30.955-20.436-54.718-20.436s-44.945,9.307-54.72,20.436c-11.979,13.638-10.1,41.061-6.885,55.233,6.257,27.551,30.542,38.569,61.42,38.7l.369.009c30.878-.134,55.163-11.161,61.419-38.712C1212.514,799.385,1214.39,771.962,1202.411,758.324Z" transform="translate(-1078.929 -730.509)" fill="#602220"/>
        <path id="Path_22146" data-name="Path 22146" d="M1221.266,860.494c.966-43.539-22.6-44.856-53.386-44.856s-54.912,1.332-53.41,44.856c1.518,44,22.605,64.377,53.4,64.377S1220.313,903.443,1221.266,860.494Z" transform="translate(-1098.675 -780.458)" fill="#ffc19f"/>
        <path id="Path_22147" data-name="Path 22147" d="M1137.691,1007.766c-.152,2.562,3.285,4.85,7.678,5.11s8.075-1.605,8.227-4.167-3.286-4.85-7.677-5.11S1137.843,1005.2,1137.691,1007.766Z" transform="translate(-1113.633 -901.198)" fill="#ff9797"/>
        <path id="Path_22148" data-name="Path 22148" d="M1342.38,1008.99c.207,2.558,3.931,4.344,8.316,3.989s7.773-2.716,7.565-5.275-3.931-4.344-8.315-3.989S1342.173,1006.432,1342.38,1008.99Z" transform="translate(-1245.131 -901.259)" fill="#ff9797"/>
        <g id="Group_1783" data-name="Group 1783" transform="translate(48.718 108.817)">
          <path id="Path_22149" data-name="Path 22149" d="M1247.411,1025.071c-.841-4.386-7.583-3.25-18.594-3.324-.576,0-2.816,0-3.393,0-11.011.074-17.753-1.063-18.594,3.324-1.621,8.449,9.01,17.678,20.193,17.713h.194C1238.4,1042.749,1249.03,1033.52,1247.411,1025.071Z" transform="translate(-1206.665 -1021.638)" fill="#701608"/>
          <path id="Path_22150" data-name="Path 22150" d="M1243.843,1068.135h-.194a22.948,22.948,0,0,1-10.888-2.966l-.213-.114.18-.16a17.05,17.05,0,0,1,22.043,0l.181.16-.214.114A23.012,23.012,0,0,1,1243.843,1068.135Z" transform="translate(-1223.294 -1046.813)" fill="#dd6b5b"/>
          <path id="Path_22151" data-name="Path 22151" d="M1237.017,1027.33c-7.695,0-14.1-2.384-14.9-5.551l-.047-.194h29.9l-.046.194C1251.111,1024.945,1244.705,1027.33,1237.017,1027.33Z" transform="translate(-1216.561 -1021.585)" fill="#fff"/>
        </g>
        <path id="Path_22152" data-name="Path 22152" d="M1249.673,997.569a.591.591,0,0,0,.581-.495,4.214,4.214,0,0,1,8.258-.034.59.59,0,0,0,1.167-.17,5.393,5.393,0,0,0-10.59.014.59.59,0,0,0,.487.678Z" transform="translate(-1185.197 -894.088)" fill="#c4735b"/>
        <g id="Group_1784" data-name="Group 1784" transform="translate(81.988 76.446)">
          <path id="Path_22153" data-name="Path 22153" d="M1300.231,955.471s17.615,5.617,24.322-3.66c8.172-11.305-4.349-20.226-12.464-18.479C1304.578,934.948,1297.759,941.461,1300.231,955.471Z" transform="translate(-1299.715 -932.376)" fill="#f9feff"/>
          <path id="Path_22154" data-name="Path 22154" d="M1330.473,936.063c-3.265-4.1-7.654-5.394-12.412-4.917-4.865.488-9.791,3.942-11.182,7.5,2.614-4.011,7.124-5.48,9.932-6.084,4.471-.967,10.335,1.039,12.975,5.079,2.347,3.594,2.15,8.988-.85,13.137C1332.478,947.96,1333.875,940.339,1330.473,936.063Z" transform="translate(-1304.317 -931.052)" fill="#773220"/>
          <path id="Path_22155" data-name="Path 22155" d="M1311.343,959.838a7.916,7.916,0,1,0,10.281-4.431A7.916,7.916,0,0,0,1311.343,959.838Z" transform="translate(-1306.824 -946.338)" fill="#721907"/>
          <path id="Path_22156" data-name="Path 22156" d="M1313.865,962.8a2.2,2.2,0,1,0,2.852-1.23A2.194,2.194,0,0,0,1313.865,962.8Z" transform="translate(-1308.705 -950.558)" fill="#fefffe"/>
        </g>
        <g id="Group_1785" data-name="Group 1785" transform="translate(28.305 76.541)">
          <path id="Path_22157" data-name="Path 22157" d="M1178.265,955.723s-17.611,5.631-24.324-3.642c-8.18-11.3,4.334-20.229,12.451-18.489C1173.9,935.2,1180.728,941.711,1178.265,955.723Z" transform="translate(-1150.668 -932.639)" fill="#f9feff"/>
          <path id="Path_22158" data-name="Path 22158" d="M1151.521,936.336c3.261-4.106,7.649-5.4,12.408-4.925,4.865.485,9.794,3.934,11.187,7.493-2.617-4.009-7.128-5.475-9.936-6.076-4.472-.964-10.334,1.047-12.971,5.088-2.344,3.6-2.144,8.99.859,13.136C1149.523,948.234,1148.121,940.614,1151.521,936.336Z" transform="translate(-1149.576 -931.318)" fill="#773220"/>
          <path id="Path_22159" data-name="Path 22159" d="M1174.462,960.35a7.916,7.916,0,1,0,10.28-4.43A7.915,7.915,0,0,0,1174.462,960.35Z" transform="translate(-1165.203 -946.762)" fill="#721907"/>
          <path id="Path_22160" data-name="Path 22160" d="M1176.983,963.312a2.2,2.2,0,1,0,2.852-1.229A2.2,2.2,0,0,0,1176.983,963.312Z" transform="translate(-1167.083 -950.982)" fill="#fefffe"/>
        </g>
        <path id="Path_22161" data-name="Path 22161" d="M1331.237,893.293a1.754,1.754,0,0,0,1.338-.618,1.921,1.921,0,0,0-.131-2.639c-5.348-5.026-14.99-6.453-22.906-3.415a1.894,1.894,0,0,0-1.063,2.4,1.782,1.782,0,0,0,2.3,1.108c6.639-2.553,14.918-1.394,19.266,2.681A1.748,1.748,0,0,0,1331.237,893.293Z" transform="translate(-1223.283 -825.043)" fill="#660303"/>
        <path id="Path_22162" data-name="Path 22162" d="M1149.7,893.293a1.755,1.755,0,0,1-1.338-.618,1.922,1.922,0,0,1,.131-2.639c5.348-5.026,14.99-6.453,22.905-3.415a1.893,1.893,0,0,1,1.063,2.4,1.781,1.781,0,0,1-2.3,1.108c-6.639-2.553-14.917-1.394-19.265,2.681A1.746,1.746,0,0,1,1149.7,893.293Z" transform="translate(-1120.192 -825.043)" fill="#660303"/>
        <path id="Path_22163" data-name="Path 22163" d="M1375.885,839.575c1.676,3.763,4.831,7.682,8.61,15.358-.141-3.782-.1-28.919-.2-34.616-3.425-.4-17.778-2.244-19.957-2.245C1377.189,823.426,1372.811,832.67,1375.885,839.575Z" transform="translate(-1259.245 -782.022)" fill="#602220"/>
        <path id="Path_22164" data-name="Path 22164" d="M1136.037,819.257c-2.553,0-19.367,1.93-23.378,2.347-.1,6.081.008,32.912-.147,36.949,4.409-8.183,8.1-12.359,10.05-16.371C1126.147,834.818,1121,824.94,1136.037,819.257Z" transform="translate(-1097.459 -782.784)" fill="#602220"/>
        <path id="Path_22165" data-name="Path 22165" d="M1199.2,717.249c-24.781,3.518-32.047,18.861-34.112,27.963,4.053,0,8.6-.034,10.708-.229C1175.569,734.734,1181.458,724.744,1199.2,717.249Z" transform="translate(-1131.238 -717.249)" fill="#602220"/>
        <path id="Path_22166" data-name="Path 22166" d="M1268.342,742.731c-18.356-17.133-58.051-20.881-78.136,2.222,5.063,5.726,20.147,10.437,22.072,11.222C1235.377,737.836,1256.1,740.13,1268.342,742.731Z" transform="translate(-1147.373 -724.636)" fill="#602220"/>
        <path id="Path_22167" data-name="Path 22167" d="M1263.252,809c-29.055,15.8-73.573-6.283-72.125-12.74s22.084-9.88,41.762-5.466S1262.672,806.26,1263.252,809Z" transform="translate(-1147.943 -763.223)" fill="#602220"/>
      </g>
    </g>
    <g id="Group_1789" data-name="Group 1789" transform="translate(706.592 531.088)">
      <path id="Path_22168" data-name="Path 22168" d="M1459.335,1171.755c-.92,1.312-17.062,18.466-15.77,19.658,4.235,3.908,14.066-5.459,20.493-11.439,7.33-5.7,20.459-14.6,23.005-16.4,4.754-3.359-1.383-7.565-9.446-6.222C1476.15,1157.6,1461.275,1168.986,1459.335,1171.755Z" transform="translate(-1443.491 -1152.496)" fill="#f9ac85"/>
      <path id="Path_22169" data-name="Path 22169" d="M1514.939,1189.884c2.333-.08,3.323-2.814,2.611-5.446,1.8,2.93,3.092,4.625,3.889,4.532a3.611,3.611,0,0,0,2.722-4.943c2.928,2.031,4.575-.282,4.532-2.624-.029-1.544-.156-3.818-.3-7.606-.064-1.652,1.085-2.588,6.191-9.446,2.394-.09,11.626,9.066,19.265,7.951,14.429-2.107,12.859-18.3,6.258-26.622-2.472-3.118-35.7-.259-40.492-.154-7.241.157-17.593,21.792-16.835,25.511C1503.942,1176.755,1512.193,1188.661,1514.939,1189.884Z" transform="translate(-1481.554 -1144.229)" fill="#ffc19f"/>
      <g id="Group_1788" data-name="Group 1788" transform="translate(29.778 14.335)">
        <path id="Path_22170" data-name="Path 22170" d="M1527.457,1193.121c.827-1.872,2.368-5.356,4.137-8.57a.441.441,0,1,1,.774.422c-1.754,3.183-3.283,6.645-4.108,8.505-.277.63-.481,1.092-.593,1.318-.491.823,2.072,9.023,5.77,15.492.011.231,0,.468,0,.705-3.265-4.157-7.363-14.963-6.56-16.585C1526.985,1194.185,1527.184,1193.738,1527.457,1193.121Z" transform="translate(-1526.773 -1184.32)" fill="#f29d77"/>
        <path id="Path_22171" data-name="Path 22171" d="M1551.824,1197.783c.831-1.881,2.376-5.381,4.163-8.628a.44.44,0,0,1,.6-.174.446.446,0,0,1,.174.6c-1.773,3.214-3.309,6.692-4.132,8.558-.267.6-.462,1.045-.572,1.267-.566,1.139.432,9.023,3.645,13.581a.413.413,0,0,1,.043.381c-.35-.221-.715-.466-1.1-.742l-.377-.6c-3.007-4.824-3.716-11.57-3-13.016C1551.375,1198.8,1551.563,1198.368,1551.824,1197.783Z" transform="translate(-1542.344 -1187.278)" fill="#f29d77"/>
      </g>
    </g>
    <g id="Group_1790" data-name="Group 1790" transform="translate(586.116 543.95)">
      <path id="Rectangle_584" data-name="Rectangle 584" d="M2.68,0H123.865a2.68,2.68,0,0,1,2.68,2.68v0a2.68,2.68,0,0,1-2.68,2.68H2.681A2.681,2.681,0,0,1,0,2.68v0A2.68,2.68,0,0,1,2.68,0Z" transform="translate(1.727 80.216)" fill="#afafaf"/>
      <path id="Rectangle_585" data-name="Rectangle 585" d="M17.973,0h94.052A17.973,17.973,0,0,1,130,17.973V61.58a17.973,17.973,0,0,1-17.973,17.973H17.971A17.971,17.971,0,0,1,0,61.581V17.973A17.973,17.973,0,0,1,17.973,0Z" fill="#f2f2f2"/>
      <path id="Rectangle_586" data-name="Rectangle 586" d="M17.973,0h94.052A17.973,17.973,0,0,1,130,17.973V61.58a17.973,17.973,0,0,1-17.973,17.973H17.971A17.971,17.971,0,0,1,0,61.581V17.973A17.973,17.973,0,0,1,17.973,0Z" transform="translate(0 1.671)" fill="#d6d6d6"/>
      <path id="Path_22172" data-name="Path 22172" d="M1251.825,1271.867a13.057,13.057,0,1,0,12.628-13.472A13.057,13.057,0,0,0,1251.825,1271.867Z" transform="translate(-1199.875 -1230.433)" fill="#efefef"/>
      <path id="Path_22173" data-name="Path 22173" d="M1111.973,1264.226a6.077,6.077,0,0,0,1,.2h13.943l45.016-79.553h-15.058Zm121.879-78.016-44.26,78.217h5.293l41.587-73.492A6.282,6.282,0,0,0,1233.852,1186.211Zm-91-1.336-36.3,64.154V1258a6.066,6.066,0,0,0,.216,1.071l41.985-74.2Z" transform="translate(-1106.547 -1183.204)" fill="#fff" opacity="0.28"/>
    </g>
    <g id="Group_1794" data-name="Group 1794" transform="translate(410.007 520.381)">
      <path id="Path_22174" data-name="Path 22174" d="M721.581,1366.978c-.017,1.547-6.917,2.728-15.414,2.637s-15.371-1.419-15.354-2.966,6.918-2.728,15.414-2.636S721.6,1365.431,721.581,1366.978Z" transform="translate(-663.351 -1274.718)" fill="#720303" opacity="0.18"/>
      <path id="Path_22175" data-name="Path 22175" d="M698.871,1363.885c1.774-.13,3.743-.2,5.823-.172s4.048.128,5.82.3l8.1.086-.025,2.3c-.015,1.4-6.258,2.467-13.944,2.385s-13.9-1.284-13.89-2.683l.025-2.3Z" transform="translate(-663.312 -1274.526)" fill="#aababc"/>
      <path id="Path_22176" data-name="Path 22176" d="M718.653,1359.964c-.015,1.4-6.258,2.468-13.944,2.386s-13.9-1.283-13.889-2.683,6.258-2.467,13.943-2.386S718.667,1358.565,718.653,1359.964Z" transform="translate(-663.356 -1270.394)" fill="#cad7d8"/>
      <path id="Path_22177" data-name="Path 22177" d="M720.386,1339.431l7,.073-.085,8.262c0,.362-1.575.639-3.509.619s-3.5-.332-3.5-.693Z" transform="translate(-682.295 -1258.929)" fill="#aababc"/>
      <path id="Path_22178" data-name="Path 22178" d="M727.545,1338.38c0,.363-1.575.635-3.509.615s-3.5-.326-3.493-.687,1.573-.646,3.507-.625S727.549,1338.017,727.545,1338.38Z" transform="translate(-682.452 -1257.805)" fill="#cad7d8"/>
      <g id="Group_1793" data-name="Group 1793" transform="translate(0)">
        <path id="Path_22179" data-name="Path 22179" d="M661.647,1191.031,647.883,1115.2a1.112,1.112,0,0,0-1.3-.9,39.663,39.663,0,0,0,2.747,78.441,39.871,39.871,0,0,0,11.416-.418A1.115,1.115,0,0,0,661.647,1191.031Zm-29.287-6.954a37.383,37.383,0,0,1,13.54-67.331l13.347,73.534A37.14,37.14,0,0,1,632.36,1184.077Z" transform="translate(-614.01 -1114.285)" fill="#aababc"/>
        <g id="Group_1792" data-name="Group 1792" transform="translate(8.232 8.032)">
          <path id="Path_22180" data-name="Path 22180" d="M699.568,1162.643a31.518,31.518,0,1,1-36.64-25.383A31.517,31.517,0,0,1,699.568,1162.643Z" transform="translate(-637.033 -1136.748)" fill="#1da9bf"/>
          <path id="Path_22181" data-name="Path 22181" d="M637.6,1209.3c.091.939.2,1.881.367,2.827a33.96,33.96,0,0,0,59.134,16.131,31.48,31.48,0,0,1-59.5-18.959Z" transform="translate(-637.064 -1183.358)" fill="#015b70" opacity="0.28"/>
          <g id="Group_1791" data-name="Group 1791" transform="translate(0.155 0.086)">
            <path id="Path_22182" data-name="Path 22182" d="M698.629,1137.368a.854.854,0,0,0-.342-.209q-.83.106-1.662.255a31.809,31.809,0,0,0-4.1,1.039,2.142,2.142,0,0,0-.858.729c-.336.738-1.833.779-2.173,1.825-.139.426,2.074-.228,2.4,0,.871.46.449,1.4,1.4,2.142.943.91-.714,1-.758,1.837,1.06,2.438,3.941,5.05,4.19,3.083a10.231,10.231,0,0,1,.871-2.766c1.255-2.058,4.312-1.955,4.584-3.481.143-.8-.836-.709-.75-1.3.227-1.548-1.326-.992-1.318-2.152,0-.315.221-1.126-.083-1.383l-.4.032C699.278,1137.206,698.838,1137.6,698.629,1137.368Z" transform="translate(-670.885 -1136.987)" fill="#b1d57e"/>
            <path id="Path_22183" data-name="Path 22183" d="M669.651,1183.07c-.4-.727-6.348,1.324-4.581-1.227.234-.339-.974-1.193-1.8-1.423-.958-.264-1.816.226-2.31-.061-2.248-1.3-2.556-1.347-4.468-.845-1.548.406-2.74-1.244-4.327,1.656-.376-.4-.867-.783-1.011-.575-.231.333-.341,1.143-1.754.164-.843-.583-.534-2.286-.555-2.4-.034-.174-1.912.338-1.958.081-.2-1.11.335-2.337.027-2.684-.173-.195-1.184.089-1.195.285-.045.868-.119,2.1-1.11,1.574-2.035-1.083-1.938-5.51-1.11-5.339a4.821,4.821,0,0,0,1.859.038c.133-.024.527-1.611,1.118-1.242.8.5,1.223,3.146,2.407,2.485.255-.142-.994-3.819-.763-3.99a24.707,24.707,0,0,0,2.13-1.714c.81-.857-.553-1.977,1.168-3.777,1.753-1.836,2.762-1.564,3.63-3.064.536-.928-2.753-.508-2.144-1.224s5.372-1.867,5.509-2.544c.214-1.051-2.081-.88-3.339-3.694-.2-.445-.55,1.427-1.156,1.24-.413-.128-.216-.825-.645-1.164-.827-.655-2.231-1.1-2.307-.359-.3,2.908-2.015,6.77-2.642,6.112-.4-.423-.106-1.077-.152-1.648-.081-1.014-2.989-.023-2.64-2.162s5.674-4.376,6.024-6.7c.049-.324,1.593.174,1.639.9.02.31-.715,2.769-.422,2.883,2.217.858,3.217-1.724,3.73-2.522.541-.842-1.994-.469-1.306-1.342.66-.838-2.064-2.092-1.357-2.842A23,23,0,0,1,657,1143.2a31.56,31.56,0,0,0-19.534,26.162c2.2,6.319,5.407,11.282,7.247,9.6.573-.523.992.975,1.684.849a2.332,2.332,0,0,1,2.233,1.356c.159.305,2.554,1.109,2.543.774-.028-.789.69-.353,1.126-.137.255.568.717,1.3.584,1.525-.7,1.205-.408,3.232.1,3.585,2.826,1.958,3.686,3.86,6.478,4.12.639.059,3.349,4.837,3.547,5.933.1.544,4.15,3.391,6.287,3.251.67-.042-3.269-1.809-2.6-2.788.4-.587,1.333-1.988,1.677-2.672.581-1.157.315-2.519.531-3.007.648-1.462,2.6-.989,2.419-2.26-.477-3.418,1.634-4.369,1.387-5.438C672.573,1183.455,670,1183.694,669.651,1183.07Z" transform="translate(-637.467 -1140.979)" fill="#b1d57e"/>
            <path id="Path_22184" data-name="Path 22184" d="M730.065,1154.938c.074.409-.994,1.132-1.19,1.167-.8.144-2.341-.54-2.415-.949s1.336-.543,2.131-.687S729.991,1154.529,730.065,1154.938Z" transform="translate(-694.638 -1148.188)" fill="#b1d57e"/>
            <path id="Path_22185" data-name="Path 22185" d="M748.2,1162.751c.022-.091,1.111-.211.976-.014-.315.454-.18.474-.059.448.179-.039.452-.256.606-.156a.413.413,0,0,1,.155.283,1.91,1.91,0,0,0,.089.414,15.251,15.251,0,0,0,1.41,1.067c.085.1.15.246.286.289a2.461,2.461,0,0,1,.321.056.837.837,0,0,1,.306.251c.091.14.035.292.078.433s.165.061.225.163c.13.221-.2.469-.372.523-.365.116-.782.08-1.141.212a7.954,7.954,0,0,0-.71.415c-.161.023-.209-.3-.029-.754.089-.23-.075-.525-.181-.744-.073-.146-.1-.193,0-.326a.266.266,0,0,0,.067-.271c-.113-.339-.539-.3-.8-.438-.181-.1-.73-.635-.868-.748-.1-.084-.9-.43-1.008-.514S748.2,1162.751,748.2,1162.751Z" transform="translate(-708.184 -1153.462)" fill="#b1d57e"/>
            <path id="Path_22186" data-name="Path 22186" d="M749.09,1169.72c-.237.246-1.009.366-1,.264.058-.934-.732-1.137-.5-1.382.148-.154.468-.918,1-.714.1.039.8.221.681.4-.275.4.283.814.359.887C749.932,1169.462,749.327,1169.475,749.09,1169.72Z" transform="translate(-708.188 -1156.817)" fill="#b1d57e"/>
            <path id="Path_22187" data-name="Path 22187" d="M767.434,1154.233a2.189,2.189,0,0,0,.569-1.042,31.653,31.653,0,0,0-9.268-7.93l.011.114a3.241,3.241,0,0,0,.289.288c.154.147.463.369.486.6-1.474-.178-1.122-1.017-1.422-1.312l-.118-.1q-.825-.437-1.675-.827c-.455-.019-1.005.2-1.289-.15-.344-.418-1.354-.136-1.495.146-.171.342.1.988.395,1.415a2.354,2.354,0,0,1,.288,2.4c-.7,1.287,1.21,2.663,1.429,2.393.134-.164.632-.808.9-.722a4.668,4.668,0,0,1,1.878,1.454c.176.336.888-.09.844-.633a2.887,2.887,0,0,0-1.815-1.935c-.433-.055-.439-1.274-.685-1.65-.079-.119-.369-.6-.3-.774.192-.52.919.007.969.106.154.3.837,2.284,1.57,2.306.363.01.9-.36,1.253-.1.857.626-.444.63-.437.921-.049.337,1.082,1.041,1.1,1.882-.47.386-.531.022-.735.059-.163.03-.2.807-1.131.6a3.387,3.387,0,0,1-1.75-.965c-.69.451.168.988.632,1.309.232.161-1.123.427-1.009,1.445-.2,1.984-1.419,1.8-2.144,1.933-.274.05.067.889,1.829,1.049-.129.241.637,1.536.237,1.461a3.423,3.423,0,0,0-2.918.5c1.2,1.429.455,2.466.986,2.834.659.457,1.175.168,1.6.463.458.317,2.291-1.264,2.043-1.5-.779-.734-.02-.892-.016-1.073.039-1.949,1.32-1.582,1.569-1.626s.355-.71.567-.8c.945,1.077,2.909,1.6,3.463,2.662l-.113-1.095c-.287-.968-.82-.264-2.671-2.141l.472-.3a9.63,9.63,0,0,0,2.527,1.454c.207.093.966,2.448,2.125,2.684.162.066-.765-1.285-.413-2.276.213-.057.639.356.694.655-.11.57.495.977.682,1.249.435.635,1.124-.314,1.775-.084a12.078,12.078,0,0,1,1.406,2.206c-.758.109-2.056,1.15-3.858-.087-1.225-.034.118,1.505-.479,1.614-.687-.189-2.26-1.309-2.926-1.184-.856-.761.031-1.762-.812-1.637a13.164,13.164,0,0,0-5.452,2.5c-1.381.884-1.048,1.485-1.655,2.729-.762,1.563-2.142,2.836-2.116,4.646.01.683.7.08.649,1.873-.026.887-.5.834-.194,1.579.559,1.341,3.96,5.214,4.387,3.939.489-1.461,2.452-.1,4.49-1.8.206-.171,1.194.157,1.449.378,1.309.137.778,2.9.924,5.01.071,1.033-1.219,2.027-1.323,2.918-.471,4.047-1.831,4.655-1.831,4.655,1.928.225,8.158-4.322,8.628-8.369.24-2.069,2.008-3.864,2.05-6.712.041-2.73-1.489-7.962-2.262-9.814-.216-.521.414-.98.735-1.414,1.547,3.333,2.513,7.251,3.243,7.074a.667.667,0,0,0,.344-.21c-.083-.795-.187-1.592-.332-2.392a31.467,31.467,0,0,0-3.65-10.021A17.186,17.186,0,0,0,767.434,1154.233Zm1.151,2.906c-.463-.263-.792-.278-.866-.171s-.223.178-.317.277c-1.377.438-1.207-1.565-1.614-2.33a2.246,2.246,0,0,0,1.119-.286C767.587,1155.4,768.627,1156.519,768.585,1157.138Z" transform="translate(-711.892 -1141.279)" fill="#b1d57e"/>
            <path id="Path_22188" data-name="Path 22188" d="M669.922,1232.128a2.388,2.388,0,0,1-1.5.4c-.51-.081-.531-.594-1.2-.8-1.215-.382-1.86.578-1.823.17s1.224-1.009,2.442-.512C669.258,1231.958,669.954,1231.85,669.922,1232.128Z" transform="translate(-655.413 -1197.507)" fill="#b1d57e"/>
            <path id="Path_22189" data-name="Path 22189" d="M681.47,1233.67c.052.286-.509.366-1.053.465a1.367,1.367,0,0,1-1.289-.744c-.052-.286.554-.374,1.1-.293C680.962,1233.206,681.418,1233.383,681.47,1233.67Z" transform="translate(-664.23 -1198.714)" fill="#b1d57e"/>
            <path id="Path_22190" data-name="Path 22190" d="M695.14,1187.225c.087.477-.971-.127-1.576-.017s-1.273.455-1.359-.023.79-1.468,1.4-1.456A1.566,1.566,0,0,1,695.14,1187.225Z" transform="translate(-672.63 -1168.302)" fill="#b1d57e"/>
          </g>
          <path id="Path_22191" data-name="Path 22191" d="M683.635,1279.3a4.9,4.9,0,1,1-4.78-5.026A4.9,4.9,0,0,1,683.635,1279.3Z" transform="translate(-660.671 -1225.098)" fill="#12849f" opacity="0.28"/>
          <path id="Path_22192" data-name="Path 22192" d="M677.312,1268.057a1.533,1.533,0,1,1-1.494-1.57A1.532,1.532,0,0,1,677.312,1268.057Z" transform="translate(-660.94 -1220.098)" fill="#12849f" opacity="0.28"/>
          <path id="Path_22193" data-name="Path 22193" d="M664.312,1264.682a.99.99,0,1,1-.965-1.014A.989.989,0,0,1,664.312,1264.682Z" transform="translate(-653.286 -1218.287)" fill="#12849f" opacity="0.33"/>
        </g>
      </g>
      <path id="Path_22194" data-name="Path 22194" d="M725.528,1332.332l.043-3.851,3.429.037-.042,3.862c-.04.171-.8.3-1.724.291S725.565,1332.5,725.528,1332.332Z" transform="translate(-685.654 -1251.894)" fill="#aababc"/>
    </g>
    <g id="Group_1802" data-name="Group 1802" transform="translate(819.585 536.364)">
      <g id="Group_1795" data-name="Group 1795" transform="translate(0 30.118)">
        <path id="Path_22195" data-name="Path 22195" d="M1759.506,1353.414c0,2.359,8.685,4.271,19.4,4.271s19.4-1.912,19.4-4.271-8.685-4.271-19.4-4.271S1759.506,1351.055,1759.506,1353.414Z" transform="translate(-1759.506 -1311.27)" fill="#720303" opacity="0.18"/>
        <ellipse id="Ellipse_117" data-name="Ellipse 117" cx="14.859" cy="4.29" rx="14.859" ry="4.29" transform="translate(7.618 0.138)" fill="#3c7e96"/>
        <path id="Path_22196" data-name="Path 22196" d="M1795.022,1243.22c8.079,0,14.627,1.81,15.22,4.1h-1.257c0-2.043-6.252-3.7-13.963-3.7s-13.963,1.657-13.963,3.7H1779.8C1780.4,1245.03,1786.943,1243.22,1795.022,1243.22Z" transform="translate(-1772.544 -1243.22)" fill="#7ad7f4"/>
      </g>
      <ellipse id="Ellipse_118" data-name="Ellipse 118" cx="14.717" cy="5.931" rx="14.717" ry="5.931" transform="translate(8.4 61.898)" fill="#636768"/>
      <g id="Group_1796" data-name="Group 1796" transform="translate(3.337 6.387)">
        <path id="Path_22197" data-name="Path 22197" d="M1799.219,1288.833c-1.109.3-2.119.144-2.252-.336l-.016-.1-.955-3.427,4.02-1.072.983,3.528C1801.114,1287.9,1800.318,1288.54,1799.219,1288.833Z" transform="translate(-1786.286 -1245.622)" fill="#f9235c"/>
        <path id="Path_22198" data-name="Path 22198" d="M1796.084,1285.753l4.18-1.129.385,1.467-4.18,1.128Z" transform="translate(-1786.343 -1246.089)" fill="#d8d7d6"/>
        <path id="Path_22199" data-name="Path 22199" d="M1770.39,1178.208l2.47,3.05.619,2.231-3.926,1.411-.714-2.572.542-3.786C1769.71,1178.433,1770.057,1178.338,1770.39,1178.208Z" transform="translate(-1768.839 -1177.723)" fill="#f9e098"/>
        <path id="Path_22200" data-name="Path 22200" d="M1771.667,1178.045l-1.579.421s.006-1.493.411-1.608S1771.667,1178.045,1771.667,1178.045Z" transform="translate(-1769.641 -1176.85)" fill="#383838"/>
        <path id="Path_22201" data-name="Path 22201" d="M1778.658,1222.873l-9.819-35.064,1.336.924.674-1.459,1.335.923.674-1.459,9.818,35.063Z" transform="translate(-1768.839 -1183.203)" fill="#ff6903"/>
      </g>
      <g id="Group_1797" data-name="Group 1797" transform="translate(27.323 6.74)">
        <path id="Path_22202" data-name="Path 22202" d="M1837.917,1294.659c-1.143-.109-2.036-.6-1.994-1.1l.021-.1.3-3.545,4.141.4-.308,3.65C1840.017,1294.449,1839.048,1294.768,1837.917,1294.659Z" transform="translate(-1835.921 -1249.841)" fill="#f9235c"/>
        <path id="Path_22203" data-name="Path 22203" d="M1836.322,1290.777l4.312.4-.151,1.509-4.311-.4Z" transform="translate(-1836.082 -1250.395)" fill="#d8d7d6"/>
        <path id="Path_22204" data-name="Path 22204" d="M1847.7,1180.021l1.252,3.72-.2,2.306-4.171-.044.226-2.659,1.828-3.36C1846.983,1180,1847.342,1180.027,1847.7,1180.021Z" transform="translate(-1841.486 -1179.216)" fill="#f9e098"/>
        <path id="Path_22205" data-name="Path 22205" d="M1851.046,1179.358l-1.628-.156s.527-1.4.946-1.365S1851.046,1179.358,1851.046,1179.358Z" transform="translate(-1844.592 -1177.838)" fill="#383838"/>
        <path id="Path_22206" data-name="Path 22206" d="M1836.788,1225.67l3.013-36.287.931,1.331,1.14-1.132.931,1.331,1.141-1.133-3.014,36.287Z" transform="translate(-1836.478 -1185.255)" fill="#f923bc"/>
      </g>
      <g id="Group_1798" data-name="Group 1798" transform="translate(22.265)">
        <path id="Path_22207" data-name="Path 22207" d="M1823.766,1275.735c-1.143-.115-2.032-.614-1.988-1.11l.021-.1.318-3.545,4.139.419-.327,3.648C1825.868,1275.536,1824.9,1275.849,1823.766,1275.735Z" transform="translate(-1821.777 -1230.937)" fill="#f9235c"/>
        <path id="Path_22208" data-name="Path 22208" d="M1822.212,1271.844l4.309.421-.158,1.508-4.309-.421Z" transform="translate(-1821.955 -1231.491)" fill="#d8d7d6"/>
        <path id="Path_22209" data-name="Path 22209" d="M1834.127,1161.167l1.233,3.726-.209,2.306-4.171-.066.24-2.658,1.845-3.351C1833.411,1161.137,1833.77,1161.17,1834.127,1161.167Z" transform="translate(-1827.69 -1160.359)" fill="#f9e098"/>
        <path id="Path_22210" data-name="Path 22210" d="M1837.522,1160.511l-1.626-.164s.534-1.394.952-1.359S1837.522,1160.511,1837.522,1160.511Z" transform="translate(-1830.847 -1158.986)" fill="#383838"/>
        <path id="Path_22211" data-name="Path 22211" d="M1822.692,1206.767l3.2-36.271.924,1.336,1.146-1.126.923,1.335,1.147-1.127-3.2,36.271Z" transform="translate(-1822.365 -1166.38)" fill="#f9235c"/>
      </g>
      <g id="Group_1799" data-name="Group 1799" transform="translate(26.547 16.283)">
        <path id="Path_22212" data-name="Path 22212" d="M1835.581,1318.255c-1.116-.27-1.931-.885-1.818-1.371l.033-.1.8-3.467,4.043.98-.823,3.568C1837.689,1318.345,1836.686,1318.523,1835.581,1318.255Z" transform="translate(-1833.753 -1274.421)" fill="#f9235c"/>
        <path id="Path_22213" data-name="Path 22213" d="M1835.113,1314.143l4.211,1.006-.363,1.471-4.211-1.006Z" transform="translate(-1834.394 -1274.949)" fill="#d8d7d6"/>
        <path id="Path_22214" data-name="Path 22214" d="M1860.933,1206.6l.712,3.86-.521,2.255-4.123-.636.6-2.6,2.286-3.067C1860.228,1206.478,1860.579,1206.56,1860.933,1206.6Z" transform="translate(-1848.688 -1205.741)" fill="#f9e098"/>
        <path id="Path_22215" data-name="Path 22215" d="M1865.528,1206.133l-1.589-.385s.72-1.308,1.129-1.217S1865.528,1206.133,1865.528,1206.133Z" transform="translate(-1853.146 -1204.527)" fill="#383838"/>
        <path id="Path_22216" data-name="Path 22216" d="M1835.945,1250.489l8.13-35.493.732,1.449,1.289-.959.732,1.449,1.29-.959-8.13,35.493Z" transform="translate(-1835.161 -1211.252)" fill="#0078db"/>
      </g>
      <g id="Group_1800" data-name="Group 1800" transform="translate(11.505 21.258)">
        <path id="Path_22217" data-name="Path 22217" d="M1820.673,1270.455c-1.059.4-2.8-1.727-3.25-2.974l-7.481-20.652,2.865-1.046.746,2.111s.4,1.29.993,1.1a1.163,1.163,0,0,1,1.052.093c.375.237.7,1.364.7,1.364l4.97,15.593C1821.711,1267.288,1821.727,1270.056,1820.673,1270.455Z" transform="translate(-1803.414 -1236.007)" fill="#cdccce"/>
        <path id="Path_22218" data-name="Path 22218" d="M1818.93,1263.369a1.478,1.478,0,0,1,.792-1.911,1.44,1.44,0,0,1,1.806.963,1.478,1.478,0,0,1-.791,1.911A1.441,1.441,0,0,1,1818.93,1263.369Z" transform="translate(-1809.126 -1246.028)" fill="#e84d9e"/>
        <path id="Path_22219" data-name="Path 22219" d="M1814.626,1255.661l.472-1.562a2.78,2.78,0,0,1,.9-1.583,1.549,1.549,0,0,1,.648-.186c.146.361.473,1.009.9.87a1.162,1.162,0,0,1,1.052.093c.376.237.7,1.364.7,1.364l.917,2.877-2.416,6.927Z" transform="translate(-1806.423 -1240.213)" opacity="0.18"/>
        <path id="Path_22220" data-name="Path 22220" d="M1815,1246.687l-6.985,20.017c-.426,1.207-2.112,3.185-3.182,2.691s-1.116-3.26-.706-4.468l4.6-15.173s.3-1.1.671-1.3a1.142,1.142,0,0,1,1.052,0c.6.242.966-1.016.966-1.016l.7-2.046Z" transform="translate(-1799.526 -1235.753)" fill="#dbdbdb"/>
        <path id="Path_22221" data-name="Path 22221" d="M1802.953,1224.134a5.635,5.635,0,1,0-5.694,5.574,5.327,5.327,0,0,0,.758-.145l.268.836,3.542-1.132-.434-1.36A5.579,5.579,0,0,0,1802.953,1224.134Zm-2.155-.022a3.479,3.479,0,1,1-3.446-3.515A3.483,3.483,0,0,1,1800.8,1224.112Z" transform="translate(-1791.683 -1218.441)" fill="#7c3931"/>
        <path id="Path_22222" data-name="Path 22222" d="M1833.069,1224.443a5.635,5.635,0,1,0-9.733,3.766l-.437,1.275,3.518,1.2.279-.816a5.379,5.379,0,0,0,.682.145A5.638,5.638,0,0,0,1833.069,1224.443Zm-2.155-.022a3.479,3.479,0,1,1-3.442-3.515A3.483,3.483,0,0,1,1830.913,1224.421Z" transform="translate(-1811.031 -1218.64)" fill="#7c3931"/>
        <path id="Path_22223" data-name="Path 22223" d="M1822.074,1261.173a.868.868,0,1,0-.876.858A.868.868,0,0,0,1822.074,1261.173Z" transform="translate(-1810.093 -1245.331)" fill="#7c3931"/>
      </g>
      <ellipse id="Ellipse_119" data-name="Ellipse 119" cx="15.335" cy="4.428" rx="15.335" ry="4.428" transform="translate(7.142 52.424)" fill="#636768"/>
      <g id="Group_1801" data-name="Group 1801" transform="translate(7.142 34.217)">
        <path id="Path_22224" data-name="Path 22224" d="M1794.815,1260.033c8.469,0,15.335-1.982,15.335-4.428v36.429c0,2.446-6.866,4.428-15.335,4.428s-15.335-1.982-15.335-4.428V1255.6C1779.48,1258.051,1786.345,1260.033,1794.815,1260.033Z" transform="translate(-1779.48 -1255.275)" fill="#10abe8"/>
        <path id="Path_22225" data-name="Path 22225" d="M1780.852,1254.683c0,2.044,6.251,3.7,13.963,3.7s13.963-1.657,13.963-3.7h1.257c.028.111.115.216.115.33,0,2.446-6.866,4.428-15.335,4.428s-15.335-1.982-15.335-4.428c0-.113.086-.219.115-.33Z" transform="translate(-1779.48 -1254.683)" fill="#7ad7f4"/>
      </g>
    </g>
    <path id="Path_22226" data-name="Path 22226" d="M1716.019,995.406c.708-6.077-.4-17.861-1.739-30.552-35.527,18.146-75.94,54.184-114.833,69.572.125,2.363,10.55,19.613,12.321,20.42,21.411-6.422,57.315-16.483,90.975-35.843C1708.711,1015.57,1715.046,1003.764,1716.019,995.406Z" transform="translate(-837.092 -497.903)" fill="#ffc19f"/>
    <g id="Group_1803" data-name="Group 1803" transform="translate(734.255 594.02)">
      <path id="Path_22227" data-name="Path 22227" d="M1618.8,1366.047l-61.17,17.205-36.769-12.858,56.427-11.557Z" transform="translate(-1520.858 -1345.036)" fill="#720303" opacity="0.18"/>
      <path id="Path_22228" data-name="Path 22228" d="M1618.816,1331.988l-60.106,12.665-36.768-12.858,56.426-11.557Z" transform="translate(-1521.554 -1320.237)" fill="#f45100"/>
      <path id="Path_22229" data-name="Path 22229" d="M1521.519,1389.305l37.079,9.848,2.924-1.351-36.194-9.707Z" transform="translate(-1521.283 -1363.832)" fill="#ce3006"/>
      <path id="Path_22230" data-name="Path 22230" d="M1618.247,1345.05l-59.422,13.807-36.884-23.26,56.667-9.441,38.951,9.615Z" transform="translate(-1521.554 -1324.039)" fill="#e5d8c0"/>
      <path id="Path_22231" data-name="Path 22231" d="M1559.45,1365.131l-37.509-12.572,1.486,13.744,35.4,9.516Z" transform="translate(-1521.554 -1341.003)" fill="url(#linear-gradient)"/>
      <path id="Path_22232" data-name="Path 22232" d="M1619.288,1332.126c.05,1.034.27,8.411.2,9.253l-60.748,14.314c.429-1.007.5-9.979.231-10.9-13.5-5.6-27.015-8.94-37.034-12.864l56.588-11.484C1593.455,1325.166,1604.362,1327.4,1619.288,1332.126Z" transform="translate(-1521.554 -1320.367)" fill="#ce3006"/>
      <path id="Path_22233" data-name="Path 22233" d="M1681.013,1378.947l24.034-5.823-.308-9.351-24.057,5.123Z" transform="translate(-1623.536 -1348.206)" fill="#fff" opacity="0.51"/>
      <path id="Path_22234" data-name="Path 22234" d="M1618.816,1331.988l-60.106,12.665-36.768-12.858,56.426-11.557Z" transform="translate(-1521.554 -1320.237)" fill="#f45100"/>
      <path id="Path_22235" data-name="Path 22235" d="M1609.71,1394.9l1.285-1.713,1.943,2.195s-.389-6.078.5-6.385c-.155-.005-3.114-.776-3.267-.751C1609.761,1388.77,1609.71,1394.9,1609.71,1394.9Z" transform="translate(-1577.941 -1363.926)" fill="#ff9b48"/>
    </g>
    <g id="Group_1808" data-name="Group 1808" transform="translate(496.165 598.33)">
      <g id="Group_1806" data-name="Group 1806" transform="translate(16.342)">
        <path id="Path_22236" data-name="Path 22236" d="M900.681,1360.589l47.575,2.767,17.806-24.692-40.287-3.35Z" transform="translate(-900.681 -1334.233)" fill="#6d0f03" opacity="0.16"/>
        <path id="Path_22237" data-name="Path 22237" d="M908.891,1359.644l44.64,3.711,17.807-24.692-40.287-3.35Z" transform="translate(-905.955 -1334.233)" fill="#5694cc"/>
        <path id="Path_22238" data-name="Path 22238" d="M914.554,1354.459l42.309,3.518,17.068-22.526-38-3.159Z" transform="translate(-909.594 -1332.291)" fill="#f4f4f4"/>
        <g id="Group_1804" data-name="Group 1804" transform="translate(18.729 3.571)">
          <path id="Path_22239" data-name="Path 22239" d="M964.221,1382.763l15.411,1.281-.405.534L953.06,1382.4l.507-.526Z" transform="translate(-953.06 -1367.718)" fill="#bfbebe"/>
          <path id="Path_22240" data-name="Path 22240" d="M971.894,1374.65l15.411,1.282-.4.534-26.168-2.176.508-.526Z" transform="translate(-957.989 -1362.506)" fill="#bfbebe"/>
          <path id="Path_22241" data-name="Path 22241" d="M979.349,1366.927l15.411,1.281-.405.534-26.167-2.176.507-.526Z" transform="translate(-962.779 -1357.544)" fill="#bfbebe"/>
          <path id="Path_22242" data-name="Path 22242" d="M986.9,1359.009l15.411,1.281-.4.534-26.167-2.176.507-.526Z" transform="translate(-967.633 -1352.457)" fill="#bfbebe"/>
          <path id="Path_22243" data-name="Path 22243" d="M994.448,1350.887l15.411,1.281-.405.534-26.167-2.175.507-.526Z" transform="translate(-972.479 -1347.24)" fill="#bfbebe"/>
          <path id="Path_22244" data-name="Path 22244" d="M1001.9,1343.163l15.411,1.282-.4.534-26.167-2.176.507-.526Z" transform="translate(-977.268 -1342.277)" fill="#bfbebe"/>
        </g>
        <rect id="Rectangle_587" data-name="Rectangle 587" width="42.454" height="1.831" transform="matrix(-0.997, -0.083, 0.083, -0.997, 47.117, 27.51)" fill="#dddbdb"/>
        <path id="Path_22245" data-name="Path 22245" d="M1049.525,1342.952l-17.068,22.526.152-1.824,17.068-22.526Z" transform="translate(-985.339 -1337.968)" fill="#cecece"/>
        <g id="Group_1805" data-name="Group 1805" transform="translate(14.376 2.764)">
          <path id="Path_22246" data-name="Path 22246" d="M948.436,1372.19a.9.9,0,1,0,.951-.68A.833.833,0,0,0,948.436,1372.19Z" transform="translate(-945.736 -1360.248)" fill="#bfbebe"/>
          <path id="Path_22247" data-name="Path 22247" d="M955.889,1364.467a.9.9,0,1,0,.952-.68A.832.832,0,0,0,955.889,1364.467Z" transform="translate(-950.524 -1355.287)" fill="#bfbebe"/>
          <path id="Path_22248" data-name="Path 22248" d="M940.89,1380.312a.9.9,0,1,0,.952-.68A.833.833,0,0,0,940.89,1380.312Z" transform="translate(-940.888 -1365.467)" fill="#bfbebe"/>
          <path id="Path_22249" data-name="Path 22249" d="M970.987,1348.427a.9.9,0,1,0,.952-.68A.833.833,0,0,0,970.987,1348.427Z" transform="translate(-960.224 -1344.982)" fill="#bfbebe"/>
          <path id="Path_22250" data-name="Path 22250" d="M978.442,1340.7a.9.9,0,1,0,.951-.68A.834.834,0,0,0,978.442,1340.7Z" transform="translate(-965.013 -1340.021)" fill="#bfbebe"/>
          <path id="Path_22251" data-name="Path 22251" d="M963.444,1356.549a.9.9,0,1,0,.951-.68A.832.832,0,0,0,963.444,1356.549Z" transform="translate(-955.378 -1350.2)" fill="#bfbebe"/>
        </g>
      </g>
      <path id="Path_22252" data-name="Path 22252" d="M854.975,1356.62l5.947,1.387,31.838-21.249-1.8-2.869Z" transform="translate(-854.975 -1333.318)" fill="#6d0f03" opacity="0.16"/>
      <g id="Group_1807" data-name="Group 1807" transform="translate(3.979 0.065)">
        <path id="Path_22253" data-name="Path 22253" d="M866.6,1392.353c-.5-.792-.643-1.605-.327-1.815l.069-.034,2.257-1.5,1.8,2.869-2.327,1.543C867.752,1393.61,867.09,1393.138,866.6,1392.353Z" transform="translate(-866.103 -1368.791)" fill="#ff8b78"/>
        <path id="Path_22254" data-name="Path 22254" d="M870.712,1389.384l1.876,2.938-.971.624-1.886-2.979Z" transform="translate(-868.434 -1369.036)" fill="#d8d7d6"/>
        <path id="Path_22255" data-name="Path 22255" d="M955.967,1333.41l-1.6,2.588-1.469.975-2.027-2.72,1.693-1.124,2.9-.423C955.63,1332.935,955.789,1333.183,955.967,1333.41Z" transform="translate(-920.564 -1332.623)" fill="#f9e098"/>
        <path id="Path_22256" data-name="Path 22256" d="M962.985,1333.76l-.709-1.127s1.091-.328,1.277-.04S962.985,1333.76,962.985,1333.76Z" transform="translate(-927.889 -1332.474)"/>
        <path id="Path_22257" data-name="Path 22257" d="M872.475,1353.732l29.726-19.842-.334,1.238,1.235.2-.333,1.238,1.235.2-29.72,19.862Z" transform="translate(-870.197 -1333.384)" fill="#1aa7d3"/>
        <path id="Path_22258" data-name="Path 22258" d="M872.475,1353.732l29.726-19.842-.334,1.238-28.935,19.342Z" transform="translate(-870.197 -1333.384)" fill="#52bcdd"/>
        <path id="Path_22259" data-name="Path 22259" d="M905.208,1341.363l1.235.2-29.72,19.862-.451-.718Z" transform="translate(-872.636 -1338.185)" fill="#098ab2"/>
      </g>
    </g>
    <g id="Group_1814" data-name="Group 1814" transform="translate(363.531 528.216)">
      <path id="Path_22260" data-name="Path 22260" d="M535.9,1405.863c0,1.536-11.612,2.781-25.934,2.781s-25.933-1.245-25.933-2.781,11.611-2.781,25.933-2.781S535.9,1404.327,535.9,1405.863Z" transform="translate(-484.027 -1307.657)" opacity="0.11"/>
      <path id="Path_22261" data-name="Path 22261" d="M484.452,1348.006s10.835-12.7,19.49-13.5c-.014-9.944.956-20.095.956-20.095s-13.2,2.3-17.083,6.11C484.324,1323.955,484.452,1348.006,484.452,1348.006Z" transform="translate(-484.3 -1250.691)" fill="#ef2525"/>
      <g id="Group_1809" data-name="Group 1809" transform="translate(0.152 63.721)" opacity="0.5">
        <path id="Path_22262" data-name="Path 22262" d="M484.452,1348.006s10.835-12.7,19.49-13.5c-.014-9.944.956-20.095.956-20.095s-12.165-.108-12.521,4.537c-.181,2.362,2.331,11.771.717,16.288-1.236,3.463-5.619,5.935-8.533,6C484.437,1345.135,484.452,1348.006,484.452,1348.006Z" transform="translate(-484.451 -1314.412)" fill="#bf0606"/>
      </g>
      <path id="Path_22263" data-name="Path 22263" d="M592.172,1347.9s-10.873-12.669-19.53-13.442c-.014-9.944-1.016-20.091-1.016-20.091s13.211,2.259,17.1,6.06C592.23,1323.85,592.172,1347.9,592.172,1347.9Z" transform="translate(-540.305 -1250.663)" fill="#ef2525"/>
      <g id="Group_1810" data-name="Group 1810" transform="translate(31.322 63.706)" opacity="0.5">
        <path id="Path_22264" data-name="Path 22264" d="M592.172,1347.9s-10.873-12.669-19.53-13.442c-.014-9.944-1.016-20.091-1.016-20.091s1.917,13.471,5.807,17.272c1.734,1.694,13.306,9.277,14.316,3.617C592.187,1341.77,592.172,1347.9,592.172,1347.9Z" transform="translate(-571.627 -1314.368)" fill="#bf0606"/>
      </g>
      <g id="Group_1811" data-name="Group 1811" transform="translate(6.162)" opacity="0.13">
        <path id="Path_22265" data-name="Path 22265" d="M530.844,1227.527c6.267-10.367,10-25.907,9.974-41.567-.043-27.382-15.007-49.765-19.853-49.761-5.576.01-19.744,22.11-19.7,49.823.019,12.658,2.615,25.362,7.1,35.339a55.238,55.238,0,0,0,3.247,6.2l.151.231h18.939Z" transform="translate(-501.26 -1136.198)" fill="#100"/>
      </g>
      <path id="Path_22266" data-name="Path 22266" d="M531.326,1228.2c5.3-8.765,9.924-23.811,9.9-41.317-.041-27.866-15.051-49.255-19.339-49.249-4.845.007-19.234,21.439-19.193,49.307.026,17.505,4.918,32.51,10.269,41.259Z" transform="translate(-496.017 -1137.121)" fill="#ebe3eb"/>
      <path id="Path_22267" data-name="Path 22267" d="M527.381,1348.979a127.314,127.314,0,0,0,16.4-1.068c.205-.679.408-1.362.6-2.064a126.6,126.6,0,0,1-31.605.318q.3,1.036.619,2.037A127.465,127.465,0,0,0,527.381,1348.979Z" transform="translate(-502.494 -1270.886)" fill="#911d1d"/>
      <path id="Path_22268" data-name="Path 22268" d="M545.922,1183.478a52.116,52.116,0,0,1-24.756-.379c-.119.274-.237.553-.356.832a52.972,52.972,0,0,0,25.48.384C546.169,1184.032,546.045,1183.757,545.922,1183.478Z" transform="translate(-507.658 -1166.329)" fill="#ef2525"/>
      <path id="Path_22269" data-name="Path 22269" d="M530.224,1360.738a128.847,128.847,0,0,0,14.98-.886c.125-.35.257-.68.378-1.038a127.052,127.052,0,0,1-28.735.233c.124.351.256.678.384,1.02A127.668,127.668,0,0,0,530.224,1360.738Z" transform="translate(-505.112 -1279.217)" fill="#911d1d"/>
      <path id="Path_22270" data-name="Path 22270" d="M536.731,1153.634a32.837,32.837,0,0,0,10.706-1.761c-4.3-8.869-9.143-14.241-11.293-14.238-2.39,0-7.1,5.225-11.256,13.854A32.416,32.416,0,0,0,536.731,1153.634Z" transform="translate(-510.279 -1137.121)" fill="#ef2525"/>
      <path id="Path_22271" data-name="Path 22271" d="M548.547,1390.476h-19.2l-.475-1.452H549.13Z" transform="translate(-512.838 -1298.625)" fill="#ef2525"/>
      <rect id="Rectangle_588" data-name="Rectangle 588" width="20.635" height="3.374" transform="translate(15.796 91.571)" fill="#911d1d"/>
      <path id="Path_22272" data-name="Path 22272" d="M555.084,1332.99c.015,10.521-1.45,18.676-2.39,18.677-.869,0-2.429-8.15-2.445-18.671s1.782-18.608,2.39-18.608C553.177,1314.388,555.068,1322.469,555.084,1332.99Z" transform="translate(-526.571 -1250.676)" fill="#ef2525"/>
      <g id="Group_1812" data-name="Group 1812" transform="translate(24.899)" opacity="0.13">
        <path id="Path_22273" data-name="Path 22273" d="M553.826,1136.379c9.006,7.694,14.291,29.321,12.325,54.261-1.4,17.784-6.194,33.29-12.485,42.991.424,2.237.877,3.558,1.224,3.558.5,0,1.139-2.33,1.634-6.047H565.2v-3.374l-.722-.03v-.152a54.006,54.006,0,0,0,2.814-5.443c6.909,3.812,13.345,11.292,13.345,11.292s-.152-7.422-.169-7.842c-.013-.336-.253-4.8-.253-4.8-.428-6.386-1.288-13.135-3.023-14.83a14.052,14.052,0,0,0-4.235-2.515,99.329,99.329,0,0,0,1.532-17.489c-.043-27.382-15.007-49.765-19.853-49.761A3,3,0,0,0,553.826,1136.379Z" transform="translate(-553.665 -1136.198)" fill="#100"/>
      </g>
      <path id="Path_22274" data-name="Path 22274" d="M530.779,1155.811c1.136.4.727,4.481-.915,9.11s-3.893,8.054-5.029,7.651-.727-4.481.915-9.11S529.643,1155.408,530.779,1155.811Z" transform="translate(-509.831 -1148.778)" fill="#fff" opacity="0.29"/>
      <g id="Group_1813" data-name="Group 1813" transform="translate(16.904 24.225)">
        <path id="Path_22275" data-name="Path 22275" d="M549.636,1213.074a9.166,9.166,0,1,1-9.157-9.125A9.14,9.14,0,0,1,549.636,1213.074Z" transform="translate(-531.304 -1203.949)" fill="#ef2525"/>
        <path id="Path_22276" data-name="Path 22276" d="M551.163,1216.5a7.25,7.25,0,1,1-7.243-7.218A7.23,7.23,0,0,1,551.163,1216.5Z" transform="translate(-534.746 -1207.373)" fill="#84a6ce"/>
        <path id="Path_22277" data-name="Path 22277" d="M543.683,1209.988l-2.833,10.973a7.255,7.255,0,0,0,1.543,1.486l3.362-13.019A7.218,7.218,0,0,0,543.683,1209.988Zm8.992,2.664-2.658,10.293a7.276,7.276,0,0,0,1.162-.77l2.142-8.295A7.17,7.17,0,0,0,552.675,1212.651Zm-4.826-3.163-3.593,13.912a7.159,7.159,0,0,0,4.256.132l3.13-12.125A7.233,7.233,0,0,0,547.849,1209.489Z" transform="translate(-537.437 -1207.469)" fill="#fff" opacity="0.36"/>
      </g>
    </g>
  </g>
</svg>
