<svg xmlns="http://www.w3.org/2000/svg" width="51.369" height="55.291" viewBox="0 0 51.369 55.291">
  <path id="Icon_ionic-md-flower" data-name="Icon ionic-md-flower" d="M50.13,31.021a9.828,9.828,0,0,0,5.739-8.892,9.96,9.96,0,0,0-10.033-9.875,10.12,10.12,0,0,0-5.7,1.741l.08-.744a10.034,10.034,0,0,0-20.066,0l.08.744A10.073,10.073,0,0,0,4.5,22.129a9.842,9.842,0,0,0,5.739,8.892A9.828,9.828,0,0,0,4.5,39.912a9.96,9.96,0,0,0,10.033,9.875,10.12,10.12,0,0,0,5.7-1.741l-.08.744a10.034,10.034,0,0,0,20.066,0l-.08-.744a10.073,10.073,0,0,0,15.732-8.134A9.828,9.828,0,0,0,50.13,31.021ZM30.185,40.9a9.877,9.877,0,1,1,10.033-9.875A9.96,9.96,0,0,1,30.185,40.9Z" transform="translate(-4.5 -3.375)" fill="#f86161"/>
</svg>
