<svg xmlns="http://www.w3.org/2000/svg" width="51.369" height="58.708" viewBox="0 0 51.369 58.708">
  <path id="Icon_awesome-book" data-name="Icon awesome-book" d="M51.369,41.279V2.752A2.745,2.745,0,0,0,48.617,0H11.008A11.011,11.011,0,0,0,0,11.008V47.7A11.011,11.011,0,0,0,11.008,58.708h37.61a2.745,2.745,0,0,0,2.752-2.752V54.121a2.773,2.773,0,0,0-1.021-2.144,25.571,25.571,0,0,1,0-8.565A2.733,2.733,0,0,0,51.369,41.279ZM14.677,15.365a.69.69,0,0,1,.688-.688H39.673a.69.69,0,0,1,.688.688v2.293a.69.69,0,0,1-.688.688H15.365a.69.69,0,0,1-.688-.688Zm0,7.338a.69.69,0,0,1,.688-.688H39.673a.69.69,0,0,1,.688.688V25a.69.69,0,0,1-.688.688H15.365A.69.69,0,0,1,14.677,25ZM43.733,51.369H11.008a3.669,3.669,0,1,1,0-7.338H43.733A41.28,41.28,0,0,0,43.733,51.369Z" fill="#f7e119"/>
</svg>
