<svg xmlns="http://www.w3.org/2000/svg" width="56.4" height="52.709" viewBox="0 0 56.4 52.709">
  <path id="Icon_awesome-brain" data-name="Icon awesome-brain" d="M20.367,0a6.317,6.317,0,0,0-6.051,4.962c-.078,0-.137-.021-.215-.021A6.44,6.44,0,0,0,7.833,11.53,6.368,6.368,0,0,0,8,12.971a8.246,8.246,0,0,0-4.866,7.618,8.591,8.591,0,0,0,.813,3.593A8.394,8.394,0,0,0,4.837,38.9,7.919,7.919,0,0,0,4.7,40.355a7.233,7.233,0,0,0,7.05,7.412,6.326,6.326,0,0,0,1.175-.124,7.074,7.074,0,0,0,6.658,5.065,7.233,7.233,0,0,0,7.05-7.412V6.589A6.44,6.44,0,0,0,20.367,0ZM56.4,31.3a8.272,8.272,0,0,0-3.946-7.114,8.443,8.443,0,0,0,.813-3.593A8.246,8.246,0,0,0,48.4,12.971a6.978,6.978,0,0,0,.166-1.441A6.44,6.44,0,0,0,42.3,4.941c-.078,0-.147.021-.215.021A6.317,6.317,0,0,0,36.034,0a6.433,6.433,0,0,0-6.267,6.589V45.3a7.233,7.233,0,0,0,7.05,7.412,7.074,7.074,0,0,0,6.658-5.065,6.326,6.326,0,0,0,1.175.124,7.233,7.233,0,0,0,7.05-7.412,7.919,7.919,0,0,0-.137-1.452A8.248,8.248,0,0,0,56.4,31.3Z" fill="#f8b361"/>
</svg>
