<svg xmlns="http://www.w3.org/2000/svg" xmlns:xlink="http://www.w3.org/1999/xlink" width="82" height="78" viewBox="0 0 82 78">
  <defs>
    <clipPath id="clip-path">
      <rect id="Rectangle_2690" data-name="Rectangle 2690" width="82" height="78" transform="translate(84 2317)" fill="#fff" opacity="0.32"/>
    </clipPath>
    <clipPath id="clip-path-2">
      <ellipse id="Ellipse_43" data-name="Ellipse 43" cx="24.538" cy="24.538" rx="24.538" ry="24.538" transform="translate(0 0)" fill="rgba(176,120,249,0.8)" stroke="#fff" stroke-width="1"/>
    </clipPath>
    <clipPath id="clip-path-3">
      <ellipse id="Ellipse_45" data-name="Ellipse 45" cx="20.523" cy="20.523" rx="20.523" ry="20.523" transform="translate(0 0)" fill="rgba(176,120,249,0.8)" stroke="#fff" stroke-width="1"/>
    </clipPath>
  </defs>
  <g id="Mask_Group_57" data-name="Mask Group 57" transform="translate(-84 -2317)" clip-path="url(#clip-path)">
    <g id="Group_3496" data-name="Group 3496" transform="translate(0 -52.725)">
      <circle id="Ellipse_41" data-name="Ellipse 41" cx="37" cy="37" r="37" transform="translate(84.215 2371.725)" fill="#f9cf4b"/>
      <g id="Mask_Group_5" data-name="Mask Group 5" transform="matrix(0.914, 0.407, -0.407, 0.914, 97.961, 2399.48)" clip-path="url(#clip-path-2)">
        <g id="Ellipse_42" data-name="Ellipse 42" transform="translate(-0.892 -16.954)" fill="none" stroke="#fff" stroke-width="1">
          <ellipse cx="24.538" cy="24.538" rx="24.538" ry="24.538" stroke="none"/>
          <ellipse cx="24.538" cy="24.538" rx="24.038" ry="24.038" fill="none"/>
        </g>
      </g>
      <g id="Mask_Group_6" data-name="Mask Group 6" transform="matrix(0.914, 0.407, -0.407, 0.914, 101.948, 2399.302)" clip-path="url(#clip-path-3)">
        <g id="Ellipse_44" data-name="Ellipse 44" transform="translate(-0.892 -14.277)" fill="none" stroke="#fff" stroke-width="1">
          <ellipse cx="20.969" cy="20.523" rx="20.969" ry="20.523" stroke="none"/>
          <ellipse cx="20.969" cy="20.523" rx="20.469" ry="20.023" fill="none"/>
        </g>
      </g>
      <text id="_03" data-name="03" transform="translate(105.215 2418.725)" fill="#7e7e7e" font-size="51" font-family="ProximaNova-Bold, Proxima Nova" font-weight="700"><tspan x="0" y="0">03</tspan></text>
    </g>
  </g>
</svg>
