<svg xmlns="http://www.w3.org/2000/svg" xmlns:xlink="http://www.w3.org/1999/xlink" width="82" height="78" viewBox="0 0 82 78">
  <defs>
    <clipPath id="clip-path">
      <rect id="Rectangle_2687" data-name="Rectangle 2687" width="82" height="78" transform="translate(77 2137)" fill="#fff" opacity="0.32"/>
    </clipPath>
    <clipPath id="clip-path-2">
      <ellipse id="Ellipse_38" data-name="Ellipse 38" cx="24.538" cy="24.538" rx="24.538" ry="24.538" transform="translate(0 0)" fill="rgba(176,120,249,0.8)" stroke="#fff" stroke-width="1"/>
    </clipPath>
    <clipPath id="clip-path-3">
      <ellipse id="Ellipse_40" data-name="Ellipse 40" cx="20.523" cy="20.523" rx="20.523" ry="20.523" transform="translate(0 0)" fill="rgba(176,120,249,0.8)" stroke="#fff" stroke-width="1"/>
    </clipPath>
  </defs>
  <g id="Mask_Group_56" data-name="Mask Group 56" transform="translate(-77 -2137)" clip-path="url(#clip-path)">
    <g id="Group_392" data-name="Group 392" transform="translate(4 -60)">
      <circle id="Ellipse_36" data-name="Ellipse 36" cx="37" cy="37" r="37" transform="translate(74 2199.449)" fill="#3ccde5"/>
      <g id="Mask_Group_3" data-name="Mask Group 3" transform="matrix(0.914, 0.407, -0.407, 0.914, 87.747, 2227.205)" clip-path="url(#clip-path-2)">
        <g id="Ellipse_37" data-name="Ellipse 37" transform="translate(-0.892 -16.954)" fill="none" stroke="#fff" stroke-width="1">
          <ellipse cx="24.538" cy="24.538" rx="24.538" ry="24.538" stroke="none"/>
          <ellipse cx="24.538" cy="24.538" rx="24.038" ry="24.038" fill="none"/>
        </g>
      </g>
      <g id="Mask_Group_4" data-name="Mask Group 4" transform="matrix(0.914, 0.407, -0.407, 0.914, 91.733, 2227.026)" clip-path="url(#clip-path-3)">
        <g id="Ellipse_39" data-name="Ellipse 39" transform="translate(-0.892 -14.277)" fill="none" stroke="#fff" stroke-width="1">
          <ellipse cx="20.969" cy="20.523" rx="20.969" ry="20.523" stroke="none"/>
          <ellipse cx="20.969" cy="20.523" rx="20.469" ry="20.023" fill="none"/>
        </g>
      </g>
      <text id="_02" data-name="02" transform="translate(95 2246.449)" fill="#7e7e7e" font-size="51" font-family="ProximaNova-Bold, Proxima Nova" font-weight="700"><tspan x="0" y="0">02</tspan></text>
    </g>
  </g>
</svg>
