<svg id="Layer_2" data-name="Layer 2" xmlns="http://www.w3.org/2000/svg" width="42" height="41" viewBox="0 0 42 41">
  <g id="invisible_box" data-name="invisible box">
    <rect id="Rectangle_2588" data-name="Rectangle 2588" width="42" height="41" fill="none"/>
  </g>
  <g id="icons_Q2" data-name="icons Q2" transform="translate(1.625 1.625)">
    <path id="Path_27615" data-name="Path 27615" d="M37.227,20.875A15.652,15.652,0,0,0,21.375,5.432,15.652,15.652,0,0,0,5.522,20.875,15.652,15.652,0,0,0,21.375,36.318,15.739,15.739,0,0,0,37.227,20.875m3.523,0A19.13,19.13,0,0,1,21.375,39.75,19.13,19.13,0,0,1,2,20.875,19.13,19.13,0,0,1,21.375,2,19.551,19.551,0,0,1,35.1,7.5,18.545,18.545,0,0,1,40.75,20.875Z" transform="translate(-2 -2)" fill="#f4807a"/>
    <path id="Path_27616" data-name="Path 27616" d="M22.872,22.125l5.363,5.363a1.544,1.544,0,0,1-.163,2.437,1.706,1.706,0,0,1-2.194-.162l-6.419-6.5a1.544,1.544,0,0,1,0-2.275l6.419-6.5a1.706,1.706,0,0,1,2.194-.163,1.544,1.544,0,0,1,.163,2.438Z" transform="translate(-5.377 -3.25)" fill="#f4807a"/>
  </g>
</svg>
