<svg xmlns="http://www.w3.org/2000/svg" xmlns:xlink="http://www.w3.org/1999/xlink" width="389" height="308.579" viewBox="0 0 389 308.579">
  <defs>
    <radialGradient id="radial-gradient" cx="0.5" cy="0.5" r="0.469" gradientUnits="objectBoundingBox">
      <stop offset="0" stop-color="#ef5363"/>
      <stop offset="0.152" stop-color="#ef5766"/>
      <stop offset="0.305" stop-color="#f06371"/>
      <stop offset="0.458" stop-color="#f27783"/>
      <stop offset="0.611" stop-color="#f4939d"/>
      <stop offset="0.765" stop-color="#f8b7be"/>
      <stop offset="0.917" stop-color="#fce3e6"/>
      <stop offset="1" stop-color="#fff"/>
    </radialGradient>
    <clipPath id="clip-path">
      <path id="Path_23445" data-name="Path 23445" d="M674.365,605.473c-.894,4.238-4.9,6.5-9.591,5.5s-6.718-4.542-5.824-8.781,5.419-6.865,10.108-5.866S675.259,601.235,674.365,605.473Z" transform="translate(-658.744 -596.111)" fill="none"/>
    </clipPath>
    <clipPath id="clip-path-2">
      <path id="Path_23449" data-name="Path 23449" d="M875.271,605.583c-1.156,4.174,1.361,8.04,5.976,9.336s8.045-.9,9.2-5.076-1.648-8.608-6.265-9.9S876.428,601.409,875.271,605.583Z" transform="translate(-874.992 -599.618)" fill="none"/>
    </clipPath>
  </defs>
  <g id="Group_3510" data-name="Group 3510" transform="translate(-204 -1359)">
    <rect id="Rectangle_598" data-name="Rectangle 598" width="389" height="298" rx="20" transform="translate(204 1359)" fill="rgba(248,97,97,0.82)" opacity="0.67"/>
    <g id="Group_2257" data-name="Group 2257" transform="translate(-84.451 1079.411)">
      <g id="Group_2236" data-name="Group 2236" transform="translate(429.079 543.406)">
        <path id="Path_23390" data-name="Path 23390" d="M706.327,1309.883v33H616.72l.6-10.019.032-.54.4-6.718.568-9.493,69.09-4.888.514-.037Z" transform="translate(-616.72 -1309.883)" fill="#ecb390"/>
        <path id="Path_23391" data-name="Path 23391" d="M709.488,1309.883v16.111a321.388,321.388,0,0,1-50.3,2.988c-20.9-.518-32.676-2.255-38.275-3.379l.568-9.493Z" transform="translate(-619.88 -1309.883)" fill="#ec9e6d"/>
        <g id="Group_2233" data-name="Group 2233" transform="translate(70.691 1.301)" opacity="0.7">
          <path id="Path_23392" data-name="Path 23392" d="M922.707,1337.962v.551c-1.755-.656-3.692-1.441-5.814-2.38a20.742,20.742,0,0,1-10.984-11.816,33,33,0,0,1-2.118-9.112l.514-.037c.961,10.005,5.484,17.266,12.794,20.5C919.137,1336.566,921.006,1337.324,922.707,1337.962Z" transform="translate(-903.791 -1315.168)" fill="#692700"/>
        </g>
        <g id="Group_2234" data-name="Group 2234" transform="translate(39.678 8.285)" opacity="0.7">
          <path id="Path_23393" data-name="Path 23393" d="M777.848,1343.526l0,.3c0,.051.042,5.171.433,10.321a60.764,60.764,0,0,0,.9,7.281c.5,2.406,1.087,3.626,1.861,3.838a10.98,10.98,0,0,0,2.837.446,3.679,3.679,0,0,0,2.233-.608,2.052,2.052,0,0,0,.857-1.486l.868-18.658Zm8.618,20.069a1.549,1.549,0,0,1-.662,1.1c-.607.443-1.9.816-4.619.071-.485-.133-1.69-1.439-2.392-10.663-.336-4.423-.413-8.825-.428-9.99l8.945,1.282Z" transform="translate(-777.848 -1343.526)" fill="#692700"/>
        </g>
        <g id="Group_2235" data-name="Group 2235" transform="translate(0.598 5.422)" opacity="0.7">
          <path id="Path_23394" data-name="Path 23394" d="M635.673,1331.938a17.183,17.183,0,0,1-3.369,9.224,20.771,20.771,0,0,1-6.419,5.523,30.077,30.077,0,0,1-6.735,2.772l.032-.54a28.9,28.9,0,0,0,6.449-2.676c4.045-2.313,8.982-6.679,9.532-14.339Z" transform="translate(-619.15 -1331.901)" fill="#692700"/>
        </g>
      </g>
      <g id="Group_2237" data-name="Group 2237" transform="translate(372.183 451.516)">
        <path id="Path_23395" data-name="Path 23395" d="M450.154,954.395s-10.915,6.877-14.635,10.477a82.005,82.005,0,0,1-11.146,8.288,194.941,194.941,0,0,1-20.267,11.5c-5.185,2.495-9.572,4.144-11.827,4.133-8.446-.044-7.117-9.909-5.1-15.218,2.412-6.357,10.933-12.161,17.954-17.051,2.046-1.426,3.965-2.774,5.568-4.035.07-.055.14-.11.209-.167,6.066-4.871,14.233-15.6,14.233-15.6Z" transform="translate(-385.669 -936.726)" fill="#f89f7a"/>
        <path id="Path_23396" data-name="Path 23396" d="M527.406,954.395s-10.915,6.877-14.636,10.477a82,82,0,0,1-11.146,8.288c-7.547-3.656-11.845-15.425-13.465-20.834,6.066-4.871,14.233-15.6,14.233-15.6Z" transform="translate(-462.921 -936.726)" fill="#f88b5c"/>
        <path id="Path_23397" data-name="Path 23397" d="M403.77,1039.676c-5.185,2.495-14.83-3.358-12.815-8.666,2.413-6.357,12.421-13.2,19.442-18.091C412.294,1020.2,410.8,1039.524,403.77,1039.676Z" transform="translate(-389.448 -994.157)" fill="#f88b5c"/>
      </g>
      <g id="Group_2238" data-name="Group 2238" transform="translate(518.461 466.584)">
        <path id="Path_23398" data-name="Path 23398" d="M980.836,1018.392c2.9,22.648,10.259,54.983,9.117,65.457-1.6,14.6-1.839,15.3-2.368,23.6-.183,2.932,2.8,2.7,4.529-1.647.69-1.733,1.232-3.3,1.76-4.425.792-1.7,1.539-2.4,2.641-1.136,1.842,2.1,4.8,4.373,5.329,8.937a21.625,21.625,0,0,1-.367,7.315,2.252,2.252,0,0,0,.927,2.436,1.761,1.761,0,0,0,1.122.32c.845-.084,1.738-1.04,2.325-4.018a25.106,25.106,0,0,0,.357-9.1c-.081-.457-.168-.821-.24-1.1.585,1.765,2.137,6.754,2.261,10.258.1,2.917,1.383,4.784,2.432,4.034.511-.368.967-1.344,1.213-3.114.644-4.651-1.227-13.159-1.335-13.655.017.033.049.106.093.211a.006.006,0,0,1,0,.008c.584,1.35,3.381,8.022,3.4,11.7.007,2.343,1.753,2.875,2.935,1.193a5.175,5.175,0,0,0,.691-1.493c.953-3.191-1.552-9.113-2.647-11.921.105.241.271.607.491,1.049a.207.207,0,0,1,.009.023,17.492,17.492,0,0,0,2.932,4.342c.934.929,2.064,1.355,2.721.884a1.355,1.355,0,0,0,.5-.881c.314-1.649-1.987-4.108-3.429-7.227-1.155-2.493-2.373-3.982-2.652-4.709-1.072-2.806-4.735-6.215-7.436-9.113-4.828-5.182-2.751-21.378-1.991-44.377a100.979,100.979,0,0,0-1.651-20.31c-.012-.067-.023-.135-.035-.2-.595-3.368-1.35-7.4-2.1-11.121-1.165-5.735-2.328-10.723-2.906-11.374-1.629-1.849-18.554-1.235-19.158-1.212h-.016C979.24,1002.01,979.69,1009.445,980.836,1018.392Z" transform="translate(-979.697 -997.913)" fill="#f8b294"/>
        <path id="Path_23399" data-name="Path 23399" d="M980.836,1018.748c2.9,22.648,10.259,54.983,9.117,65.457-1.6,14.6-1.839,15.3-2.368,23.6,4.846.374,1.717-5.247,2.627-8.744a202.7,202.7,0,0,0,3.344-20.912c.338-4.529-4.9-28.268-4.69-37.76.195-8.656-3.042-18.6-1.817-18.765,4-.541,12.77-5.094,15.873-7.687-1.165-5.735-2.886-13.693-3.464-14.344-2.256-.821-18.562-1.2-19.158-1.212h-.016C979.24,1002.365,979.69,1009.8,980.836,1018.748Z" transform="translate(-979.697 -998.269)" fill="#fa9467"/>
        <path id="Path_23400" data-name="Path 23400" d="M1088.733,1440.655c-1.049.751-2.33-1.117-2.432-4.034-.125-3.5-1.676-8.493-2.261-10.257.072.279-.106-.209-.352-.74-1.182-2.576.554-.837.554-.837-.083.209,2.142,3.381,2.529,6.9s.352,7.837,1.25,7.94C1088.318,1439.659,1088.555,1440.089,1088.733,1440.655Z" transform="translate(-1057.77 -1319.237)" fill="#f36f51" opacity="0.4"/>
        <path id="Path_23401" data-name="Path 23401" d="M1046.921,1417.133a1.758,1.758,0,0,1-1.123-.32,2.252,2.252,0,0,1-.927-2.436,21.627,21.627,0,0,0,.368-7.315c-.526-4.564-3.487-6.838-5.329-8.937-1.1-1.263-1.848-.565-2.641,1.135a22.476,22.476,0,0,0,.4-5.435c-.05-.834-1.018-2.1,4.428,3.907s4.525,11.157,4.031,14.282A9.89,9.89,0,0,0,1046.921,1417.133Z" transform="translate(-1023.092 -1295.794)" fill="#f36f51" opacity="0.4"/>
        <path id="Path_23402" data-name="Path 23402" d="M1110.928,1431.373c-1.182,1.683-2.927,1.15-2.934-1.193-.019-3.677-2.816-10.349-3.4-11.7a.006.006,0,0,0,0-.008,5.024,5.024,0,0,1-.206-1.719,21.661,21.661,0,0,1,2.846,6.41,67.918,67.918,0,0,1,1.942,8.1C1109.3,1431.9,1110.082,1431.753,1110.928,1431.373Z" transform="translate(-1073.656 -1313.614)" fill="#f36f51" opacity="0.4"/>
        <path id="Path_23403" data-name="Path 23403" d="M1129.138,1422.941c-.657.472-1.786.046-2.722-.884a17.5,17.5,0,0,1-2.931-4.341l-.009-.023c-.48-1.277-.727-2.372-.352-2.685,0,0,2.056,5.208,4.594,6.736A5.027,5.027,0,0,1,1129.138,1422.941Z" transform="translate(-1087.668 -1312.299)" fill="#f36f51" opacity="0.4"/>
      </g>
      <g id="Group_2240" data-name="Group 2240" transform="translate(400.712 426.294)">
        <path id="Path_23404" data-name="Path 23404" d="M647.513,877.4c-1.541,3.8-6.077,6.756-10.786,10.094-.25.177-.507.351-.767.526-3.128,2.076-7.488,5.084-11.906,6.525a15.244,15.244,0,0,1-4.782.835c-.078,1.378-.111,2.76-.108,4.159,0,1.26.028,2.534.071,3.826.064,1.949.163,3.947.257,6.02q.089,1.858.161,3.81c.064,1.784.111,3.631.118,5.558.012,2.7.064,5.331.17,7.78a103.036,103.036,0,0,0,1.118,11.361c.9,7.525,3.619,22.39-.854,23.1-26.159,4.178-66.459,8.764-92.72,0-7.488-2.5,1.354-19.016,2.406-31.776.42-5.093.668-10.146.821-14.93q.06-1.922.1-3.782c.05-2.114.08-4.154.1-6.105l.009-1.095q.011-1.037.016-2.036l0-.661c.031-4.737.028-8.757.111-11.675l-12.175,5.324a36.745,36.745,0,0,1-4.369-3.182c-.649-.552-1.279-1.121-1.883-1.706-9.856-9.514-13.494-22.958-9.535-26.506,14.116-12.647,16.945-13.987,21.059-17.07,5.7-4.265,14.626-7.138,26.166-9.7.026,0,.052-.007.076-.012,14.458-2.121,30.932-2.225,46.2-1.012l1.08.087c8.507.715,32.043,7.313,33.923,10.092C635.123,850.451,644.663,870.425,647.513,877.4Z" transform="translate(-501.523 -834.298)" fill="rgba(72,91,221,0.8)"/>
        <path id="Path_23405" data-name="Path 23405" d="M655.059,1073.142c.9,7.526,3.619,22.391-.855,23.105-26.158,4.178-66.457,8.765-92.72,0-7.485-2.5,1.355-19.016,2.407-31.777,1.348-16.4.942-32.382,1.166-40.282l-12.176,5.324a36.7,36.7,0,0,1-4.367-3.183q-.976-.827-1.883-1.7c3.346-.735,12.411-3.142,18.353-8.672,7.4-6.891,6.921,25.594,3.318,44.408-6.891,35.986,6.023,33.939,12.71,34.58s71.354,2.924,69.471-9.568c-2.807-18.631,0-60.232-2.042-69.165s5.954,8.793,9.614,13.586a15.248,15.248,0,0,1-4.783.835c-.409,7.144.462,14.392.5,23.373.013,2.705.064,5.332.171,7.782A103.146,103.146,0,0,0,655.059,1073.142Z" transform="translate(-535.523 -969.544)" fill="rgba(72,91,221,0.8)"/>
        <path id="Path_23406" data-name="Path 23406" d="M699.031,836.089c14.458-2.12,30.932-2.224,46.2-1.012a8.911,8.911,0,0,1,1.442,3.565C748.462,857.252,694.119,858.07,699.031,836.089Z" transform="translate(-650.158 -834.298)" fill="rgba(72,91,221,0.8)"/>
        <g id="Group_2239" data-name="Group 2239" transform="translate(29.19 65.243)" opacity="0.8">
          <path id="Path_23407" data-name="Path 23407" d="M709.2,1103.07c-14.126,2.635-29.946,3.42-43.777,3.42-4.366,0-8.535-.078-12.39-.2-13.755-.439-25.555-1.493-32.154-2.18l.009-1.094.017-2.036,0-.661c6.454.679,18.356,1.755,32.281,2.2,16.037.512,37.573.243,55.938-3.274C709.133,1100.5,709.162,1101.778,709.2,1103.07Z" transform="translate(-620.681 -1099.244)" fill="rgba(72,91,221,0.8)"/>
          <path id="Path_23408" data-name="Path 23408" d="M708.84,1139.231c-18.436,3.574-40.132,3.85-56.266,3.336-14.022-.446-25.992-1.536-32.416-2.21q-.039,1.858-.1,3.781c6.556.687,18.46,1.758,32.357,2.2,3.855.123,8.023.2,12.39.2,13.968,0,29.962-.8,44.194-3.5Z" transform="translate(-620.06 -1129.384)" fill="rgba(72,91,221,0.8)"/>
        </g>
      </g>
      <g id="Group_2241" data-name="Group 2241" transform="translate(455.155 412.985)">
        <path id="Path_23409" data-name="Path 23409" d="M743.6,805.857a47.024,47.024,0,0,1-5.972.106,37.587,37.587,0,0,1-5.342-.62c-7.869-1.529-11.738-5.342-8.565-8.2,4.454-4.01,4.126-14.714,4.126-14.714s23.349-4.9,23.9,0c.383,3.4.182,6.119,1.337,8.752.363.832.7,1.655,1.155,2.492a12.017,12.017,0,0,0,2.053,2.815C760.158,800.47,755.73,804.874,743.6,805.857Z" transform="translate(-722.615 -780.253)" fill="#f8b69a"/>
        <path id="Path_23410" data-name="Path 23410" d="M736.552,804.193a18.282,18.282,0,0,0,1.08,1.771,37.587,37.587,0,0,1-5.342-.62c-7.869-1.529-11.738-5.342-8.565-8.2,4.454-4.01,4.126-14.714,4.126-14.714s23.349-4.9,23.9,0c.383,3.4.182,6.119,1.337,8.752.363.832.7,1.655,1.155,2.492-3.178,1.145-6.844,3.125-12.526,3.793C737.71,797.941,736.415,803.618,736.552,804.193Z" transform="translate(-722.615 -780.253)" fill="#eb895f"/>
      </g>
      <g id="Group_2242" data-name="Group 2242" transform="translate(367.777 356.552)">
        <path id="Path_23411" data-name="Path 23411" d="M455.469,613.968s2.99-16.287,2.236-22.653-1.661-22.811-1.661-22.811.144-4.479,3.479-3.339,4.3,16.695,5.057,18.31.968.38,1.4-.95.344-6.433.495-11.754a91.182,91.182,0,0,1,1.98-13.492s2.8-6.461,5.487-2.66c0,0,.323-4.561,3.55-3.326s2.69,6.746,2.69,6.746,3.873-2,4.3,2.47.646,10.167.969,12.257.323,5.014,1.183,7.97,4.3,6.662,3.013,15.213-3.658,17.2-10.867,21.283S455.469,613.968,455.469,613.968Z" transform="translate(-433.875 -551.08)" fill="#f89b75"/>
        <path id="Path_23412" data-name="Path 23412" d="M433.933,701.356c-1.494.8-7.651,8.845-9.642,12.928a22.265,22.265,0,0,1-4.146,5.654c-.764.8-1.6,1.637-2.512,2.543-1.014,1.007-2.122,2.107-3.33,3.365-4.573,4.764-6.243,8.616-7.066,13.506-.038.22-.073.444-.107.669-.431,2.858-6.161,36.824-7.455,44.492s-7.361,18.062-12.042,19.655-11.591,4.554-15.376,1.965-5.048-6.183-4.252-16.142,2.988-14.043,3.187-14.639c0,0,14.446-40.073,15.541-43.061a52.812,52.812,0,0,0,2.638-9.693,30.965,30.965,0,0,1,2.374-8.639c2.689-6.672,4.022-7.319,7.459-10.114,5.766-4.689,24.77-2.885,24.77-2.885a18.769,18.769,0,0,1,2.168-2.144c2.15-1.829,5.679-4.082,9.583-3.533C442.1,696.178,435.426,700.56,433.933,701.356Z" transform="translate(-367.777 -659.709)" fill="#f8a886"/>
        <path id="Path_23413" data-name="Path 23413" d="M549.445,695.282c-3.9-.549-7.433,1.7-9.583,3.533.546,1.313,1.043,3.983-.6,8.493a48.786,48.786,0,0,1-4.731,9.968c-1.9,2.8-6.3,7.9-13.605,7.4-4.442-.3-1.275,1.512.164,4.776.78,1.77-.188,5.577-.275,7.322a11.98,11.98,0,0,0,.138,2.579c.823-4.89,2.492-8.742,7.066-13.506,1.208-1.258,2.316-2.358,3.33-3.365.47-.466.919-.913,1.348-1.346l.27-.273.02-.02.287-.293,0,0a23.837,23.837,0,0,0,4.73-6.261c1.992-4.083,8.148-12.131,9.642-12.928S555.818,696.178,549.445,695.282Z" transform="translate(-481.497 -659.709)" fill="#f89b75"/>
      </g>
      <g id="Group_2256" data-name="Group 2256" transform="translate(407.667 293)">
        <g id="Group_2243" data-name="Group 2243" transform="translate(110.41 80.908)">
          <path id="Path_23414" data-name="Path 23414" d="M981.057,644.144a14.136,14.136,0,0,0,4.378.072c.2-.02.4-.043.607-.07,5.553-.707,13.615-10.438,11.231-17.782-.062-.2-.135-.4-.216-.6a8.41,8.41,0,0,0-1.289-2.148c-.111-.132-.216-.256-.326-.375,0,0-.005-.005-.006-.008-6-6.456-13.571,7.871-13.571,7.871a37.574,37.574,0,0,0-3.479,7.826,8.188,8.188,0,0,0-.206,1.077C977.932,642.171,978.7,643.633,981.057,644.144Z" transform="translate(-978.136 -621.565)" fill="#fab58d"/>
          <path id="Path_23415" data-name="Path 23415" d="M994.453,650.3c7.059-2.219,7.567-6.858,8.809-8.914,2.2-3.642-.64-10.116-4.882-6.454a9.106,9.106,0,0,0-.744.718,11.832,11.832,0,0,0-2.8,6.062c-.358,1.879-.421,3.059-2.721,4.407a4.161,4.161,0,0,0-.441.3C989.327,648.2,989.322,651.914,994.453,650.3Z" transform="translate(-987.199 -630.819)" fill="#fa9467"/>
          <path id="Path_23416" data-name="Path 23416" d="M990,649.126a14.134,14.134,0,0,0,4.378.072,4.606,4.606,0,0,1,.591-.114c5.543-.706,13.583-10.4,11.247-17.738-.062-.2-.135-.4-.216-.6a8.4,8.4,0,0,0-1.3-2.191c-.113-.135-.221-.262-.332-.383.007.019.016.033.022.052.9,2,1.867,5.018,1.16,7.726-1.191,4.567-7.222,10.752-7.222,10.752s-2.932,2.235-5.572,1.814A3.533,3.533,0,0,0,990,649.126Z" transform="translate(-987.078 -626.546)" fill="#f08659"/>
          <path id="Path_23417" data-name="Path 23417" d="M994.459,655.114a7.454,7.454,0,0,0,4.192-4.549,18.842,18.842,0,0,0,1.465-8.1c-.062-.718-.591-.875-.808-1.3a11.832,11.832,0,0,0-2.8,6.062c-.358,1.879-.421,3.059-2.721,4.407-.157.09-.674.509-.812.614C991.314,653.671,993.556,655.451,994.459,655.114Z" transform="translate(-988.871 -636.34)" fill="#f0723c"/>
        </g>
        <g id="Group_2244" data-name="Group 2244" transform="translate(0 77.849)">
          <path id="Path_23418" data-name="Path 23418" d="M545.593,632.244a14.14,14.14,0,0,1-4.376-.147c-.2-.03-.4-.062-.6-.1-5.507-.984-13.031-11.107-10.252-18.321.073-.2.156-.393.249-.585a8.454,8.454,0,0,1,1.4-2.08c.118-.127.23-.245.346-.358,0,0,.006,0,.007-.008,6.341-6.146,13.125,8.541,13.125,8.541a37.406,37.406,0,0,1,3.05,7.989,8.179,8.179,0,0,1,.147,1.086C548.822,630.43,547.974,631.851,545.593,632.244Z" transform="translate(-529.767 -609.14)" fill="#fab58d"/>
          <path id="Path_23419" data-name="Path 23419" d="M549.824,638.219c-6.929-2.57-7.185-7.227-8.313-9.343-2-3.747,1.188-10.07,5.225-6.2a9.061,9.061,0,0,1,.7.754,11.782,11.782,0,0,1,2.469,6.194c.255,1.894.255,3.076,2.478,4.537a4.186,4.186,0,0,1,.424.317C555.057,636.383,554.86,640.091,549.824,638.219Z" transform="translate(-538.156 -618.43)" fill="#fa9467"/>
          <path id="Path_23420" data-name="Path 23420" d="M545.646,636.714a14.14,14.14,0,0,1-4.376-.147,4.588,4.588,0,0,0-.584-.144c-5.5-.983-13-11.068-10.27-18.278.073-.2.156-.393.249-.585a8.446,8.446,0,0,1,1.422-2.123c.12-.13.235-.25.353-.366-.008.018-.017.032-.025.051-1.006,1.955-2.136,4.918-1.578,7.658.942,4.62,6.629,11.1,6.629,11.1s2.807,2.379,5.466,2.09A3.524,3.524,0,0,1,545.646,636.714Z" transform="translate(-529.82 -613.611)" fill="#f08659"/>
          <path id="Path_23421" data-name="Path 23421" d="M568.506,643.61a7.41,7.41,0,0,1-3.939-4.753,18.808,18.808,0,0,1-1.024-8.162c.1-.714.638-.845.877-1.256a11.782,11.782,0,0,1,2.469,6.194c.255,1.894.255,3.076,2.478,4.537.152.1.646.542.778.654C571.725,642.327,569.39,643.992,568.506,643.61Z" transform="translate(-555.136 -624.44)" fill="#f0723c"/>
        </g>
        <path id="Path_23422" data-name="Path 23422" d="M658.294,387.291c.707.04,4.17-6.842,4.524-7.464,1.608-2.831,6.495-6.958,9.7-25.939,4.738-28.087-42.19-77.419-90.3-55.377-3.711,1.7-4.868,2.713-7.866,6.607,0,0-1.163,1.595,2.25-5.254,1.088-2.183,1.938-3.881,2.589-5.18a.7.7,0,0,0-1.038-.877c-5.418,4.186-7.936,9.824-6.079,15.433,0,0-3.755-6.062-9.007-4.024a.56.56,0,0,0,.006,1.038c4.328,1.686,6.409,3.876,5.841,5.856a13.523,13.523,0,0,0-15.5,2.89,1.287,1.287,0,0,0,.45,2.139c2.553.78,3.945-5.352,9.842-2.644,0,0-24.63,24.6-9.769,57.725,0,0,5.794,13.852,29.9,9.391C602.115,378.228,650.067,386.828,658.294,387.291Z" transform="translate(-544.388 -293)" fill="#8a4d28"/>
        <path id="Path_23423" data-name="Path 23423" d="M693.12,388.49a139.7,139.7,0,0,0-4.474,14.906q-.51,2.051-.972,4.136c-.052.24-.1.486-.157.726q-.766,3.484-1.423,7.024-.977,5.243-1.8,10.56c-2.559,16.269-16.776,41.286-48.545,38.691-44.246-3.616-44.447-26.975-50.027-41.314-.055-.146-.111-.293-.171-.441q-.157-.391-.3-.763a19.887,19.887,0,0,1-1.58-7.024c-.007-.071-.008-.141-.015-.211-.624-9.343,2.386-27.549,25.684-53.495C644.53,322.091,697.385,376.9,693.12,388.49Z" transform="translate(-570.327 -333.976)" fill="#fab58d"/>
        <path id="Path_23424" data-name="Path 23424" d="M693.349,386.647c-2.342-14.612-25.167-31.906-38.819-36.491-21.821-8.1-39.075.55-53.145,20.488-8.443,11.1-15.991,23.83-17.6,37.77-.453,4.6-.295,8.975,1.333,13.181,1.858,4.381,2.988,9.094,4.595,13.6,5.29,16.948,19.059,25.1,35.9,27.876,25.022,5.174,46.153-3.087,56-27.665,1.928-4.7,2.707-9.721,3.481-14.71.994-5.869,2.114-11.706,3.548-17.472l-.006,0c.068-.282.14-.558.213-.835s.138-.555.2-.83q.467-1.808.97-3.6.841-3.03,1.83-6.012C692.315,390.16,693.37,388.52,693.349,386.647Zm-39.1,73.343c-9.656,3.315-25.691,1.695-33.988-1.477-21.236-2.667-29.676-20-33.155-38.649-.112-.69,3.424,2.181,3.349,1.6-5.192-14.757,2.613-30.732,8.8-38.309l1.882,2.849,7.913-9.869s20.257,17.206,35.056,16.33,1.934-3.288,1.934-3.288l22.688,2.923-3.416-4.173c2.993,2.163,16.413,13.438,20.09,18.281-.879,5.219-3.7,19.49-6.278,27.161-2.411,7.149-6.028,11.3-7.966,14.27C666.1,455.383,662.526,456.814,654.251,459.989Z" transform="translate(-570.321 -333.806)" fill="#f36f51" opacity="0.4"/>
        <path id="Path_23425" data-name="Path 23425" d="M638.858,352.484s4.74,13.276,22.2,19c7.608,2.493,15.275,16.964,16.429,19.082s12.549-41.188-29.424-60.352C603.857,310.028,576.214,337,569.042,362s-9.093,33.214,6.186,39.817c0,0-12.848-16.588,11.026-44.432l1.088,6.849a25.921,25.921,0,0,0,7.428-11.977s16.84,21.528,34.552,19.549c0,0-7.349-3.443-8.2-5s5.473,2.58,20.509,3.824c0,0-3.812-3.085-6.847-3.967,0,0,.579-.382,13.839,4.973C648.628,371.644,641.188,366.468,638.858,352.484Z" transform="translate(-555.298 -315.723)" fill="#99562c"/>
        <g id="Group_2245" data-name="Group 2245" transform="translate(3.298 0.257)">
          <path id="Path_23426" data-name="Path 23426" d="M560.795,378.666c-1.365-.04-3.8,1.651-4.833,2.567a17.914,17.914,0,0,0-3.547,5.36,58.532,58.532,0,0,0-4.209,10.863,40.572,40.572,0,0,1-1.96,5.393,32.057,32.057,0,0,0-1.6,6.078c-.476,2.2-.573,4.359-.851,6.574-.3,2.367-.935,3.957-.483,6.408.49,2.651,1.928,5.1,3.016,7.412,1.177,2.5,1.506,4.569,4.133,5.739" transform="translate(-543.158 -357.827)" fill="none" stroke="#8a4d28" stroke-width="1.182"/>
          <path id="Path_23427" data-name="Path 23427" d="M601.9,480.814c-1.676-2.76-2.3-7.758-1.656-10.881.653-3.189.823-5.687,2.1-8.7,1.289-3.034,1.343-6.4,2.992-9.178,1.7-2.87,5-5.022,6.746-7.882.982-1.611,1.361-3.564,2.316-5.2,1.168-2.007,1.853-4.219,3.878-5.561" transform="translate(-585.999 -399.087)" fill="none" stroke="#8a4d28" stroke-width="1.182"/>
          <path id="Path_23428" data-name="Path 23428" d="M683.122,429.238c-.746,4.238,4.145,7.857,6.722,10.383a26.877,26.877,0,0,0,10.526,6.2c2.678.85,5.49,1.563,8.081,2.677" transform="translate(-648.598 -395.947)" fill="none" stroke="#8a4d28" stroke-width="1.182"/>
          <path id="Path_23429" data-name="Path 23429" d="M866.159,429.237a20.826,20.826,0,0,0,2.2,5.74,30.852,30.852,0,0,0,2.8,4.439c2.2,2.946,5.418,5.391,7.956,8.029,2.281,2.371,5.605,3.73,8.272,5.589,2.642,1.842,5.667,2.687,8.292,4.628,1.645,1.216,3.34,1.985,4.626,3.62.687.873,1.37,1.711,2.076,2.558.658.79,2.018,1.733,2.315,2.67" transform="translate(-786.621 -395.946)" fill="none" stroke="#8a4d28" stroke-width="1.182"/>
          <path id="Path_23430" data-name="Path 23430" d="M678.595,304.186a27.487,27.487,0,0,1,28.5-9.145c2.9.844,5.641,2.176,8.535,3.039,1.73.516,3.5.861,5.264,1.26a88.219,88.219,0,0,1,27.549,11.434,28.244,28.244,0,0,1,5.5,4.264,32.362,32.362,0,0,1,3.861,5.333c4.888,7.872,9.572,16.215,10.754,25.441" transform="translate(-645.244 -294.044)" fill="none" stroke="#8a4d28" stroke-width="1.182"/>
        </g>
        <g id="Group_2246" data-name="Group 2246" transform="translate(13.375 14.619)" opacity="0.4" style="mix-blend-mode: multiply;isolation: isolate">
          <path id="Path_23431" data-name="Path 23431" d="M610.13,438.364a59.416,59.416,0,0,0-14.08,28.359,33.442,33.442,0,0,0-.115,14.075" transform="translate(-592.487 -417.188)" fill="none" stroke="#754c29" stroke-width="1.773"/>
          <path id="Path_23432" data-name="Path 23432" d="M704.88,435.12a28.726,28.726,0,0,0,5.662,5.937c6.164,5.333,12.509,10.776,20.144,13.564" transform="translate(-675.134 -414.742)" fill="none" stroke="#754c29" stroke-width="1.773"/>
          <path id="Path_23433" data-name="Path 23433" d="M717.6,403.242a64.14,64.14,0,0,0,7.944,11.83,33.924,33.924,0,0,0,5.8,5.6,45.9,45.9,0,0,0,4.579,2.815l7.353,4.134" transform="translate(-684.723 -390.714)" fill="none" stroke="#754c29" stroke-width="1.773"/>
          <path id="Path_23434" data-name="Path 23434" d="M911.881,450.9c-3.508-4.426-7.143-8.962-12.048-11.717-2.321-1.3-4.864-2.169-7.184-3.476-7.153-4.029-11.388-11.706-15.261-19" transform="translate(-805.163 -400.861)" fill="none" stroke="#754c29" stroke-width="1.773"/>
          <path id="Path_23435" data-name="Path 23435" d="M927.9,416.382c3.075,4.871,7.695,8.493,11.629,12.684a55.828,55.828,0,0,1,9.962,14.786" transform="translate(-843.234 -400.619)" fill="none" stroke="#754c29" stroke-width="1.773"/>
          <path id="Path_23436" data-name="Path 23436" d="M758.378,383.3a48.958,48.958,0,0,0,16.575,26.65" transform="translate(-715.458 -375.68)" fill="none" stroke="#754c29" stroke-width="1.773"/>
          <path id="Path_23437" data-name="Path 23437" d="M798.424,382.988c3.4,11.6,10.976,21.411,18.692,30.648" transform="translate(-745.643 -375.448)" fill="none" stroke="#754c29" stroke-width="1.773"/>
          <path id="Path_23438" data-name="Path 23438" d="M891.046,352.368A81.239,81.239,0,0,1,920.991,378.8" transform="translate(-815.457 -352.368)" fill="none" stroke="#754c29" stroke-width="1.773"/>
          <path id="Path_23439" data-name="Path 23439" d="M602.929,396.8c-5.282,3.065-9.313,8-12.229,13.408s-4.8,11.3-6.617,17.177" transform="translate(-584.083 -385.856)" fill="none" stroke="#754c29" stroke-width="1.773"/>
        </g>
        <path id="Path_23440" data-name="Path 23440" d="M658.274,674.18a14.658,14.658,0,1,1-9.781-18.445A14.668,14.668,0,0,1,658.274,674.18Z" transform="translate(-605.008 -565.939)" opacity="0.3" fill="url(#radial-gradient)" style="mix-blend-mode: multiply;isolation: isolate"/>
        <path id="Path_23441" data-name="Path 23441" d="M880.459,675.308a14.658,14.658,0,1,1-9.782-18.445A14.668,14.668,0,0,1,880.459,675.308Z" transform="translate(-772.481 -566.789)" opacity="0.3" fill="url(#radial-gradient)" style="mix-blend-mode: multiply;isolation: isolate"/>
        <g id="Group_2250" data-name="Group 2250" transform="translate(29.235 70.452)">
          <ellipse id="Ellipse_150" data-name="Ellipse 150" cx="8.24" cy="9.039" rx="8.24" ry="9.039" transform="matrix(0.218, -0.976, 0.976, 0.218, 0, 16.084)" fill="#f08659"/>
          <path id="Path_23442" data-name="Path 23442" d="M672.738,601.393c-.92,4.364-5.225,7.152-10.117,6.11s-7.763-5.051-6.842-9.414,5.632-7.057,10.524-6.015S673.658,597.029,672.738,601.393Z" transform="translate(-653.855 -588.71)" fill="#494746"/>
          <g id="Group_2249" data-name="Group 2249" transform="translate(2.525 4.189)">
            <g id="Group_2248" data-name="Group 2248" clip-path="url(#clip-path)">
              <path id="Path_23443" data-name="Path 23443" d="M674.365,605.473c-.894,4.238-4.9,6.5-9.591,5.5s-6.718-4.542-5.824-8.781,5.419-6.865,10.108-5.866S675.259,601.235,674.365,605.473Z" transform="translate(-658.744 -596.111)" fill="#fff"/>
              <g id="Group_2247" data-name="Group 2247" transform="translate(1.835 0.435)">
                <path id="Path_23444" data-name="Path 23444" d="M677.35,600.832a5.483,5.483,0,0,0-7.943-2.011,6.179,6.179,0,0,0-2.38,8.425A5.876,5.876,0,0,0,675.382,609,5.76,5.76,0,0,0,677.35,600.832Z" transform="translate(-666.196 -597.876)" fill="#494746"/>
                <ellipse id="Ellipse_151" data-name="Ellipse 151" cx="1.737" cy="1.718" rx="1.737" ry="1.718" transform="matrix(0.118, -0.993, 0.993, 0.118, 9.161, 8.153)" fill="#fff"/>
              </g>
            </g>
          </g>
        </g>
        <g id="Group_2254" data-name="Group 2254" transform="translate(82.572 71.353)">
          <ellipse id="Ellipse_152" data-name="Ellipse 152" cx="8.239" cy="9.04" rx="8.239" ry="9.04" transform="translate(0 15.788) rotate(-73.369)" fill="#f08659"/>
          <path id="Path_23446" data-name="Path 23446" d="M874.2,602.02c-1.191,4.3,1.343,8.772,6.16,10.124s9.2-.866,10.4-5.164-1.749-8.877-6.565-10.229S875.395,597.723,874.2,602.02Z" transform="translate(-871.739 -593.017)" fill="#494746"/>
          <g id="Group_2253" data-name="Group 2253" transform="translate(2.439 4.151)">
            <g id="Group_2252" data-name="Group 2252" clip-path="url(#clip-path-2)">
              <path id="Path_23447" data-name="Path 23447" d="M875.271,605.583c-1.156,4.174,1.361,8.04,5.976,9.336s8.045-.9,9.2-5.076-1.648-8.608-6.265-9.9S876.428,601.409,875.271,605.583Z" transform="translate(-874.992 -599.618)" fill="#fff"/>
              <g id="Group_2251" data-name="Group 2251" transform="translate(1.009 0.847)">
                <path id="Path_23448" data-name="Path 23448" d="M889.384,613.323a5.485,5.485,0,0,1-8.19.285,6.177,6.177,0,0,1-.54-8.737,5.877,5.877,0,0,1,8.538.053A5.76,5.76,0,0,1,889.384,613.323Z" transform="translate(-879.088 -603.058)" fill="#494746"/>
                <ellipse id="Ellipse_153" data-name="Ellipse 153" cx="1.737" cy="1.718" rx="1.737" ry="1.718" transform="matrix(0.118, -0.993, 0.993, 0.118, 9.085, 8.178)" fill="#fff"/>
              </g>
            </g>
          </g>
        </g>
        <path id="Path_23450" data-name="Path 23450" d="M797.4,656.447c2.21-.951,3.188-2.979,2.866-3.879a3.274,3.274,0,0,0-2.506-2.173,7.164,7.164,0,0,0-5.394,1.481,12.665,12.665,0,0,1-.316-4.141,16.987,16.987,0,0,1,1.052-4.25" transform="translate(-727.418 -557.179)" fill="none" stroke="#bd5b32" stroke-width="1.634"/>
        <g id="Group_2255" data-name="Group 2255" transform="translate(52.396 107.014)">
          <path id="Path_23451" data-name="Path 23451" d="M773.107,733.929a13.777,13.777,0,0,1-2.063,3.008c-.187.207-.378.41-.582.608a18.289,18.289,0,0,1-16.186,4.721,14.535,14.535,0,0,1-5.924-2.844,15.424,15.424,0,0,1-5.008-7.032c-1.462-4.488-1.337-6.112,3.976-3.7.113.05.218.095.326.144,8.239,3.608,16.575,2.261,23.541.3.593-.167,1.178-.335,1.749-.513C775.887,727.73,773.74,732.66,773.107,733.929Z" transform="translate(-742.544 -727.576)" fill="#b61924" fill-rule="evenodd"/>
          <path id="Path_23452" data-name="Path 23452" d="M786.8,732.989a8.006,8.006,0,0,1-.646,1.752c-1.24,2.362-4.058,3.729-12.281,3.863-5.855.1-9.338-2.363-10.323-4.565a3.02,3.02,0,0,1-.288-1.35C771.5,736.3,779.839,734.952,786.8,732.989Z" transform="translate(-758.16 -731.43)" fill="#fefefe" fill-rule="evenodd"/>
          <path id="Path_23453" data-name="Path 23453" d="M786.8,732.989a8.006,8.006,0,0,1-.646,1.752c-4.046,1.79-10.412,1.962-15.932,1.906a8.805,8.805,0,0,1-6.672-2.608,3.02,3.02,0,0,1-.288-1.35C771.5,736.3,779.839,734.952,786.8,732.989Z" transform="translate(-758.16 -731.43)" fill="#dedede" fill-rule="evenodd"/>
          <path id="Path_23454" data-name="Path 23454" d="M788.238,763.115a18.289,18.289,0,0,1-16.186,4.721,14.536,14.536,0,0,1-5.924-2.844C769.607,761.555,782.714,760.149,788.238,763.115Z" transform="translate(-760.32 -753.146)" fill="#e8353e" fill-rule="evenodd"/>
        </g>
        <path id="Path_23455" data-name="Path 23455" d="M886.457,550.569a32.987,32.987,0,0,1,14.9,3.975" transform="translate(-798.623 -487.143)" fill="none" stroke="#692700" stroke-width="1.43"/>
        <path id="Path_23456" data-name="Path 23456" d="M667.953,547.851a33.092,33.092,0,0,0-15.281,2.2" transform="translate(-622.407 -484.987)" fill="none" stroke="#692700" stroke-width="1.43"/>
      </g>
    </g>
  </g>
</svg>
