<svg xmlns="http://www.w3.org/2000/svg" xmlns:xlink="http://www.w3.org/1999/xlink" width="389" height="298.001" viewBox="0 0 389 298.001">
  <defs>
    <radialGradient id="radial-gradient" cx="0.5" cy="0.5" r="0.462" gradientUnits="objectBoundingBox">
      <stop offset="0" stop-color="#ef1329"/>
      <stop offset="0.13" stop-color="#ef172c"/>
      <stop offset="0.261" stop-color="#f02337"/>
      <stop offset="0.391" stop-color="#f13749"/>
      <stop offset="0.522" stop-color="#f35363"/>
      <stop offset="0.653" stop-color="#f57784"/>
      <stop offset="0.785" stop-color="#f8a4ac"/>
      <stop offset="0.914" stop-color="#fcd8db"/>
      <stop offset="1" stop-color="#fff"/>
    </radialGradient>
    <clipPath id="clip-path">
      <path id="Path_23030" data-name="Path 23030" d="M4192.2,563.4c0,3.3-2.6,5.648-6.2,5.687a5.184,5.184,0,0,1-5.647-5.561,6.352,6.352,0,0,1,6.527-6.047C4190.479,557.438,4192.2,560.1,4192.2,563.4Z" transform="translate(-4180.346 -557.476)" fill="none"/>
    </clipPath>
    <clipPath id="clip-path-2">
      <path id="Path_23034" data-name="Path 23034" d="M4371.83,560.27c-1.416,2.983-4.771,3.988-8.043,2.478a5.184,5.184,0,0,1-2.717-7.444,6.352,6.352,0,0,1,8.489-2.665C4372.832,554.149,4373.246,557.288,4371.83,560.27Z" transform="translate(-4360.413 -551.984)" fill="none"/>
    </clipPath>
  </defs>
  <g id="Group_3512" data-name="Group 3512" transform="translate(-1326 -1359)">
    <rect id="Rectangle_605" data-name="Rectangle 605" width="389" height="298" rx="20" transform="translate(1326 1359)" fill="rgba(248,179,97,0.81)" opacity="0.67"/>
    <g id="Group_2258" data-name="Group 2258" transform="translate(-21175.082 438.573)">
      <g id="Group_2070" data-name="Group 2070" transform="translate(22655.982 1148.682)">
        <g id="Group_2069" data-name="Group 2069" transform="translate(0 0)">
          <path id="Path_23001" data-name="Path 23001" d="M4122.131,1259.184c3.771.1,7.515.171,11.272.538,2.86.28,5.735.409,8.609.445l3.9-25.617a.938.938,0,0,1,1.84,0l3.991,25.433c5.745-.254,11.48-.7,17.223-1,3.92-.2,7.842-.293,11.755-.608q2.925-.235,5.842-.564,1.33-.149,2.659-.316l-2.463-44.539-.588-6.013-1.618-16.521a191.253,191.253,0,0,1-40.287,6.189c-14.006.574-28.144-2.506-31.067-3.214a.417.417,0,0,0-.519.339c-.066.538-.222,1.424-.439,2.533-.625,3.24-1.739,8.39-2.474,12.37-.352,1.907-.616,3.544-.7,4.576-.437,5.467-2.072,13.824-2.322,21.885-.252,8.01-.552,14.78-1.067,22.486C4111.158,1258.192,4116.615,1259.044,4122.131,1259.184Z" transform="translate(-4105.683 -1190.421)" fill="#2b2a24"/>
          <path id="Path_23002" data-name="Path 23002" d="M4237.8,1377.762c2.024,1.366,1.449,11.743-.144,20.084-.289,1.511-.585,2.925-.887,4.251q1.823.079,3.647.1l3.9-25.616a.938.938,0,0,1,1.84,0l3.99,25.433q2.635-.117,5.269-.277a71.362,71.362,0,0,0-1.28-8.263,48.55,48.55,0,0,1-.578-15.576c.433-2.459,5.349-3.416,7.807-7.515.356-.594-7.523,1.2-15.18,1.5-6.795.273-15.9-1.5-15.9-1.5S4235.862,1376.452,4237.8,1377.762Z" transform="translate(-4204.088 -1332.453)" fill="#1b1a17"/>
          <path id="Path_23003" data-name="Path 23003" d="M4203.04,1205.262a52.465,52.465,0,0,1-8.53,3.143c-24.144,5.738-52.322,2.487-67.37-1.64.734-3.98,1.423-7.256,2.05-10.5.217-1.109.373-1.995.439-2.533a.416.416,0,0,1,.519-.339c2.923.708,17.061,3.787,31.067,3.213a191.237,191.237,0,0,0,40.286-6.189Z" transform="translate(-4122.629 -1190.421)" fill="#1b1a17"/>
        </g>
      </g>
      <g id="Group_2071" data-name="Group 2071" transform="translate(22734.193 1093.158)">
        <path id="Path_23004" data-name="Path 23004" d="M4510.063,969.992s-7.03,3.159-14.05.687a3.531,3.531,0,0,1-1.237-.946c-2-2.131-4.9-7.387-7.74-13.129-1.689-3.41-3.357-6.99-4.807-10.189-2.631-5.805-4.54-10.357-4.54-10.357l18.4-9.73c.391.763,2.157,5.345,4.226,10.868.024.062.046.126.071.19,2.562,6.838,5.569,15.058,7.022,19.261A69.928,69.928,0,0,1,4510.063,969.992Z" transform="translate(-4477.688 -926.328)" fill="#ab6138"/>
        <path id="Path_23005" data-name="Path 23005" d="M4529.885,1083.46c-2-2.131-4.9-7.387-7.74-13.129,4.39.049,13.916.794,18.1,6.114C4544.71,1082.128,4534.342,1083.087,4529.885,1083.46Z" transform="translate(-4512.798 -1040.055)" fill="#9e562e"/>
        <path id="Path_23006" data-name="Path 23006" d="M4500.381,937.386c-5.375,4.812-15.472,8.19-18.153,9.029-2.631-5.805-4.54-10.357-4.54-10.357l18.4-9.73c.391.763,2.157,5.345,4.226,10.868C4500.334,937.258,4500.356,937.322,4500.381,937.386Z" transform="translate(-4477.688 -926.328)" fill="#9e562e"/>
      </g>
      <g id="Group_2072" data-name="Group 2072" transform="translate(22637.908 1093.78)">
        <path id="Path_23007" data-name="Path 23007" d="M4051.059,933.352s-1.028,4.916-2.681,11.464a6.5,6.5,0,0,1-.288,1.123c-.6,1.3-1.2,2.691-1.807,4.119l-.192.451c-3.489,8.235-7.135,17.584-11.067,18.966-7.381,2.591-14.678-3.637-14.678-3.637-.045.034-.873-1.418-.549-4.459.16-1.495,1.237-3.978,2.418-6.984.2-.495,2.3-6.067,4.9-11.29.662-1.326,1.354-2.631,2.054-3.823,3.223-5.488,5.612-9.113,6.071-9.994Z" transform="translate(-4019.721 -929.288)" fill="#ab6138"/>
        <path id="Path_23008" data-name="Path 23008" d="M4078.813,933.352s-1.029,4.916-2.682,11.464a6.545,6.545,0,0,1-.288,1.123c-.6,1.3-1.2,2.691-1.808,4.119-6.434-.873-14.808-4.726-19.172-6.953.662-1.326,1.354-2.631,2.053-3.823,3.223-5.488,5.612-9.113,6.071-9.994Z" transform="translate(-4047.475 -929.288)" fill="#9e562e"/>
      </g>
      <g id="Group_2073" data-name="Group 2073" transform="translate(22641.797 1064.302)">
        <path id="Path_23009" data-name="Path 23009" d="M4152.071,823.558c-.011.016-.021.033-.034.049-.127.178-.264.376-.4.6-6.568,5.083-19.844,10.723-19.844,10.723s.232,20.678.062,28.215c0,.076,0,.149-.006.223-.005.184-.011.362-.014.529,0,.058,0,.115-.007.171s0,.08,0,.122,0,.113-.005.164v.005c0,.056-.005.114-.007.171,0,.113-.01.216-.015.316-.271,5.321,4.729,16.018,1.538,18.854-6.93,6.155-54.359,8.195-75.928,1.585-5.812-1.781.367-12.14,2.372-18.039.031-.093,1.481-32.1,1.481-32.1a48.073,48.073,0,0,1-8.373-1.928c-.416-.138-.832-.287-1.248-.443-7.452-2.812-14.187-5.637-13.338-7.37,2.249-4.6,10.011-24.688,18.583-29.508a87.529,87.529,0,0,1,18.677-5.149c.207-.031.416-.06.624-.089,4.705-.643,9.383-1.192,12.871-1.418.461-.029.9-.053,1.316-.071h.02c.1,0,.212-.007.327-.013.051,0,.1,0,.149,0,.069,0,.134-.005.2-.007,3.292-.089,10.17-.122,17.74.082.56.016,1.123.031,1.688.049s1.148.038,1.725.058q.681.025,1.363.053c.534.02,1.071.044,1.6.067,8.2.371,16.209,3.115,20.71,4.351,3.126.854,3.268,2.285,4.522,4.151.925,1.381,3.677,5.472,6.745,10.939,1.032,1.837,2.1,3.829,3.144,5.926q.234.474.468.945C4154.537,823.339,4154.034,820.91,4152.071,823.558Z" transform="translate(-4038.223 -789.077)" fill="#d0c9c0"/>
        <path id="Path_23010" data-name="Path 23010" d="M4207.134,926.1c-.011.016-.022.033-.035.049-.127.178-.263.376-.4.6-6.569,5.083-19.844,10.722-19.844,10.722s.232,20.678.062,28.215c0,.076,0,.149-.005.224-.005.184-.011.362-.015.529,0,.058,0,.115-.007.171s0,.08,0,.122,0,.113-.005.164v.005c0,.056-.005.114-.007.171,0,.113-.009.216-.015.316-.271,5.321,4.729,16.018,1.538,18.853-6.93,6.155-54.359,8.195-75.928,1.585-5.812-1.781.367-12.14,2.371-18.04.031-.092,1.481-32.1,1.481-32.1a48.056,48.056,0,0,1-8.373-1.928c4.054-2.555,9.194-7.175,11.331-11.282,3.637-6.984,1.837,41.129,1.409,42.679s-1.483,16.912,24.039,17.292c10.141.151,27.652-.62,31.433-13.152a118.661,118.661,0,0,0,4.856-26.655c.1-3.13.756-12.522.548-16.949-.184-3.944-.916-8.78,1.122-8.774,1.521,0,3.218,3.884,4.142,6.742C4189.655,934.424,4208.855,923.558,4207.134,926.1Z" transform="translate(-4093.287 -891.623)" fill="#c4bbac"/>
        <path id="Path_23011" data-name="Path 23011" d="M4255.688,791.211c-.087,5.8-8.741,9.759-20.364,9.8-12.379.049-16.663-4.234-19.534-10.174.207-.031.416-.06.623-.089,4.705-.643,9.383-1.192,12.871-1.418.474.02.914.024,1.313,0l.018,0c.1,0,.214-.007.329-.014.049,0,.1-.005.149-.005.068-.005.135-.007.2-.009,3.293-.115,10.172-.182,17.741.016.56.016,1.124.031,1.688.049s1.148.038,1.725.058q.681.025,1.363.052c.534.022,1.071.046,1.6.071A6.6,6.6,0,0,1,4255.688,791.211Z" transform="translate(-4178.458 -789.172)" fill="#ed6839"/>
      </g>
      <g id="Group_2074" data-name="Group 2074" transform="translate(22686.648 1048.019)">
        <path id="Path_23012" data-name="Path 23012" d="M4268.1,735.135a31.42,31.42,0,0,1-8.828.165c-5.963-.812-8.845-3.28-7.323-5.95a.6.6,0,0,1,.038-.064c.054-.088.111-.179.172-.265a6.966,6.966,0,0,0,.627-1.108,11.485,11.485,0,0,0,.757-2.386,30.35,30.35,0,0,0,.175-9.014c-.788-6.251,17.808-6.1,19.183-1.8.858,2.674.878,5.563,1.925,7.664.1.194.186.395.28.594.015.034.03.066.043.1a15.464,15.464,0,0,0,1.234,2.432c.292.436.594.925.97,1.4C4279.61,729.743,4277.481,733.7,4268.1,735.135Z" transform="translate(-4251.548 -711.631)" fill="#ab6138"/>
        <path id="Path_23013" data-name="Path 23013" d="M4281.036,725.5a84.145,84.145,0,0,1-23.6,2.409,11.486,11.486,0,0,0,.758-2.386,30.368,30.368,0,0,0,.175-9.014c-.788-6.251,17.808-6.1,19.182-1.8.858,2.674.879,5.563,1.926,7.664.1.194.187.395.281.594.015.034.03.066.043.1A15.506,15.506,0,0,0,4281.036,725.5Z" transform="translate(-4256.2 -711.631)" fill="#914f2a"/>
      </g>
      <g id="Group_2088" data-name="Group 2088" transform="translate(22639.859 949.889)">
        <path id="Path_23014" data-name="Path 23014" d="M4033.571,325.276a1.259,1.259,0,0,0-.22.857,1.626,1.626,0,0,0,1.792,1.135,2.874,2.874,0,0,0,.618-.121,4.672,4.672,0,0,0,1.3.194,4.615,4.615,0,0,0,1.132.671c-.045.064-.088.129-.13.195a2.086,2.086,0,0,0-.659.127,1.022,1.022,0,0,0-.713,1.162,1.084,1.084,0,0,0,.709.6,3.772,3.772,0,0,0,.625,2.622.791.791,0,0,0,.5.713,1.114,1.114,0,0,0,.262.058,4.538,4.538,0,0,0,2.892.8,2.963,2.963,0,0,0,.079,1.137,2.787,2.787,0,0,0,1.962,1.859c-2.9.072-2.183,3.392-1.322,3.234.031-.006,3.509.646,1.319,1.693-.872.417-.521,2.1.357,2.449,2.931,1.168,3.305-1.236,4.275-1.447a1.426,1.426,0,0,0-.7,2.115,2.55,2.55,0,0,0,2.376.911,7.762,7.762,0,0,0,2.543-.878,1.747,1.747,0,0,0,.938,2.4,1.767,1.767,0,0,1,3,1.854c6.454,2.638,12.234-1.171,13.326-1.468-.186-.6,47.182,2.408,49.037,1.8a1.6,1.6,0,0,0,.909-2.38,3.537,3.537,0,0,0,2.86.725,2.419,2.419,0,0,0,1.948-2.009,1.852,1.852,0,0,0-.957-1.691,4.676,4.676,0,0,0,1.587.123,2.076,2.076,0,0,0,1.837-1.379,1.2,1.2,0,0,0-.289-1.024,2.038,2.038,0,0,0,2.118-1.638,1.912,1.912,0,0,0-1.735-1.81c1.817-.365,4.76.272,5.453-1.1a2.926,2.926,0,0,0-1.738-1.246c.641.2,1.293-.476,1.277-1.113a2.671,2.671,0,0,0-.912-1.652,3.592,3.592,0,0,1-1.073-1.583c-.176-.821.311-1.635.449-2.466a4.113,4.113,0,0,0-1.176-3.332,7.329,7.329,0,0,0-.689-.665,4.979,4.979,0,0,0,2.369-1.472c.966-1.109,2.226-1.172,1.88-2.55.439.264-.034-.968.431-.748a1.912,1.912,0,0,0,1.949.1c.634-.511.313-1.474-.1-2.144a17.04,17.04,0,0,0-1.579-2.126c.028-.048.057-.1.085-.144a4.245,4.245,0,0,0,1.8.816c1.276.213,2.839-.685,2.706-1.9-.09-.83-.891-1.417-1.682-1.785a9.094,9.094,0,0,0-1.656-.578,10.236,10.236,0,0,0,.1-1.56c.64.17,1.262.434,1.911.578.984.219,2.25.022,2.651-.859a1.65,1.65,0,0,0-.9-2.025,4.094,4.094,0,0,0-2.507-.226c-.2.032-.391.071-.585.114a.814.814,0,0,0-.343-.619l3.825-.487c.323-.041.7-.121.833-.4.186-.411-.322-.786-.764-.938a7.306,7.306,0,0,0-1.388-.322c.167-.156.328-.316.478-.487a2.981,2.981,0,0,0,.883-1.928,1.537,1.537,0,0,0-.828-1.319,3.442,3.442,0,0,0,3.708-2.173,3.109,3.109,0,0,0-2.461-3.773c-.894-.158-2.184-.238-2.192-1.1-.007-.688.9-.995,1.424-1.483a1.624,1.624,0,0,0,.208-2.11,1.855,1.855,0,0,0-2.172-.519,11.573,11.573,0,0,0,2.077-3.2,3.684,3.684,0,0,0-.381-3.572,2.629,2.629,0,0,0-3.5-.509,9.87,9.87,0,0,0,.576-3.338,3.409,3.409,0,0,0-1.641-2.845c-1.1-.59-2.463-.393-3.731-.438a5.064,5.064,0,0,1-1.245-.2c.212-.082.43-.168.659-.26a3.555,3.555,0,0,0,1.331-.8,1.2,1.2,0,0,0,.25-1.383c-.578-.966-2.332-.5-3.976.368.216-1.5,2.38-2.742,2.051-4.308a2.472,2.472,0,0,0-2.551-1.562,25.09,25.09,0,0,0-3.265.555,4.957,4.957,0,0,1-1.194.024c.566-.9.941-1.922.6-2.339-.551-.672-1.75-.278-2.343.376a2.7,2.7,0,0,0-.35.546,5.651,5.651,0,0,1-.009-2.476c.126-1.03,0-2.283-.964-2.764-.942-.469-2.1.094-2.922.751-.135.108-.271.221-.406.333a2.637,2.637,0,0,0-1.431-.3,4.676,4.676,0,0,0-2.161.541,2.912,2.912,0,0,0,.5-1.218,1.935,1.935,0,0,0-3.3-1.644,3.963,3.963,0,0,0-2.305-2.069,2.794,2.794,0,0,0-1.055-.06,4.867,4.867,0,0,0-1.8-3.491,6.756,6.756,0,0,0-6.8-.641,7.078,7.078,0,0,0-1.217.717,20.755,20.755,0,0,0-2.529.037,3.929,3.929,0,0,0-1.031.285c-.061-.079-.115-.163-.182-.238a4.694,4.694,0,0,0-4.574-1.356,5.265,5.265,0,0,0-2.743,1.859c-.2-.465-.478-.953-.99-1.036a1.158,1.158,0,0,0-1.1.571,2.957,2.957,0,0,0-.347,1.206,10.97,10.97,0,0,0-.139,1.893h-.022a5.823,5.823,0,0,0-6.3-2.926,5.5,5.5,0,0,0-3.458,2.675,6.1,6.1,0,0,0-3.475-.145,5.313,5.313,0,0,0-1.936,1.059,3.221,3.221,0,0,0-2.162-1.507,1.21,1.21,0,0,0-.969.176.893.893,0,0,0-.257.842,2.944,2.944,0,0,0-.686-.244,3.418,3.418,0,0,0-3.968,2.558,2.833,2.833,0,0,0,.561,2.11,5.947,5.947,0,0,0-2.018-.32,4.378,4.378,0,0,0-3.855,2.275l-.008,0a8.042,8.042,0,0,0-2.352-.561,1.37,1.37,0,0,0-1.244.36c-.363.509.157,1.174.728,1.455l.042.02c-.088.064-.179.125-.264.193a7.235,7.235,0,0,0-1.726,1.995c-.34-.022-.681-.038-1.022-.041a3.574,3.574,0,0,0-1.492.223,1.263,1.263,0,0,0-.816,1.118.992.992,0,0,0,.284.62,4.3,4.3,0,0,0-.481.638,3.5,3.5,0,0,0-.476,1.5c-1.483.2-2.573.81-2.068,1.887a3.669,3.669,0,0,0-2.6,1.6,2.813,2.813,0,0,0-.135.265,2.749,2.749,0,0,0-.618.135c-.7.283-1.224,1.092-.887,1.727a1.456,1.456,0,0,0,1.426.615,3.835,3.835,0,0,0,.265.588,1.8,1.8,0,0,0-.035,1.456,5.261,5.261,0,0,0-1.641.345,3.661,3.661,0,0,0-2.456,3.262,2.276,2.276,0,0,0,.027.288,8.214,8.214,0,0,0-1.328,1.866,2.214,2.214,0,0,0-.921.685,2.534,2.534,0,0,0,.631,3.365,6.041,6.041,0,0,0-1.4,1.589c.063.015.126.023.19.036a2.785,2.785,0,0,0-1.274,2.393,3.161,3.161,0,0,0,2.129,2.458,12.061,12.061,0,0,0-1.811,3.7,3.714,3.714,0,0,0,2.342,3.373,3.09,3.09,0,0,0-1.644,1.607,3.735,3.735,0,0,0-1.965,2.943.82.82,0,0,0,.36.858c.411.179.834-.208,1.162-.509a4.021,4.021,0,0,1,1.138-.717,3.517,3.517,0,0,0,.973.636c0,.016,0,.033.008.049a4.6,4.6,0,0,0-1.212.414c-1.236.646-2.016,2.265-1.21,3.341a1.852,1.852,0,0,0,.379.377,1.367,1.367,0,0,0,.7,1.355,1.419,1.419,0,0,0,.472.14c-.009.031-.014.063-.021.094a3.962,3.962,0,0,0-1.112,3.081,3.369,3.369,0,0,0,.141.638c-.028.05-.059.1-.085.148a2.376,2.376,0,0,0-.2,2.125,1.422,1.422,0,0,0,.757.654,1.993,1.993,0,0,0-.2.279A2.686,2.686,0,0,0,4033.571,325.276Zm4.111-37.72-.091-.015.037-.029C4037.646,287.526,4037.663,287.542,4037.682,287.555Zm-2.765,34.2c0-.023,0-.046,0-.07l.066.046Z" transform="translate(-4031.006 -252.823)"/>
        <g id="Group_2075" data-name="Group 2075" transform="translate(92.241 68.371)">
          <path id="Path_23015" data-name="Path 23015" d="M4469.772,586.744a10.444,10.444,0,0,0,3.277.272c.149-.006.3-.013.458-.024,4.2-.263,10.7-7.276,9.267-12.987-.037-.156-.083-.311-.134-.465a6.456,6.456,0,0,0-.864-1.7c-.077-.106-.149-.206-.226-.3,0,0,0,0,0-.007-4.187-5.213-10.546,5.323-10.546,5.323a28.819,28.819,0,0,0-2.981,5.788,6.272,6.272,0,0,0-.206.81A2.54,2.54,0,0,0,4469.772,586.744Z" transform="translate(-4467.737 -570.085)" fill="#ab5d32"/>
          <path id="Path_23016" data-name="Path 23016" d="M4481.694,593.206c5.4-1.341,6-4.848,7.027-6.353,1.824-2.664,0-7.736-3.351-5.157a6.744,6.744,0,0,0-.591.51,9.06,9.06,0,0,0-2.39,4.478c-.358,1.413-.462,2.309-2.25,3.222a3.254,3.254,0,0,0-.344.2C4477.952,591.356,4477.771,594.183,4481.694,593.206Z" transform="translate(-4476.263 -578.693)" fill="#854826"/>
          <path id="Path_23017" data-name="Path 23017" d="M4477.417,592.057a10.45,10.45,0,0,0,3.277.272,3.428,3.428,0,0,1,.448-.058c4.188-.264,10.677-7.249,9.276-12.953-.037-.156-.083-.311-.134-.465a6.449,6.449,0,0,0-.873-1.733c-.078-.109-.153-.21-.23-.308,0,.015.009.026.014.041a9.541,9.541,0,0,1,.5,5.941c-1.111,3.419-5.926,7.831-5.926,7.831s-2.3,1.557-4.263,1.105A2.615,2.615,0,0,0,4477.417,592.057Z" transform="translate(-4475.383 -575.398)" fill="#914f2a"/>
          <path id="Path_23018" data-name="Path 23018" d="M4482.234,597.171a5.623,5.623,0,0,0,3.359-3.257,14.56,14.56,0,0,0,1.484-6.1c-.012-.55-.4-.7-.543-1.029a9.067,9.067,0,0,0-2.389,4.478c-.358,1.413-.462,2.309-2.25,3.222-.122.061-.53.354-.638.427C4479.946,595.916,4481.541,597.383,4482.234,597.171Z" transform="translate(-4478.019 -583.277)" fill="#6b3b1f"/>
        </g>
        <g id="Group_2076" data-name="Group 2076" transform="translate(7.425 71.539)">
          <path id="Path_23019" data-name="Path 23019" d="M4078.168,601.253a10.463,10.463,0,0,1-3.256.464c-.148,0-.3.005-.458,0-4.2-.016-11.113-6.632-10.016-12.418.028-.158.063-.316.106-.472a6.448,6.448,0,0,1,.762-1.747c.07-.111.137-.214.208-.315,0,0,0,0,0-.007,3.873-5.451,10.842,4.692,10.842,4.692a28.786,28.786,0,0,1,3.317,5.6,6.308,6.308,0,0,1,.253.8A2.541,2.541,0,0,1,4078.168,601.253Z" transform="translate(-4064.321 -585.153)" fill="#ab5d32"/>
          <path id="Path_23020" data-name="Path 23020" d="M4082.406,607.853c-5.466-1.021-6.273-4.486-7.39-5.927-1.978-2.553-.459-7.722,3.041-5.346a6.8,6.8,0,0,1,.621.474,9.061,9.061,0,0,1,2.649,4.329c.44,1.39.6,2.278,2.436,3.083a3.094,3.094,0,0,1,.356.183C4086.033,605.786,4086.38,608.6,4082.406,607.853Z" transform="translate(-4072.075 -593.696)" fill="#854826"/>
          <path id="Path_23021" data-name="Path 23021" d="M4078.192,607.169a10.463,10.463,0,0,1-3.256.465,3.4,3.4,0,0,0-.451-.031c-4.2-.016-11.085-6.607-10.023-12.383.028-.158.063-.316.106-.472a6.463,6.463,0,0,1,.77-1.782c.071-.113.141-.219.212-.321,0,.015-.008.027-.012.042a9.541,9.541,0,0,0-.149,5.961c1.311,3.348,6.377,7.468,6.377,7.468s2.392,1.419,4.32.852A2.616,2.616,0,0,1,4078.192,607.169Z" transform="translate(-4064.345 -591.069)" fill="#914f2a"/>
          <path id="Path_23022" data-name="Path 23022" d="M4098.817,611.232a5.623,5.623,0,0,1-3.545-3.053,14.559,14.559,0,0,1-1.842-6c-.021-.549.36-.718.482-1.059a9.057,9.057,0,0,1,2.649,4.329c.441,1.39.6,2.278,2.436,3.083.125.054.55.323.662.389C4101.027,609.845,4099.521,611.4,4098.817,611.232Z" transform="translate(-4087.309 -597.765)" fill="#6b3b1f"/>
        </g>
        <path id="Path_23023" data-name="Path 23023" d="M4092.994,370.939q.79,1.993,1.5,4.051l.173.515q1.114,3.283,2.039,6.705c.07.243.138.487.2.735a.224.224,0,0,1,.02.069c.214.769.414,1.547.609,2.326.043.183.09.368.132.551q.426,1.691.808,3.4c.057.245.11.489.164.734.088.4.177.8.262,1.193.137.626.269,1.248.4,1.875.015.062.025.121.038.179q.611,2.965,1.168,5.956c.043.23.087.46.139.693.016.078.031.152.052.229,2.672,12.335,13.96,30.123,37.166,27.493,25.654-2.9,31.207-14.244,34.2-24.345.868-2.947,1.521-5.785,2.392-8.283.04-.115.08-.227.119-.342.071-.2.142-.4.206-.59a6.175,6.175,0,0,0,.246-.657,18.06,18.06,0,0,0,.779-4.735c0-.052,0-.107,0-.159.252-7.14,7.865-21.718-10.236-40.98-13.316-14.173-38.308-12.832-52.79-5.2C4097.521,350.377,4091.212,366.457,4092.994,370.939Z" transform="translate(-4079.31 -317.402)" fill="#ab6138"/>
        <path id="Path_23024" data-name="Path 23024" d="M4088.4,379.856c2.637,5.8,6.677,18.387,6.677,18.387l1.315-.136c.071.373.145.746.214,1.119.044.23.087.46.14.693a2.822,2.822,0,0,0,.313.044l-.262.186c2.673,12.335,13.96,30.123,37.166,27.493,25.654-2.9,31.208-14.244,34.2-24.345.035-.12.066-.23.1-.335.82-2.827,1.458-5.545,2.3-7.949.04-.115.08-.227.12-.342.071-.2.142-.4.205-.59a15.345,15.345,0,0,0,1.025-5.392c0-.052,0-.107,0-.159.252-7.14,7.864-21.718-10.237-40.98-13.315-14.173-38.307-12.832-52.79-5.2-15.251,8.033-21.56,24.113-19.777,28.6q.4,1.019.785,2.055A5.444,5.444,0,0,0,4088.4,379.856Zm4.424,4.239.025-1.741c.055.2.111.392.16.591,1.786.01,3.039-2.639,2.159-4.384a5.25,5.25,0,0,0-2.354-2.235l-.233-2.255a5.454,5.454,0,0,0,2.275-2.262,3.393,3.393,0,0,0-1-3.99,6.649,6.649,0,0,0,1.09.015,3.251,3.251,0,0,0,5.646.681,4.708,4.708,0,0,0,.8-3.962c.963,1.669,3.6,1.572,5.042.3s2.01-3.248,2.505-5.108a11.1,11.1,0,0,0,3.41,2.462,3.318,3.318,0,0,0,4.722-4.009,8.234,8.234,0,0,0-.942-2.236,3.968,3.968,0,0,0,.726-.4,6.306,6.306,0,0,0,5.725-.949,6.408,6.408,0,0,0,.543-.473,8.137,8.137,0,0,1,2.2.21,3.323,3.323,0,0,1,.357,6.223c-.384.167-.847.306-1.009.693-.188.445.152.938.536,1.228a3.811,3.811,0,0,0,4.826-.53,5.356,5.356,0,0,0,1.2-4.937,7.239,7.239,0,0,0-.39-1.16c.035-.008.074-.012.109-.019a4.017,4.017,0,0,0,.948-.368c1.837.136,3.706-.713,4-2.519a5.658,5.658,0,0,0,1.853.238c-.7.958-1.25,2.132-.662,3.1a1.694,1.694,0,0,0,.409.447,4.8,4.8,0,0,0,.347,2.639,5.521,5.521,0,0,0,3.888,2.7,3.79,3.79,0,0,0,1.891-.084,2.062,2.062,0,0,0,1.322-1.285c-1.38-.044-2.986-.2-3.734-1.367a2.677,2.677,0,0,1-.006-2.142,23.223,23.223,0,0,0,2.788-.443,4.681,4.681,0,0,0,5.571,2.684,1.934,1.934,0,0,0,1.331,2.462,3.145,3.145,0,0,0,2.9-.888,9.214,9.214,0,0,0,1.756-2.622c.14,2.207,2.467,3.763,4.679,3.821a8.705,8.705,0,0,0,2.415-.329,3.7,3.7,0,0,0,.279,2.586c-1.689.572,3.7,1.807,5.006,3.024s-2,3.061-.589,4.143a6.247,6.247,0,0,1,1.86,7.272,4.218,4.218,0,0,0,.6,4.62,5.275,5.275,0,0,0-2.274,2.767c-.266,1.188.8,2.668,1.957,2.29a2.992,2.992,0,0,0-.134,3.849c-2.311-1.222-1.244-.279-1.612,1.8-.483,1.516-.361,3.314-.848,4.835.595.066-6.417,18.223-19.63,22.89-10.533,3.72-19.808,5.219-31.2-.14-10.506-4.941-17.459-19.37-18.383-21.881a1.9,1.9,0,0,0,1.162-.6,3,3,0,0,0-1.458-2.532,1.311,1.311,0,0,0,.918-.5,1.743,1.743,0,0,0-.124-2.054,2.868,2.868,0,0,0-1.921-.97c-.105-.012-.21-.017-.315-.022l-.192-.567a1.533,1.533,0,0,0,.265-.722,2.046,2.046,0,0,0-1.153-1.9l-.271-.8c1.524-2.141,1.2-5.379-1.553-6.27.214.769.415,1.547.61,2.326.042.183.09.368.132.551q.42,1.67.8,3.355Z" transform="translate(-4075.419 -317.402)" fill="#99481c"/>
        <path id="Path_23025" data-name="Path 23025" d="M4150.285,630.123a11,11,0,0,0,13.952,7.168A11.319,11.319,0,0,0,4171.147,623a11,11,0,0,0-13.951-7.167A11.318,11.318,0,0,0,4150.285,630.123Z" transform="translate(-4124.328 -537.391)" opacity="0.2" fill="url(#radial-gradient)" style="mix-blend-mode: multiply;isolation: isolate"/>
        <path id="Path_23026" data-name="Path 23026" d="M4344.384,621.31a11,11,0,0,0,13.952,7.168,11.319,11.319,0,0,0,6.911-14.287,11,11,0,0,0-13.95-7.167A11.318,11.318,0,0,0,4344.384,621.31Z" transform="translate(-4277.619 -530.431)" opacity="0.2" fill="url(#radial-gradient)" style="mix-blend-mode: multiply;isolation: isolate"/>
        <g id="Group_2080" data-name="Group 2080" transform="translate(30.342 63.505)">
          <ellipse id="Ellipse_124" data-name="Ellipse 124" cx="6.799" cy="6.278" rx="6.799" ry="6.278" transform="translate(0 0.996) rotate(-4.199)" fill="#804525"/>
          <path id="Path_23027" data-name="Path 23027" d="M4189.855,559.975a6.309,6.309,0,0,1-6.5,6.23c-3.761.04-6.494-2.463-6.494-5.862s3.05-6.187,6.811-6.227S4189.857,556.576,4189.855,559.975Z" transform="translate(-4176.121 -552.608)"/>
          <g id="Group_2079" data-name="Group 2079" transform="translate(1.477 2.214)">
            <g id="Group_2078" data-name="Group 2078" clip-path="url(#clip-path)">
              <path id="Path_23028" data-name="Path 23028" d="M4192.2,563.4c0,3.3-2.6,5.648-6.2,5.687a5.184,5.184,0,0,1-5.647-5.561,6.352,6.352,0,0,1,6.527-6.047C4190.479,557.438,4192.2,560.1,4192.2,563.4Z" transform="translate(-4180.346 -557.476)" fill="#fff"/>
              <g id="Group_2077" data-name="Group 2077" transform="translate(0.904 0.814)">
                <path id="Path_23029" data-name="Path 23029" d="M4189.666,561.577a4.078,4.078,0,0,1,5.426,2.906,4.765,4.765,0,0,1-3.007,5.963,4.368,4.368,0,0,1-5.523-3.26A4.442,4.442,0,0,1,4189.666,561.577Z" transform="translate(-4186.014 -561.348)"/>
                <ellipse id="Ellipse_125" data-name="Ellipse 125" cx="1.325" cy="1.29" rx="1.325" ry="1.29" transform="translate(0 2.723) rotate(-56.081)" fill="#fff"/>
              </g>
            </g>
          </g>
        </g>
        <g id="Group_2084" data-name="Group 2084" transform="translate(67.576 60.687)">
          <ellipse id="Ellipse_126" data-name="Ellipse 126" cx="6.278" cy="6.799" rx="6.278" ry="6.799" transform="translate(0 11.708) rotate(-68.814)" fill="#804525"/>
          <path id="Path_23031" data-name="Path 23031" d="M4371.205,556.494a6.311,6.311,0,0,1-8.54,2.844c-3.415-1.576-4.812-5.009-3.354-8.08s5.408-4.282,8.823-2.706S4372.663,553.423,4371.205,556.494Z" transform="translate(-4356.989 -544.849)"/>
          <g id="Group_2083" data-name="Group 2083" transform="translate(2.101 3.879)">
            <g id="Group_2082" data-name="Group 2082" clip-path="url(#clip-path-2)">
              <path id="Path_23032" data-name="Path 23032" d="M4371.83,560.27c-1.416,2.983-4.771,3.988-8.043,2.478a5.184,5.184,0,0,1-2.717-7.444,6.352,6.352,0,0,1,8.489-2.665C4372.832,554.149,4373.246,557.288,4371.83,560.27Z" transform="translate(-4360.413 -551.984)" fill="#fff"/>
              <g id="Group_2081" data-name="Group 2081" transform="translate(1.461 0.64)">
                <path id="Path_23033" data-name="Path 23033" d="M4371.861,555.135a4.078,4.078,0,0,1,5.116,3.423,4.764,4.764,0,0,1-3.576,5.64,4.368,4.368,0,0,1-5.178-3.786A4.442,4.442,0,0,1,4371.861,555.135Z" transform="translate(-4367.983 -555.03)"/>
                <ellipse id="Ellipse_127" data-name="Ellipse 127" cx="1.325" cy="1.29" rx="1.325" ry="1.29" transform="translate(0 2.23) rotate(-50.463)" fill="#fff"/>
              </g>
            </g>
          </g>
        </g>
        <path id="Path_23035" data-name="Path 23035" d="M4297.767,602.555c1.615-.823,2.257-2.411,1.976-3.082a2.474,2.474,0,0,0-1.977-1.543,5.326,5.326,0,0,0-3.979,1.368,9.8,9.8,0,0,1-.422-3.14,13.112,13.112,0,0,1,.6-3.284" transform="translate(-4237.773 -519.712)" fill="none" stroke="#66311b" stroke-width="1.283"/>
        <g id="Group_2086" data-name="Group 2086" transform="translate(0)">
          <path id="Path_23036" data-name="Path 23036" d="M4073.028,311.15c1.042-6.411,3.345-13.266,8.9-16.633,3.6-2.186,7.981-2.525,12.113-3.36,10.694-2.159,20.706-7.942,31.615-7.984,9.832-.038,19.321,4.8,26.072,11.948s10.938,16.431,13.19,26c.877,3.73,1.478,7.631.689,11.381-1.372,6.526-.987,7.951-5.032,12.353-.963,1.048-1.243,7.039-1.239,6.467-.289.525-1.923,2.668-2.715-.716-.836-1.793-1.784-3.351-.091-4.376a3,3,0,0,1,.137-3.849c-1.158.379-2.224-1.1-1.958-2.291a5.283,5.283,0,0,1,2.273-2.763,4.229,4.229,0,0,1-.6-4.624,6.242,6.242,0,0,0-1.858-7.269c-1.416-1.082,1.891-2.928.589-4.145s-6.695-2.45-5.007-3.022a3.7,3.7,0,0,1-.279-2.588,8.552,8.552,0,0,1-2.413.33c-2.211-.057-4.54-1.613-4.68-3.82a9.274,9.274,0,0,1-1.754,2.623,3.146,3.146,0,0,1-2.9.885,1.932,1.932,0,0,1-1.333-2.459,4.686,4.686,0,0,1-5.571-2.688,22.947,22.947,0,0,1-2.788.446,2.666,2.666,0,0,0,.007,2.139c.748,1.163,2.354,1.325,3.736,1.367a2.071,2.071,0,0,1-1.323,1.287,3.746,3.746,0,0,1-1.894.082,5.511,5.511,0,0,1-3.887-2.7,4.81,4.81,0,0,1-.347-2.639,1.684,1.684,0,0,1-.41-.446c-.589-.968-.031-2.141.663-3.1a5.586,5.586,0,0,1-1.854-.236c-.29,1.808-2.156,2.653-3.995,2.52a4.088,4.088,0,0,1-.949.366c-.037.009-.073.012-.109.02a7.056,7.056,0,0,1,.389,1.159,5.35,5.35,0,0,1-1.192,4.937,3.811,3.811,0,0,1-4.826.531c-.385-.291-.725-.785-.538-1.23.162-.387.625-.524,1.009-.692a3.323,3.323,0,0,0-.355-6.22,8.12,8.12,0,0,0-2.2-.212,7.137,7.137,0,0,1-.544.476,6.3,6.3,0,0,1-5.723.945,4,4,0,0,1-.725.4,8.206,8.206,0,0,1,.941,2.234,3.317,3.317,0,0,1-4.72,4.007,11,11,0,0,1-3.412-2.462c-.5,1.862-1.058,3.837-2.505,5.109s-4.08,1.368-5.041-.3a4.709,4.709,0,0,1-.8,3.962,3.453,3.453,0,0,1-3.746,1.149,3.489,3.489,0,0,1-1.9-1.831,6.456,6.456,0,0,1-1.087-.013,3.393,3.393,0,0,1,1,3.989c-.91,1.861-3.022,2.754-4.977,3.442,2.073.557,4.326,1.393,5.289,3.31s-.634,4.91-2.693,4.308c3.545.681,3.787,4.782,1.641,6.981a2.4,2.4,0,0,1,.351.073,2.1,2.1,0,0,1,1.539,2.062,1.688,1.688,0,0,1-.889,1.3,5.678,5.678,0,0,1,1.129.009,2.857,2.857,0,0,1,1.922.97,1.744,1.744,0,0,1,.125,2.052,1.309,1.309,0,0,1-.919.5,3.005,3.005,0,0,1,1.46,2.532,2.364,2.364,0,0,1-2.688.387,6.375,6.375,0,0,1-2.171-1.894,8.36,8.36,0,0,0-2.073-2.016c-.637-.372-1.367-.555-2.013-.912a2.112,2.112,0,0,1-1.23-1.709l1.908-1.607a2.758,2.758,0,0,1-2.367-.949c-1.936-2.237-2.117-7.492-2.529-10.321A75.51,75.51,0,0,1,4073.028,311.15Z" transform="translate(-4063.009 -275.124)"/>
          <g id="Group_2085" data-name="Group 2085">
            <path id="Path_23037" data-name="Path 23037" d="M4032.478,453.975a4.436,4.436,0,0,0-3.251,2.573,3.235,3.235,0,0,0,1.117,3.827,5.2,5.2,0,0,0,1.112.485,44.147,44.147,0,0,0,5.441,1.476" transform="translate(-4029.005 -410.016)" fill="none" stroke="#000" stroke-width="1.88"/>
            <path id="Path_23038" data-name="Path 23038" d="M4494.955,356.037a10.335,10.335,0,0,1,7.494.017,1.218,1.218,0,0,1,.551.353,1.291,1.291,0,0,1,.2.6,8.791,8.791,0,0,1,.092,3.323,10.466,10.466,0,0,1-.648,1.738,26.748,26.748,0,0,0-1.612,5.153" transform="translate(-4396.991 -332.12)" fill="none" stroke="#000" stroke-width="1.88"/>
            <path id="Path_23039" data-name="Path 23039" d="M4151.767,277.764a3.865,3.865,0,0,1-2.4-5.614,5.8,5.8,0,0,1,2.409-2.167,6.274,6.274,0,0,1,2.414-.8,8.7,8.7,0,0,1,4.291,1.152c2.112.982,4.3,2.019,5.785,3.809" transform="translate(-4123.684 -264.06)" fill="none" stroke="#000" stroke-width="1.88"/>
            <path id="Path_23040" data-name="Path 23040" d="M4411.77,411.956a18.817,18.817,0,0,1-3.231,2,6.31,6.31,0,0,1-3.706.557,6.2,6.2,0,0,1-3.415-2.126,7.11,7.11,0,0,1-1.669-6.433" transform="translate(-4321.628 -372.09)" fill="none" stroke="#000" stroke-width="1.88"/>
            <path id="Path_23041" data-name="Path 23041" d="M4185.421,394.177c.479-.052.83.426,1.06.849a25.49,25.49,0,0,1,1.474,3.256,8.341,8.341,0,0,1,.665,3.575,3.6,3.6,0,0,1-1.849,2.977,4.33,4.33,0,0,1-1.932.336,5.581,5.581,0,0,1-1.541-.2,5.662,5.662,0,0,1-1.218-.558,10.771,10.771,0,0,1-4.752-5.9" transform="translate(-4146.144 -362.787)" fill="none" stroke="#000" stroke-width="1.88"/>
            <path id="Path_23042" data-name="Path 23042" d="M4469,477.777a4.47,4.47,0,0,0-1.61,2.436c-.314,1.679.878,3.212,1.612,4.754a9.409,9.409,0,0,1,.907,3.786" transform="translate(-4375.184 -428.814)" fill="none" stroke="#000" stroke-width="1.88"/>
            <path id="Path_23043" data-name="Path 23043" d="M4112.536,457.47a2.6,2.6,0,0,1,.329.708,7.557,7.557,0,0,1-1.507,7.241c-.208.234-.445.568-.266.825a.763.763,0,0,0,.239.19,4.405,4.405,0,0,1,1.538,4.864,12.9,12.9,0,0,1-2.808,4.641" transform="translate(-4093.019 -412.776)" fill="none" stroke="#000" stroke-width="1.88"/>
            <path id="Path_23044" data-name="Path 23044" d="M4275.772,401.379a8.439,8.439,0,0,1-.076,5.516,4.163,4.163,0,0,1-4.483,2.589" transform="translate(-4220.291 -368.478)" fill="none" stroke="#000" stroke-width="1.88"/>
            <path id="Path_23045" data-name="Path 23045" d="M4232.736,388.86a10.176,10.176,0,0,1,4.092,1.562,5.462,5.462,0,0,1,1.459,1.069,5.6,5.6,0,0,1,.637.974,11.62,11.62,0,0,1,1.542,3.715,3.945,3.945,0,0,1-1.153,3.684" transform="translate(-4189.903 -358.591)" fill="none" stroke="#000" stroke-width="1.88"/>
            <path id="Path_23046" data-name="Path 23046" d="M4214.905,259.869l-2.472-2.46a7.864,7.864,0,0,0-3.662-2.46,3.983,3.983,0,0,0-3.9,1.451,5.837,5.837,0,0,1-.772.978c-1.2,1.022-3.23.005-4.55.869a3.684,3.684,0,0,0-1.19,1.739l-1.44,3.356" transform="translate(-4161.616 -252.772)" fill="none" stroke="#000" stroke-width="1.88"/>
            <path id="Path_23047" data-name="Path 23047" d="M4336.833,252.325a5.779,5.779,0,0,0-1.99-6.743,3.314,3.314,0,0,0-2.265-.672,4.582,4.582,0,0,0-2.141,1.14,29.694,29.694,0,0,0-5.959,5.87" transform="translate(-4262.357 -244.889)" fill="none" stroke="#000" stroke-width="1.88"/>
            <path id="Path_23048" data-name="Path 23048" d="M4055.968,347.5a11.621,11.621,0,0,0-6.822,1.143,4.156,4.156,0,0,0-2.024,1.537c-.805,1.4.083,3.19,1.208,4.355a.81.81,0,0,1,.291.493c.009.3-.312.494-.581.633a7.873,7.873,0,0,0-3.684,4.113,3.271,3.271,0,0,0-.27,1.39,4.124,4.124,0,0,0,.7,1.748l2.5,4.223" transform="translate(-4040.911 -325.81)" fill="none" stroke="#000" stroke-width="1.88"/>
            <path id="Path_23049" data-name="Path 23049" d="M4036.929,538.546q-.975.945-2.04,1.791a5.556,5.556,0,0,0-1.093,1.025,5.049,5.049,0,0,0-.689,1.729l-.894,3.416a1.352,1.352,0,0,0-.054.718,1.292,1.292,0,0,0,.8.7,12.094,12.094,0,0,0,6.428.916" transform="translate(-4031.473 -476.806)" fill="none" stroke="#000" stroke-width="1.88"/>
          </g>
        </g>
        <path id="Path_23050" data-name="Path 23050" d="M4173.651,515.314a24.571,24.571,0,0,0-10.908,3.978" transform="translate(-4134.625 -458.459)" fill="none" stroke="#000" stroke-width="1.88"/>
        <path id="Path_23051" data-name="Path 23051" d="M4374.171,505.609a24.617,24.617,0,0,1,11.328,2.579" transform="translate(-4301.602 -450.791)" fill="none" stroke="#000" stroke-width="1.88"/>
        <g id="Group_2087" data-name="Group 2087" transform="translate(43.045 88.065)">
          <path id="Path_23052" data-name="Path 23052" d="M4235.3,670.776a12.631,12.631,0,0,0,2.12,2.559c.192.171.38.342.585.505.291.245.595.478.906.7.155.112.316.219.478.323.113.081.232.153.357.226a16.912,16.912,0,0,0,13.082,1.769,16.643,16.643,0,0,0,5.55-2.2c.1-.073.191-.147.276-.221a13.168,13.168,0,0,0,4.159-6.449c1.044-4.029.814-5.456-3.949-3.07-.1.048-.193.093-.29.141-7.4,3.581-15.226,2.794-21.827,1.395-.562-.121-1.119-.241-1.659-.368C4232.282,665.437,4234.622,669.685,4235.3,670.776Z" transform="translate(-4233.74 -663.758)" fill="#80281d" fill-rule="evenodd"/>
          <path id="Path_23053" data-name="Path 23053" d="M4248.031,671.337a3.717,3.717,0,0,0,.722,1.516c1.582,1.527,3.779,2.249,11.418,1.972,5.44-.2,8.749-1.687,9.509-3.678a2.528,2.528,0,0,0,.173-1.206C4262.463,673.521,4254.629,672.735,4248.031,671.337Z" transform="translate(-4245.026 -668.641)" fill="#fefefe" fill-rule="evenodd"/>
          <path id="Path_23054" data-name="Path 23054" d="M4248.031,671.337a7.069,7.069,0,0,0,.722,1.516,40.368,40.368,0,0,0,13.868.371,19.957,19.957,0,0,0,7.06-2.078,2.528,2.528,0,0,0,.173-1.206C4262.463,673.521,4254.629,672.735,4248.031,671.337Z" transform="translate(-4245.026 -668.641)" fill="#dedede" fill-rule="evenodd"/>
          <path id="Path_23055" data-name="Path 23055" d="M4254.018,704.655c.291.245.595.478.906.7.155.112.316.22.478.323.112.081.232.153.357.226a16.912,16.912,0,0,0,13.082,1.769,16.648,16.648,0,0,0,5.55-2.2c.1-.073.19-.146.276-.221C4271.2,702.387,4258.938,701.776,4254.018,704.655Z" transform="translate(-4249.754 -694.573)" fill="#b83e34" fill-rule="evenodd"/>
        </g>
      </g>
      <g id="Group_2089" data-name="Group 2089" transform="translate(22667.963 1091.764)">
        <path id="Path_23056" data-name="Path 23056" d="M4162.666,956.3a34.785,34.785,0,0,0,69.552,1.337c.021-.444.03-.889.03-1.337a34.792,34.792,0,1,0-69.583,0Z" transform="translate(-4162.666 -920.951)" fill="#008f4c"/>
        <path id="Path_23057" data-name="Path 23057" d="M4194.074,937.077a34.745,34.745,0,0,0,62.949,20.563c.021-.444.03-.889.03-1.337a34.747,34.747,0,0,0-62.949-20.567C4194.083,936.18,4194.074,936.628,4194.074,937.077Z" transform="translate(-4187.471 -920.951)" fill="#00a055"/>
        <ellipse id="Ellipse_128" data-name="Ellipse 128" cx="18.801" cy="16.621" rx="18.801" ry="16.621" transform="translate(27.706 13.453)" fill="#00db75" opacity="0.3" style="mix-blend-mode: lighten;isolation: isolate"/>
        <ellipse id="Ellipse_129" data-name="Ellipse 129" cx="9.895" cy="4.374" rx="9.895" ry="4.374" transform="translate(15.469 6.624) rotate(-19.555)" fill="#00db75" opacity="0.3" style="mix-blend-mode: lighten;isolation: isolate"/>
        <ellipse id="Ellipse_130" data-name="Ellipse 130" cx="3.311" cy="2.461" rx="3.311" ry="2.461" transform="translate(21.382 6.091) rotate(-19.555)" fill="#00db75" opacity="0.4" style="mix-blend-mode: lighten;isolation: isolate"/>
        <ellipse id="Ellipse_131" data-name="Ellipse 131" cx="4.69" cy="6.31" rx="4.69" ry="6.31" transform="translate(48.209 32.578) rotate(-63.825)" fill="#00db75" opacity="0.4" style="mix-blend-mode: lighten;isolation: isolate"/>
      </g>
      <g id="Group_2090" data-name="Group 2090" transform="translate(22637.898 1122.935)">
        <path id="Path_23058" data-name="Path 23058" d="M4098.116,1107.1c-.039.9-3.279,1.288-3.507,1.343-.692.167-2.651.574-2.651.574a2.972,2.972,0,0,1,.214.459c.174.469.306,1.172-.292,1.5a25.1,25.1,0,0,1-3.506,1.188c-.4.113-.667.182-.667.182-.263.181-.485.34-.692.482a6.281,6.281,0,0,1-2.655,1.091c-1.154.252-1.169.685-1.988,1.087a7.554,7.554,0,0,1-2.26.583,33.212,33.212,0,0,1-8.719.237c-1.577-.32-1.837-.993-5.63-3.137s-9.02-3.754-13.307-6.514c-3.85-2.477-9.866-5.066-20.059-13.919a48.89,48.89,0,0,1-5.76-5.913c-5.87-7.165-7.968-14.125-6.517-16.4.256-.4.536-.826.845-1.277,1.794-2.624,19.729,2.875,19.073,4.829a2.889,2.889,0,0,0-.119,1.587,3.149,3.149,0,0,0,.423.856c2.392,3.742,13.741,14.8,15.112,16.324,1.5,1.668,10.286,7.835,13.405,7.605.327-.024.724.077,1.173.041,1.119-.088,3.495-.132,7.6-.653a16.986,16.986,0,0,1,10.631,1.926c.717.365,1.083.807,1.14,1.222.091.643-.554,1.222-1.785,1.363a28.677,28.677,0,0,1-3.037.147c1.247.316,2.584.643,3.439.822a3.876,3.876,0,0,0,.882.134,30.8,30.8,0,0,1,3.29-.235,10.476,10.476,0,0,1,4.554.707c.479.208,1.243.37,1.361,1.362A2.736,2.736,0,0,1,4098.116,1107.1Z" transform="translate(-4019.676 -1067.96)" fill="#ab6138"/>
        <path id="Path_23059" data-name="Path 23059" d="M4319.384,1233.106a28.718,28.718,0,0,1-3.037.146c1.246.316,2.583.643,3.44.822-.121.023-.245.04-.371.057-2.759.353-6.27-2.063-6.27-2.063s3.9.3,6.2.237a3.2,3.2,0,0,0,1.82-.562C4321.259,1232.385,4320.614,1232.964,4319.384,1233.106Z" transform="translate(-4251.445 -1197.308)" fill="#9e562e"/>
        <path id="Path_23060" data-name="Path 23060" d="M4108.515,1184.015a7.566,7.566,0,0,1-2.261.583,33.206,33.206,0,0,1-8.718.237c-1.578-.32-1.837-.993-5.63-3.137s-9.019-3.754-13.308-6.514c-3.85-2.477-9.865-5.066-20.059-13.919a48.9,48.9,0,0,1-5.76-5.913c2.458,1.441,6.856,5.766,11.854,9.612,17.06,13.125,28.675,15.515,32.836,17.775C4100.2,1184.221,4105.312,1184.2,4108.515,1184.015Z" transform="translate(-4045.819 -1136.978)" fill="#9e562e"/>
        <path id="Path_23061" data-name="Path 23061" d="M4345.5,1252.592c-.04.9-3.28,1.288-3.508,1.343-.691.167-2.651.574-2.651.574a2.98,2.98,0,0,1,.214.459,56.177,56.177,0,0,1-6.638-.605c.079-.008,2.623-.246,4.039-.436.927-.124,6.129-1.136,8.532-1.736A2.732,2.732,0,0,1,4345.5,1252.592Z" transform="translate(-4267.059 -1213.457)" fill="#9e562e"/>
        <path id="Path_23062" data-name="Path 23062" d="M4331.286,1278.162c-.4.114-.668.184-.668.184-.262.181-.484.34-.691.48l-2.672-.475S4329.536,1278.265,4331.286,1278.162Z" transform="translate(-4262.588 -1233.968)" fill="#9e562e"/>
        <path id="Path_23063" data-name="Path 23063" d="M4084.628,1087.68c-6.239-1.6-11.621-6.625-7.341-4.181a12.779,12.779,0,0,0,7.036,1.739,2.883,2.883,0,0,0-.118,1.586A3.105,3.105,0,0,0,4084.628,1087.68Z" transform="translate(-4063.961 -1079.711)" fill="#9e562e"/>
      </g>
      <g id="Group_2091" data-name="Group 2091" transform="translate(22677.113 1084.706)">
        <path id="Path_23064" data-name="Path 23064" d="M4295.5,940.927c-.648,3.464-.74,6.058-4.11,8.413-1.518,1.06-3.855.991-6.548,1.326-13.9,1.728-26.425-19.03-30.109-22.671-2.291-2.269-8.729-7.716-10.351-7.822-.419-.028-1.537-.215-2.874-.474l-.214-.041c-1.158.036-2.417.153-3.913.185a31.3,31.3,0,0,1-3.538-.121c-6.006-.549-6.578,2.694-13.526,5.092-3.132,1.079-4.568.706-4.91-.107-.418-.991.788-2.63,2.528-3.076,3.167-.81,4.948-3.1,7.678-4.621,1.206-.674,1.709-1.247,1.877-1.694a.917.917,0,0,0-.252-1.057s-15.024,1.716-17.667-.259a1.733,1.733,0,0,1-.68-1.622c.128-.851.956-1.623,2.755-1.476,2.448.2,9.449-1.469,12.2-2.156.7-.176,1.128-.287,1.128-.287s-11.772-.709-17.357-1.1a1.4,1.4,0,0,1-1.417-1.391c-.014-.815.606-1.79,2.041-2.349,2.114-.824,6.91-.936,7.989-.806a44.1,44.1,0,0,0,8.877-.319,2.615,2.615,0,0,0,.344-.079c.243-.085-1.834-1.141-2.7-1.59-2.6-1.346-11.238-.216-11.923-1.352a3.785,3.785,0,0,1-.431-1.012c-.325-1.294.239-2.552,2.179-2.962a44.241,44.241,0,0,1,8.03-.874c2.8-.239,5.446.72,7.313,1.238a15.754,15.754,0,0,0,1.9.417c2.392.353,2.712-.417,2.712-.417s-3.338-2.65-3.859-5.968a7.3,7.3,0,0,1-.094-1.121c0-2.367,1.452-2.9,2.323-2.548,1.38.562,1.621,2.046,3.964,4.453a56.7,56.7,0,0,0,5.18,4.153c.679.543,1.344,1.1,1.984,1.645a34.018,34.018,0,0,1,10.4,10.023c2.093,3.272,8.6,5.976,12.145,8.292s21.246,11.493,24.382,13.707c3.22,2.273,5,4.294,5.93,6.156A9.31,9.31,0,0,1,4295.5,940.927Z" transform="translate(-4206.194 -886.127)" fill="#ab6138"/>
        <path id="Path_23065" data-name="Path 23065" d="M4243.326,948.919a11.528,11.528,0,0,1-2.468-.09,2.578,2.578,0,0,0,.345-.079c.243-.085-1.835-1.141-2.7-1.59-2.6-1.346-11.239-.216-11.923-1.352a3.742,3.742,0,0,1-.431-1.012,17.626,17.626,0,0,0,6.476.714c3.191-.462,7.642,1.04,8.623,2.022S4243.5,948.688,4243.326,948.919Z" transform="translate(-4221.951 -932.461)" fill="#9e562e"/>
        <path id="Path_23066" data-name="Path 23066" d="M4320.958,906.789a8.948,8.948,0,0,1-7.106-.562c2.392.353,2.711-.417,2.711-.417s-3.337-2.65-3.857-5.969a7.178,7.178,0,0,1-.1-1.121,14.674,14.674,0,0,0,3.285,4.273C4317.437,904.225,4321.164,906.583,4320.958,906.789Z" transform="translate(-4290.237 -896.072)" fill="#9e562e"/>
        <path id="Path_23067" data-name="Path 23067" d="M4223.841,983.277c.7-.176,1.129-.287,1.129-.287s-11.772-.708-17.357-1.1a1.407,1.407,0,0,1-1.418-1.392c1.252.181,3.614.49,7.089.8,5.43.481,14.3,1.012,14.3,1.012A26.079,26.079,0,0,1,4223.841,983.277Z" transform="translate(-4206.194 -960.659)" fill="#9e562e"/>
        <path id="Path_23068" data-name="Path 23068" d="M4237.542,1013.917a.917.917,0,0,0-.252-1.057s-15.024,1.716-17.667-.259a1.731,1.731,0,0,1-.679-1.621,17.229,17.229,0,0,0,8.12,1.606c6.1-.069,11.381-1.235,11.559-1.03C4238.758,1011.711,4239.959,1013.017,4237.542,1013.917Z" transform="translate(-4216.25 -984.729)" fill="#9e562e"/>
        <path id="Path_23069" data-name="Path 23069" d="M4329.472,1054.368a21.04,21.04,0,0,1-.235,5.162c-.922,7.195-5.063,8.653-8.248,8.433-4.812-.332-11.582-3.576-15.949-6.692s-9.247-9.38-12.531-12.7-7.722-6.6-7.924-6.868c-.136-.177-1.3-1.057-1.992-1.649l.03-.035c-.048.059-.26-.175-.53-.515.019-.008.01-.018-.023-.029-.562-.711-1.363-1.845-1.489-1.764-2.153,1.378-5.889,1-10.438.98-4.453-.02-8,1.092-9.534,2.408-1.753,1.5-7.541,3.786-10.613,3.318.342.813,1.778,1.186,4.911.107,6.947-2.4,7.52-5.64,13.525-5.091a31.179,31.179,0,0,0,3.543.12h0c1.5-.032,2.754-.149,3.913-.185l.214.042c1.338.259,2.456.447,2.874.474,1.622.106,8.061,5.553,10.352,7.822,3.683,3.641,16.208,24.4,30.108,22.671,2.693-.335,5.031-.266,6.548-1.326,3.37-2.355,3.462-4.949,4.111-8.413A9.317,9.317,0,0,0,4329.472,1054.368Z" transform="translate(-4240.787 -1005.839)" fill="#9e562e"/>
      </g>
    </g>
  </g>
</svg>
