<svg xmlns="http://www.w3.org/2000/svg" xmlns:xlink="http://www.w3.org/1999/xlink" width="389" height="308.579" viewBox="0 0 389 308.579">
  <defs>
    <radialGradient id="radial-gradient" cx="0.5" cy="0.5" r="0.477" gradientUnits="objectBoundingBox">
      <stop offset="0" stop-color="#ef5363"/>
      <stop offset="0.152" stop-color="#ef5766"/>
      <stop offset="0.305" stop-color="#f06371"/>
      <stop offset="0.458" stop-color="#f27783"/>
      <stop offset="0.611" stop-color="#f4939d"/>
      <stop offset="0.765" stop-color="#f8b7be"/>
      <stop offset="0.917" stop-color="#fce3e6"/>
      <stop offset="1" stop-color="#fff"/>
    </radialGradient>
    <clipPath id="clip-path">
      <path id="Path_23367" data-name="Path 23367" d="M1547.643,564.193c-.1,3.369-2.9,5.642-6.694,5.513s-5.878-2.569-5.782-5.938,3.249-6,7.044-5.866S1547.739,560.825,1547.643,564.193Z" transform="translate(-1535.163 -557.898)" fill="none"/>
    </clipPath>
    <clipPath id="clip-path-2">
      <path id="Path_23374" data-name="Path 23374" d="M1728.51,564.655c.227,3.361,3.122,5.578,6.916,5.378s5.784-2.674,5.557-6.036-3.486-5.923-7.28-5.723S1728.283,561.294,1728.51,564.655Z" transform="translate(-1728.489 -558.262)" fill="none"/>
    </clipPath>
  </defs>
  <g id="Group_3511" data-name="Group 3511" transform="translate(-765 -1359)">
    <rect id="Rectangle_603" data-name="Rectangle 603" width="389" height="298" rx="20" transform="translate(765 1359)" fill="rgba(131,248,97,0.82)" opacity="0.67"/>
    <g id="Group_2231" data-name="Group 2231" transform="translate(-361.932 1104.424)">
      <g id="Group_2200" data-name="Group 2200" transform="translate(1213.87 337.997)">
        <g id="Group_2196" data-name="Group 2196" transform="translate(0)">
          <path id="Path_23302" data-name="Path 23302" d="M1221.675,530.159s5.423,3.1,22.3,3.87c22.087,1.012,18.055-36.4,15.8-32.343-7.717,13.926-13.97,4.042-22.163,5.79-18.425,3.931-23.742,24.8-23.742,24.8Z" transform="translate(-1213.87 -501.254)" fill="#231f20"/>
          <path id="Path_23303" data-name="Path 23303" d="M1318.017,500.818c-1.74,2.929-3.854,6.053-7.092,6.976-3.923,1.118-7.866-1.438-11.91-1.268-3.492.146-6.614,2.282-9.512,4.339" transform="translate(-1272.746 -500.818)" fill="none" stroke="#231f20" stroke-width="1.292" fill-rule="evenodd"/>
          <path id="Path_23304" data-name="Path 23304" d="M1262.695,532.716a35.666,35.666,0,0,1,9.173-7.042c3.453-1.719,15.912-2.989,22.047,1.539" transform="translate(-1251.877 -518.942)" fill="none" stroke="#231f20" stroke-width="1.292" fill-rule="evenodd"/>
          <path id="Path_23305" data-name="Path 23305" d="M1300.908,631.511c6.381,1.192,12.026,2.435,16.619-2.39" transform="translate(-1281.624 -600.694)" fill="none" stroke="#231f20" stroke-width="1.292" fill-rule="evenodd"/>
          <path id="Path_23306" data-name="Path 23306" d="M1298.513,551.979c2.629.186,6.27,2.343,8.91,2.356,3.164.015,4.353-.276,7.257-.435,2.33-.127,4.362-1.515,6.184-3.038,2.786-2.33,5.379-10.222,6.383-13.7a17.874,17.874,0,0,0-.211-10.607" transform="translate(-1279.76 -520.851)" fill="none" stroke="#231f20" stroke-width="1.292" fill-rule="evenodd"/>
        </g>
        <g id="Group_2199" data-name="Group 2199" transform="translate(37.272 0.287)">
          <g id="Group_2197" data-name="Group 2197">
            <path id="Path_23307" data-name="Path 23307" d="M1386.553,513.654s-4.172-3.19-4.456-7.857c-.1-1.59,3.335-3.27,6.174-3.619a4.166,4.166,0,0,1,3.2.558c1.98,1.826.015,9.111.015,9.111l-3.563,1.3Z" transform="translate(-1382.095 -502.112)" fill="#cd1f20"/>
            <path id="Path_23308" data-name="Path 23308" d="M1387.925,513.383l-1.371.5s-4.172-3.19-4.456-7.857c-.1-1.59,3.335-3.27,6.174-3.619a9.217,9.217,0,0,0-3.459,5.521C1384.421,510.5,1386.207,512.288,1387.925,513.383Z" transform="translate(-1382.095 -502.343)" fill="#be1f20"/>
          </g>
          <g id="Group_2198" data-name="Group 2198" transform="translate(4.723 12.615)">
            <path id="Path_23309" data-name="Path 23309" d="M1404.04,560.235s-1.743,4.949.578,9.012c.79,1.384,4.583.914,7.151-.346a4.157,4.157,0,0,0,2.374-2.217c.656-2.61-4.982-7.633-4.982-7.633l-3.7.856Z" transform="translate(-1403.412 -559.05)" fill="#cd1f20"/>
            <path id="Path_23310" data-name="Path 23310" d="M1405.463,562.913l-1.423.329s-1.743,4.949.578,9.011c.79,1.384,4.583.914,7.151-.346a9.239,9.239,0,0,1-5.921-2.73C1404.112,567.242,1404.625,564.767,1405.463,562.913Z" transform="translate(-1403.412 -562.057)" fill="#be1f20"/>
          </g>
          <path id="Path_23311" data-name="Path 23311" d="M1397.109,546.413c-1.038-1.567-3.169-5.453-1.194-6.746,1.754-1.15,4.507-2.053,5.827-1.144a1.562,1.562,0,0,1,.429.434c1.037,1.568,2.817,5.062.841,6.356a16.013,16.013,0,0,1-2.034,1.144C1399.413,547.178,1397.823,547.49,1397.109,546.413Z" transform="translate(-1392.223 -530.166)" fill="#c11f20"/>
          <path id="Path_23312" data-name="Path 23312" d="M1397.109,546.413c-1.038-1.567-3.169-5.453-1.194-6.746,1.754-1.15,4.507-2.053,5.827-1.144-2.705.745-5.723,2.108-5.105,4.4a5.117,5.117,0,0,0,4.341,3.531C1399.413,547.178,1397.823,547.49,1397.109,546.413Z" transform="translate(-1392.223 -530.166)" fill="#b01f20"/>
        </g>
      </g>
      <g id="Group_2205" data-name="Group 2205" transform="translate(1350.608 330.441)">
        <g id="Group_2201" data-name="Group 2201" transform="translate(4.962)">
          <path id="Path_23313" data-name="Path 23313" d="M1888.934,505.307s-6.083,1.416-22.47-2.673c-21.453-5.352-6.881-40.048-5.887-35.514,3.408,15.552,12.229,7.871,19.579,11.891,16.529,9.04,15.65,30.561,15.65,30.561Z" transform="translate(-1854.514 -466.713)" fill="#231f20"/>
          <path id="Path_23314" data-name="Path 23314" d="M1884.1,467.5c.829,3.3,1.96,6.9,4.8,8.714,3.438,2.194,7.948.874,11.775,2.194,3.3,1.139,5.683,4.08,7.872,6.879" transform="translate(-1877.302 -467.327)" fill="none" stroke="#231f20" stroke-width="1.292" fill-rule="evenodd"/>
          <path id="Path_23315" data-name="Path 23315" d="M1917.3,521.277a35.667,35.667,0,0,0-6.774-9.373c-2.816-2.635-14.843-6.116-21.12-4.557" transform="translate(-1881.435 -498.043)" fill="none" stroke="#231f20" stroke-width="1.292" fill-rule="evenodd"/>
          <path id="Path_23316" data-name="Path 23316" d="M1903.132,609.586c-6.456-.684-12.219-1.108-15.24-7.046" transform="translate(-1880.257 -572.446)" fill="none" stroke="#231f20" stroke-width="1.292" fill-rule="evenodd"/>
          <path id="Path_23317" data-name="Path 23317" d="M1876.724,522.1c-2.572-.574-6.678.451-9.212-.293-3.036-.891-4.093-1.51-6.829-2.494-2.2-.789-3.746-2.7-5.056-4.681-2-3.029-2.228-11.333-2.195-14.956a17.878,17.878,0,0,1,3.238-10.1" transform="translate(-1853.43 -484.506)" fill="none" stroke="#231f20" stroke-width="1.292" fill-rule="evenodd"/>
        </g>
        <g id="Group_2204" data-name="Group 2204" transform="translate(0 1.257)">
          <g id="Group_2202" data-name="Group 2202" transform="translate(0 12.03)">
            <path id="Path_23318" data-name="Path 23318" d="M1842.319,528.749s.7,5.147-2.423,8.707c-1.064,1.213-4.706.081-6.977-1.606a3.989,3.989,0,0,1-1.884-2.588c-.11-2.668,6.48-6.579,6.48-6.579l3.468,1.492Z" transform="translate(-1831.034 -526.683)" fill="#cd1f20"/>
            <path id="Path_23319" data-name="Path 23319" d="M1847.608,533.418l1.335.574s.7,5.147-2.423,8.707c-1.064,1.213-4.706.081-6.977-1.606a9.562,9.562,0,0,0,6.4-1.619C1848.048,537.889,1848.052,535.379,1847.608,533.418Z" transform="translate(-1837.657 -531.926)" fill="#be1f20"/>
          </g>
          <g id="Group_2203" data-name="Group 2203" transform="translate(7.733)">
            <path id="Path_23320" data-name="Path 23320" d="M1870.462,484.244s4.767-2.379,6.008-6.891c.422-1.537-2.615-3.788-5.341-4.632a4.247,4.247,0,0,0-3.271-.022c-2.327,1.434-1.889,8.9-1.889,8.9l3.244,1.907Z" transform="translate(-1865.937 -472.384)" fill="#cd1f20"/>
            <path id="Path_23321" data-name="Path 23321" d="M1880.726,484.691l1.249.734s4.767-2.379,6.008-6.891c.423-1.537-2.614-3.788-5.341-4.632a8.86,8.86,0,0,1,2.274,6.01C1884.773,482.492,1882.644,483.926,1880.726,484.691Z" transform="translate(-1877.449 -473.566)" fill="#be1f20"/>
          </g>
          <path id="Path_23322" data-name="Path 23322" d="M1864.274,507.9c-.377,1.839-1.627,6.094-3.956,5.679-2.069-.369-4.673-1.6-4.967-3.154a1.532,1.532,0,0,1,0-.605c.378-1.838,1.6-5.573,3.929-5.157a16.028,16.028,0,0,1,2.264.564C1863.178,505.772,1864.533,506.633,1864.274,507.9Z" transform="translate(-1849.941 -497.484)" fill="#c11f20"/>
          <path id="Path_23323" data-name="Path 23323" d="M1864.374,509.992c-.377,1.839-1.627,6.095-3.956,5.679-2.069-.369-4.673-1.6-4.967-3.154,2.458,1.31,5.579,2.388,6.774.312a4.976,4.976,0,0,0-.577-5.509C1863.278,507.867,1864.633,508.728,1864.374,509.992Z" transform="translate(-1850.041 -499.579)" fill="#b01f20"/>
        </g>
      </g>
      <path id="Path_23324" data-name="Path 23324" d="M1383.207,759.9s-6.686,5.533-6.917,11.988-.692,26.973-.692,26.973l13.8-1.763,2.337-31.2Z" transform="translate(-125.896 -364.503)" fill="#8c8882"/>
      <g id="Group_2206" data-name="Group 2206" transform="translate(1218.644 385.407)">
        <path id="Path_23325" data-name="Path 23325" d="M1313.62,715.006l-6.344.058A21.826,21.826,0,0,1,1313.62,715.006Z" transform="translate(-1291.355 -714.802)" fill="#f8b294"/>
        <path id="Path_23326" data-name="Path 23326" d="M1297.137,741.641l-8.069,25.129s-9.775-.888-24.018-8.908c-1.978-1.114-4.046-2.365-6.183-3.772-9.826-6.464-17.521-12.91-22.823-24.437-2.2-4.786,1.7-5.639,6.916-9.452a19.208,19.208,0,0,1,7.3-3.3l12.281,6.979q1.366-1.49,2.907-3.35a73.7,73.7,0,0,0,5.805,6.363c4.32,4.233,10,8.841,15.508,10.833C1297.6,741.641,1297.137,741.641,1297.137,741.641Z" transform="translate(-1235.417 -716.433)" fill="#f8b294"/>
        <path id="Path_23327" data-name="Path 23327" d="M1401.254,776.746l-8.069,25.129s-9.775-.888-24.018-8.908c1.969-1.662,4.253-5.388,5.321-13.685a112.085,112.085,0,0,0,.883-17.288c4.32,4.233,10,8.841,15.508,10.833C1401.715,776.746,1401.254,776.746,1401.254,776.746Z" transform="translate(-1339.534 -751.538)" fill="#f09771"/>
      </g>
      <g id="Group_2208" data-name="Group 2208" transform="translate(1345.773 431.915)">
        <path id="Path_23328" data-name="Path 23328" d="M1809.214,939.874c1.024,1.094,3.649,8.529,6.259,13.992.7,1.45,1.554,2.652,2.053,3.772,2.217,4.969,5.08,13.635,6.084,16.961,1.8,5.957,20.391-10.425,20.391-10.425-.966-4.059-1.632-11.072-5.663-21.311-2.787-7.08-5.065-16.7-6.634-18.153C1831.706,924.711,1810.772,940.727,1809.214,939.874Z" transform="translate(-1809.214 -924.711)" fill="#f09771"/>
        <g id="Group_2207" data-name="Group 2207" transform="translate(12.051 23.034)">
          <path id="Path_23329" data-name="Path 23329" d="M1912.792,1124.946c-.63.5-1.811.189-2.834-.623a16.838,16.838,0,0,1-3.322-3.913l-.011-.022c-.259-.4-.456-.741-.582-.963,1.336,2.6,4.349,8.055,3.635,11.185a4.825,4.825,0,0,1-.584,1.484c-1.067,1.706-2.882,1.339-3.075-.9-.311-3.515-3.681-9.669-4.382-10.912a.006.006,0,0,0,0-.007c-.053-.1-.091-.163-.111-.193.149.465,2.724,8.45,2.44,12.952-.11,1.712-.5,2.683-.987,3.077-1.006.8-2.455-.879-2.79-3.66-.4-3.341-2.376-7.986-3.11-9.626.1.261.213.6.331,1.031a22.729,22.729,0,0,1,.359,8.729c-.36,2.9-1.191,3.884-2.042,4.033a1.876,1.876,0,0,1-1.166-.214,2.109,2.109,0,0,1-1.135-2.254,19.57,19.57,0,0,0-.207-7.026c-.9-4.322-4.084-6.256-6.121-8.113-1.219-1.118-1.922-.39-2.592,1.3-.446,1.12-.874,2.662-1.437,4.376-1.412,4.3-4.423,4.764-4.468,1.945-.122-7.981.069-8.673.532-22.769s-17.9-52.815-15.266-66.555c0,0,16.142-10.114,17.978-8.45,1.061.957,2.546,7.206,4.758,15.271a91.536,91.536,0,0,1,3.288,19.291c1.052,22.06,4.693,36.05,6.646,38.455,2.468,3.042,8.26,8.674,9.572,11.269.34.672,1.7,2,3.066,4.287,1.712,2.866,4.245,5.031,4.057,6.633A1.276,1.276,0,0,1,1912.792,1124.946Z" transform="translate(-1863.604 -1028.672)" fill="#fab58d"/>
          <path id="Path_23330" data-name="Path 23330" d="M2017.594,1460.942c-1.006.8-2.455-.879-2.79-3.66-.4-3.341-2.376-7.986-3.11-9.626.1.26-.124-.192-.416-.679-1.406-2.367.5-.846.5-.846-.068.207,2.443,3.059,3.115,6.391s.979,7.467,1.9,7.492C2017.094,1460.024,2017.37,1460.416,2017.594,1460.942Z" transform="translate(-1978.157 -1353.265)" fill="#f09771"/>
          <path id="Path_23331" data-name="Path 23331" d="M1968.836,1438.9a1.876,1.876,0,0,1-1.166-.214,2.108,2.108,0,0,1-1.135-2.254,19.573,19.573,0,0,0-.207-7.026c-.9-4.322-4.084-6.256-6.121-8.113-1.219-1.118-1.922-.39-2.592,1.3a20.346,20.346,0,0,0-.025-5.23c-.117-.793-1.2-1.926,4.807,3.376s5.48,10.3,5.228,13.331A9.013,9.013,0,0,0,1968.836,1438.9Z" transform="translate(-1936.65 -1330.712)" fill="#f09771"/>
          <path id="Path_23332" data-name="Path 23332" d="M2041.7,1449.3c-1.067,1.706-2.882,1.339-3.075-.9-.311-3.515-3.68-9.669-4.382-10.912a.006.006,0,0,0,0-.007c-.287-1.017-.438-1.657-.346-1.627a20.341,20.341,0,0,1,3.4,5.9,62.185,62.185,0,0,1,2.615,7.589C2040.086,1449.94,2040.866,1449.732,2041.7,1449.3Z" transform="translate(-1996.141 -1345.637)" fill="#f09771"/>
          <path id="Path_23333" data-name="Path 23333" d="M2061.727,1439.349c-.63.5-1.811.189-2.834-.623a16.835,16.835,0,0,1-3.322-3.913l-.011-.022c-.589-1.182-.927-2.21-.571-2.539,0,0,2.5,4.813,5.2,6.068A5.072,5.072,0,0,1,2061.727,1439.349Z" transform="translate(-2012.473 -1342.835)" fill="#f09771"/>
        </g>
      </g>
      <g id="Group_2211" data-name="Group 2211" transform="translate(1249.703 395.399)">
        <path id="Path_23334" data-name="Path 23334" d="M1501.939,802.089c-1.575,4.754-3.228,5.763-7.149,9.912a26.986,26.986,0,0,1-7.374,5.538,28.461,28.461,0,0,1-8.013,2.628c-.01,0,.754,12.292.887,14.24.187,2.723.961,9.182,1.647,14.575.486,3.833.928,7.13,1.078,8.163.072.513.091,5.557.081,10.725-.009,5.5-.047,11.143-.081,11.631-1.757,23.568-64.246,24.214-87.114,6.951-.025-.019-.053-.036-.076-.055-5.381-4.079.323-14.187.957-19.775.129-1.127.259-2.364.393-3.687.371-3.7.739-7.909,1.07-12.234.762-10,1.333-20.61,1.333-26.941,0-6.917-.454-13.809-3.92-17.753-3.6-4.1-11.988-3.689-20.056-7.147,0,0,1.418-2.683,3.042-5.907a93.847,93.847,0,0,0,4.565-10c2.537-8.3-1.384-19.826,0-23.055.047-.112,22.817,7.565,23.592,7.325,1.246-.384,2.562-.724,3.935-1.034a90.072,90.072,0,0,1,9.091-1.5,154.011,154.011,0,0,1,30.9-.348c1.77.2,3.528.422,5.277.675.66.093,1.318.193,1.98.3,2.052.333,4.1.728,6.138,1.223q2.222.538,4.449,1.248c4.946,1.594,8.683.628,20.871,16.566C1491.278,786.756,1501.939,802.089,1501.939,802.089Z" transform="translate(-1375.603 -759.898)" fill="#d0c9c0"/>
        <path id="Path_23335" data-name="Path 23335" d="M1412.254,876.994c0,3.183-1.273,26.531-1.7,26.956a16.867,16.867,0,0,1-12.31,5.642c.762-10,1.333-20.609,1.333-26.941,0-6.917-.454-13.809-3.92-17.753-3.6-4.1-11.988-3.689-20.056-7.147,0,0,1.418-2.683,3.042-5.907,0,0,10.5,6.756,16.842,7.108s10.824.212,13.372-21.65C1410.188,825.892,1412.254,873.81,1412.254,876.994Z" transform="translate(-1375.603 -818.789)" fill="#c4beb5"/>
        <path id="Path_23336" data-name="Path 23336" d="M1813.184,914.734c.187,2.723.961,9.182,1.647,14.575a22.233,22.233,0,0,1-5.372-2.224s-4.033-6.58-4.882-10.188-.849-24.621-1.274-27.8,1.5-26,1.5-26a125.468,125.468,0,0,0,4.657,21.97c2.14,6.554,7.316,10.666,10.85,12.807a28.456,28.456,0,0,1-8.013,2.628C1812.286,900.5,1813.051,912.786,1813.184,914.734Z" transform="translate(-1708.495 -840.226)" fill="#c4beb5"/>
        <path id="Path_23337" data-name="Path 23337" d="M1542.838,927.452c-2.659,5.539-11.078,6.425-27.916,8.2-13.149,1.384-62.629-.334-64.7-6.2-4.008-11.385-1.658-38.707-.044-53,.628-5.56,1.185-19.571,3-21.671,5.763-6.679,10.667-20.19,10.835-25.36.267-8.173.838-9.47.753-17.576-.1-9.8-.45-20.867-2.114-28.814a10.854,10.854,0,0,1-.2-1.454c.29-1.384,2.521-1.725,5.371-2.269,2.639-.5,5.355-.412,6.256.7a1.322,1.322,0,0,1,.283.591,85.779,85.779,0,0,1,1.256,9.937c.879,10.978,1.345,16.925,1.327,22.32,0,1.285,36.469.729,39.2,1.053,1.908.228.876-14.448.6-16.851a124.777,124.777,0,0,0-3.25-16.773c-.141-.549,1.572-.752,4.288-.4,1.107.141,7.033,1.611,7.382,3.263a2,2,0,0,0,.12.366,48.42,48.42,0,0,1,2.783,11.913c.192,2.15.578,5.919.689,8.02.2,3.8-.019,8.509.045,13.126.046,3.323.3,7.9.4,10.849.105,2.913-.273,5.827.15,8.568,1.514,9.8,3.679,12.963,6.125,17.177,3.988,6.873,5.16,3.026,6.224,10.835C1546.549,899.5,1545.832,921.215,1542.838,927.452Z" transform="translate(-1431.971 -774.776)" fill="#5f7161"/>
        <g id="Group_2209" data-name="Group 2209" transform="translate(36.597 41.223)">
          <ellipse id="Ellipse_144" data-name="Ellipse 144" cx="5.613" cy="5.433" rx="5.613" ry="5.433" transform="translate(0 1.105)" fill="#546356"/>
          <path id="Path_23338" data-name="Path 23338" d="M1555.152,951.875a5.562,5.562,0,0,1-6.091,4.928,5.49,5.49,0,0,1-5.09-5.9,5.159,5.159,0,0,1,.306-1.343,5.627,5.627,0,0,1,5.791-3.579,5.506,5.506,0,0,1,5.108,5.321C1555.175,951.492,1555.17,951.684,1555.152,951.875Z" transform="translate(-1543.246 -945.957)" fill="#d0c6c8"/>
          <path id="Path_23339" data-name="Path 23339" d="M1555.152,964.528a5.562,5.562,0,0,1-6.091,4.928,5.49,5.49,0,0,1-5.09-5.9,5.16,5.16,0,0,1,.306-1.342c.9,2.176,2.3,5.594,4.684,5.8,2.536.221,4.894-1.892,6.215-4.06C1555.175,964.145,1555.17,964.337,1555.152,964.528Z" transform="translate(-1543.246 -958.61)" fill="#c9c0c3"/>
        </g>
        <g id="Group_2210" data-name="Group 2210" transform="translate(82.355 42.061)">
          <ellipse id="Ellipse_145" data-name="Ellipse 145" cx="5.613" cy="5.433" rx="5.613" ry="5.433" transform="translate(0 0.822)" fill="#546356"/>
          <path id="Path_23340" data-name="Path 23340" d="M1761.584,955.658a5.562,5.562,0,0,1-6.091,4.928,5.485,5.485,0,0,1-5.084-5.9,5.208,5.208,0,0,1,.232-1.133,5.689,5.689,0,0,1,10.145-1.213A5.277,5.277,0,0,1,1761.584,955.658Z" transform="translate(-1749.705 -949.741)" fill="#d0c6c8"/>
          <path id="Path_23341" data-name="Path 23341" d="M1761.584,964.785a5.562,5.562,0,0,1-6.091,4.928,5.485,5.485,0,0,1-5.084-5.9,5.208,5.208,0,0,1,.232-1.133,5.155,5.155,0,0,0,2.256,3.9c3.083,1.993,6.39-.311,7.016-1.352a14.669,14.669,0,0,0,.873-3.757A5.277,5.277,0,0,1,1761.584,964.785Z" transform="translate(-1749.705 -958.867)" fill="#c9c0c3"/>
        </g>
      </g>
      <g id="Group_2212" data-name="Group 2212" transform="translate(1294.953 389.191)">
        <path id="Path_23342" data-name="Path 23342" d="M1579.838,746.944c-.065,7.5,18.97,7.657,23.8,6.871,8.487-1.382,11.5-5.356,11.53-6.922.057-3.2-2.847-3.976-3.964-5.744a2.623,2.623,0,0,1-.424-1.2c-.061-.629-.242-1.582-.291-2.216-.06-.8-.546-4.071-.591-4.81-5.664.554-22.4-.851-23.587-1.037a52.48,52.48,0,0,1,.112,6.111C1585.077,742.138,1579.855,744.2,1579.838,746.944Z" transform="translate(-1579.838 -731.881)" fill="#fab58d" fill-rule="evenodd"/>
        <path id="Path_23343" data-name="Path 23343" d="M1579.839,746.944c11.078,3.429,23.89-1.809,31.365-5.8a2.623,2.623,0,0,1-.424-1.2c-.061-.629-.242-1.582-.291-2.216-.061-.8-.546-4.071-.591-4.81-5.664.554-22.4-.851-23.587-1.037a52.456,52.456,0,0,1,.112,6.111C1585.078,742.138,1579.856,744.2,1579.839,746.944Z" transform="translate(-1579.839 -731.881)" fill="#f28f64"/>
      </g>
      <g id="Group_2229" data-name="Group 2229" transform="translate(1258.87 291.656)">
        <g id="Group_2213" data-name="Group 2213" transform="translate(0)">
          <path id="Path_23344" data-name="Path 23344" d="M1625.85,296.972a15.469,15.469,0,0,1,23.019-.36" transform="translate(-1579.572 -291.656)" fill="none" stroke="#231f20" stroke-width="1.436" fill-rule="evenodd"/>
          <path id="Path_23345" data-name="Path 23345" d="M1429.9,335.755c2.745-6.657,5.535-13.393,9.9-19.182s10.552-10.624,17.827-11.961c6.681-1.228,13.517.562,20.066,2.337" transform="translate(-1427.037 -301.426)" fill="none" stroke="#231f20" stroke-width="1.436" fill-rule="evenodd"/>
          <path id="Path_23346" data-name="Path 23346" d="M1422.366,415.906a114.637,114.637,0,0,1-4.542-15.623,38.067,38.067,0,0,1,.036-16.126c1.97-8.044,7.339-14.907,13.22-20.9" transform="translate(-1416.977 -347.391)" fill="none" stroke="#231f20" stroke-width="1.436" fill-rule="evenodd"/>
          <path id="Path_23347" data-name="Path 23347" d="M1747.377,307.719c4.261,2.424,9.059,3.81,13.5,5.915s8.716,5.186,10.507,9.645c.727,1.81,1.01,3.768,1.785,5.56.85,1.963,2.262,3.656,3.15,5.6a14.638,14.638,0,0,1,.428,10.142,29.234,29.234,0,0,1-4.926,9.134" transform="translate(-1674.174 -304.16)" fill="none" stroke="#231f20" stroke-width="1.436" fill-rule="evenodd"/>
          <path id="Path_23348" data-name="Path 23348" d="M1853.927,441.512c2.105,7.788,3.437,17.855-5.46,24.546" transform="translate(-1752.867 -408.31)" fill="none" stroke="#231f20" stroke-width="1.436" fill-rule="evenodd"/>
          <path id="Path_23349" data-name="Path 23349" d="M1467.981,297.485c-2.08,1.3-29.528-9.954-43.756,25.563-5.419,13.527-1.481,22.311-1.12,29.577.906,18.225,13.17,32.246,18.986,31.539,12.9-1.568,55.869,2.177,66.223-2.212s.365-15.362,10.434-33.971c6.185-11.429,7.288-26.552-4.511-38.719C1505.65,300.41,1484.978,286.861,1467.981,297.485Z" transform="translate(-1420.409 -293.164)" fill="#231f20"/>
        </g>
        <g id="Group_2214" data-name="Group 2214" transform="translate(86.458 65.015)">
          <path id="Path_23350" data-name="Path 23350" d="M1810.042,603.937a11.352,11.352,0,0,0,3.421-.539c.15-.042.3-.087.463-.136,4.226-1.3,9.129-9.846,6.23-15.149-.077-.145-.162-.288-.253-.428a6.614,6.614,0,0,0-1.309-1.471c-.105-.086-.2-.167-.307-.243,0,0-.005,0-.006-.005-5.589-4.132-9.458,7.872-9.458,7.872a28.727,28.727,0,0,0-1.6,6.468,6.255,6.255,0,0,0-.008.853A2.622,2.622,0,0,0,1810.042,603.937Z" transform="translate(-1807.203 -585.101)" fill="#fab58d"/>
          <path id="Path_23351" data-name="Path 23351" d="M1820.793,609.308c5.185-2.659,4.924-6.281,5.6-8.025,1.2-3.089-1.933-7.664-4.718-4.283a7.026,7.026,0,0,0-.478.651,9.052,9.052,0,0,0-1.324,5.025c-.012,1.488.105,2.4-1.5,3.746a3.289,3.289,0,0,0-.3.286C1816.5,608.4,1817.025,611.243,1820.793,609.308Z" transform="translate(-1815.019 -593.436)" fill="#fa9467"/>
          <path id="Path_23352" data-name="Path 23352" d="M1820.016,606.868a11.354,11.354,0,0,0,3.422-.539,3.666,3.666,0,0,1,.444-.167c4.219-1.293,9.109-9.813,6.249-15.118-.077-.145-.162-.288-.254-.428a6.618,6.618,0,0,0-1.327-1.5c-.107-.089-.209-.17-.313-.249.008.014.017.023.025.037a9.515,9.515,0,0,1,2,5.762c-.281,3.661-4.1,9.218-4.1,9.218s-1.967,2.11-4.085,2.146A2.812,2.812,0,0,0,1820.016,606.868Z" transform="translate(-1817.177 -588.032)" fill="#f08659"/>
          <path id="Path_23353" data-name="Path 23353" d="M1820.342,615.468a5.761,5.761,0,0,0,2.621-4.055,14.411,14.411,0,0,0-.007-6.4c-.15-.542-.585-.591-.814-.885a9.051,9.051,0,0,0-1.324,5.025c-.012,1.488.105,2.4-1.5,3.746-.109.091-.453.482-.546.581C1817.687,614.79,1819.686,615.849,1820.342,615.468Z" transform="translate(-1815.965 -599.909)" fill="#f0723c"/>
        </g>
        <g id="Group_2215" data-name="Group 2215" transform="translate(2.457 65.991)">
          <path id="Path_23354" data-name="Path 23354" d="M1442.685,605.907a11.358,11.358,0,0,1-3.431.481c-.156,0-.318.006-.484,0-4.43-.007-11.728-6.742-10.585-12.646.029-.161.066-.322.111-.482a6.5,6.5,0,0,1,.8-1.784c.074-.113.144-.219.219-.321,0,0,0,0,0-.007,4.07-5.57,11.438,4.763,11.438,4.763a29.213,29.213,0,0,1,3.509,5.708,6.347,6.347,0,0,1,.269.812A2.578,2.578,0,0,1,1442.685,605.907Z" transform="translate(-1428.066 -589.504)" fill="#fab58d"/>
          <path id="Path_23355" data-name="Path 23355" d="M1446.62,612.082c-5.763-1.029-6.623-4.563-7.8-6.031-2.09-2.6-.5-7.877,3.192-5.46a7.192,7.192,0,0,1,.655.482,9.2,9.2,0,0,1,2.8,4.411c.467,1.417.635,2.322,2.574,3.14a3.353,3.353,0,0,1,.375.186C1450.438,609.966,1450.81,612.833,1446.62,612.082Z" transform="translate(-1435.712 -597.654)" fill="#fa9467"/>
          <path id="Path_23356" data-name="Path 23356" d="M1442.709,611.574a11.356,11.356,0,0,1-3.43.481,3.7,3.7,0,0,0-.475-.031c-4.422-.007-11.7-6.716-10.593-12.611.029-.161.066-.322.111-.482a6.488,6.488,0,0,1,.807-1.82c.075-.115.148-.223.223-.328,0,.015-.009.027-.012.042a9.443,9.443,0,0,0-.144,6.081c1.389,3.412,6.738,7.6,6.738,7.6s2.524,1.442,4.556.86A2.838,2.838,0,0,1,1442.709,611.574Z" transform="translate(-1428.091 -595.17)" fill="#f08659"/>
          <path id="Path_23357" data-name="Path 23357" d="M1462.867,615.241a5.886,5.886,0,0,1-3.743-3.108,14.506,14.506,0,0,1-1.955-6.114c-.023-.56.377-.734.506-1.082a9.2,9.2,0,0,1,2.8,4.411c.468,1.417.635,2.322,2.574,3.14.132.055.58.328.7.4C1465.194,613.821,1463.61,615.413,1462.867,615.241Z" transform="translate(-1450.721 -601.518)" fill="#f0723c"/>
        </g>
        <g id="Group_2216" data-name="Group 2216" transform="translate(11.877 12.301)">
          <path id="Path_23358" data-name="Path 23358" d="M1553.019,371.789a105.563,105.563,0,0,0-1.373,12.026q-.105,1.643-.175,3.3c-.006.19-.01.388-.016.577q-.105,2.776-.113,5.575-.008,1.758.008,3.53c0,.252.005.5.01.757q.022,2.017.071,4.048c.316,12.812-7.217,33.911-32.339,36.231-34.986,3.235-38.455-14.635-44.835-24.866l-.2-.312c-.119-.187-.231-.367-.343-.547a15.382,15.382,0,0,1-2.227-5.164c-.01-.045-.02-.09-.033-.13l-.01-.032c-1.81-7.072-2.044-21.433,12.431-44.474C1505.744,327.505,1554.7,362.329,1553.019,371.789Z" transform="translate(-1470.585 -347.175)" fill="#fab58d"/>
          <path id="Path_23359" data-name="Path 23359" d="M1483.879,362.31c-14.475,23.042-14.241,37.4-12.431,44.474.017.052.029.1.043.162a15.382,15.382,0,0,0,2.227,5.164c.112.18.224.36.343.547l.2.312c6.38,10.231,9.849,28.1,44.835,24.866,25.122-2.321,32.655-23.419,32.339-36.231-.031-1.353.154-4.229.14-5.574l-.222.211c-.007-.993-.011-1.986-.006-2.972q.01-2.8.113-5.575c.006-.19.01-.387.016-.577q.067-1.658.175-3.3a105.563,105.563,0,0,1,1.373-12.026C1554.7,362.329,1505.744,327.505,1483.879,362.31Zm65.26,36.663a1.151,1.151,0,0,0,.152-.085c-.383,2.276-.222,9.423-2.183,15.793-2.413,7.839-5.742,10.854-9.551,14.433-4.216,3.962-17.7,6.294-26.355,6.458s-16.192-1.331-24.373-7.1c-7.842-5.526-13.086-20.325-13.27-21.555-.114-4.283-.287-9.323-.839-11.033-.817-2.53,14.088-15.048,15.2-15.386,2.726-.825-1.9,8.29,4.017,3.047s14.755-19.157,14.755-19.157c4.469,5.849,11.895,10.292,21.72,10.908s17.769,4.642,20.61,11.982A17.74,17.74,0,0,1,1549.139,398.973Z" transform="translate(-1470.585 -347.175)" fill="#f36f51" fill-rule="evenodd" opacity="0.4"/>
        </g>
        <path id="Path_23360" data-name="Path 23360" d="M1739.377,513.637a26.583,26.583,0,0,1,11.725,3.424" transform="translate(-1667.946 -464.455)" fill="none" stroke="#692700" stroke-width="1.411"/>
        <path id="Path_23361" data-name="Path 23361" d="M1546.081,512.959a26.533,26.533,0,0,0-11.623,3.729" transform="translate(-1508.429 -463.927)" fill="none" stroke="#692700" stroke-width="1.411"/>
        <path id="Path_23362" data-name="Path 23362" d="M1534.092,616.027a11.507,11.507,0,0,1-12.828,10.094,11.629,11.629,0,0,1-10.235-12.806,11.506,11.506,0,0,1,12.827-10.093A11.628,11.628,0,0,1,1534.092,616.027Z" transform="translate(-1490.134 -534.129)" opacity="0.3" fill="url(#radial-gradient)" style="mix-blend-mode: multiply;isolation: isolate"/>
        <path id="Path_23363" data-name="Path 23363" d="M1717.022,614.137a11.507,11.507,0,0,1-12.828,10.093,11.628,11.628,0,0,1-10.235-12.806,11.506,11.506,0,0,1,12.827-10.093A11.628,11.628,0,0,1,1717.022,614.137Z" transform="translate(-1632.534 -532.657)" opacity="0.3" fill="url(#radial-gradient)" style="mix-blend-mode: multiply;isolation: isolate"/>
        <g id="Group_2221" data-name="Group 2221" transform="translate(24.017 56.689)">
          <ellipse id="Ellipse_146" data-name="Ellipse 146" cx="6.411" cy="7.16" rx="6.411" ry="7.16" transform="translate(0.77 12.901) rotate(-86.757)" fill="#f08659"/>
          <path id="Path_23364" data-name="Path 23364" d="M1545.444,560.822c-.1,3.469-3.057,6.189-7.017,6.054s-6.764-2.816-6.666-6.285,3.388-6.171,7.347-6.036S1545.543,557.353,1545.444,560.822Z" transform="translate(-1530.345 -552.993)" fill="#494746"/>
          <g id="Group_2219" data-name="Group 2219" transform="translate(2.169 2.299)">
            <g id="Group_2218" data-name="Group 2218" clip-path="url(#clip-path)">
              <path id="Path_23365" data-name="Path 23365" d="M1547.643,564.193c-.1,3.369-2.9,5.642-6.694,5.513s-5.878-2.569-5.782-5.938,3.249-6,7.044-5.866S1547.739,560.825,1547.643,564.193Z" transform="translate(-1535.163 -557.898)" fill="#fff"/>
              <g id="Group_2217" data-name="Group 2217" transform="translate(0.771 0.947)">
                <path id="Path_23366" data-name="Path 23366" d="M1543.26,568.352a4.4,4.4,0,0,0,5.8,2.914,4.648,4.648,0,1,0-2.947-8.795A4.427,4.427,0,0,0,1543.26,568.352Z" transform="translate(-1542.006 -562.174)" fill="#494746"/>
                <ellipse id="Ellipse_147" data-name="Ellipse 147" cx="1.35" cy="1.362" rx="1.35" ry="1.362" transform="matrix(0.695, -0.719, 0.719, 0.695, 0, 3.417)" fill="#fff"/>
              </g>
            </g>
          </g>
          <g id="Group_2220" data-name="Group 2220">
            <path id="Path_23368" data-name="Path 23368" d="M1525.375,567.066a14.97,14.97,0,0,1,2.035,1.564" transform="translate(-1525.375 -562.736)" fill="none" stroke="#494746" stroke-width="1.389"/>
            <path id="Path_23369" data-name="Path 23369" d="M1576.291,547.521a14.272,14.272,0,0,1-.927,2.35" transform="translate(-1564.288 -547.521)" fill="none" stroke="#494746" stroke-width="1.389"/>
            <path id="Path_23370" data-name="Path 23370" d="M1547.975,549.679a5.84,5.84,0,0,1,.6,1.844" transform="translate(-1542.968 -549.201)" fill="none" stroke="#494746" stroke-width="1.389"/>
          </g>
        </g>
        <g id="Group_2226" data-name="Group 2226" transform="translate(68.144 56.639)">
          <ellipse id="Ellipse_148" data-name="Ellipse 148" cx="6.405" cy="7.166" rx="6.405" ry="7.166" transform="translate(0 13.379) rotate(-89.667)" fill="#f08659"/>
          <path id="Path_23371" data-name="Path 23371" d="M1726.357,561.266c.234,3.461,3.3,6.121,7.259,5.912s6.662-2.938,6.428-6.4-3.632-6.1-7.59-5.888S1726.123,557.806,1726.357,561.266Z" transform="translate(-1725.943 -553.2)" fill="#494746"/>
          <g id="Group_2224" data-name="Group 2224" transform="translate(0.874 2.43)">
            <g id="Group_2223" data-name="Group 2223" clip-path="url(#clip-path-2)">
              <path id="Path_23372" data-name="Path 23372" d="M1728.51,564.655c.227,3.361,3.122,5.578,6.916,5.378s5.784-2.674,5.557-6.036-3.486-5.923-7.28-5.723S1728.283,561.294,1728.51,564.655Z" transform="translate(-1728.489 -558.262)" fill="#fff"/>
              <g id="Group_2222" data-name="Group 2222" transform="translate(0.382 0.734)">
                <path id="Path_23373" data-name="Path 23373" d="M1736.416,562.511a4.35,4.35,0,0,1,6.371,1.074,4.806,4.806,0,0,1-.82,6.8,4.67,4.67,0,0,1-6.593-1.389A4.473,4.473,0,0,1,1736.416,562.511Z" transform="translate(-1733.496 -561.576)" fill="#494746"/>
                <ellipse id="Ellipse_149" data-name="Ellipse 149" cx="1.345" cy="1.367" rx="1.345" ry="1.367" transform="translate(0 3.164) rotate(-32.455)" fill="#fff"/>
              </g>
            </g>
          </g>
          <g id="Group_2225" data-name="Group 2225" transform="translate(1.467)">
            <path id="Path_23375" data-name="Path 23375" d="M1731.166,550.4a14.437,14.437,0,0,1,1.232,2.214" transform="translate(-1731.166 -549.713)" fill="none" stroke="#494746" stroke-width="1.389"/>
            <path id="Path_23376" data-name="Path 23376" d="M1780.353,554.969a14.587,14.587,0,0,1-1.55,2.019" transform="translate(-1768.249 -553.269)" fill="none" stroke="#494746" stroke-width="1.389"/>
            <path id="Path_23377" data-name="Path 23377" d="M1760.52,547.3a5.8,5.8,0,0,1,.091,1.932" transform="translate(-1754.016 -547.297)" fill="none" stroke="#494746" stroke-width="1.389"/>
          </g>
        </g>
        <path id="Path_23378" data-name="Path 23378" d="M1649.424,600.587c1.744-.753,2.507-2.338,2.247-3.036a2.576,2.576,0,0,0-2-1.676,5.744,5.744,0,0,0-4.262,1.185,9.7,9.7,0,0,1-.274-3.221,13.036,13.036,0,0,1,.809-3.314" transform="translate(-1594.553 -524.307)" fill="none" stroke="#bd5b32" stroke-width="2.117"/>
        <g id="Group_2227" data-name="Group 2227" transform="translate(42.039 83.457)">
          <path id="Path_23379" data-name="Path 23379" d="M1629.741,672.534a10.067,10.067,0,0,1-1.487,2.255c-.141.154-.277.307-.428.456-.213.222-.437.433-.669.634-.115.1-.236.2-.357.3-.084.074-.174.141-.268.209a13.094,13.094,0,0,1-10.368,2.266,13.521,13.521,0,0,1-4.649-1.487c-.087-.054-.166-.11-.24-.167a11.439,11.439,0,0,1-3.892-5.106c-1.182-3.285-1.118-4.485,2.915-2.792.086.034.163.065.245.1,6.252,2.526,12.479,1.394,17.667-.17.442-.135.879-.268,1.3-.407C1631.712,667.913,1630.192,671.586,1629.741,672.534Z" transform="translate(-1606.717 -668.335)" fill="#b61924" fill-rule="evenodd"/>
          <path id="Path_23380" data-name="Path 23380" d="M1641.663,671.469a3.06,3.06,0,0,1-.452,1.3c-1.142,1.365-2.847,2.1-9.013,2.334-4.391.169-7.177-.869-7.958-2.477a2.2,2.2,0,0,1-.241-.991C1630.244,674.163,1636.476,673.032,1641.663,671.469Z" transform="translate(-1620.169 -670.775)" fill="#fefefe" fill-rule="evenodd"/>
          <path id="Path_23381" data-name="Path 23381" d="M1641.663,671.469a5.808,5.808,0,0,1-.452,1.3,31.37,31.37,0,0,1-11.118,1.153,16.033,16.033,0,0,1-5.853-1.3,2.2,2.2,0,0,1-.241-.991C1630.244,674.163,1636.476,673.032,1641.663,671.469Z" transform="translate(-1620.169 -670.775)" fill="#dedede" fill-rule="evenodd"/>
          <path id="Path_23382" data-name="Path 23382" d="M1643.841,695.818c-.213.221-.437.433-.669.634-.115.1-.236.2-.357.3-.084.074-.174.141-.268.209a13.094,13.094,0,0,1-10.368,2.267,13.521,13.521,0,0,1-4.649-1.487c-.087-.054-.166-.11-.24-.167C1629.836,694.98,1639.641,693.725,1643.841,695.818Z" transform="translate(-1622.732 -688.909)" fill="#e8353e" fill-rule="evenodd"/>
        </g>
        <g id="Group_2228" data-name="Group 2228" transform="translate(3.327 8.916)">
          <path id="Path_23383" data-name="Path 23383" d="M1476.623,349.7c12.879,14.032,22.053,4.8,31.8,12.058,11.151,8.3,16.178,12.921,16.178,12.921s5.577-32.343-12.085-37.428-38.465-9.894-59.505,2.374c-20.8,12.13-21.016,52.082-21.016,52.082s3.767-8.772,16.958-19.2a134.253,134.253,0,0,0,22.166-22.572s-3.253,4.628-9.833,16.789c-3.116,5.759,6.629-2.053,11.616-11.268C1476.6,348.614,1476.623,349.7,1476.623,349.7Z" transform="translate(-1431.995 -331.9)" fill="#292425"/>
          <path id="Path_23384" data-name="Path 23384" d="M1459.987,433.414a14.6,14.6,0,0,0,5.838-3.118,110.959,110.959,0,0,0,28.154-31.806" transform="translate(-1453.785 -383.736)" fill="none" stroke="#231f20" stroke-width="1.436" fill-rule="evenodd"/>
          <path id="Path_23385" data-name="Path 23385" d="M1628.544,401.544c2.388,4.058,5.013,8.34,9.327,10.43,3.812,1.846,8.279,1.655,12.538,1.817,6.6.251,13.647,1.707,18.11,6.416" transform="translate(-1584.997 -386.114)" fill="none" stroke="#231f20" stroke-width="1.436" fill-rule="evenodd"/>
        </g>
        <line id="Line_1" data-name="Line 1" x1="2.694" y2="8.936" transform="translate(78.26 30.171)" fill="none" stroke="#cd1f20" stroke-linecap="round" stroke-width="21.172"/>
        <line id="Line_2" data-name="Line 2" x1="2.694" y2="8.936" transform="translate(73.603 28.811)" fill="none" stroke="#cd1f20" stroke-linecap="round" stroke-width="21.172"/>
      </g>
      <g id="Group_2230" data-name="Group 2230" transform="translate(1217.401 312.397)">
        <path id="Path_23386" data-name="Path 23386" d="M1524.4,429.405c2.1,3.1,4.8,7.864,10.284,8.333,7.081.606,9.738-.664,12.625-2.287,2.743-1.541,9.962,1.476,11.38-.132,2.284-2.592-9.163-6.61-10.134-7.174S1524.4,429.405,1524.4,429.405Z" transform="translate(-1459.128 -418.561)" fill="#f08355"/>
        <path id="Path_23387" data-name="Path 23387" d="M1344.1,396.89c-.367,1.826-3.1.775-8.078.491s-7.725,1.042-11.529.682c-7.99-.756-13.141,1.123-17.355,2.524a20.784,20.784,0,0,1-6.049,1.356c-2.67.051-5.381,3.105-8.417,7.891-2.8,4.41-5.879,10.3-9.464,16.654-5.6,9.943-9.823,20.041-18.943,31.893-.037.046-.072.094-.108.141-.146.187-.288.371-.429.556q-1.387,1.781-2.647,3.294-1.542,1.864-2.907,3.35c-4.7,5.143-7.857,7.138-9.983,7.234-4.078.184-8.445,10.257-14.383,2.425-10.529-13.885,2.755-25.417,5.316-30.3,3.894-7.43,36.236-55.457,47.881-57.727,0,0,14.9-2.976,24.928-1.814,13.413,1.554,17.922,2.813,21.692,3.105s10.649,1.183,10.381,3.467c-.251,2.123-2.423,2.13-2.983,2.1C1341.682,394.274,1344.548,394.689,1344.1,396.89Z" transform="translate(-1229.808 -385.269)" fill="#f8b294"/>
        <path id="Path_23388" data-name="Path 23388" d="M1346.325,714.95q-1.386,1.781-2.646,3.294a13.389,13.389,0,0,0-1.994-1.939c-.692-.692-2.049-1.457-5.773-1.95,0,0,8.456-1.178,10.384.567A.334.334,0,0,1,1346.325,714.95Z" transform="translate(-1312.404 -641.141)" fill="#f09771"/>
        <path id="Path_23389" data-name="Path 23389" d="M1519.43,444.144a.714.714,0,0,1,.316-.083C1519.315,444.219,1519.086,444.341,1519.43,444.144Z" transform="translate(-1455.132 -431.035)" fill="#f09771"/>
      </g>
    </g>
  </g>
</svg>
