<svg xmlns="http://www.w3.org/2000/svg" xmlns:xlink="http://www.w3.org/1999/xlink" width="82.215" height="84.626" viewBox="0 0 82.215 84.626">
  <defs>
    <clipPath id="clip-path">
      <ellipse id="Ellipse_192" data-name="Ellipse 192" cx="22.347" cy="22.347" rx="22.347" ry="22.347" transform="translate(0 0)" fill="rgba(176,120,249,0.8)" stroke="#fff" stroke-width="1"/>
    </clipPath>
    <clipPath id="clip-path-2">
      <ellipse id="Ellipse_194" data-name="Ellipse 194" cx="18.69" cy="18.69" rx="18.69" ry="18.69" transform="translate(0 0)" fill="rgba(176,120,249,0.8)" stroke="#fff" stroke-width="1"/>
    </clipPath>
  </defs>
  <g id="Group_3523" data-name="Group 3523" transform="translate(0 0.343)">
    <path id="Path_27201" data-name="Path 27201" d="M33.695,0A33.695,33.695,0,1,1,0,33.695,33.695,33.695,0,0,1,33.695,0Z" transform="translate(5.66)" fill="#fcb6b6"/>
    <g id="Mask_Group_26" data-name="Mask Group 26" transform="matrix(0.914, 0.407, -0.407, 0.914, 18.178, 25.277)" clip-path="url(#clip-path)">
      <g id="Ellipse_191" data-name="Ellipse 191" transform="translate(-0.813 -15.439)" fill="none" stroke="#fff" stroke-width="1">
        <ellipse cx="22.347" cy="22.347" rx="22.347" ry="22.347" stroke="none"/>
        <ellipse cx="22.347" cy="22.347" rx="21.847" ry="21.847" fill="none"/>
      </g>
    </g>
    <g id="Mask_Group_27" data-name="Mask Group 27" transform="matrix(0.914, 0.407, -0.407, 0.914, 21.809, 25.114)" clip-path="url(#clip-path-2)">
      <g id="Ellipse_193" data-name="Ellipse 193" transform="translate(-0.813 -13.002)" fill="none" stroke="#fff" stroke-width="1">
        <ellipse cx="19.096" cy="18.69" rx="19.096" ry="18.69" stroke="none"/>
        <ellipse cx="19.096" cy="18.69" rx="18.596" ry="18.19" fill="none"/>
      </g>
    </g>
    <text id="_08" data-name="08" transform="translate(25.215 41.657)" fill="#7e7e7e" font-size="46" font-family="ProximaNova-Bold, Proxima Nova" font-weight="700"><tspan x="0" y="0">08</tspan></text>
  </g>
</svg>
