<svg id="Group_3101" data-name="Group 3101" xmlns="http://www.w3.org/2000/svg" width="301.694" height="782.073" viewBox="0 0 301.694 782.073">
  <g id="Group_2925" data-name="Group 2925" transform="translate(0 161.608)">
    <g id="Group_2903" data-name="Group 2903" transform="translate(0 260.348)">
      <g id="Group_2883" data-name="Group 2883" transform="translate(0 352.069)">
        <g id="Group_2882" data-name="Group 2882">
          <path id="Path_25830" data-name="Path 25830" d="M421.892,736.856c0-5.236,79.264-4.343,152.983-4.343s112.2-.34,111.3,4.343c-.568,2.951-39.58,3.647-113.3,3.647S421.9,740.19,421.892,736.856Z" transform="translate(-421.892 -732.455)" fill="#847895"/>
        </g>
      </g>
      <g id="Group_2891" data-name="Group 2891" transform="translate(184.636 293.183)">
        <path id="Path_25831" data-name="Path 25831" d="M495.056,727.748c2.526,4.017,2.8,8.842-1.726,9.3-5.731.583-37.573,2.08-45.344,0-7.252-1.942-1.705-13.282,2.732-11.9S495.056,727.748,495.056,727.748Z" transform="translate(-444.479 -675.108)" fill="#4a3333"/>
        <g id="Group_2890" data-name="Group 2890" transform="translate(1.362)">
          <g id="Group_2888" data-name="Group 2888" transform="translate(0)">
            <g id="Group_2885" data-name="Group 2885" transform="translate(1.566)">
              <g id="Group_2884" data-name="Group 2884" transform="translate(0)">
                <path id="Path_25832" data-name="Path 25832" d="M493.249,738.108c-.024.072-.048.146-.078.219a4.147,4.147,0,0,1-.426.828,3.047,3.047,0,0,1-.207.292c-1.3,1.63-44.865.973-46.6-1.345-.146-.194,4.157-13.878,4.261-14,4.267-4.979,5.033-14.475,4.869-20.7-.182-6.853-.981-10.846-2.332-17.565q13.733-1.078,27.463-2.15c-.815.062.19,14.073.469,15.339a71.319,71.319,0,0,0,5.345,15.411c1.2,2.489,2.581,4.633,3.786,6.865a25.008,25.008,0,0,1,2.507,6.276,50.185,50.185,0,0,1,1.211,5.946A10.672,10.672,0,0,1,493.249,738.108Z" transform="translate(-445.935 -683.693)" fill="#f29e7e"/>
              </g>
            </g>
            <g id="Group_2887" data-name="Group 2887" transform="translate(0 26.371)">
              <g id="Group_2886" data-name="Group 2886">
                <path id="Path_25833" data-name="Path 25833" d="M494.858,733.574c-.024.072-.048.146-.078.219a4.143,4.143,0,0,1-.426.828,3.047,3.047,0,0,1-.207.292c-1.047,1.309-6.247.921-7.678,1.006-5.269.312-9.335.429-14.612.472-5.312.043-10.634.017-15.942-.242-1.9-.093-3.818-.2-5.71-.449-2.534-.336-4.271-1.3-4.225-4.312a11.54,11.54,0,0,1,1.2-4.4c.651-1.482,3.092-6.5,4.322-7.544.7-.6,7.719-12.331,15.76-13.583a23.384,23.384,0,0,1,24.15,10.911,25.006,25.006,0,0,1,2.507,6.276A50.221,50.221,0,0,1,495.126,729,13.171,13.171,0,0,1,494.858,733.574Z" transform="translate(-445.978 -705.53)" fill="#a34b22"/>
              </g>
            </g>
          </g>
          <g id="Group_2889" data-name="Group 2889" transform="translate(2.145 38.494)">
            <path id="Path_25834" data-name="Path 25834" d="M487.59,715.574a59.045,59.045,0,0,0-13.46,2.179c-2.519.818-5.891,1.708-7.084,4.174-.611,1.263,1.379,2.369,1.995,1.1,1.1-2.268,5.361-3.151,7.694-3.758a63.751,63.751,0,0,1,10.855-1.518C489.06,717.626,489.074,715.452,487.59,715.574Z" transform="translate(-466.931 -715.569)" fill="#4a3333"/>
          </g>
        </g>
      </g>
      <g id="Group_2899" data-name="Group 2899" transform="translate(34.541 288.865)">
        <g id="Group_2898" data-name="Group 2898" transform="translate(2.344)">
          <g id="Group_2896" data-name="Group 2896" transform="translate(0)">
            <g id="Group_2893" data-name="Group 2893">
              <g id="Group_2892" data-name="Group 2892">
                <path id="Path_25835" data-name="Path 25835" d="M621.62,687.826c-5.088-1.182-5.971-2.131-11.09-3.2-6-1.255-11.916-3.4-17.972-4.507.173,5.065.967,10.185.432,15.244-.648,6.137-5.483,11.638-9.723,15.534a61.632,61.632,0,0,1-17.78,11.248c-9.848,4.055-17.957,5.793-20.275,11.006-2.219,4.992-.579,5.792,1.159,6.371s65.42,1.745,71.791-1.731c5.186-2.827,6.33-8.3,5.527-20.349C623.337,712.153,621.271,710.3,621.62,687.826Z" transform="translate(-544.141 -680.118)" fill="#f29e7e"/>
              </g>
            </g>
            <g id="Group_2895" data-name="Group 2895" transform="translate(0.003 27.624)">
              <g id="Group_2894" data-name="Group 2894" transform="translate(0)">
                <path id="Path_25836" data-name="Path 25836" d="M624.3,727.856c-.735-4.532-.4-10.033-3.085-15.163-6.609,3.029-9.877,5.227-16.688,1.715-3.886-2-5.759-5.642-8.61-8.742-2.179-2.368-4.663-2.737-7.365-2.665a12.146,12.146,0,0,0-7.693,3,70.172,70.172,0,0,1-17.846,11.39c-9.848,4.055-17.957,5.793-20.275,11.006a8.929,8.929,0,0,0-1.054,4.164c.134,1.42,1.153,1.855,2.214,2.208,1.738.58,71.506,3.476,77.878,0C623.862,733.631,624.812,731.064,624.3,727.856Z" transform="translate(-541.664 -702.992)" fill="#a34b22"/>
              </g>
            </g>
          </g>
          <g id="Group_2897" data-name="Group 2897" transform="translate(12.972 42.785)">
            <path id="Path_25837" data-name="Path 25837" d="M602.633,716.715c-7.782-.2-15.554-2.416-23.23-.167a1.218,1.218,0,0,0,.647,2.348c7.424-2.176,15.051.06,22.583.254A1.218,1.218,0,0,0,602.633,716.715Z" transform="translate(-578.547 -715.547)" fill="#4a3333"/>
          </g>
        </g>
        <path id="Path_25838" data-name="Path 25838" d="M624.488,725.595c4.156,7.412,2.588,11,1.386,11.832s-81.528.5-84.3-.492-2.349-9.375.489-9.065S624.488,725.595,624.488,725.595Z" transform="translate(-539.699 -670.676)" fill="#4a3333"/>
      </g>
      <g id="Group_2900" data-name="Group 2900" transform="translate(71.662)">
        <path id="Path_25839" data-name="Path 25839" d="M544.219,742.659c-1.721-7.265-2.22-14.81-3.32-22.24-7.393-49.922-12.155-88.812-17.751-126.117-7.1,45.091-9.241,101.632-14.272,149.913-.779,7.475-64.035-9.36-64.2-16.636-.456-20.706.6-113.312,1.524-128.336,4.222-68.391,12.765-158.325,12.765-158.325l131.435,9.538s13.162,155.155,19.411,282.668C610.417,745.374,546.814,753.614,544.219,742.659Z" transform="translate(-444.572 -440.918)" fill="#6168a8"/>
      </g>
      <g id="Group_2901" data-name="Group 2901" transform="translate(136.732 80.654)">
        <path id="Path_25840" data-name="Path 25840" d="M519.21,507.71l10.73,75.74a1.687,1.687,0,0,1-1.435,1.909,1.6,1.6,0,0,1-.239.017,1.689,1.689,0,0,1-1.67-1.451l-10.772-76.041A22.764,22.764,0,0,1,519.21,507.71Z" transform="translate(-515.824 -507.705)" fill="#333a74"/>
      </g>
      <g id="Group_2902" data-name="Group 2902" transform="translate(114.403 116.94)">
        <path id="Path_25841" data-name="Path 25841" d="M549.072,538.3q-12.291,55.927-20.63,112.624-2.313,15.709-4.31,31.464c-.133,1.047,1.508,1.034,1.642,0q7.311-56.481,18.286-112.393,3.1-15.673,6.481-31.29C550.749,537.748,549.283,537.34,549.072,538.3Z" transform="translate(-524.124 -537.752)" fill="#333a74"/>
      </g>
    </g>
    <g id="Group_2924" data-name="Group 2924" transform="translate(0.503)">
      <path id="Path_25842" data-name="Path 25842" d="M561.449,334.752c18,2.773,32.6,4.151,36.672,4.479s41.226,17.239,43.629,17.842-4.806-19.643-5.731-23.2,32.907-19.281,36.42-19,17.932,43.785,19.6,62.151-22.251,26.876-34.2,29.6c-12.385,2.819-37.225,5.527-39.073,7.191s-5.323,56.923-10.842,64.03-124.812-7.571-130.347-15.385-6.92-43.312-8.306-48.581-75.982-5.579-78.2-22.618,22.739-74.44,26.067-80.817S456.51,320.813,457.9,327.69,444.3,356.73,444.3,356.73s33.042-20.77,40.51-21.189S561.449,334.752,561.449,334.752Z" transform="translate(-390.927 -207.957)" fill="#b3ab75"/>
      <g id="Group_2915" data-name="Group 2915" transform="translate(101.792)">
        <path id="Path_25843" data-name="Path 25843" d="M537.615,305.937c-.328,19.408-.092,34.619-1.315,37.828-2.636,6.916-11.008,13.6-20.364,13.66-8.2.052-14.818-9.312-16.359-12.015a9.289,9.289,0,0,1-.813-3.156c-1.222-10.138-1.081-41.092-1.081-41.092Z" transform="translate(-467.132 -209.588)" fill="#e9946b"/>
        <path id="Path_25844" data-name="Path 25844" d="M498.618,340.965c-.708-7.341-.895-22.181-.94-31.535,1.269-4.339,2.253-7.487,2.422-8.027l37.5,4.484c-.058,3.436-.106,6.729-.151,9.853A72.124,72.124,0,0,1,498.618,340.965Z" transform="translate(-467.118 -209.538)" fill="#1a1a1a"/>
        <g id="Group_2904" data-name="Group 2904" transform="translate(0)">
          <path id="Path_25845" data-name="Path 25845" d="M490.041,284.007s-16.311-10.41-14.711-34.391,21.6-13.455,23.136-12.569c1.661-5.258,7.585-13.267,22.269-11.452,18.3,2.263,31.212,20.74,31.212,20.74s21.4.9,20.868,22.005c-.679,26.823-9.96,48.242-21.12,57.006C546.032,329.793,490.041,284.007,490.041,284.007Z" transform="translate(-475.219 -225.333)" fill="#842a2e"/>
        </g>
        <g id="Group_2905" data-name="Group 2905" transform="translate(72.943 15.997)">
          <path id="Path_25846" data-name="Path 25846" d="M481.614,251.078a1.546,1.546,0,0,0,.342,0,1.455,1.455,0,0,0,1.251-1.632c0-.031-.426-3.647,1.685-5.939,1.33-1.447,3.457-2.121,6.32-2a14.118,14.118,0,0,1,5.541,1.338,1.454,1.454,0,0,0,1.257-2.622,16.844,16.844,0,0,0-6.679-1.621c-3.769-.155-6.661.842-8.6,2.96-3.021,3.305-2.435,8.066-2.408,8.267A1.457,1.457,0,0,0,481.614,251.078Z" transform="translate(-480.261 -238.579)" fill="#842a2e"/>
        </g>
        <g id="Group_2914" data-name="Group 2914" transform="translate(10.051 39.659)">
          <g id="Group_2913" data-name="Group 2913" transform="translate(0)">
            <g id="Group_2906" data-name="Group 2906" transform="translate(2.235)">
              <path id="Path_25847" data-name="Path 25847" d="M483.018,283.159c.653,4.789.63,42.074,10.988,52.067,5.474,5.281,19.089,4.786,25.468,3.478,19.641-4.025,30.14-18.084,28-36.833,0,0,18.255-7.2,8.712-20.427-6.5-9.008-16.092,4.514-16.092,4.514s-4.405-5.472-8.642-18.755c-11.354,2.63-36.821.049-44.613-9.031C486.842,258.173,481.949,275.3,483.018,283.159Z" transform="translate(-482.865 -258.173)" fill="#e9946b"/>
            </g>
            <g id="Group_2907" data-name="Group 2907" transform="translate(35.649 27.103)">
              <path id="Path_25848" data-name="Path 25848" d="M513.042,281.834a2.94,2.94,0,0,1,2.344-1.173c.105-.013.208-.022.309-.027a.565.565,0,0,1,.112-.019c.039,0,.068.013.105.014,3.163.047,4.379,4.264,3.07,6.783a2.61,2.61,0,0,1-.888,1.512,2.95,2.95,0,0,1-1.7.583.706.706,0,0,1-.157.08,2.688,2.688,0,0,1-3.192-1.552A4.85,4.85,0,0,1,513.042,281.834Z" transform="translate(-511.925 -280.616)" fill="#1a1a1a"/>
            </g>
            <g id="Group_2908" data-name="Group 2908" transform="translate(4.072 27.925)">
              <path id="Path_25849" data-name="Path 25849" d="M539.19,282.516a2.943,2.943,0,0,1,2.345-1.174q.158-.018.308-.025a.591.591,0,0,1,.114-.019c.039,0,.068.013.105.014,3.163.047,4.378,4.264,3.07,6.783a2.61,2.61,0,0,1-.888,1.512,2.954,2.954,0,0,1-1.7.583.709.709,0,0,1-.157.08,2.69,2.69,0,0,1-3.193-1.553A4.85,4.85,0,0,1,539.19,282.516Z" transform="translate(-538.073 -281.297)" fill="#1a1a1a"/>
            </g>
            <g id="Group_2909" data-name="Group 2909" transform="translate(19.063 48.831)">
              <path id="Path_25850" data-name="Path 25850" d="M527.342,300.046a1.565,1.565,0,0,1,1.647-1.433l2.461.193a1.543,1.543,0,1,1-.213,3.079l-2.462-.193A1.572,1.572,0,0,1,527.342,300.046Z" transform="translate(-527.339 -298.608)" fill="#d45c48"/>
            </g>
            <g id="Group_2910" data-name="Group 2910" transform="translate(27.876 9.54)">
              <path id="Path_25851" data-name="Path 25851" d="M515.451,266.3c1.857,1.094,3.869,1.888,5.669,3.084,1.826,1.215,3.494,2.654,5.27,3.938,1.6,1.157-.064,3.756-1.681,2.589-1.775-1.283-3.44-2.73-5.27-3.938-1.8-1.189-3.811-1.989-5.669-3.084C512.06,267.883,513.739,265.293,515.451,266.3Z" transform="translate(-513.055 -266.072)" fill="#842a2e"/>
            </g>
            <g id="Group_2911" data-name="Group 2911" transform="translate(0 14.765)">
              <path id="Path_25852" data-name="Path 25852" d="M542.469,274.088a9.149,9.149,0,0,1,3.966-3.476c1.721-.966,3.428,1.607,1.691,2.583a6.6,6.6,0,0,0-2.883,2.244C544.275,277.168,541.5,275.822,542.469,274.088Z" transform="translate(-542.265 -270.399)" fill="#842a2e"/>
            </g>
            <g id="Group_2912" data-name="Group 2912" transform="translate(20.509 59.728)">
              <path id="Path_25853" data-name="Path 25853" d="M532.444,311.688a5.765,5.765,0,0,0-3.273-3.567c-1.848-.717-7.239-.953-8.048,1.5a2.245,2.245,0,0,0-.116.569,2.835,2.835,0,0,0-.222.96,5.4,5.4,0,0,0,.733,2.821,10.313,10.313,0,0,0,3.093,3.541,7.125,7.125,0,0,0,5.227,1.452,3.216,3.216,0,0,0,1.885-.935,3.662,3.662,0,0,0,.71-1.466A8.3,8.3,0,0,0,532.444,311.688Z" transform="translate(-520.778 -307.632)" fill="#1a1a1a"/>
            </g>
          </g>
        </g>
      </g>
      <g id="Group_2919" data-name="Group 2919" transform="translate(220.632 30.815)">
        <g id="Group_2916" data-name="Group 2916" transform="translate(0)">
          <path id="Path_25854" data-name="Path 25854" d="M413.1,286.807a7.416,7.416,0,0,1,4.636-.417,31.271,31.271,0,0,1,4.573,1.925,5.8,5.8,0,0,0,4.808.21,7.233,7.233,0,0,0,2.664-3.169c2.691-4.876,3.048-10.477,3.367-15.92a69.319,69.319,0,0,1,.81-8.26c.392-2.174.752-5.589,2.278-7.26.609-.669,1.7-1.122,2.391-.545a1.906,1.906,0,0,1,.473.684c1.046,2.239.67,4.805.616,7.189-.041,1.725-.043,3.451.057,5.175.048.822-.3,3.383-.169,4.2.085.522.4,2.216,1.286,1.5a4.543,4.543,0,0,0,1.039-1.446c2.487-4.389,3.937-11.137,5.715-15.814.566-1.49,1.313-3.058,2.723-3.8a1.39,1.39,0,0,1,.805-.2c1.031.132,1.231,1.84,1.354,2.634a11.741,11.741,0,0,1-.483,4.628c-.388,1.753-.479,3.572-.9,5.336-.506,2.14-1.129,4.255-1.524,6.42a34.24,34.24,0,0,0-.883,5.134,2.1,2.1,0,0,0,.327,1.047c.169.254,3.247-6.661,3.466-7.166q1.529-3.532,2.74-7.191a4,4,0,0,1,1.127-1.727,2.179,2.179,0,0,1,3.852,1.262,6.955,6.955,0,0,1-.221,2.831q-.835,3.75-1.894,7.446c-.307,1.069-3.71,9.779-1.78,9.685.888-.043,3.162-3.961,3.779-4.532,1.251-1.158,5.651-7.252,7.094-3.421.99,2.63-3.136,7.1-4.479,9.153-2.171,3.322-3.924,6.911-5.863,10.374-3.523,6.285-7.411,15.135-2.735,21.719.673,1.083,8.668,16.064,9.278,17.185-.514,4.7-20.047,10.244-21.594,12,0,0-10.1-29.5-11.883-32.47s-5.954-6.522-8.635-10.973c-1.929-3.2-4.221-5.99-7.627-7.527-1.124-.506-2.442-1-2.877-2.156C410.25,289.033,411.624,287.452,413.1,286.807Z" transform="translate(-410.686 -250.849)" fill="#e9946b"/>
        </g>
        <g id="Group_2917" data-name="Group 2917" transform="translate(31.26 55.899)">
          <path id="Path_25855" data-name="Path 25855" d="M430.622,297.636a10.688,10.688,0,0,1-4.411,3.146,1.4,1.4,0,0,0,.956,2.64,12.205,12.205,0,0,0,5.6-3.955A1.411,1.411,0,0,0,430.622,297.636Z" transform="translate(-425.32 -297.137)" fill="#d45c48"/>
        </g>
        <g id="Group_2918" data-name="Group 2918" transform="translate(25.577 23.897)">
          <path id="Path_25856" data-name="Path 25856" d="M439.257,280.391a31.073,31.073,0,0,0-16.161-9.73c-.86-.217-1.111,1.129-.26,1.349a33.486,33.486,0,0,1,15.455,9.255C438.811,281.788,439.741,280.961,439.257,280.391Z" transform="translate(-422.311 -270.637)" fill="#d45c48"/>
        </g>
      </g>
      <g id="Group_2923" data-name="Group 2923" transform="translate(36.949 28.319)">
        <g id="Group_2920" data-name="Group 2920" transform="translate(0)">
          <path id="Path_25857" data-name="Path 25857" d="M591.009,265.122c-.145,1.412,0,2.828-.054,4.242-.017.446.1,1.305-.5,1.3-.454,0-.88-.833-1.069-1.145a22.538,22.538,0,0,1-1.194-2.6c-.671-1.511-1.241-3.065-1.769-4.631-1.035-3.069-1.882-6.2-2.9-9.271-.508-1.541-1.2-3.169-2.6-3.99a1.407,1.407,0,0,0-.81-.239c-1.054.087-1.334,1.814-1.495,2.616a11.955,11.955,0,0,0,.281,4.727c.315,1.8.326,3.654.67,5.466.418,2.2.955,4.378,1.258,6.6.152,1.11,1.147,3.357,1.029,4.479a2.139,2.139,0,0,1-.379,1.049c-.185.251-3.364-6.14-3.564-6.663q-1.395-3.661-2.461-7.435a4.055,4.055,0,0,0-1.066-1.805,2.218,2.218,0,0,0-3.974,1.107,7.073,7.073,0,0,0,.1,2.889q.679,3.849,1.589,7.655c.263,1.1,3.692,9.331,1.734,9.149-.9-.085-3.4-3.391-4-4-1.221-1.235-5.416-7.629-7.057-3.8-1.127,2.63,2.868,7.361,4.14,9.509,2.058,3.476,3.676,7.2,5.491,10.811,3.385,6.724,5.885,15.357,1.4,22.726-2.379,3.91-9.59,13.519-9.59,13.519-1.855,2.152,19.569,14.18,21.186,16.186,0,0,11.6-29.539,13.551-32.474s6.347-6.362,9.275-10.765c2.106-3.168,4.562-5.9,8.095-7.307,1.167-.464,2.528-.907,3.021-2.06.647-1.51-.68-3.179-2.153-3.9a7.541,7.541,0,0,0-4.694-.633,31.607,31.607,0,0,0-4.738,1.75,5.894,5.894,0,0,1-4.9,0,7.356,7.356,0,0,1-2.566-3.342c-2.515-5.079-2.624-10.79-2.7-16.338a70.305,70.305,0,0,0-.451-8.435c-.3-2.228-.512-5.715-1.987-7.484-.589-.708-1.673-1.217-2.406-.662a1.937,1.937,0,0,0-.513.674c-1.164,2.228-.9,4.855-.95,7.281C591.265,261.619,591.19,263.376,591.009,265.122Z" transform="translate(-562.589 -248.782)" fill="#e9946b"/>
        </g>
        <g id="Group_2921" data-name="Group 2921" transform="translate(16.427 56.957)">
          <path id="Path_25858" data-name="Path 25858" d="M592.27,296.5a10.873,10.873,0,0,0,4.344,3.4,1.43,1.43,0,0,1-1.092,2.641,12.418,12.418,0,0,1-5.514-4.274A1.435,1.435,0,0,1,592.27,296.5Z" transform="translate(-589.724 -295.947)" fill="#d45c48"/>
        </g>
        <g id="Group_2922" data-name="Group 2922" transform="translate(13.79 24.937)">
          <path id="Path_25859" data-name="Path 25859" d="M583.738,278.609a31.618,31.618,0,0,1,16.869-9.16c.884-.182,1.078,1.2.2,1.383a34.074,34.074,0,0,0-16.13,8.709C584.128,280.049,583.22,279.167,583.738,278.609Z" transform="translate(-583.584 -269.432)" fill="#d45c48"/>
        </g>
      </g>
      <path id="Path_25860" data-name="Path 25860" d="M574.485,379.217c-22.462,0-96.5-2.773-97.889-1.942s-15.946,75.512-16.076,76.89,4.428,24.882,6.925,24.882,129.785-10.933,124.51-15.344C576.148,450.484,574.485,379.217,574.485,379.217Z" transform="translate(-374.962 -193.817)" fill="#6168a8"/>
      <path id="Path_25861" data-name="Path 25861" d="M478.6,386.959a4.391,4.391,0,1,1,4.391,4.391A4.391,4.391,0,0,1,478.6,386.959Z" transform="translate(-292.063 -192.686)" fill="#aebfd1"/>
      <path id="Path_25862" data-name="Path 25862" d="M483.556,388.65a8.5,8.5,0,0,0,5.089-1.733,6.1,6.1,0,0,0,2.482-4.288,11.1,11.1,0,0,0-.709-5.018,9.969,9.969,0,0,1-.459-1.657,7.919,7.919,0,0,1,1.078.008,6.113,6.113,0,0,0,3.566-.56c1.894-1.162,2.257-4.345,2.03-5.792-.042-.274-.173-1.11-.892-1.287h0c-2.583-.632-20.838-1.412-22.894-.523-1.385.6-1.762,2.619-1.42,4.306.319,1.575,1.235,2.559,2.394,2.569,3.769.03,4.263.6,4.306.667a3.512,3.512,0,0,1-.506,1.344,9.2,9.2,0,0,0-1.2,5.431,7.143,7.143,0,0,0,7.135,6.533Zm6.764-14.342a2.1,2.1,0,0,0-1.651.531,1.471,1.471,0,0,0-.336,1.256,11.166,11.166,0,0,0,.541,2.036,9.6,9.6,0,0,1,.63,4.36,4.5,4.5,0,0,1-1.855,3.136,6.682,6.682,0,0,1-5.048,1.314,5.554,5.554,0,0,1-4.561-4.994,7.7,7.7,0,0,1,1.037-4.537,3.634,3.634,0,0,0,.614-2.5c-.328-1.273-2.082-1.83-5.859-1.86-.327,0-.661-.523-.811-1.263-.236-1.163.065-2.311.471-2.487,1.5-.575,17.817-.143,21.534.541.146.857-.077,3.442-1.274,4.176a4.905,4.905,0,0,1-2.634.322C490.841,374.321,490.574,374.308,490.32,374.308Zm5.032-4.4Z" transform="translate(-292.572 -195.835)" fill="#aebfd1"/>
      <ellipse id="Ellipse_158" data-name="Ellipse 158" cx="4.391" cy="4.391" rx="4.391" ry="4.391" transform="translate(102.962 186.551)" fill="#aebfd1"/>
      <path id="Path_25863" data-name="Path 25863" d="M553.788,385.945a8.462,8.462,0,0,0,5.449-2.071,6.1,6.1,0,0,0,2.2-4.438,11.111,11.111,0,0,0-1.03-4.962,10.132,10.132,0,0,1-.564-1.624,8.1,8.1,0,0,1,1.077-.06,6.125,6.125,0,0,0,3.524-.787c1.814-1.28,1.972-4.48,1.654-5.909-.06-.272-.244-1.1-.973-1.228h0c-2.621-.464-20.884-.077-22.881.944-1.344.686-1.592,2.727-1.142,4.389.42,1.551,1.4,2.488,2.554,2.409,3.764-.209,4.294.327,4.341.39a3.535,3.535,0,0,1-.42,1.373,9.2,9.2,0,0,0-.848,5.5,7.134,7.134,0,0,0,7.057,6.079Zm10.723-19.525c.2.847.142,3.441-1,4.251a4.869,4.869,0,0,1-2.607.489c-1.023.016-1.906.028-2.413.661a1.473,1.473,0,0,0-.255,1.274,11.171,11.171,0,0,0,.67,2,9.579,9.579,0,0,1,.908,4.311,4.5,4.5,0,0,1-1.65,3.247,6.682,6.682,0,0,1-4.954,1.635,5.553,5.553,0,0,1-4.87-4.692,7.686,7.686,0,0,1,.745-4.6,3.642,3.642,0,0,0,.452-2.538c-.411-1.249-2.2-1.691-5.967-1.481-.319-.01-.693-.479-.89-1.208-.31-1.146-.085-2.311.31-2.513C544.444,366.59,560.761,365.979,564.511,366.42Z" transform="translate(-446.15 -196.402)" fill="#aebfd1"/>
      <path id="Path_25864" data-name="Path 25864" d="M492.8,334.672c-.5,11.145-1.386,40.814-1.941,44.419s-15.807.554-17.471-1.386-.554-46.588,1.664-46.588S493.013,329.915,492.8,334.672Z" transform="translate(-290.228 -203.397)" fill="#6168a8"/>
      <path id="Path_25865" data-name="Path 25865" d="M561.238,331.268c-.821,14.556-2.426,39.1-4.645,42.424s-15.321,2.081-16.985,2.081,1.941-42.144,3.883-44.5S561.357,329.182,561.238,331.268Z" transform="translate(-439.084 -203.684)" fill="#6168a8"/>
      <path id="Path_25866" data-name="Path 25866" d="M528.57,454.848c12.771,0,28.751-.587,29.859-3.258,1.252-3.023,4.434-42.931.764-49.3a2.238,2.238,0,0,0-1.625-1.239h0c-13.146-1.741-60.087-2.682-62.5.409-2.294,2.942-3.67,44.543-2.338,48.867.3.99,1.017,3.307,20.95,4.248C515.975,454.685,521.825,454.848,528.57,454.848Zm27.9-4.219c-3.015,2.094-36.225,3.023-53.665.926-7.048-.848-7.949-1.827-8.028-1.935-1.522-4.977.6-43.349,1.984-46.755,3.649-1.669,44.254-1.795,60.43.328C560.277,405.941,558.066,446.075,556.471,450.628Z" transform="translate(-382.028 -189.183)" fill="#333a74"/>
      <path id="Path_25867" data-name="Path 25867" d="M438.51,374.419a1.086,1.086,0,0,0,.564-2.014c-3.338-2.025-14.917-10.1-23.793-28.992a1.086,1.086,0,0,0-1.966.925c9.133,19.44,21.163,27.819,24.633,29.924A1.08,1.08,0,0,0,438.51,374.419Z" transform="translate(-165.318 -200.945)" fill="#978c50"/>
      <path id="Path_25868" data-name="Path 25868" d="M432.86,377.973a1.087,1.087,0,0,0,.778-1.845c-10.708-10.986-12.427-25.362-12.443-25.505a1.1,1.1,0,0,0-1.2-.959,1.086,1.086,0,0,0-.959,1.2,49.9,49.9,0,0,0,13.047,26.78A1.084,1.084,0,0,0,432.86,377.973Z" transform="translate(-166.692 -199.519)" fill="#978c50"/>
      <path id="Path_25869" data-name="Path 25869" d="M469.825,364.683a1.2,1.2,0,0,0,.132-.007,1.086,1.086,0,0,0,.948-1.209,114.974,114.974,0,0,1-.186-29.1,1.087,1.087,0,1,0-2.153-.293,117.183,117.183,0,0,0,.182,29.65A1.088,1.088,0,0,0,469.825,364.683Z" transform="translate(-262.447 -202.949)" fill="#978c50"/>
      <path id="Path_25870" data-name="Path 25870" d="M462.9,400.069a1.086,1.086,0,0,0,.461-2.07c-8.143-3.812-11.411-13.721-11.442-13.821a1.087,1.087,0,0,0-2.07.662c.143.443,3.576,10.907,12.591,15.127A1.077,1.077,0,0,0,462.9,400.069Z" transform="translate(-233.893 -192.508)" fill="#978c50"/>
      <path id="Path_25871" data-name="Path 25871" d="M595.567,381.717a1.091,1.091,0,0,0,.558-.155c11.552-6.926,19.855-18.024,24.674-32.986a1.086,1.086,0,1,0-2.067-.665c-4.654,14.447-12.635,25.142-23.724,31.788a1.086,1.086,0,0,0,.559,2.018Z" transform="translate(-565.478 -200.038)" fill="#978c50"/>
      <path id="Path_25872" data-name="Path 25872" d="M598.06,373.427a1.146,1.146,0,0,0,.268-.033c15.434-3.905,30.011-17.252,30.623-17.817a1.086,1.086,0,0,0-1.473-1.6c-.146.135-14.792,13.54-29.682,17.308a1.086,1.086,0,0,0,.264,2.139Z" transform="translate(-576.939 -198.681)" fill="#978c50"/>
      <path id="Path_25873" data-name="Path 25873" d="M572.895,406.9a1.086,1.086,0,0,0,1.087-1.086c0-11.1,1.937-27.73,2.978-36.662.423-3.631.627-5.4.627-5.952a1.087,1.087,0,0,0-2.174,0c0,.449-.269,2.765-.611,5.7-1.046,8.976-2.994,25.685-2.994,36.914A1.086,1.086,0,0,0,572.895,406.9Z" transform="translate(-494.833 -196.933)" fill="#978c50"/>
      <path id="Path_25874" data-name="Path 25874" d="M563.237,350.62a1.087,1.087,0,0,0,1.042-.785c.033-.114,3.333-11.384,8.689-17.924a1.086,1.086,0,1,0-1.681-1.375c-5.642,6.888-8.956,18.217-9.095,18.7a1.089,1.089,0,0,0,1.045,1.389Z" transform="translate(-478.796 -203.572)" fill="#978c50"/>
    </g>
  </g>
  <g id="Group_2926" data-name="Group 2926" transform="translate(139.522)">
    <path id="Path_25875" data-name="Path 25875" d="M492.981,117.717l-2.041-2.782q-1.46-2.023-2.032-2.651a4.768,4.768,0,0,1-1.239-2.7,3.776,3.776,0,0,1,.529-2.024,16.468,16.468,0,0,1,1.321-2.077,47.206,47.206,0,0,1,9.586-9.453q5.436-4.005,14.425-4.469a15.525,15.525,0,0,1,10.527,2.752,21.669,21.669,0,0,1,6.519,7.327,18.242,18.242,0,0,1,2.373,6.806,21.986,21.986,0,0,1-2.554,12.5,24.294,24.294,0,0,1-7.469,8.386q-4.445,3.012-5.323,3.733a6.611,6.611,0,0,0-2.18,3.129,8.647,8.647,0,0,0-.7,3.427l.639,7.65a4.237,4.237,0,0,1-.407,2.878,2.153,2.153,0,0,1-1.717,1.109l-8.31.682q-2.395-.107-2.71-2.871-.806-6.179-.955-8.424-.612-11.231,15.989-22.94a6.506,6.506,0,0,0,2.136-2.794,7.638,7.638,0,0,0,.63-3.489,12.02,12.02,0,0,0-1.947-4.381,5.264,5.264,0,0,0-4.853-2.2q-3.436.226-8.638,4.748a88.121,88.121,0,0,0-8.411,8.182,2,2,0,0,1-3.186-.054Zm21.182,45.547a3.85,3.85,0,0,1,2.222.516,2.229,2.229,0,0,1,1.121,1.915l.63,7.518a3.192,3.192,0,0,1-.978,2.253,3.3,3.3,0,0,1-2.237,1.275l-3.821.385a23.908,23.908,0,0,1-3.319-.046q-1.33-.043-2.516-1.955-.6-1.022-.87-5.116a38.351,38.351,0,0,1-.014-4.242,1.754,1.754,0,0,1,.714-1.24,2.309,2.309,0,0,1,1.276-.749,40.986,40.986,0,0,1,4.221-.345Q513.37,163.319,514.163,163.264Z" transform="translate(-487.663 -91.51)" fill="#acbdcf"/>
  </g>
  <g id="Group_2927" data-name="Group 2927" transform="translate(35.828 13.826)">
    <path id="Path_25876" data-name="Path 25876" d="M577.636,124.667l-1.4-3.153q-1-2.286-1.424-3.02a4.775,4.775,0,0,1-.639-2.906,3.774,3.774,0,0,1,.947-1.865,16.478,16.478,0,0,1,1.732-1.75,47.172,47.172,0,0,1,11.374-7.206q6.161-2.762,15.045-1.308a15.522,15.522,0,0,1,9.7,4.921,21.669,21.669,0,0,1,4.817,8.543,18.251,18.251,0,0,1,.875,7.154,21.978,21.978,0,0,1-5.148,11.677,24.277,24.277,0,0,1-9.077,6.611q-4.981,2-5.994,2.52a6.613,6.613,0,0,0-2.794,2.594,8.691,8.691,0,0,0-1.413,3.2l-1,7.612a4.234,4.234,0,0,1-1.007,2.727,2.156,2.156,0,0,1-1.913.719l-8.266-1.094q-2.317-.612-2.039-3.381.522-6.21.853-8.435,1.782-11.1,20.489-19.027a6.481,6.481,0,0,0,2.68-2.278,7.638,7.638,0,0,0,1.357-3.276,12.022,12.022,0,0,0-.975-4.694,5.262,5.262,0,0,0-4.277-3.177q-3.4-.507-9.447,2.809a87.957,87.957,0,0,0-9.955,6.212,2,2,0,0,1-3.1-.728Zm11.043,49a3.853,3.853,0,0,1,2.063.976,2.229,2.229,0,0,1,.688,2.109l-.978,7.481a3.193,3.193,0,0,1-1.433,1.994,3.293,3.293,0,0,1-2.456.772l-3.815-.434a23.728,23.728,0,0,1-3.234-.748q-1.29-.324-2.044-2.445-.368-1.125.237-5.183a38.463,38.463,0,0,1,.884-4.149q.078-.52.96-1.06a2.3,2.3,0,0,1,1.407-.46,40.535,40.535,0,0,1,4.2.557Q587.893,173.554,588.679,173.67Z" transform="translate(-574.133 -102.959)" fill="#acbdcf"/>
  </g>
  <g id="Group_2928" data-name="Group 2928" transform="translate(248.205 13.102)">
    <path id="Path_25877" data-name="Path 25877" d="M404.167,134.07l-2.7-2.144q-1.944-1.565-2.66-2.019a4.767,4.767,0,0,1-1.91-2.28,3.775,3.775,0,0,1-.024-2.092,16.293,16.293,0,0,1,.726-2.352,47.167,47.167,0,0,1,6.747-11.651q4.183-5.3,12.731-8.121a15.523,15.523,0,0,1,10.879-.129,21.678,21.678,0,0,1,8.224,5.344,18.26,18.26,0,0,1,4.087,5.937,21.973,21.973,0,0,1,.84,12.733,24.277,24.277,0,0,1-4.988,10.061q-3.489,4.081-4.147,5.008a6.611,6.611,0,0,0-1.275,3.593,8.659,8.659,0,0,0,.229,3.492l2.637,7.208a4.244,4.244,0,0,1,.37,2.884,2.161,2.161,0,0,1-1.363,1.523l-7.834,2.855q-2.337.529-3.373-2.053-2.411-5.748-3.147-7.873-3.56-10.669,9.357-26.35a6.476,6.476,0,0,0,1.321-3.259,7.632,7.632,0,0,0-.313-3.532,12.042,12.042,0,0,0-3.036-3.71,5.264,5.264,0,0,0-5.262-.837q-3.253,1.127-7.077,6.862a88.38,88.38,0,0,0-5.949,10.115,2,2,0,0,1-3.087.789ZM436.633,172.4a3.864,3.864,0,0,1,2.28-.089,2.231,2.231,0,0,1,1.587,1.551l2.6,7.084a3.2,3.2,0,0,1-.348,2.431,3.294,3.294,0,0,1-1.821,1.821l-3.583,1.382a23.751,23.751,0,0,1-3.212.833q-1.293.31-2.943-1.221-.848-.826-2.191-4.7a38.562,38.562,0,0,1-1.135-4.088,1.761,1.761,0,0,1,.36-1.385,2.3,2.3,0,0,1,1.034-1.058,40.377,40.377,0,0,1,3.979-1.449Q435.883,172.662,436.633,172.4Z" transform="translate(-396.734 -102.36)" fill="#acbdcf"/>
  </g>
  <g id="Group_2929" data-name="Group 2929" transform="translate(101.946 15.017)">
    <path id="Path_25878" data-name="Path 25878" d="M556.41,176.939a8.856,8.856,0,0,0,.041-2.593,1.042,1.042,0,0,0-.81-.812,27.091,27.091,0,0,0-2.839-.377q-.9-.036-3.111-.063a23.4,23.4,0,0,1-4.008-.36,2.446,2.446,0,0,0-1.759.187,2.85,2.85,0,0,0-.657,1.79,34.69,34.69,0,0,1-.273,3.492l-.284,3.751a5.3,5.3,0,0,0,.526,2.941,2.066,2.066,0,0,0,1.774,1.047c.518.021,1.316.1,2.391.227s2.349.227,3.816.287l2.206-.039a2.434,2.434,0,0,0,2.564-2.361l.138-3.368Q556.232,178.1,556.41,176.939Zm-8.026-72.992q-1.813-.074-1.915,2.386l-1.851,41.835-.373,9.067a4.159,4.159,0,0,0,.25,1.827,2.027,2.027,0,0,0,.612.868,1.135,1.135,0,0,0,.446.213l9.974.411a1.243,1.243,0,0,0,1.2-.793,4.413,4.413,0,0,0,.466-1.862q1.75-42.486,1.966-50.913.107-2.59-2.615-2.7-2.065-.212-4.855-.264T548.384,103.947Z" transform="translate(-542.7 -103.945)" fill="#acbdcf"/>
  </g>
  <g id="Group_2930" data-name="Group 2930" transform="translate(199.29 33.575)">
    <path id="Path_25879" data-name="Path 25879" d="M469.959,192.767a8.878,8.878,0,0,0,.307-2.576,1.043,1.043,0,0,0-.723-.89,27.616,27.616,0,0,0-2.786-.664q-.9-.129-3.089-.38a23.471,23.471,0,0,1-3.949-.766,2.44,2.44,0,0,0-1.769.006,2.844,2.844,0,0,0-.837,1.714,34.555,34.555,0,0,1-.628,3.445l-.665,3.7a5.29,5.29,0,0,0,.225,2.979,2.061,2.061,0,0,0,1.657,1.222q.77.11,2.355.471t3.767.674l2.2.187a2.432,2.432,0,0,0,2.791-2.087l.481-3.335Q469.665,193.9,469.959,192.767Zm-.534-73.43q-1.8-.259-2.15,2.179l-6.111,41.427-1.3,8.982a4.15,4.15,0,0,0,.062,1.843,2.032,2.032,0,0,0,.52.926,1.149,1.149,0,0,0,.421.257l9.881,1.426a1.244,1.244,0,0,0,1.274-.667,4.413,4.413,0,0,0,.655-1.805q6.074-42.085,7.15-50.446.371-2.565-2.325-2.955-2.032-.422-4.8-.758T469.426,119.337Z" transform="translate(-455.72 -119.312)" fill="#acbdcf"/>
  </g>
</svg>
