<svg xmlns="http://www.w3.org/2000/svg" width="274.324" height="763.323" viewBox="0 0 274.324 763.323">
  <g id="Group_3103" data-name="Group 3103" transform="translate(-1028.8 -106.726)">
    <g id="Group_2947" data-name="Group 2947" transform="translate(1028.8 229.493)">
      <path id="Path_25880" data-name="Path 25880" d="M1085.591,615.555c-.732,31.443,7.792,130.93,8.286,139.012,2.538.339,18.051-4.017,25.549-5.349-.774-4.861.507-20.8.388-24.419-.371-11.2,9.112-116.92,8-129.02s3.845-39.93,5.7-52.479-54.421,1.793-54.421,1.793C1084.645,588.116,1086.331,583.737,1085.591,615.555Z" transform="translate(-1018.508 -141.21)" fill="#e8a56d"/>
      <path id="Path_25881" data-name="Path 25881" d="M1137.928,623.159c-.849,12.121,10.036,96.337,9.666,107.54a108.513,108.513,0,0,1-1.41,12.166c9.759-1.372,19.459-3.216,29.239-4.378,1.124-12.915,10-102.707,9.3-132.539-.74-31.819,7.046-64.555,12.6-107.576,0,0-65.28,38.283-63.429,50.83S1140.3,589.371,1137.928,623.159Z" transform="translate(-1007.301 -149.35)" fill="#e8a56d"/>
      <path id="Path_25882" data-name="Path 25882" d="M1135.276,321.014c-11.474,2.69-4.662,2.51-21.515,3.407s-49.127-5.916-52.712-6.275-17-.62-28.045,16.991,2.406,42.175,9.039,46.658,21.335.179,29.763,2.868,11.654,5.738,12.909,5.738S1071.09,572.384,1072.7,589.058s33.69-3.227,52.615-2.151,32.773,12.295,48.44,8.837,53.211-3.458,57.03-5.073-3.308-184.493-2.7-188.8,12.08-16.315,14.948-15.958,22.592-3.048,32.453-8.785,21.064-11.6,19.079-27.238-42.693-31.942-44.423-31.846-10.515,6.371-18.225,4.579-16.526.179-25.117,1.793-25.624-1.972-30.464-1.613S1135.276,321.014,1135.276,321.014Z" transform="translate(-1028.8 -186.25)" fill="#f1404c"/>
      <path id="Path_25883" data-name="Path 25883" d="M1123.265,297.772c1.345,9.95,4.66,26.708-10.881,31.331-9.8,2.916,17.124,33.753,29.169,35.1s42.634-30.645,32.99-32.99c-13.268-3.227-11.937-15.838-10.4-36.2S1123.265,297.772,1123.265,297.772Z" transform="translate(-1012.127 -192.681)" fill="#db9663"/>
      <path id="Path_25884" data-name="Path 25884" d="M1161.064,314.69c-.255-5.394.293-11.982.875-19.682,1.538-20.364-40.879,2.765-40.879,2.765.375,2.771.89,6.074,1.12,9.491C1133.326,318.609,1147.227,320.853,1161.064,314.69Z" transform="translate(-1009.921 -192.681)" fill="#7c2e13"/>
      <g id="Group_2933" data-name="Group 2933" transform="translate(50.144 0)">
        <path id="Path_25885" data-name="Path 25885" d="M1105.93,267.641c-3.323-1.208-4.662,1.388-5.356,6.942s2.282,17.853,4.265,20.233,3.968,0,3.968,0,14.728,30.25,36.076,29.158,35.63-29.853,35.63-29.853,1.984,2.083,4.166.794,5.428-9.62,6.681-16.265,1.05-10.965-1.126-11.507-3.671,1.686-3.671,1.686,1.687-20.529-3.471-26.579-46.119-18.646-53.161-16.861-18.744,9.62-22.513,12.992S1105.93,267.641,1105.93,267.641Z" transform="translate(-1064.277 -205.246)" fill="#db9663"/>
        <path id="Path_25886" data-name="Path 25886" d="M1143.8,210.114c-3.972-.453-14.872-1.135-25.39,5.553-13.728,8.728-16.628,23.537-17.456,27.77a50.773,50.773,0,0,0,1.977,25.786s3.527-.371,4.916,2.232c1.261,2.364,5.133-.148,5.951-.67,0,0-3.57-7.81-4.611-14.505s-.372-10.414-.372-10.414a55.838,55.838,0,0,0,3.644,14.506c2.9,6.769,3.72,8.032,4.24,8.4s11.629-6.1,13.017-6.992c-6.942-12-5.157-25.39-5.157-25.39s3.174,13.587,8.53,20.133c3.774,4.614,9.232,8.283,10.215,7.439.528-.453-.423-2.043-2.678-8.232-2.38-6.532-2.095-6.881-1.984-6.942.678-.376,3.166,5.412,9.224,9.819,4.914,3.575,10.307,4.881,10.712,4.166.3-.526-2.249-1.9-4.959-5.752-1.65-2.348-3.3-5.533-2.777-5.951.581-.461,3.326,2.82,7.637,6.248,5.146,4.093,17.654,9.521,18.646,8.529,1.123-1.122.336-3.928-.3-8.331-1.159-8.057-3.964-13.6-3.768-13.686s3.5,5.376,6.942,14.282c3.491,9.026,3.692,12.7,5.257,12.793,2.59.155,6.121-9.672,6.645-18.844a40.784,40.784,0,0,0-5.653-24.2c-1.189-1.944-8.8-13.958-24.1-17.753-6.268-1.555-11.906-2.03-15.076-.7A7.831,7.831,0,0,1,1143.8,210.114Z" transform="translate(-1064.354 -208.639)" fill="#333"/>
        <path id="Path_25887" data-name="Path 25887" d="M1110.64,229.34c-11.768-2.365-21.279-.029-25.716,1.858a21.538,21.538,0,0,0-5.823,3.795c-5.8,4.762,3.72,1.042,4.166,1.637s-5.5,3.72-10.265,12.348-1.933,11.158.6,8.034-.15,4.463.446,11.754,3.273,15.323,3.868,15.62.6-10.86,1.785-10.414.3,7.886,5.208,17.406,13.092,9.076,13.092,9.076A33.475,33.475,0,0,1,1090.7,289c-2.38-6.7-1.338-11.6-.893-8.926s4.017,6.842,6.249,7.884-1.041-6.4-2.529-10.712,0-13.092,0-10.116,5.206,7.736,5.951,8.034a.116.116,0,0,0,.082.006c.6-.225-2.213-6.962-2.909-13.544a29.239,29.239,0,0,1,2.53-16.217,22.6,22.6,0,0,1,7.884-9.52c4.559-2.954,9.1-3.073,9.076-4.315C1116.138,231.284,1115.875,230.39,1110.64,229.34Z" transform="translate(-1070.426 -204.607)" fill="#333"/>
        <path id="Path_25888" data-name="Path 25888" d="M1175.934,238.564c.338,2.385,6.763.85,11.9,6.1,4.9,5,5.165,12.629,5.208,13.836.2,5.692-1.843,9.549-.892,9.967.859.378,3.273-2.449,4.611-5.356,1.154-2.5,1.164-4.322,1.488-4.314.552.012,1.149,5.3,1.19,12.943.076,14.1-1.805,23.275-.743,23.506.677.147,2.048-3.458,2.826-5.5,2.03-5.34,2.339-8.962,2.678-8.928.448.048.435,6.438-.3,13.985-.707,7.286-1.568,10.328-.892,10.563,1.014.353,4.575-5.93,6.7-12.347a60.232,60.232,0,0,0,2.826-16.217c.147-4.812-.359-7.793.148-7.884.684-.124,2.57,5.1,3.422,10.562.8,5.151.33,8.254.892,8.331.713.1,2.335-4.764,2.826-9.819a30.447,30.447,0,0,0-1.041-12.347c-2.556-8.2-7.183-12.185-6.7-12.646.559-.526,6.1,5.753,7.141,4.91.694-.561-1.316-4.456-3.421-7.439-3.621-5.127-7.706-7.806-7.438-8.183.369-.52,7.824,5.047,8.777,4.017.791-.855-2.755-6.4-7.884-10.266a26.07,26.07,0,0,0-14.728-5.5C1184.97,230.18,1175.516,235.606,1175.934,238.564Z" transform="translate(-1048.838 -204.162)" fill="#333"/>
        <path id="Path_25889" data-name="Path 25889" d="M1126.039,264.6c0-2.3-1.465-4.164-3.273-4.164s-3.273,1.865-3.273,4.164,1.466,4.167,3.273,4.167S1126.039,266.9,1126.039,264.6Z" transform="translate(-1060.385 -198.039)" fill="#1a1a1a"/>
        <path id="Path_25890" data-name="Path 25890" d="M1157.285,264.6c0-2.3-1.466-4.164-3.273-4.164s-3.273,1.865-3.273,4.164,1.465,4.167,3.273,4.167S1157.285,266.9,1157.285,264.6Z" transform="translate(-1053.991 -198.039)" fill="#1a1a1a"/>
        <path id="Path_25891" data-name="Path 25891" d="M1139.363,278.369a13.376,13.376,0,0,1-5.04-1.012,1.165,1.165,0,1,1,.871-2.161,9.755,9.755,0,0,0,7.925.06,1.166,1.166,0,1,1,1.129,2.041A10.757,10.757,0,0,1,1139.363,278.369Z" transform="translate(-1057.5 -195.037)" fill="#d8874a"/>
        <path id="Path_25892" data-name="Path 25892" d="M1171.389,266.221c-.2,5.923-2.579,13.659-2.579,14.056s5.059-3.074,5.257-7.935S1171.389,266.221,1171.389,266.221Z" transform="translate(-1050.293 -196.856)" fill="#d8874a"/>
        <path id="Path_25893" data-name="Path 25893" d="M1106.407,267.351c-.258,5.921,1.52,13.816,1.49,14.212s-4.807-3.455-4.631-8.316S1106.407,267.351,1106.407,267.351Z" transform="translate(-1063.706 -196.624)" fill="#d8874a"/>
        <g id="Group_2932" data-name="Group 2932" transform="translate(73.275 92.425)">
          <path id="Path_25894" data-name="Path 25894" d="M1148.355,286.378a7.731,7.731,0,0,0-1.938-.463,37.411,37.411,0,0,0-6.319-.552c-1.915.016-4.711.247-6.427,1.19-3.067,1.684-2.88,6.174-1.292,8.724-.062-.1.525-.389.574-.422a70.2,70.2,0,0,1,8.78-4.676c1.513-.691,3.042-1.349,4.575-1.992C1146.72,288.014,1149.838,287.128,1148.355,286.378Z" transform="translate(-1131.254 -285.363)" fill="#fff"/>
        </g>
      </g>
      <path id="Path_25895" data-name="Path 25895" d="M1252.242,333.617c1.594,2.684,8.6,14.488,3.586,26.177a23.493,23.493,0,0,1-10.22,11.116c-7.932,4.244-18.313,3.6-24.923-1.435-7.023-5.352-7.551-14.445-8.606-32.631-.725-12.513-1.089-18.768,2.331-21.516C1221.981,309.248,1243.139,318.286,1252.242,333.617Z" transform="translate(-991.394 -187.198)" fill="#7c2e13"/>
      <path id="Path_25896" data-name="Path 25896" d="M1072.6,360.728c7.228-11.254,8.8-21.916,9.682-28.374.482-3.525.958-7.048,1.273-10.414-11.152-1.684-20.748-3.609-22.609-3.795-3.586-.359-17-.62-28.045,16.991a27.017,27.017,0,0,0-3.549,8.919,63.06,63.06,0,0,0,3.041,19.9c2.9,9.967,7,12.718,8.876,13.716a15.435,15.435,0,0,0,8.337,1.613C1061.161,378.531,1069.019,366.3,1072.6,360.728Z" transform="translate(-1028.692 -186.25)" fill="#7c2e13"/>
      <path id="Path_25897" data-name="Path 25897" d="M1196.821,398.056a1.056,1.056,0,0,1-1-.718c-6.419-18.993-8.636-43.567-8.657-43.812a1.054,1.054,0,1,1,2.1-.184c.021.243,2.216,24.571,8.554,43.323a1.053,1.053,0,0,1-.661,1.335A1.026,1.026,0,0,1,1196.821,398.056Z" transform="translate(-996.394 -179.225)" fill="#7c2e13"/>
      <path id="Path_25898" data-name="Path 25898" d="M1073.238,361.155a1.052,1.052,0,0,1-1.011-1.349c.063-.217,6.223-21.854-2.555-38.469a1.053,1.053,0,0,1,1.862-.984c9.184,17.382,2.983,39.128,2.714,40.044A1.053,1.053,0,0,1,1073.238,361.155Z" transform="translate(-1020.461 -185.893)" fill="#7c2e13"/>
      <path id="Path_25899" data-name="Path 25899" d="M1212.436,370.02a1.056,1.056,0,0,1-.914-.525c-4.115-7.113-6.435-27.163-.088-46.31a1.053,1.053,0,1,1,2,.664c-6.152,18.56-4,37.822-.087,44.591a1.052,1.052,0,0,1-.911,1.58Z" transform="translate(-992.231 -185.346)" fill="#7c2e13"/>
      <path id="Path_25900" data-name="Path 25900" d="M1188.216,340.98a1.076,1.076,0,0,1-.238-.027,1.055,1.055,0,0,1-.789-1.264c.1-.441,2.564-10.871,8.9-16.934a1.053,1.053,0,1,1,1.456,1.521c-5.88,5.623-8.284,15.783-8.307,15.887A1.056,1.056,0,0,1,1188.216,340.98Z" transform="translate(-996.394 -185.346)" fill="#7c2e13"/>
      <path id="Path_25901" data-name="Path 25901" d="M1089.583,350.876a1.037,1.037,0,0,1-.263-.033,1.053,1.053,0,0,1-.76-1.281c.036-.143,3.583-14.335.03-24.123a1.054,1.054,0,0,1,1.982-.72c3.777,10.406.184,24.759.029,25.364A1.052,1.052,0,0,1,1089.583,350.876Z" transform="translate(-1016.578 -185.027)" fill="#7c2e13"/>
      <path id="Path_25902" data-name="Path 25902" d="M1074.636,388.657a1.04,1.04,0,0,1-.6-.189,1.052,1.052,0,0,1-.265-1.466,101.288,101.288,0,0,0,12.961-26.05,1.053,1.053,0,1,1,2.021.59A103.438,103.438,0,0,1,1075.5,388.2,1.051,1.051,0,0,1,1074.636,388.657Z" transform="translate(-1019.635 -177.626)" fill="#7c2e13"/>
      <g id="Group_2934" data-name="Group 2934" transform="translate(0.491 19.512)">
        <path id="Path_25903" data-name="Path 25903" d="M1152.567,266.53c-3.05-8.39-9.216-13.32-14.621-12.714a22.29,22.29,0,0,0-9.7,3.808s-.381-7.818,1.911-11.5,5.432-4.91,8.437-6.144,10.4-.956,10.265-4.594-4.807-3.679-7.2-3.23-7.521.93-9.427,1.531,3.7-1.7,2.663-5.238-3.94-2.569-7.227-1.078-8.508,4.437-10.782,7.67a24.66,24.66,0,0,0-3.081,5.627,71.51,71.51,0,0,1,.87-8.849c.658-3.2.765-6.071-1.626-6.878s-5.5,3.114-7.313,10.85S1105.3,257.3,1105,265.1s-1.8,14.645-2.953,16.576-63.147,57.312-70.261,74.844,2.218,27.032,6.969,29.542,28.955-6.631,34.819-19.51,17.773-38.628,27.127-48.863,20.726-21.652,23.612-22.082,15.692-6.993,20.949-10.833,10.308-12.936,8.1-15.037-5.517,0-6.952,2.363-5.531,3.964-9.313,4.362-5.962-.694-6.121-3.661a8.25,8.25,0,0,1,4.34-8.113c3.65-2.218,7.3-1.709,8.7,1.2C1146.393,270.817,1153.383,268.774,1152.567,266.53Z" transform="translate(-1029.207 -224.836)" fill="#e8a56d"/>
        <path id="Path_25904" data-name="Path 25904" d="M1117.092,259.177a1.04,1.04,0,0,1-.767-.334c-6.273-6.689-15.975-8.85-18.879-9.08a1.053,1.053,0,1,1,.166-2.1c3.115.246,13.522,2.565,20.249,9.741a1.052,1.052,0,0,1-.769,1.773Z" transform="translate(-1015.441 -220.165)" fill="#d8874a"/>
        <path id="Path_25905" data-name="Path 25905" d="M1106.568,276.329a1.041,1.041,0,0,1-.387-.075,1.054,1.054,0,0,1-.593-1.366c.024-.06,2.335-6.022.434-10.341a1.054,1.054,0,0,1,1.929-.849c2.26,5.133-.294,11.69-.4,11.966A1.055,1.055,0,0,1,1106.568,276.329Z" transform="translate(-1013.592 -217.012)" fill="#d8874a"/>
        <path id="Path_25906" data-name="Path 25906" d="M1110.47,285.345a1.058,1.058,0,0,1-.2-.021,18.945,18.945,0,0,1-8.586-4.525,1.054,1.054,0,0,1,1.458-1.523,16.963,16.963,0,0,0,7.533,3.98,1.054,1.054,0,0,1-.2,2.088Z" transform="translate(-1014.443 -213.755)" fill="#d8874a"/>
      </g>
      <g id="Group_2935" data-name="Group 2935" transform="translate(137.79 18.004)">
        <path id="Path_25907" data-name="Path 25907" d="M1144.33,266.806c2.723-8.5,8.691-13.666,14.116-13.271a22.3,22.3,0,0,1,9.837,3.43s.077-7.828-2.355-11.419-5.618-4.7-8.671-5.811-10.426-.552-10.435-4.193,4.66-3.862,7.064-3.505,7.552.636,9.48,1.164-3.761-1.556-2.864-5.13,3.838-2.721,7.178-1.358,8.674,4.1,11.073,7.246a24.684,24.684,0,0,1,3.3,5.5,71.506,71.506,0,0,0-1.212-8.808c-.782-3.177-1-6.036,1.357-6.936s5.616,2.9,7.73,10.559,1.281,21.48,1.875,29.257,2.371,14.563,3.593,16.448,65.325,54.817,73.115,72.06-1.167,27.1-5.817,29.791-29.19-5.5-35.55-18.143-19.259-37.91-29-47.774-21.551-20.83-24.453-21.148-15.95-6.378-21.353-10.012-10.8-12.527-8.676-14.712,5.512-.219,7.037,2.092,5.681,3.746,9.477,4,5.931-.925,5.973-3.9a8.246,8.246,0,0,0-4.652-7.939c-3.732-2.076-7.363-1.424-8.648,1.537C1150.665,270.851,1143.6,269.081,1144.33,266.806Z" transform="translate(-1143.184 -223.584)" fill="#e8a56d"/>
        <path id="Path_25908" data-name="Path 25908" d="M1162.2,258.625a1.053,1.053,0,0,1-.8-1.742c6.441-7.431,16.75-10.154,19.855-10.521a1.054,1.054,0,0,1,.248,2.092c-2.894.342-12.507,2.88-18.51,9.807A1.049,1.049,0,0,1,1162.2,258.625Z" transform="translate(-1139.507 -218.924)" fill="#d8874a"/>
        <path id="Path_25909" data-name="Path 25909" d="M1170.312,275.352a1.052,1.052,0,0,1-.964-.628c-.119-.271-2.925-6.724-.867-11.94a1.053,1.053,0,1,1,1.96.772c-1.732,4.391.808,10.259.835,10.318a1.055,1.055,0,0,1-.964,1.478Z" transform="translate(-1138.161 -215.699)" fill="#d8874a"/>
        <path id="Path_25910" data-name="Path 25910" d="M1167.917,284.517a1.054,1.054,0,0,1-.245-2.079,17.109,17.109,0,0,0,7.377-4.269,1.053,1.053,0,1,1,1.513,1.464,18.963,18.963,0,0,1-8.4,4.856A1.062,1.062,0,0,1,1167.917,284.517Z" transform="translate(-1138.337 -212.48)" fill="#d8874a"/>
      </g>
      <path id="Path_25911" data-name="Path 25911" d="M1084.487,632.328c27.74,1.792,39.19-.275,39.17,0s-5.033,73.669-5.308,83.129,6.607,18.674,6.607,18.674-40.509,6.18-36.693-.877,2.118-16.322,1.193-33.154C1088.314,679.282,1084.487,632.328,1084.487,632.328Z" transform="translate(-1017.404 -121.944)" fill="#fff3e1"/>
      <g id="Group_2937" data-name="Group 2937" transform="translate(10.682 632.529)">
        <g id="Group_2936" data-name="Group 2936">
          <path id="Path_25912" data-name="Path 25912" d="M1301.309,738.108c.006-5.222-79.067-4.331-152.6-4.331s-111.921-.34-111.023,4.331c.565,2.945,39.48,3.638,113.016,3.638S1301.306,741.436,1301.309,738.108Z" transform="translate(-1037.667 -733.72)" fill="#847895"/>
        </g>
      </g>
      <path id="Path_25913" data-name="Path 25913" d="M1083.667,729c-2.52,4.008-2.792,8.822,1.721,9.281,5.716.583,37.48,2.076,45.232,0,7.234-1.936,1.7-13.249-2.725-11.865S1083.667,729,1083.667,729Z" transform="translate(-1017.942 -102.708)" fill="#fff3e1"/>
      <path id="Path_25914" data-name="Path 25914" d="M1140.038,636.9c11.313,9.682,38.359,2.151,40.51,0s-6.9,81.234-6.358,89.437-33.183,6.623-32.258,1.429,3.347-10.169,2.675-28.457S1140.038,636.9,1140.038,636.9Z" transform="translate(-1006.037 -121.012)" fill="#fff3e1"/>
      <g id="Group_2942" data-name="Group 2942" transform="translate(65.724 600.093)">
        <g id="Group_2940" data-name="Group 2940">
          <g id="Group_2939" data-name="Group 2939">
            <g id="Group_2938" data-name="Group 2938">
              <path id="Path_25915" data-name="Path 25915" d="M1083.694,734.769c.024.072.049.146.079.218a4.04,4.04,0,0,0,.425.825,2.744,2.744,0,0,0,.206.292c1.043,1.306,6.23.919,7.659,1,5.256.311,9.311.428,14.575.471,5.3.043,10.608.017,15.9-.242,1.9-.093,3.81-.2,5.7-.447,2.527-.336,4.261-1.3,4.215-4.3a11.547,11.547,0,0,0-1.194-4.386c-.649-1.478-3.085-6.482-4.312-7.526-.7-.6-7.7-12.3-15.719-13.55a23.325,23.325,0,0,0-24.09,10.885,24.872,24.872,0,0,0-2.5,6.259,49.664,49.664,0,0,0-1.208,5.932A13.118,13.118,0,0,0,1083.694,734.769Z" transform="translate(-1083.359 -706.794)" fill="#fc9081"/>
            </g>
          </g>
        </g>
        <g id="Group_2941" data-name="Group 2941" transform="translate(25.24 12.095)">
          <path id="Path_25916" data-name="Path 25916" d="M1105.417,716.839a58.826,58.826,0,0,1,13.427,2.173c2.514.814,5.876,1.7,7.067,4.163.61,1.26-1.377,2.363-1.991,1.094-1.095-2.262-5.347-3.143-7.675-3.749a63.59,63.59,0,0,0-10.828-1.514C1103.951,718.885,1103.937,716.716,1105.417,716.839Z" transform="translate(-1104.312 -716.834)" fill="#e86f64"/>
        </g>
      </g>
      <g id="Group_2945" data-name="Group 2945" transform="translate(132.994 596.435)">
        <g id="Group_2944" data-name="Group 2944">
          <g id="Group_2943" data-name="Group 2943">
            <path id="Path_25917" data-name="Path 25917" d="M1139.339,728.56c.734-4.521.4-10.008,3.078-15.127,6.593,3.022,9.853,5.215,16.647,1.712,3.876-2,5.745-5.628,8.589-8.72,2.173-2.362,4.651-2.73,7.347-2.66a12.124,12.124,0,0,1,7.674,3,70.034,70.034,0,0,0,17.8,11.362c9.823,4.044,17.913,5.777,20.224,10.978a8.927,8.927,0,0,1,1.052,4.155c-.134,1.417-1.151,1.849-2.208,2.2-1.733.578-71.328,3.467-77.684,0C1139.773,734.321,1138.825,731.761,1139.339,728.56Z" transform="translate(-1139.202 -703.758)" fill="#fc9081"/>
          </g>
        </g>
      </g>
      <g id="Group_2946" data-name="Group 2946" transform="translate(177.424 611.56)">
        <path id="Path_25918" data-name="Path 25918" d="M1177.257,717.478c7.763-.2,15.516-2.41,23.172-.166a1.215,1.215,0,0,1-.646,2.342c-7.406-2.171-15.013.06-22.527.253A1.215,1.215,0,0,1,1177.257,717.478Z" transform="translate(-1176.085 -716.313)" fill="#e86f64"/>
      </g>
      <path id="Path_25919" data-name="Path 25919" d="M1139.933,726.361c-4.145,7.393-2.581,10.973-1.383,11.8s81.326.5,84.092-.489,2.343-9.353-.488-9.042S1139.933,726.361,1139.933,726.361Z" transform="translate(-1006.61 -102.697)" fill="#fff3e1"/>
    </g>
    <g id="Group_2950" data-name="Group 2950" transform="translate(1118.12 106.726)">
      <g id="Group_2948" data-name="Group 2948">
        <path id="Path_25920" data-name="Path 25920" d="M1108.2,134.007l-2.043-3.21q-1.458-2.329-2.042-3.062a5.25,5.25,0,0,1-1.166-3.063,4.165,4.165,0,0,1,.729-2.188,18.1,18.1,0,0,1,1.6-2.188,51.988,51.988,0,0,1,11.231-9.7q6.27-4.01,16.19-3.866a17.112,17.112,0,0,1,11.376,3.792,23.893,23.893,0,0,1,6.636,8.534,20.124,20.124,0,0,1,2.115,7.657,24.227,24.227,0,0,1-3.72,13.565,26.757,26.757,0,0,1-8.824,8.678q-5.107,2.99-6.126,3.72a7.275,7.275,0,0,0-2.626,3.281,9.568,9.568,0,0,0-1.02,3.719l.146,8.46a4.672,4.672,0,0,1-.656,3.136,2.382,2.382,0,0,1-1.97,1.1l-9.189.146q-2.624-.293-2.771-3.355-.437-6.856-.437-9.335.143-12.4,19.252-24.067a7.152,7.152,0,0,0,2.553-2.916,8.421,8.421,0,0,0,.948-3.792,13.236,13.236,0,0,0-1.824-4.959,5.8,5.8,0,0,0-5.177-2.771q-3.795,0-9.845,4.593a97.5,97.5,0,0,0-9.845,8.387,2.205,2.205,0,0,1-3.5-.29Zm19.983,51.632a4.252,4.252,0,0,1,2.406.73,2.456,2.456,0,0,1,1.094,2.188l.147,8.314a3.522,3.522,0,0,1-1.241,2.407,3.632,3.632,0,0,1-2.553,1.24l-4.229.146a26.33,26.33,0,0,1-3.646-.292q-1.46-.145-2.625-2.335-.586-1.166-.584-5.688a42.3,42.3,0,0,1,.293-4.667q0-.582.875-1.313a2.537,2.537,0,0,1,1.459-.73,44.754,44.754,0,0,1,4.667-.072C1126.283,185.617,1127.6,185.639,1128.18,185.639Z" transform="translate(-1102.947 -106.726)" fill="#ef404c"/>
      </g>
      <g id="Group_2949" data-name="Group 2949" transform="translate(64.335 13.193)">
        <path id="Path_25921" data-name="Path 25921" d="M1157.61,177.487a7.584,7.584,0,0,1,.535-2.139.885.885,0,0,1,.843-.489,23.292,23.292,0,0,1,2.415.314q.752.168,2.57.631a20.031,20.031,0,0,0,3.372.584,2.069,2.069,0,0,1,1.4.54,2.41,2.41,0,0,1,.147,1.614,29.414,29.414,0,0,0-.541,2.928l-.59,3.144a4.516,4.516,0,0,1-1.079,2.3,1.752,1.752,0,0,1-1.687.47q-.645-.143-2.014-.337t-3.2-.6l-1.8-.517a2.069,2.069,0,0,1-1.588-2.5l.625-2.8Q1157.5,178.481,1157.61,177.487Zm22.615-58.2q1.5.338,1.048,2.382l-7.661,34.77-1.684,7.53a3.519,3.519,0,0,1-.6,1.446,1.716,1.716,0,0,1-.7.579.964.964,0,0,1-.412.077l-8.283-1.852a1.058,1.058,0,0,1-.812-.916,3.76,3.76,0,0,1,.025-1.632q7.889-35.284,9.561-42.254a2,2,0,0,1,2.74-1.647q1.742.278,4.045.848T1180.225,119.289Z" transform="translate(-1156.353 -117.678)" fill="#ef404c"/>
      </g>
    </g>
  </g>
</svg>
