<svg xmlns="http://www.w3.org/2000/svg" xmlns:xlink="http://www.w3.org/1999/xlink" width="73.215" height="84.626" viewBox="0 0 73.215 84.626">
  <defs>
    <clipPath id="clip-path">
      <ellipse id="Ellipse_200" data-name="Ellipse 200" cx="22.347" cy="22.347" rx="22.347" ry="22.347" transform="translate(0 0)" fill="rgba(176,120,249,0.8)" stroke="#fff" stroke-width="1"/>
    </clipPath>
    <clipPath id="clip-path-2">
      <ellipse id="Ellipse_202" data-name="Ellipse 202" cx="18.69" cy="18.69" rx="18.69" ry="18.69" transform="translate(0 0)" fill="rgba(176,120,249,0.8)" stroke="#fff" stroke-width="1"/>
    </clipPath>
  </defs>
  <g id="Group_3527" data-name="Group 3527" transform="translate(0 0.343)">
    <path id="Path_27203" data-name="Path 27203" d="M33.695,0A33.695,33.695,0,1,1,0,33.695,33.695,33.695,0,0,1,33.695,0Z" transform="translate(5.66)" fill="rgba(34,249,206,0.54)"/>
    <g id="Mask_Group_30" data-name="Mask Group 30" transform="matrix(0.914, 0.407, -0.407, 0.914, 18.178, 25.277)" clip-path="url(#clip-path)">
      <g id="Ellipse_199" data-name="Ellipse 199" transform="translate(-0.813 -15.439)" fill="none" stroke="#fff" stroke-width="1">
        <ellipse cx="22.347" cy="22.347" rx="22.347" ry="22.347" stroke="none"/>
        <ellipse cx="22.347" cy="22.347" rx="21.847" ry="21.847" fill="none"/>
      </g>
    </g>
    <g id="Mask_Group_31" data-name="Mask Group 31" transform="matrix(0.914, 0.407, -0.407, 0.914, 21.809, 25.114)" clip-path="url(#clip-path-2)">
      <g id="Ellipse_201" data-name="Ellipse 201" transform="translate(-0.813 -13.002)" fill="none" stroke="#fff" stroke-width="1">
        <ellipse cx="19.096" cy="18.69" rx="19.096" ry="18.69" stroke="none"/>
        <ellipse cx="19.096" cy="18.69" rx="18.596" ry="18.19" fill="none"/>
      </g>
    </g>
    <text id="_10" data-name="10" transform="translate(25.215 41.657)" fill="#7e7e7e" font-size="46" font-family="ProximaNova-Bold, Proxima Nova" font-weight="700"><tspan x="0" y="0">10</tspan></text>
  </g>
</svg>
